{
  "track_name": "52 - A New Dawn",
  "duration_sec": 205.0,
  "sample_rate": 44100,
  "note_count": 1664,
  "unique_pitches": 39,
  "pitch_range": 60,
  "avg_note_duration": 0.3557,
  "reconstruction_stats": {
    "notes_reconstructed": 1664,
    "keyon_events": 1664,
    "keyoff_events": 1664,
    "orphan_keyons": 0,
    "unique_pitches": 39,
    "pitch_range": 60,
    "avg_duration_sec": 0.3557
  },
  "metadata": {
    "source": "P\\Pier Solar and the Great Architects\\52 - A New Dawn.vgz"
  },
  "notes": [
    {
      "channel": 1,
      "note": 58,
      "start": 0.1207,
      "duration": 0.2366,
      "velocity": 92,
      "chip": "ym2612"
    },
    {
      "channel": 3,
      "note": 58,
      "start": 0.2399,
      "duration": 0.2364,
      "velocity": 92,
      "chip": "ym2612"
    },
    {
      "channel": 1,
      "note": 70,
      "start": 0.3573,
      "duration": 0.2377,
      "velocity": 92,
      "chip": "ym2612"
    },
    {
      "channel": 3,
      "note": 70,
      "start": 0.4764,
      "duration": 0.2378,
      "velocity": 92,
      "chip": "ym2612"
    },
    {
      "channel": 1,
      "note": 65,
      "start": 0.5952,
      "duration": 0.2378,
      "velocity": 92,
      "chip": "ym2612"
    },
    {
      "channel": 3,
      "note": 65,
      "start": 0.7143,
      "duration": 0.2379,
      "velocity": 92,
      "chip": "ym2612"
    },
    {
      "channel": 1,
      "note": 77,
      "start": 0.8331,
      "duration": 0.2378,
      "velocity": 92,
      "chip": "ym2612"
    },
    {
      "channel": 3,
      "note": 77,
      "start": 0.9524,
      "duration": 0.2376,
      "velocity": 92,
      "chip": "ym2612"
    },
    {
      "channel": 1,
      "note": 70,
      "start": 1.071,
      "duration": 0.2378,
      "velocity": 92,
      "chip": "ym2612"
    },
    {
      "channel": 3,
      "note": 70,
      "start": 1.1901,
      "duration": 0.2378,
      "velocity": 92,
      "chip": "ym2612"
    },
    {
      "channel": 1,
      "note": 82,
      "start": 1.309,
      "duration": 0.2377,
      "velocity": 92,
      "chip": "ym2612"
    },
    {
      "channel": 3,
      "note": 82,
      "start": 1.428,
      "duration": 0.2378,
      "velocity": 92,
      "chip": "ym2612"
    },
    {
      "channel": 1,
      "note": 77,
      "start": 1.5468,
      "duration": 0.2377,
      "velocity": 92,
      "chip": "ym2612"
    },
    {
      "channel": 3,
      "note": 77,
      "start": 1.6659,
      "duration": 0.2378,
      "velocity": 92,
      "chip": "ym2612"
    },
    {
      "channel": 1,
      "note": 89,
      "start": 1.7847,
      "duration": 0.2377,
      "velocity": 92,
      "chip": "ym2612"
    },
    {
      "channel": 3,
      "note": 89,
      "start": 1.9038,
      "duration": 0.2378,
      "velocity": 92,
      "chip": "ym2612"
    },
    {
      "channel": 1,
      "note": 58,
      "start": 2.0226,
      "duration": 0.2377,
      "velocity": 92,
      "chip": "ym2612"
    },
    {
      "channel": 3,
      "note": 58,
      "start": 2.1417,
      "duration": 0.2377,
      "velocity": 92,
      "chip": "ym2612"
    },
    {
      "channel": 1,
      "note": 70,
      "start": 2.2605,
      "duration": 0.2378,
      "velocity": 92,
      "chip": "ym2612"
    },
    {
      "channel": 3,
      "note": 70,
      "start": 2.3796,
      "duration": 0.2377,
      "velocity": 92,
      "chip": "ym2612"
    },
    {
      "channel": 1,
      "note": 65,
      "start": 2.4984,
      "duration": 0.2378,
      "velocity": 92,
      "chip": "ym2612"
    },
    {
      "channel": 3,
      "note": 65,
      "start": 2.6175,
      "duration": 0.2379,
      "velocity": 92,
      "chip": "ym2612"
    },
    {
      "channel": 1,
      "note": 77,
      "start": 2.7363,
      "duration": 0.2378,
      "velocity": 92,
      "chip": "ym2612"
    },
    {
      "channel": 3,
      "note": 77,
      "start": 2.8555,
      "duration": 0.2376,
      "velocity": 92,
      "chip": "ym2612"
    },
    {
      "channel": 1,
      "note": 70,
      "start": 2.9742,
      "duration": 0.2378,
      "velocity": 92,
      "chip": "ym2612"
    },
    {
      "channel": 3,
      "note": 70,
      "start": 3.0933,
      "duration": 0.2378,
      "velocity": 92,
      "chip": "ym2612"
    },
    {
      "channel": 1,
      "note": 82,
      "start": 3.2121,
      "duration": 0.2378,
      "velocity": 92,
      "chip": "ym2612"
    },
    {
      "channel": 3,
      "note": 82,
      "start": 3.3312,
      "duration": 0.2378,
      "velocity": 92,
      "chip": "ym2612"
    },
    {
      "channel": 1,
      "note": 77,
      "start": 3.45,
      "duration": 0.2378,
      "velocity": 92,
      "chip": "ym2612"
    },
    {
      "channel": 3,
      "note": 77,
      "start": 3.5691,
      "duration": 0.2378,
      "velocity": 92,
      "chip": "ym2612"
    },
    {
      "channel": 1,
      "note": 89,
      "start": 3.6879,
      "duration": 0.2377,
      "velocity": 92,
      "chip": "ym2612"
    },
    {
      "channel": 3,
      "note": 89,
      "start": 3.807,
      "duration": 0.2378,
      "velocity": 92,
      "chip": "ym2612"
    },
    {
      "channel": 1,
      "note": 58,
      "start": 3.9258,
      "duration": 0.2378,
      "velocity": 92,
      "chip": "ym2612"
    },
    {
      "channel": 4,
      "note": 46,
      "start": 3.9262,
      "duration": 3.8066,
      "velocity": 114,
      "chip": "ym2612"
    },
    {
      "channel": 3,
      "note": 58,
      "start": 4.0449,
      "duration": 0.2377,
      "velocity": 92,
      "chip": "ym2612"
    },
    {
      "channel": 1,
      "note": 70,
      "start": 4.1637,
      "duration": 0.2378,
      "velocity": 92,
      "chip": "ym2612"
    },
    {
      "channel": 3,
      "note": 70,
      "start": 4.2828,
      "duration": 0.2377,
      "velocity": 92,
      "chip": "ym2612"
    },
    {
      "channel": 1,
      "note": 65,
      "start": 4.4016,
      "duration": 0.2378,
      "velocity": 92,
      "chip": "ym2612"
    },
    {
      "channel": 3,
      "note": 65,
      "start": 4.5207,
      "duration": 0.2379,
      "velocity": 92,
      "chip": "ym2612"
    },
    {
      "channel": 1,
      "note": 77,
      "start": 4.6395,
      "duration": 0.2378,
      "velocity": 92,
      "chip": "ym2612"
    },
    {
      "channel": 3,
      "note": 77,
      "start": 4.7587,
      "duration": 0.2376,
      "velocity": 92,
      "chip": "ym2612"
    },
    {
      "channel": 1,
      "note": 70,
      "start": 4.8774,
      "duration": 0.2378,
      "velocity": 92,
      "chip": "ym2612"
    },
    {
      "channel": 3,
      "note": 70,
      "start": 4.9965,
      "duration": 0.2378,
      "velocity": 92,
      "chip": "ym2612"
    },
    {
      "channel": 1,
      "note": 82,
      "start": 5.1153,
      "duration": 0.2378,
      "velocity": 92,
      "chip": "ym2612"
    },
    {
      "channel": 3,
      "note": 82,
      "start": 5.2344,
      "duration": 0.2378,
      "velocity": 92,
      "chip": "ym2612"
    },
    {
      "channel": 1,
      "note": 77,
      "start": 5.3532,
      "duration": 0.2378,
      "velocity": 92,
      "chip": "ym2612"
    },
    {
      "channel": 3,
      "note": 77,
      "start": 5.4722,
      "duration": 0.2378,
      "velocity": 92,
      "chip": "ym2612"
    },
    {
      "channel": 1,
      "note": 89,
      "start": 5.591,
      "duration": 0.2378,
      "velocity": 92,
      "chip": "ym2612"
    },
    {
      "channel": 3,
      "note": 89,
      "start": 5.7101,
      "duration": 0.2378,
      "velocity": 92,
      "chip": "ym2612"
    },
    {
      "channel": 1,
      "note": 58,
      "start": 5.829,
      "duration": 0.2377,
      "velocity": 92,
      "chip": "ym2612"
    },
    {
      "channel": 3,
      "note": 58,
      "start": 5.948,
      "duration": 0.2378,
      "velocity": 92,
      "chip": "ym2612"
    },
    {
      "channel": 1,
      "note": 70,
      "start": 6.0668,
      "duration": 0.2377,
      "velocity": 92,
      "chip": "ym2612"
    },
    {
      "channel": 3,
      "note": 70,
      "start": 6.1859,
      "duration": 0.2378,
      "velocity": 92,
      "chip": "ym2612"
    },
    {
      "channel": 1,
      "note": 65,
      "start": 6.3047,
      "duration": 0.2378,
      "velocity": 92,
      "chip": "ym2612"
    },
    {
      "channel": 3,
      "note": 65,
      "start": 6.4238,
      "duration": 0.2377,
      "velocity": 92,
      "chip": "ym2612"
    },
    {
      "channel": 1,
      "note": 77,
      "start": 6.5426,
      "duration": 0.2378,
      "velocity": 92,
      "chip": "ym2612"
    },
    {
      "channel": 3,
      "note": 77,
      "start": 6.6617,
      "duration": 0.2378,
      "velocity": 92,
      "chip": "ym2612"
    },
    {
      "channel": 1,
      "note": 70,
      "start": 6.7805,
      "duration": 0.2378,
      "velocity": 92,
      "chip": "ym2612"
    },
    {
      "channel": 3,
      "note": 70,
      "start": 6.8996,
      "duration": 0.2378,
      "velocity": 92,
      "chip": "ym2612"
    },
    {
      "channel": 1,
      "note": 82,
      "start": 7.0184,
      "duration": 0.2378,
      "velocity": 92,
      "chip": "ym2612"
    },
    {
      "channel": 3,
      "note": 82,
      "start": 7.1375,
      "duration": 0.2378,
      "velocity": 92,
      "chip": "ym2612"
    },
    {
      "channel": 1,
      "note": 77,
      "start": 7.2563,
      "duration": 0.2377,
      "velocity": 92,
      "chip": "ym2612"
    },
    {
      "channel": 3,
      "note": 77,
      "start": 7.3754,
      "duration": 0.2378,
      "velocity": 92,
      "chip": "ym2612"
    },
    {
      "channel": 1,
      "note": 89,
      "start": 7.4942,
      "duration": 0.238,
      "velocity": 92,
      "chip": "ym2612"
    },
    {
      "channel": 3,
      "note": 89,
      "start": 7.6133,
      "duration": 0.1339,
      "velocity": 92,
      "chip": "ym2612"
    },
    {
      "channel": 0,
      "note": 70,
      "start": 7.7322,
      "duration": 0.6259,
      "velocity": 98,
      "chip": "ym2612"
    },
    {
      "channel": 1,
      "note": 58,
      "start": 7.7326,
      "duration": 0.0276,
      "velocity": 92,
      "chip": "ym2612"
    },
    {
      "channel": 4,
      "note": 58,
      "start": 7.7329,
      "duration": 3.4805,
      "velocity": 114,
      "chip": "ym2612"
    },
    {
      "channel": 2,
      "note": 70,
      "start": 7.7471,
      "duration": 0.73,
      "velocity": 98,
      "chip": "ym2612"
    },
    {
      "channel": 3,
      "note": 58,
      "start": 7.7476,
      "duration": 0.0267,
      "velocity": 92,
      "chip": "ym2612"
    },
    {
      "channel": 1,
      "note": 70,
      "start": 7.7603,
      "duration": 0.122,
      "velocity": 92,
      "chip": "ym2612"
    },
    {
      "channel": 3,
      "note": 70,
      "start": 7.7744,
      "duration": 0.227,
      "velocity": 92,
      "chip": "ym2612"
    },
    {
      "channel": 1,
      "note": 65,
      "start": 7.8825,
      "duration": 0.2378,
      "velocity": 92,
      "chip": "ym2612"
    },
    {
      "channel": 3,
      "note": 65,
      "start": 8.0016,
      "duration": 0.2379,
      "velocity": 92,
      "chip": "ym2612"
    },
    {
      "channel": 1,
      "note": 77,
      "start": 8.1204,
      "duration": 0.2379,
      "velocity": 92,
      "chip": "ym2612"
    },
    {
      "channel": 3,
      "note": 77,
      "start": 8.2396,
      "duration": 0.2378,
      "velocity": 92,
      "chip": "ym2612"
    },
    {
      "channel": 0,
      "note": 70,
      "start": 8.3582,
      "duration": 0.4757,
      "velocity": 98,
      "chip": "ym2612"
    },
    {
      "channel": 1,
      "note": 70,
      "start": 8.3584,
      "duration": 0.2376,
      "velocity": 92,
      "chip": "ym2612"
    },
    {
      "channel": 2,
      "note": 70,
      "start": 8.4773,
      "duration": 0.4757,
      "velocity": 98,
      "chip": "ym2612"
    },
    {
      "channel": 3,
      "note": 70,
      "start": 8.4775,
      "duration": 0.2376,
      "velocity": 92,
      "chip": "ym2612"
    },
    {
      "channel": 1,
      "note": 82,
      "start": 8.5962,
      "duration": 0.2379,
      "velocity": 92,
      "chip": "ym2612"
    },
    {
      "channel": 3,
      "note": 82,
      "start": 8.7153,
      "duration": 0.2379,
      "velocity": 92,
      "chip": "ym2612"
    },
    {
      "channel": 0,
      "note": 72,
      "start": 8.834,
      "duration": 0.4756,
      "velocity": 98,
      "chip": "ym2612"
    },
    {
      "channel": 1,
      "note": 77,
      "start": 8.8342,
      "duration": 0.2376,
      "velocity": 92,
      "chip": "ym2612"
    },
    {
      "channel": 2,
      "note": 72,
      "start": 8.9531,
      "duration": 0.4756,
      "velocity": 98,
      "chip": "ym2612"
    },
    {
      "channel": 3,
      "note": 77,
      "start": 8.9533,
      "duration": 0.2376,
      "velocity": 92,
      "chip": "ym2612"
    },
    {
      "channel": 1,
      "note": 89,
      "start": 9.0719,
      "duration": 0.2379,
      "velocity": 92,
      "chip": "ym2612"
    },
    {
      "channel": 3,
      "note": 89,
      "start": 9.191,
      "duration": 0.238,
      "velocity": 92,
      "chip": "ym2612"
    },
    {
      "channel": 0,
      "note": 77,
      "start": 9.3098,
      "duration": 0.1188,
      "velocity": 98,
      "chip": "ym2612"
    },
    {
      "channel": 1,
      "note": 58,
      "start": 9.31,
      "duration": 0.2376,
      "velocity": 92,
      "chip": "ym2612"
    },
    {
      "channel": 2,
      "note": 77,
      "start": 9.4289,
      "duration": 0.1189,
      "velocity": 98,
      "chip": "ym2612"
    },
    {
      "channel": 3,
      "note": 58,
      "start": 9.4291,
      "duration": 0.2376,
      "velocity": 92,
      "chip": "ym2612"
    },
    {
      "channel": 1,
      "note": 70,
      "start": 9.5477,
      "duration": 0.2379,
      "velocity": 92,
      "chip": "ym2612"
    },
    {
      "channel": 3,
      "note": 70,
      "start": 9.6668,
      "duration": 0.238,
      "velocity": 92,
      "chip": "ym2612"
    },
    {
      "channel": 0,
      "note": 70,
      "start": 9.7856,
      "duration": 0.9514,
      "velocity": 98,
      "chip": "ym2612"
    },
    {
      "channel": 1,
      "note": 65,
      "start": 9.7858,
      "duration": 0.2376,
      "velocity": 92,
      "chip": "ym2612"
    },
    {
      "channel": 2,
      "note": 70,
      "start": 9.9046,
      "duration": 0.9514,
      "velocity": 98,
      "chip": "ym2612"
    },
    {
      "channel": 3,
      "note": 65,
      "start": 9.9049,
      "duration": 0.2376,
      "velocity": 92,
      "chip": "ym2612"
    },
    {
      "channel": 1,
      "note": 77,
      "start": 10.0235,
      "duration": 0.2378,
      "velocity": 92,
      "chip": "ym2612"
    },
    {
      "channel": 3,
      "note": 77,
      "start": 10.1426,
      "duration": 0.2378,
      "velocity": 92,
      "chip": "ym2612"
    },
    {
      "channel": 1,
      "note": 70,
      "start": 10.2614,
      "duration": 0.2378,
      "velocity": 92,
      "chip": "ym2612"
    },
    {
      "channel": 3,
      "note": 70,
      "start": 10.3805,
      "duration": 0.2378,
      "velocity": 92,
      "chip": "ym2612"
    },
    {
      "channel": 1,
      "note": 82,
      "start": 10.4993,
      "duration": 0.2379,
      "velocity": 92,
      "chip": "ym2612"
    },
    {
      "channel": 3,
      "note": 82,
      "start": 10.6184,
      "duration": 0.238,
      "velocity": 92,
      "chip": "ym2612"
    },
    {
      "channel": 0,
      "note": 65,
      "start": 10.7371,
      "duration": 0.4756,
      "velocity": 98,
      "chip": "ym2612"
    },
    {
      "channel": 1,
      "note": 77,
      "start": 10.7374,
      "duration": 0.2376,
      "velocity": 92,
      "chip": "ym2612"
    },
    {
      "channel": 2,
      "note": 65,
      "start": 10.8562,
      "duration": 0.4756,
      "velocity": 98,
      "chip": "ym2612"
    },
    {
      "channel": 3,
      "note": 77,
      "start": 10.8565,
      "duration": 0.2376,
      "velocity": 92,
      "chip": "ym2612"
    },
    {
      "channel": 1,
      "note": 89,
      "start": 10.9751,
      "duration": 0.2379,
      "velocity": 92,
      "chip": "ym2612"
    },
    {
      "channel": 3,
      "note": 89,
      "start": 11.0942,
      "duration": 0.2379,
      "velocity": 92,
      "chip": "ym2612"
    },
    {
      "channel": 0,
      "note": 67,
      "start": 11.2129,
      "duration": 0.9514,
      "velocity": 98,
      "chip": "ym2612"
    },
    {
      "channel": 1,
      "note": 55,
      "start": 11.2132,
      "duration": 0.2376,
      "velocity": 92,
      "chip": "ym2612"
    },
    {
      "channel": 4,
      "note": 55,
      "start": 11.2136,
      "duration": 1.903,
      "velocity": 114,
      "chip": "ym2612"
    },
    {
      "channel": 2,
      "note": 67,
      "start": 11.332,
      "duration": 0.9514,
      "velocity": 98,
      "chip": "ym2612"
    },
    {
      "channel": 3,
      "note": 55,
      "start": 11.3323,
      "duration": 0.2376,
      "velocity": 92,
      "chip": "ym2612"
    },
    {
      "channel": 1,
      "note": 67,
      "start": 11.4509,
      "duration": 0.2378,
      "velocity": 92,
      "chip": "ym2612"
    },
    {
      "channel": 3,
      "note": 67,
      "start": 11.57,
      "duration": 0.2378,
      "velocity": 92,
      "chip": "ym2612"
    },
    {
      "channel": 1,
      "note": 63,
      "start": 11.6888,
      "duration": 0.2378,
      "velocity": 92,
      "chip": "ym2612"
    },
    {
      "channel": 3,
      "note": 63,
      "start": 11.8079,
      "duration": 0.2379,
      "velocity": 92,
      "chip": "ym2612"
    },
    {
      "channel": 1,
      "note": 75,
      "start": 11.9267,
      "duration": 0.2378,
      "velocity": 92,
      "chip": "ym2612"
    },
    {
      "channel": 3,
      "note": 75,
      "start": 12.0459,
      "duration": 0.2376,
      "velocity": 92,
      "chip": "ym2612"
    },
    {
      "channel": 1,
      "note": 67,
      "start": 12.1646,
      "duration": 0.2378,
      "velocity": 92,
      "chip": "ym2612"
    },
    {
      "channel": 3,
      "note": 67,
      "start": 12.2837,
      "duration": 0.2377,
      "velocity": 92,
      "chip": "ym2612"
    },
    {
      "channel": 1,
      "note": 79,
      "start": 12.4025,
      "duration": 0.2379,
      "velocity": 92,
      "chip": "ym2612"
    },
    {
      "channel": 3,
      "note": 79,
      "start": 12.5216,
      "duration": 0.2379,
      "velocity": 92,
      "chip": "ym2612"
    },
    {
      "channel": 0,
      "note": 65,
      "start": 12.6403,
      "duration": 0.2377,
      "velocity": 98,
      "chip": "ym2612"
    },
    {
      "channel": 1,
      "note": 77,
      "start": 12.6406,
      "duration": 0.2376,
      "velocity": 92,
      "chip": "ym2612"
    },
    {
      "channel": 2,
      "note": 65,
      "start": 12.7594,
      "duration": 0.2377,
      "velocity": 98,
      "chip": "ym2612"
    },
    {
      "channel": 3,
      "note": 77,
      "start": 12.7597,
      "duration": 0.2376,
      "velocity": 92,
      "chip": "ym2612"
    },
    {
      "channel": 1,
      "note": 89,
      "start": 12.8783,
      "duration": 0.2379,
      "velocity": 92,
      "chip": "ym2612"
    },
    {
      "channel": 3,
      "note": 89,
      "start": 12.9974,
      "duration": 0.2379,
      "velocity": 92,
      "chip": "ym2612"
    },
    {
      "channel": 0,
      "note": 65,
      "start": 13.1161,
      "duration": 0.9515,
      "velocity": 98,
      "chip": "ym2612"
    },
    {
      "channel": 1,
      "note": 58,
      "start": 13.1163,
      "duration": 0.2376,
      "velocity": 92,
      "chip": "ym2612"
    },
    {
      "channel": 4,
      "note": 53,
      "start": 13.1167,
      "duration": 1.9032,
      "velocity": 114,
      "chip": "ym2612"
    },
    {
      "channel": 2,
      "note": 65,
      "start": 13.2352,
      "duration": 0.9515,
      "velocity": 98,
      "chip": "ym2612"
    },
    {
      "channel": 3,
      "note": 58,
      "start": 13.2354,
      "duration": 0.2376,
      "velocity": 92,
      "chip": "ym2612"
    },
    {
      "channel": 1,
      "note": 70,
      "start": 13.3541,
      "duration": 0.2377,
      "velocity": 92,
      "chip": "ym2612"
    },
    {
      "channel": 3,
      "note": 70,
      "start": 13.4732,
      "duration": 0.2378,
      "velocity": 92,
      "chip": "ym2612"
    },
    {
      "channel": 1,
      "note": 63,
      "start": 13.592,
      "duration": 0.2378,
      "velocity": 92,
      "chip": "ym2612"
    },
    {
      "channel": 3,
      "note": 63,
      "start": 13.7111,
      "duration": 0.2379,
      "velocity": 92,
      "chip": "ym2612"
    },
    {
      "channel": 1,
      "note": 75,
      "start": 13.8299,
      "duration": 0.2379,
      "velocity": 92,
      "chip": "ym2612"
    },
    {
      "channel": 3,
      "note": 75,
      "start": 13.9491,
      "duration": 0.2378,
      "velocity": 92,
      "chip": "ym2612"
    },
    {
      "channel": 0,
      "note": 69,
      "start": 14.0677,
      "duration": 0.9515,
      "velocity": 98,
      "chip": "ym2612"
    },
    {
      "channel": 1,
      "note": 69,
      "start": 14.0679,
      "duration": 0.2376,
      "velocity": 92,
      "chip": "ym2612"
    },
    {
      "channel": 2,
      "note": 69,
      "start": 14.1868,
      "duration": 0.8472,
      "velocity": 98,
      "chip": "ym2612"
    },
    {
      "channel": 3,
      "note": 69,
      "start": 14.187,
      "duration": 0.2376,
      "velocity": 92,
      "chip": "ym2612"
    },
    {
      "channel": 1,
      "note": 81,
      "start": 14.3057,
      "duration": 0.2378,
      "velocity": 92,
      "chip": "ym2612"
    },
    {
      "channel": 3,
      "note": 81,
      "start": 14.4248,
      "duration": 0.2377,
      "velocity": 92,
      "chip": "ym2612"
    },
    {
      "channel": 1,
      "note": 77,
      "start": 14.5436,
      "duration": 0.2378,
      "velocity": 92,
      "chip": "ym2612"
    },
    {
      "channel": 3,
      "note": 77,
      "start": 14.6627,
      "duration": 0.2377,
      "velocity": 92,
      "chip": "ym2612"
    },
    {
      "channel": 1,
      "note": 89,
      "start": 14.7815,
      "duration": 0.2379,
      "velocity": 92,
      "chip": "ym2612"
    },
    {
      "channel": 3,
      "note": 89,
      "start": 14.9005,
      "duration": 0.1337,
      "velocity": 92,
      "chip": "ym2612"
    },
    {
      "channel": 0,
      "note": 70,
      "start": 15.0193,
      "duration": 0.626,
      "velocity": 98,
      "chip": "ym2612"
    },
    {
      "channel": 1,
      "note": 58,
      "start": 15.0197,
      "duration": 0.0274,
      "velocity": 92,
      "chip": "ym2612"
    },
    {
      "channel": 4,
      "note": 58,
      "start": 15.0201,
      "duration": 3.4806,
      "velocity": 114,
      "chip": "ym2612"
    },
    {
      "channel": 2,
      "note": 70,
      "start": 15.0341,
      "duration": 0.7302,
      "velocity": 98,
      "chip": "ym2612"
    },
    {
      "channel": 3,
      "note": 58,
      "start": 15.0345,
      "duration": 0.0267,
      "velocity": 92,
      "chip": "ym2612"
    },
    {
      "channel": 1,
      "note": 70,
      "start": 15.0473,
      "duration": 0.1222,
      "velocity": 92,
      "chip": "ym2612"
    },
    {
      "channel": 3,
      "note": 70,
      "start": 15.0613,
      "duration": 0.2273,
      "velocity": 92,
      "chip": "ym2612"
    },
    {
      "channel": 1,
      "note": 65,
      "start": 15.1697,
      "duration": 0.2377,
      "velocity": 92,
      "chip": "ym2612"
    },
    {
      "channel": 3,
      "note": 65,
      "start": 15.2888,
      "duration": 0.2379,
      "velocity": 92,
      "chip": "ym2612"
    },
    {
      "channel": 1,
      "note": 77,
      "start": 15.4076,
      "duration": 0.238,
      "velocity": 92,
      "chip": "ym2612"
    },
    {
      "channel": 3,
      "note": 77,
      "start": 15.5268,
      "duration": 0.2378,
      "velocity": 92,
      "chip": "ym2612"
    },
    {
      "channel": 0,
      "note": 70,
      "start": 15.6454,
      "duration": 0.4756,
      "velocity": 98,
      "chip": "ym2612"
    },
    {
      "channel": 1,
      "note": 70,
      "start": 15.6456,
      "duration": 0.2376,
      "velocity": 92,
      "chip": "ym2612"
    },
    {
      "channel": 2,
      "note": 70,
      "start": 15.7645,
      "duration": 0.4756,
      "velocity": 98,
      "chip": "ym2612"
    },
    {
      "channel": 3,
      "note": 70,
      "start": 15.7647,
      "duration": 0.2376,
      "velocity": 92,
      "chip": "ym2612"
    },
    {
      "channel": 1,
      "note": 82,
      "start": 15.8834,
      "duration": 0.2379,
      "velocity": 92,
      "chip": "ym2612"
    },
    {
      "channel": 3,
      "note": 82,
      "start": 16.0024,
      "duration": 0.238,
      "velocity": 92,
      "chip": "ym2612"
    },
    {
      "channel": 0,
      "note": 72,
      "start": 16.1212,
      "duration": 0.4757,
      "velocity": 98,
      "chip": "ym2612"
    },
    {
      "channel": 1,
      "note": 77,
      "start": 16.1214,
      "duration": 0.2376,
      "velocity": 92,
      "chip": "ym2612"
    },
    {
      "channel": 2,
      "note": 72,
      "start": 16.2402,
      "duration": 0.4757,
      "velocity": 98,
      "chip": "ym2612"
    },
    {
      "channel": 3,
      "note": 77,
      "start": 16.2405,
      "duration": 0.2376,
      "velocity": 92,
      "chip": "ym2612"
    },
    {
      "channel": 1,
      "note": 89,
      "start": 16.3592,
      "duration": 0.2379,
      "velocity": 92,
      "chip": "ym2612"
    },
    {
      "channel": 3,
      "note": 89,
      "start": 16.4782,
      "duration": 0.238,
      "velocity": 92,
      "chip": "ym2612"
    },
    {
      "channel": 0,
      "note": 77,
      "start": 16.597,
      "duration": 0.1188,
      "velocity": 98,
      "chip": "ym2612"
    },
    {
      "channel": 1,
      "note": 58,
      "start": 16.5972,
      "duration": 0.2376,
      "velocity": 92,
      "chip": "ym2612"
    },
    {
      "channel": 2,
      "note": 77,
      "start": 16.7161,
      "duration": 0.1189,
      "velocity": 98,
      "chip": "ym2612"
    },
    {
      "channel": 3,
      "note": 58,
      "start": 16.7163,
      "duration": 0.2375,
      "velocity": 92,
      "chip": "ym2612"
    },
    {
      "channel": 1,
      "note": 70,
      "start": 16.8349,
      "duration": 0.2379,
      "velocity": 92,
      "chip": "ym2612"
    },
    {
      "channel": 3,
      "note": 70,
      "start": 16.954,
      "duration": 0.238,
      "velocity": 92,
      "chip": "ym2612"
    },
    {
      "channel": 0,
      "note": 70,
      "start": 17.0728,
      "duration": 0.9515,
      "velocity": 98,
      "chip": "ym2612"
    },
    {
      "channel": 1,
      "note": 65,
      "start": 17.073,
      "duration": 0.2376,
      "velocity": 92,
      "chip": "ym2612"
    },
    {
      "channel": 2,
      "note": 70,
      "start": 17.1918,
      "duration": 0.9515,
      "velocity": 98,
      "chip": "ym2612"
    },
    {
      "channel": 3,
      "note": 65,
      "start": 17.1921,
      "duration": 0.2377,
      "velocity": 92,
      "chip": "ym2612"
    },
    {
      "channel": 1,
      "note": 77,
      "start": 17.3107,
      "duration": 0.2377,
      "velocity": 92,
      "chip": "ym2612"
    },
    {
      "channel": 3,
      "note": 77,
      "start": 17.43,
      "duration": 0.2376,
      "velocity": 92,
      "chip": "ym2612"
    },
    {
      "channel": 1,
      "note": 70,
      "start": 17.5486,
      "duration": 0.2377,
      "velocity": 92,
      "chip": "ym2612"
    },
    {
      "channel": 3,
      "note": 70,
      "start": 17.6677,
      "duration": 0.2378,
      "velocity": 92,
      "chip": "ym2612"
    },
    {
      "channel": 1,
      "note": 82,
      "start": 17.7865,
      "duration": 0.2379,
      "velocity": 92,
      "chip": "ym2612"
    },
    {
      "channel": 3,
      "note": 82,
      "start": 17.9056,
      "duration": 0.238,
      "velocity": 92,
      "chip": "ym2612"
    },
    {
      "channel": 0,
      "note": 74,
      "start": 18.0244,
      "duration": 0.2377,
      "velocity": 98,
      "chip": "ym2612"
    },
    {
      "channel": 1,
      "note": 77,
      "start": 18.0246,
      "duration": 0.2377,
      "velocity": 92,
      "chip": "ym2612"
    },
    {
      "channel": 2,
      "note": 74,
      "start": 18.1434,
      "duration": 0.2377,
      "velocity": 98,
      "chip": "ym2612"
    },
    {
      "channel": 3,
      "note": 77,
      "start": 18.1437,
      "duration": 0.2377,
      "velocity": 92,
      "chip": "ym2612"
    },
    {
      "channel": 0,
      "note": 75,
      "start": 18.2622,
      "duration": 0.2378,
      "velocity": 98,
      "chip": "ym2612"
    },
    {
      "channel": 1,
      "note": 89,
      "start": 18.2625,
      "duration": 0.2378,
      "velocity": 92,
      "chip": "ym2612"
    },
    {
      "channel": 2,
      "note": 75,
      "start": 18.3813,
      "duration": 0.2378,
      "velocity": 98,
      "chip": "ym2612"
    },
    {
      "channel": 3,
      "note": 89,
      "start": 18.3816,
      "duration": 0.2378,
      "velocity": 92,
      "chip": "ym2612"
    },
    {
      "channel": 0,
      "note": 77,
      "start": 18.5001,
      "duration": 0.9515,
      "velocity": 98,
      "chip": "ym2612"
    },
    {
      "channel": 1,
      "note": 55,
      "start": 18.5004,
      "duration": 0.2376,
      "velocity": 92,
      "chip": "ym2612"
    },
    {
      "channel": 4,
      "note": 53,
      "start": 18.5008,
      "duration": 1.903,
      "velocity": 114,
      "chip": "ym2612"
    },
    {
      "channel": 2,
      "note": 77,
      "start": 18.6192,
      "duration": 0.9515,
      "velocity": 98,
      "chip": "ym2612"
    },
    {
      "channel": 3,
      "note": 55,
      "start": 18.6195,
      "duration": 0.2376,
      "velocity": 92,
      "chip": "ym2612"
    },
    {
      "channel": 1,
      "note": 67,
      "start": 18.7381,
      "duration": 0.2377,
      "velocity": 92,
      "chip": "ym2612"
    },
    {
      "channel": 3,
      "note": 67,
      "start": 18.8572,
      "duration": 0.2378,
      "velocity": 92,
      "chip": "ym2612"
    },
    {
      "channel": 1,
      "note": 63,
      "start": 18.976,
      "duration": 0.2378,
      "velocity": 92,
      "chip": "ym2612"
    },
    {
      "channel": 3,
      "note": 63,
      "start": 19.0951,
      "duration": 0.2379,
      "velocity": 92,
      "chip": "ym2612"
    },
    {
      "channel": 1,
      "note": 75,
      "start": 19.2139,
      "duration": 0.2379,
      "velocity": 92,
      "chip": "ym2612"
    },
    {
      "channel": 3,
      "note": 75,
      "start": 19.3331,
      "duration": 0.2378,
      "velocity": 92,
      "chip": "ym2612"
    },
    {
      "channel": 0,
      "note": 75,
      "start": 19.4517,
      "duration": 0.4756,
      "velocity": 98,
      "chip": "ym2612"
    },
    {
      "channel": 1,
      "note": 67,
      "start": 19.452,
      "duration": 0.2376,
      "velocity": 92,
      "chip": "ym2612"
    },
    {
      "channel": 2,
      "note": 75,
      "start": 19.5708,
      "duration": 0.4756,
      "velocity": 98,
      "chip": "ym2612"
    },
    {
      "channel": 3,
      "note": 67,
      "start": 19.5711,
      "duration": 0.2376,
      "velocity": 92,
      "chip": "ym2612"
    },
    {
      "channel": 1,
      "note": 79,
      "start": 19.6897,
      "duration": 0.2379,
      "velocity": 92,
      "chip": "ym2612"
    },
    {
      "channel": 3,
      "note": 79,
      "start": 19.8088,
      "duration": 0.2379,
      "velocity": 92,
      "chip": "ym2612"
    },
    {
      "channel": 0,
      "note": 74,
      "start": 19.9275,
      "duration": 0.4756,
      "velocity": 98,
      "chip": "ym2612"
    },
    {
      "channel": 1,
      "note": 77,
      "start": 19.9278,
      "duration": 0.2376,
      "velocity": 92,
      "chip": "ym2612"
    },
    {
      "channel": 2,
      "note": 74,
      "start": 20.0466,
      "duration": 0.4756,
      "velocity": 98,
      "chip": "ym2612"
    },
    {
      "channel": 3,
      "note": 77,
      "start": 20.0468,
      "duration": 0.2376,
      "velocity": 92,
      "chip": "ym2612"
    },
    {
      "channel": 1,
      "note": 89,
      "start": 20.1655,
      "duration": 0.2379,
      "velocity": 92,
      "chip": "ym2612"
    },
    {
      "channel": 3,
      "note": 89,
      "start": 20.2846,
      "duration": 0.2379,
      "velocity": 92,
      "chip": "ym2612"
    },
    {
      "channel": 0,
      "note": 72,
      "start": 20.4033,
      "duration": 0.9514,
      "velocity": 98,
      "chip": "ym2612"
    },
    {
      "channel": 1,
      "note": 58,
      "start": 20.4036,
      "duration": 0.2376,
      "velocity": 92,
      "chip": "ym2612"
    },
    {
      "channel": 4,
      "note": 55,
      "start": 20.4039,
      "duration": 1.903,
      "velocity": 114,
      "chip": "ym2612"
    },
    {
      "channel": 2,
      "note": 72,
      "start": 20.5224,
      "duration": 0.9514,
      "velocity": 98,
      "chip": "ym2612"
    },
    {
      "channel": 3,
      "note": 58,
      "start": 20.5227,
      "duration": 0.2376,
      "velocity": 92,
      "chip": "ym2612"
    },
    {
      "channel": 1,
      "note": 70,
      "start": 20.6413,
      "duration": 0.2378,
      "velocity": 92,
      "chip": "ym2612"
    },
    {
      "channel": 3,
      "note": 70,
      "start": 20.7604,
      "duration": 0.2378,
      "velocity": 92,
      "chip": "ym2612"
    },
    {
      "channel": 1,
      "note": 63,
      "start": 20.8792,
      "duration": 0.2378,
      "velocity": 92,
      "chip": "ym2612"
    },
    {
      "channel": 3,
      "note": 63,
      "start": 20.9983,
      "duration": 0.2379,
      "velocity": 92,
      "chip": "ym2612"
    },
    {
      "channel": 1,
      "note": 75,
      "start": 21.1171,
      "duration": 0.2379,
      "velocity": 92,
      "chip": "ym2612"
    },
    {
      "channel": 3,
      "note": 75,
      "start": 21.2363,
      "duration": 0.2378,
      "velocity": 92,
      "chip": "ym2612"
    },
    {
      "channel": 0,
      "note": 69,
      "start": 21.3549,
      "duration": 0.9515,
      "velocity": 98,
      "chip": "ym2612"
    },
    {
      "channel": 1,
      "note": 69,
      "start": 21.3551,
      "duration": 0.2376,
      "velocity": 92,
      "chip": "ym2612"
    },
    {
      "channel": 2,
      "note": 69,
      "start": 21.474,
      "duration": 0.8471,
      "velocity": 98,
      "chip": "ym2612"
    },
    {
      "channel": 3,
      "note": 69,
      "start": 21.4742,
      "duration": 0.2376,
      "velocity": 92,
      "chip": "ym2612"
    },
    {
      "channel": 1,
      "note": 81,
      "start": 21.5929,
      "duration": 0.2378,
      "velocity": 92,
      "chip": "ym2612"
    },
    {
      "channel": 3,
      "note": 81,
      "start": 21.712,
      "duration": 0.2378,
      "velocity": 92,
      "chip": "ym2612"
    },
    {
      "channel": 1,
      "note": 77,
      "start": 21.8307,
      "duration": 0.2378,
      "velocity": 92,
      "chip": "ym2612"
    },
    {
      "channel": 3,
      "note": 77,
      "start": 21.9498,
      "duration": 0.2378,
      "velocity": 92,
      "chip": "ym2612"
    },
    {
      "channel": 1,
      "note": 89,
      "start": 22.0686,
      "duration": 0.2379,
      "velocity": 92,
      "chip": "ym2612"
    },
    {
      "channel": 3,
      "note": 89,
      "start": 22.1877,
      "duration": 0.1335,
      "velocity": 92,
      "chip": "ym2612"
    },
    {
      "channel": 0,
      "note": 70,
      "start": 22.3065,
      "duration": 0.626,
      "velocity": 98,
      "chip": "ym2612"
    },
    {
      "channel": 1,
      "note": 58,
      "start": 22.3067,
      "duration": 0.0273,
      "velocity": 92,
      "chip": "ym2612"
    },
    {
      "channel": 4,
      "note": 58,
      "start": 22.3071,
      "duration": 3.4807,
      "velocity": 114,
      "chip": "ym2612"
    },
    {
      "channel": 2,
      "note": 70,
      "start": 22.3212,
      "duration": 0.7304,
      "velocity": 98,
      "chip": "ym2612"
    },
    {
      "channel": 3,
      "note": 58,
      "start": 22.3214,
      "duration": 0.0267,
      "velocity": 92,
      "chip": "ym2612"
    },
    {
      "channel": 1,
      "note": 70,
      "start": 22.3341,
      "duration": 0.1226,
      "velocity": 92,
      "chip": "ym2612"
    },
    {
      "channel": 3,
      "note": 70,
      "start": 22.3482,
      "duration": 0.2276,
      "velocity": 92,
      "chip": "ym2612"
    },
    {
      "channel": 1,
      "note": 65,
      "start": 22.4569,
      "duration": 0.2378,
      "velocity": 92,
      "chip": "ym2612"
    },
    {
      "channel": 3,
      "note": 65,
      "start": 22.576,
      "duration": 0.2379,
      "velocity": 92,
      "chip": "ym2612"
    },
    {
      "channel": 1,
      "note": 77,
      "start": 22.6948,
      "duration": 0.2379,
      "velocity": 92,
      "chip": "ym2612"
    },
    {
      "channel": 3,
      "note": 77,
      "start": 22.814,
      "duration": 0.2378,
      "velocity": 92,
      "chip": "ym2612"
    },
    {
      "channel": 0,
      "note": 70,
      "start": 22.9326,
      "duration": 0.4757,
      "velocity": 98,
      "chip": "ym2612"
    },
    {
      "channel": 1,
      "note": 70,
      "start": 22.9328,
      "duration": 0.2376,
      "velocity": 92,
      "chip": "ym2612"
    },
    {
      "channel": 2,
      "note": 70,
      "start": 23.0517,
      "duration": 0.4757,
      "velocity": 98,
      "chip": "ym2612"
    },
    {
      "channel": 3,
      "note": 70,
      "start": 23.0519,
      "duration": 0.2376,
      "velocity": 92,
      "chip": "ym2612"
    },
    {
      "channel": 1,
      "note": 82,
      "start": 23.1706,
      "duration": 0.2379,
      "velocity": 92,
      "chip": "ym2612"
    },
    {
      "channel": 3,
      "note": 82,
      "start": 23.2897,
      "duration": 0.2379,
      "velocity": 92,
      "chip": "ym2612"
    },
    {
      "channel": 0,
      "note": 72,
      "start": 23.4084,
      "duration": 0.4756,
      "velocity": 98,
      "chip": "ym2612"
    },
    {
      "channel": 1,
      "note": 77,
      "start": 23.4086,
      "duration": 0.2376,
      "velocity": 92,
      "chip": "ym2612"
    },
    {
      "channel": 2,
      "note": 72,
      "start": 23.5275,
      "duration": 0.4757,
      "velocity": 98,
      "chip": "ym2612"
    },
    {
      "channel": 3,
      "note": 77,
      "start": 23.5277,
      "duration": 0.2376,
      "velocity": 92,
      "chip": "ym2612"
    },
    {
      "channel": 1,
      "note": 89,
      "start": 23.6463,
      "duration": 0.2379,
      "velocity": 92,
      "chip": "ym2612"
    },
    {
      "channel": 3,
      "note": 89,
      "start": 23.7654,
      "duration": 0.238,
      "velocity": 92,
      "chip": "ym2612"
    },
    {
      "channel": 0,
      "note": 77,
      "start": 23.8842,
      "duration": 0.1188,
      "velocity": 98,
      "chip": "ym2612"
    },
    {
      "channel": 1,
      "note": 58,
      "start": 23.8844,
      "duration": 0.2376,
      "velocity": 92,
      "chip": "ym2612"
    },
    {
      "channel": 2,
      "note": 77,
      "start": 24.0033,
      "duration": 0.1189,
      "velocity": 98,
      "chip": "ym2612"
    },
    {
      "channel": 3,
      "note": 58,
      "start": 24.0035,
      "duration": 0.2376,
      "velocity": 92,
      "chip": "ym2612"
    },
    {
      "channel": 1,
      "note": 70,
      "start": 24.1221,
      "duration": 0.2379,
      "velocity": 92,
      "chip": "ym2612"
    },
    {
      "channel": 3,
      "note": 70,
      "start": 24.2412,
      "duration": 0.2379,
      "velocity": 92,
      "chip": "ym2612"
    },
    {
      "channel": 0,
      "note": 70,
      "start": 24.36,
      "duration": 0.9514,
      "velocity": 98,
      "chip": "ym2612"
    },
    {
      "channel": 1,
      "note": 65,
      "start": 24.3602,
      "duration": 0.2376,
      "velocity": 92,
      "chip": "ym2612"
    },
    {
      "channel": 2,
      "note": 70,
      "start": 24.479,
      "duration": 0.9515,
      "velocity": 98,
      "chip": "ym2612"
    },
    {
      "channel": 3,
      "note": 65,
      "start": 24.4793,
      "duration": 0.2377,
      "velocity": 92,
      "chip": "ym2612"
    },
    {
      "channel": 1,
      "note": 77,
      "start": 24.5979,
      "duration": 0.2378,
      "velocity": 92,
      "chip": "ym2612"
    },
    {
      "channel": 3,
      "note": 77,
      "start": 24.7172,
      "duration": 0.2376,
      "velocity": 92,
      "chip": "ym2612"
    },
    {
      "channel": 1,
      "note": 70,
      "start": 24.8358,
      "duration": 0.2378,
      "velocity": 92,
      "chip": "ym2612"
    },
    {
      "channel": 3,
      "note": 70,
      "start": 24.9549,
      "duration": 0.2378,
      "velocity": 92,
      "chip": "ym2612"
    },
    {
      "channel": 1,
      "note": 82,
      "start": 25.0737,
      "duration": 0.2379,
      "velocity": 92,
      "chip": "ym2612"
    },
    {
      "channel": 3,
      "note": 82,
      "start": 25.1928,
      "duration": 0.238,
      "velocity": 92,
      "chip": "ym2612"
    },
    {
      "channel": 0,
      "note": 65,
      "start": 25.3115,
      "duration": 0.4756,
      "velocity": 98,
      "chip": "ym2612"
    },
    {
      "channel": 1,
      "note": 77,
      "start": 25.3118,
      "duration": 0.2376,
      "velocity": 92,
      "chip": "ym2612"
    },
    {
      "channel": 2,
      "note": 65,
      "start": 25.4306,
      "duration": 0.4756,
      "velocity": 98,
      "chip": "ym2612"
    },
    {
      "channel": 3,
      "note": 77,
      "start": 25.4309,
      "duration": 0.2376,
      "velocity": 92,
      "chip": "ym2612"
    },
    {
      "channel": 1,
      "note": 89,
      "start": 25.5495,
      "duration": 0.2379,
      "velocity": 92,
      "chip": "ym2612"
    },
    {
      "channel": 3,
      "note": 89,
      "start": 25.6686,
      "duration": 0.2379,
      "velocity": 92,
      "chip": "ym2612"
    },
    {
      "channel": 0,
      "note": 67,
      "start": 25.7873,
      "duration": 0.9514,
      "velocity": 98,
      "chip": "ym2612"
    },
    {
      "channel": 1,
      "note": 55,
      "start": 25.7876,
      "duration": 0.2376,
      "velocity": 92,
      "chip": "ym2612"
    },
    {
      "channel": 4,
      "note": 55,
      "start": 25.788,
      "duration": 1.903,
      "velocity": 114,
      "chip": "ym2612"
    },
    {
      "channel": 2,
      "note": 67,
      "start": 25.9064,
      "duration": 0.9514,
      "velocity": 98,
      "chip": "ym2612"
    },
    {
      "channel": 3,
      "note": 55,
      "start": 25.9067,
      "duration": 0.2376,
      "velocity": 92,
      "chip": "ym2612"
    },
    {
      "channel": 1,
      "note": 67,
      "start": 26.0253,
      "duration": 0.2378,
      "velocity": 92,
      "chip": "ym2612"
    },
    {
      "channel": 3,
      "note": 67,
      "start": 26.1444,
      "duration": 0.2378,
      "velocity": 92,
      "chip": "ym2612"
    },
    {
      "channel": 1,
      "note": 63,
      "start": 26.2632,
      "duration": 0.2378,
      "velocity": 92,
      "chip": "ym2612"
    },
    {
      "channel": 3,
      "note": 63,
      "start": 26.3823,
      "duration": 0.2379,
      "velocity": 92,
      "chip": "ym2612"
    },
    {
      "channel": 1,
      "note": 75,
      "start": 26.5011,
      "duration": 0.2378,
      "velocity": 92,
      "chip": "ym2612"
    },
    {
      "channel": 3,
      "note": 75,
      "start": 26.6203,
      "duration": 0.2376,
      "velocity": 92,
      "chip": "ym2612"
    },
    {
      "channel": 1,
      "note": 67,
      "start": 26.739,
      "duration": 0.2378,
      "velocity": 92,
      "chip": "ym2612"
    },
    {
      "channel": 3,
      "note": 67,
      "start": 26.8581,
      "duration": 0.2377,
      "velocity": 92,
      "chip": "ym2612"
    },
    {
      "channel": 1,
      "note": 79,
      "start": 26.9769,
      "duration": 0.2379,
      "velocity": 92,
      "chip": "ym2612"
    },
    {
      "channel": 3,
      "note": 79,
      "start": 27.096,
      "duration": 0.2379,
      "velocity": 92,
      "chip": "ym2612"
    },
    {
      "channel": 0,
      "note": 75,
      "start": 27.2147,
      "duration": 0.2377,
      "velocity": 98,
      "chip": "ym2612"
    },
    {
      "channel": 1,
      "note": 77,
      "start": 27.215,
      "duration": 0.2377,
      "velocity": 92,
      "chip": "ym2612"
    },
    {
      "channel": 2,
      "note": 75,
      "start": 27.3338,
      "duration": 0.2377,
      "velocity": 98,
      "chip": "ym2612"
    },
    {
      "channel": 3,
      "note": 77,
      "start": 27.3341,
      "duration": 0.2378,
      "velocity": 92,
      "chip": "ym2612"
    },
    {
      "channel": 0,
      "note": 74,
      "start": 27.4526,
      "duration": 0.2378,
      "velocity": 98,
      "chip": "ym2612"
    },
    {
      "channel": 1,
      "note": 89,
      "start": 27.4529,
      "duration": 0.2378,
      "velocity": 92,
      "chip": "ym2612"
    },
    {
      "channel": 2,
      "note": 74,
      "start": 27.5717,
      "duration": 0.2378,
      "velocity": 98,
      "chip": "ym2612"
    },
    {
      "channel": 3,
      "note": 89,
      "start": 27.572,
      "duration": 0.2378,
      "velocity": 92,
      "chip": "ym2612"
    },
    {
      "channel": 0,
      "note": 74,
      "start": 27.6905,
      "duration": 0.4757,
      "velocity": 98,
      "chip": "ym2612"
    },
    {
      "channel": 1,
      "note": 58,
      "start": 27.6907,
      "duration": 0.2376,
      "velocity": 92,
      "chip": "ym2612"
    },
    {
      "channel": 4,
      "note": 53,
      "start": 27.6912,
      "duration": 1.903,
      "velocity": 114,
      "chip": "ym2612"
    },
    {
      "channel": 2,
      "note": 74,
      "start": 27.8096,
      "duration": 0.4756,
      "velocity": 98,
      "chip": "ym2612"
    },
    {
      "channel": 3,
      "note": 58,
      "start": 27.8099,
      "duration": 0.2376,
      "velocity": 92,
      "chip": "ym2612"
    },
    {
      "channel": 1,
      "note": 70,
      "start": 27.9285,
      "duration": 0.238,
      "velocity": 92,
      "chip": "ym2612"
    },
    {
      "channel": 3,
      "note": 70,
      "start": 28.0476,
      "duration": 0.2379,
      "velocity": 92,
      "chip": "ym2612"
    },
    {
      "channel": 0,
      "note": 72,
      "start": 28.1663,
      "duration": 0.4756,
      "velocity": 98,
      "chip": "ym2612"
    },
    {
      "channel": 1,
      "note": 63,
      "start": 28.1666,
      "duration": 0.2376,
      "velocity": 92,
      "chip": "ym2612"
    },
    {
      "channel": 2,
      "note": 72,
      "start": 28.2854,
      "duration": 0.4757,
      "velocity": 98,
      "chip": "ym2612"
    },
    {
      "channel": 3,
      "note": 63,
      "start": 28.2856,
      "duration": 0.2377,
      "velocity": 92,
      "chip": "ym2612"
    },
    {
      "channel": 1,
      "note": 75,
      "start": 28.4043,
      "duration": 0.2379,
      "velocity": 92,
      "chip": "ym2612"
    },
    {
      "channel": 3,
      "note": 75,
      "start": 28.5235,
      "duration": 0.2378,
      "velocity": 92,
      "chip": "ym2612"
    },
    {
      "channel": 0,
      "note": 70,
      "start": 28.6421,
      "duration": 0.4757,
      "velocity": 98,
      "chip": "ym2612"
    },
    {
      "channel": 1,
      "note": 70,
      "start": 28.6423,
      "duration": 0.2376,
      "velocity": 92,
      "chip": "ym2612"
    },
    {
      "channel": 2,
      "note": 70,
      "start": 28.7612,
      "duration": 0.4757,
      "velocity": 98,
      "chip": "ym2612"
    },
    {
      "channel": 3,
      "note": 70,
      "start": 28.7614,
      "duration": 0.2376,
      "velocity": 92,
      "chip": "ym2612"
    },
    {
      "channel": 1,
      "note": 82,
      "start": 28.8801,
      "duration": 0.2379,
      "velocity": 92,
      "chip": "ym2612"
    },
    {
      "channel": 3,
      "note": 82,
      "start": 28.9991,
      "duration": 0.238,
      "velocity": 92,
      "chip": "ym2612"
    },
    {
      "channel": 0,
      "note": 72,
      "start": 29.1179,
      "duration": 0.4756,
      "velocity": 98,
      "chip": "ym2612"
    },
    {
      "channel": 1,
      "note": 77,
      "start": 29.1181,
      "duration": 0.2376,
      "velocity": 92,
      "chip": "ym2612"
    },
    {
      "channel": 2,
      "note": 72,
      "start": 29.237,
      "duration": 0.3712,
      "velocity": 98,
      "chip": "ym2612"
    },
    {
      "channel": 3,
      "note": 77,
      "start": 29.2372,
      "duration": 0.2376,
      "velocity": 92,
      "chip": "ym2612"
    },
    {
      "channel": 1,
      "note": 89,
      "start": 29.3558,
      "duration": 0.2379,
      "velocity": 92,
      "chip": "ym2612"
    },
    {
      "channel": 3,
      "note": 89,
      "start": 29.4749,
      "duration": 0.1335,
      "velocity": 92,
      "chip": "ym2612"
    },
    {
      "channel": 0,
      "note": 70,
      "start": 29.5937,
      "duration": 0.626,
      "velocity": 98,
      "chip": "ym2612"
    },
    {
      "channel": 1,
      "note": 58,
      "start": 29.5939,
      "duration": 0.0272,
      "velocity": 92,
      "chip": "ym2612"
    },
    {
      "channel": 4,
      "note": 58,
      "start": 29.5943,
      "duration": 3.4807,
      "velocity": 114,
      "chip": "ym2612"
    },
    {
      "channel": 2,
      "note": 70,
      "start": 29.6083,
      "duration": 0.7304,
      "velocity": 98,
      "chip": "ym2612"
    },
    {
      "channel": 3,
      "note": 58,
      "start": 29.6086,
      "duration": 0.0267,
      "velocity": 92,
      "chip": "ym2612"
    },
    {
      "channel": 1,
      "note": 70,
      "start": 29.6213,
      "duration": 0.1226,
      "velocity": 92,
      "chip": "ym2612"
    },
    {
      "channel": 3,
      "note": 70,
      "start": 29.6354,
      "duration": 0.2276,
      "velocity": 92,
      "chip": "ym2612"
    },
    {
      "channel": 1,
      "note": 65,
      "start": 29.744,
      "duration": 0.2377,
      "velocity": 92,
      "chip": "ym2612"
    },
    {
      "channel": 3,
      "note": 65,
      "start": 29.8632,
      "duration": 0.2379,
      "velocity": 92,
      "chip": "ym2612"
    },
    {
      "channel": 1,
      "note": 77,
      "start": 29.9819,
      "duration": 0.238,
      "velocity": 92,
      "chip": "ym2612"
    },
    {
      "channel": 3,
      "note": 77,
      "start": 30.1012,
      "duration": 0.2378,
      "velocity": 92,
      "chip": "ym2612"
    },
    {
      "channel": 0,
      "note": 70,
      "start": 30.2198,
      "duration": 0.4756,
      "velocity": 98,
      "chip": "ym2612"
    },
    {
      "channel": 1,
      "note": 70,
      "start": 30.22,
      "duration": 0.2376,
      "velocity": 92,
      "chip": "ym2612"
    },
    {
      "channel": 2,
      "note": 70,
      "start": 30.3388,
      "duration": 0.4756,
      "velocity": 98,
      "chip": "ym2612"
    },
    {
      "channel": 3,
      "note": 70,
      "start": 30.3391,
      "duration": 0.2376,
      "velocity": 92,
      "chip": "ym2612"
    },
    {
      "channel": 1,
      "note": 82,
      "start": 30.4577,
      "duration": 0.2379,
      "velocity": 92,
      "chip": "ym2612"
    },
    {
      "channel": 3,
      "note": 82,
      "start": 30.5768,
      "duration": 0.238,
      "velocity": 92,
      "chip": "ym2612"
    },
    {
      "channel": 0,
      "note": 72,
      "start": 30.6956,
      "duration": 0.4756,
      "velocity": 98,
      "chip": "ym2612"
    },
    {
      "channel": 1,
      "note": 77,
      "start": 30.6958,
      "duration": 0.2376,
      "velocity": 92,
      "chip": "ym2612"
    },
    {
      "channel": 2,
      "note": 72,
      "start": 30.8146,
      "duration": 0.4757,
      "velocity": 98,
      "chip": "ym2612"
    },
    {
      "channel": 3,
      "note": 77,
      "start": 30.8149,
      "duration": 0.2376,
      "velocity": 92,
      "chip": "ym2612"
    },
    {
      "channel": 1,
      "note": 89,
      "start": 30.9335,
      "duration": 0.2379,
      "velocity": 92,
      "chip": "ym2612"
    },
    {
      "channel": 3,
      "note": 89,
      "start": 31.0526,
      "duration": 0.238,
      "velocity": 92,
      "chip": "ym2612"
    },
    {
      "channel": 0,
      "note": 77,
      "start": 31.1714,
      "duration": 0.1188,
      "velocity": 98,
      "chip": "ym2612"
    },
    {
      "channel": 1,
      "note": 58,
      "start": 31.1716,
      "duration": 0.2376,
      "velocity": 92,
      "chip": "ym2612"
    },
    {
      "channel": 2,
      "note": 77,
      "start": 31.2905,
      "duration": 0.1189,
      "velocity": 98,
      "chip": "ym2612"
    },
    {
      "channel": 3,
      "note": 58,
      "start": 31.2907,
      "duration": 0.2375,
      "velocity": 92,
      "chip": "ym2612"
    },
    {
      "channel": 1,
      "note": 70,
      "start": 31.4093,
      "duration": 0.2379,
      "velocity": 92,
      "chip": "ym2612"
    },
    {
      "channel": 3,
      "note": 70,
      "start": 31.5284,
      "duration": 0.238,
      "velocity": 92,
      "chip": "ym2612"
    },
    {
      "channel": 0,
      "note": 70,
      "start": 31.6471,
      "duration": 0.9515,
      "velocity": 98,
      "chip": "ym2612"
    },
    {
      "channel": 1,
      "note": 65,
      "start": 31.6474,
      "duration": 0.2376,
      "velocity": 92,
      "chip": "ym2612"
    },
    {
      "channel": 2,
      "note": 70,
      "start": 31.7662,
      "duration": 0.9515,
      "velocity": 98,
      "chip": "ym2612"
    },
    {
      "channel": 3,
      "note": 65,
      "start": 31.7665,
      "duration": 0.2377,
      "velocity": 92,
      "chip": "ym2612"
    },
    {
      "channel": 1,
      "note": 77,
      "start": 31.8851,
      "duration": 0.2378,
      "velocity": 92,
      "chip": "ym2612"
    },
    {
      "channel": 3,
      "note": 77,
      "start": 32.0044,
      "duration": 0.2376,
      "velocity": 92,
      "chip": "ym2612"
    },
    {
      "channel": 1,
      "note": 70,
      "start": 32.123,
      "duration": 0.2378,
      "velocity": 92,
      "chip": "ym2612"
    },
    {
      "channel": 3,
      "note": 70,
      "start": 32.2421,
      "duration": 0.2378,
      "velocity": 92,
      "chip": "ym2612"
    },
    {
      "channel": 1,
      "note": 82,
      "start": 32.3609,
      "duration": 0.2379,
      "velocity": 92,
      "chip": "ym2612"
    },
    {
      "channel": 3,
      "note": 82,
      "start": 32.48,
      "duration": 0.238,
      "velocity": 92,
      "chip": "ym2612"
    },
    {
      "channel": 0,
      "note": 74,
      "start": 32.5987,
      "duration": 0.2377,
      "velocity": 98,
      "chip": "ym2612"
    },
    {
      "channel": 1,
      "note": 77,
      "start": 32.599,
      "duration": 0.2377,
      "velocity": 92,
      "chip": "ym2612"
    },
    {
      "channel": 2,
      "note": 74,
      "start": 32.7178,
      "duration": 0.2377,
      "velocity": 98,
      "chip": "ym2612"
    },
    {
      "channel": 3,
      "note": 77,
      "start": 32.7181,
      "duration": 0.2377,
      "velocity": 92,
      "chip": "ym2612"
    },
    {
      "channel": 0,
      "note": 75,
      "start": 32.8366,
      "duration": 0.2378,
      "velocity": 98,
      "chip": "ym2612"
    },
    {
      "channel": 1,
      "note": 89,
      "start": 32.8368,
      "duration": 0.2378,
      "velocity": 92,
      "chip": "ym2612"
    },
    {
      "channel": 2,
      "note": 75,
      "start": 32.9557,
      "duration": 0.2378,
      "velocity": 98,
      "chip": "ym2612"
    },
    {
      "channel": 3,
      "note": 89,
      "start": 32.9559,
      "duration": 0.2378,
      "velocity": 92,
      "chip": "ym2612"
    },
    {
      "channel": 0,
      "note": 77,
      "start": 33.0745,
      "duration": 0.9515,
      "velocity": 98,
      "chip": "ym2612"
    },
    {
      "channel": 1,
      "note": 55,
      "start": 33.0748,
      "duration": 0.2376,
      "velocity": 92,
      "chip": "ym2612"
    },
    {
      "channel": 4,
      "note": 53,
      "start": 33.0751,
      "duration": 1.903,
      "velocity": 114,
      "chip": "ym2612"
    },
    {
      "channel": 2,
      "note": 77,
      "start": 33.1936,
      "duration": 0.9515,
      "velocity": 98,
      "chip": "ym2612"
    },
    {
      "channel": 3,
      "note": 55,
      "start": 33.1939,
      "duration": 0.2376,
      "velocity": 92,
      "chip": "ym2612"
    },
    {
      "channel": 1,
      "note": 67,
      "start": 33.3125,
      "duration": 0.2377,
      "velocity": 92,
      "chip": "ym2612"
    },
    {
      "channel": 3,
      "note": 67,
      "start": 33.4316,
      "duration": 0.2378,
      "velocity": 92,
      "chip": "ym2612"
    },
    {
      "channel": 1,
      "note": 63,
      "start": 33.5504,
      "duration": 0.2377,
      "velocity": 92,
      "chip": "ym2612"
    },
    {
      "channel": 3,
      "note": 63,
      "start": 33.6695,
      "duration": 0.2379,
      "velocity": 92,
      "chip": "ym2612"
    },
    {
      "channel": 1,
      "note": 75,
      "start": 33.7883,
      "duration": 0.2379,
      "velocity": 92,
      "chip": "ym2612"
    },
    {
      "channel": 3,
      "note": 75,
      "start": 33.9075,
      "duration": 0.2378,
      "velocity": 92,
      "chip": "ym2612"
    },
    {
      "channel": 0,
      "note": 75,
      "start": 34.0261,
      "duration": 0.4756,
      "velocity": 98,
      "chip": "ym2612"
    },
    {
      "channel": 1,
      "note": 67,
      "start": 34.0263,
      "duration": 0.2376,
      "velocity": 92,
      "chip": "ym2612"
    },
    {
      "channel": 2,
      "note": 75,
      "start": 34.1452,
      "duration": 0.4756,
      "velocity": 98,
      "chip": "ym2612"
    },
    {
      "channel": 3,
      "note": 67,
      "start": 34.1454,
      "duration": 0.2376,
      "velocity": 92,
      "chip": "ym2612"
    },
    {
      "channel": 1,
      "note": 79,
      "start": 34.264,
      "duration": 0.2379,
      "velocity": 92,
      "chip": "ym2612"
    },
    {
      "channel": 3,
      "note": 79,
      "start": 34.3832,
      "duration": 0.2379,
      "velocity": 92,
      "chip": "ym2612"
    },
    {
      "channel": 0,
      "note": 74,
      "start": 34.5019,
      "duration": 0.4756,
      "velocity": 98,
      "chip": "ym2612"
    },
    {
      "channel": 1,
      "note": 77,
      "start": 34.5021,
      "duration": 0.2376,
      "velocity": 92,
      "chip": "ym2612"
    },
    {
      "channel": 2,
      "note": 74,
      "start": 34.621,
      "duration": 0.4756,
      "velocity": 98,
      "chip": "ym2612"
    },
    {
      "channel": 3,
      "note": 77,
      "start": 34.6212,
      "duration": 0.2376,
      "velocity": 92,
      "chip": "ym2612"
    },
    {
      "channel": 1,
      "note": 89,
      "start": 34.7398,
      "duration": 0.2379,
      "velocity": 92,
      "chip": "ym2612"
    },
    {
      "channel": 3,
      "note": 89,
      "start": 34.8589,
      "duration": 0.2379,
      "velocity": 92,
      "chip": "ym2612"
    },
    {
      "channel": 0,
      "note": 72,
      "start": 34.9777,
      "duration": 0.9515,
      "velocity": 98,
      "chip": "ym2612"
    },
    {
      "channel": 1,
      "note": 60,
      "start": 34.9779,
      "duration": 0.2376,
      "velocity": 92,
      "chip": "ym2612"
    },
    {
      "channel": 4,
      "note": 55,
      "start": 34.9783,
      "duration": 1.9032,
      "velocity": 114,
      "chip": "ym2612"
    },
    {
      "channel": 2,
      "note": 72,
      "start": 35.0968,
      "duration": 0.9514,
      "velocity": 98,
      "chip": "ym2612"
    },
    {
      "channel": 3,
      "note": 60,
      "start": 35.097,
      "duration": 0.2376,
      "velocity": 92,
      "chip": "ym2612"
    },
    {
      "channel": 1,
      "note": 72,
      "start": 35.2156,
      "duration": 0.2378,
      "velocity": 92,
      "chip": "ym2612"
    },
    {
      "channel": 3,
      "note": 72,
      "start": 35.3347,
      "duration": 0.2378,
      "velocity": 92,
      "chip": "ym2612"
    },
    {
      "channel": 1,
      "note": 63,
      "start": 35.4535,
      "duration": 0.2378,
      "velocity": 92,
      "chip": "ym2612"
    },
    {
      "channel": 3,
      "note": 63,
      "start": 35.5726,
      "duration": 0.2379,
      "velocity": 92,
      "chip": "ym2612"
    },
    {
      "channel": 1,
      "note": 75,
      "start": 35.6914,
      "duration": 0.2379,
      "velocity": 92,
      "chip": "ym2612"
    },
    {
      "channel": 3,
      "note": 75,
      "start": 35.8107,
      "duration": 0.2378,
      "velocity": 92,
      "chip": "ym2612"
    },
    {
      "channel": 0,
      "note": 74,
      "start": 35.9293,
      "duration": 0.4757,
      "velocity": 98,
      "chip": "ym2612"
    },
    {
      "channel": 1,
      "note": 74,
      "start": 35.9295,
      "duration": 0.2376,
      "velocity": 92,
      "chip": "ym2612"
    },
    {
      "channel": 2,
      "note": 74,
      "start": 36.0483,
      "duration": 0.4756,
      "velocity": 98,
      "chip": "ym2612"
    },
    {
      "channel": 3,
      "note": 74,
      "start": 36.0486,
      "duration": 0.2376,
      "velocity": 92,
      "chip": "ym2612"
    },
    {
      "channel": 1,
      "note": 86,
      "start": 36.1672,
      "duration": 0.2379,
      "velocity": 92,
      "chip": "ym2612"
    },
    {
      "channel": 3,
      "note": 86,
      "start": 36.2863,
      "duration": 0.2379,
      "velocity": 92,
      "chip": "ym2612"
    },
    {
      "channel": 0,
      "note": 75,
      "start": 36.4051,
      "duration": 0.4757,
      "velocity": 98,
      "chip": "ym2612"
    },
    {
      "channel": 1,
      "note": 77,
      "start": 36.4053,
      "duration": 0.2376,
      "velocity": 92,
      "chip": "ym2612"
    },
    {
      "channel": 2,
      "note": 75,
      "start": 36.5241,
      "duration": 0.4148,
      "velocity": 98,
      "chip": "ym2612"
    },
    {
      "channel": 3,
      "note": 77,
      "start": 36.5244,
      "duration": 0.2387,
      "velocity": 92,
      "chip": "ym2612"
    },
    {
      "channel": 1,
      "note": 89,
      "start": 36.643,
      "duration": 0.2379,
      "velocity": 98,
      "chip": "ym2612"
    },
    {
      "channel": 3,
      "note": 89,
      "start": 36.7632,
      "duration": 0.2947,
      "velocity": 92,
      "chip": "ym2612"
    },
    {
      "channel": 0,
      "note": 77,
      "start": 36.8809,
      "duration": 0.4146,
      "velocity": 98,
      "chip": "ym2612"
    },
    {
      "channel": 1,
      "note": 70,
      "start": 36.8812,
      "duration": 0.0575,
      "velocity": 98,
      "chip": "ym2612"
    },
    {
      "channel": 4,
      "note": 58,
      "start": 36.8816,
      "duration": 1.7812,
      "velocity": 114,
      "chip": "ym2612"
    },
    {
      "channel": 1,
      "note": 82,
      "start": 36.9389,
      "duration": 0.1188,
      "velocity": 98,
      "chip": "ym2612"
    },
    {
      "channel": 2,
      "note": 77,
      "start": 36.9391,
      "duration": 0.4754,
      "velocity": 98,
      "chip": "ym2612"
    },
    {
      "channel": 1,
      "note": 94,
      "start": 37.0578,
      "duration": 0.1188,
      "velocity": 98,
      "chip": "ym2612"
    },
    {
      "channel": 1,
      "note": 101,
      "start": 37.1767,
      "duration": 0.3567,
      "velocity": 98,
      "chip": "ym2612"
    },
    {
      "channel": 3,
      "note": 70,
      "start": 37.1772,
      "duration": 0.1187,
      "velocity": 98,
      "chip": "ym2612"
    },
    {
      "channel": 0,
      "note": 74,
      "start": 37.2956,
      "duration": 0.4756,
      "velocity": 98,
      "chip": "ym2612"
    },
    {
      "channel": 3,
      "note": 82,
      "start": 37.296,
      "duration": 0.1188,
      "velocity": 98,
      "chip": "ym2612"
    },
    {
      "channel": 2,
      "note": 74,
      "start": 37.4147,
      "duration": 0.4758,
      "velocity": 98,
      "chip": "ym2612"
    },
    {
      "channel": 3,
      "note": 94,
      "start": 37.415,
      "duration": 0.119,
      "velocity": 98,
      "chip": "ym2612"
    },
    {
      "channel": 1,
      "note": 70,
      "start": 37.5337,
      "duration": 0.1186,
      "velocity": 98,
      "chip": "ym2612"
    },
    {
      "channel": 3,
      "note": 101,
      "start": 37.5341,
      "duration": 0.3567,
      "velocity": 98,
      "chip": "ym2612"
    },
    {
      "channel": 1,
      "note": 82,
      "start": 37.6525,
      "duration": 0.119,
      "velocity": 98,
      "chip": "ym2612"
    },
    {
      "channel": 0,
      "note": 70,
      "start": 37.7714,
      "duration": 0.4756,
      "velocity": 98,
      "chip": "ym2612"
    },
    {
      "channel": 1,
      "note": 94,
      "start": 37.7717,
      "duration": 0.1186,
      "velocity": 98,
      "chip": "ym2612"
    },
    {
      "channel": 1,
      "note": 101,
      "start": 37.8905,
      "duration": 0.3567,
      "velocity": 98,
      "chip": "ym2612"
    },
    {
      "channel": 2,
      "note": 70,
      "start": 37.8907,
      "duration": 0.4756,
      "velocity": 98,
      "chip": "ym2612"
    },
    {
      "channel": 3,
      "note": 70,
      "start": 37.8911,
      "duration": 0.1183,
      "velocity": 98,
      "chip": "ym2612"
    },
    {
      "channel": 3,
      "note": 82,
      "start": 38.0095,
      "duration": 0.1188,
      "velocity": 98,
      "chip": "ym2612"
    },
    {
      "channel": 3,
      "note": 94,
      "start": 38.1285,
      "duration": 0.1191,
      "velocity": 98,
      "chip": "ym2612"
    },
    {
      "channel": 1,
      "note": 70,
      "start": 38.2475,
      "duration": 0.1186,
      "velocity": 98,
      "chip": "ym2612"
    },
    {
      "channel": 3,
      "note": 101,
      "start": 38.2478,
      "duration": 0.2955,
      "velocity": 98,
      "chip": "ym2612"
    },
    {
      "channel": 1,
      "note": 82,
      "start": 38.3662,
      "duration": 0.1188,
      "velocity": 98,
      "chip": "ym2612"
    },
    {
      "channel": 1,
      "note": 94,
      "start": 38.4852,
      "duration": 0.0578,
      "velocity": 98,
      "chip": "ym2612"
    },
    {
      "channel": 1,
      "note": 101,
      "start": 38.5431,
      "duration": 0.119,
      "velocity": 98,
      "chip": "ym2612"
    },
    {
      "channel": 3,
      "note": 70,
      "start": 38.5436,
      "duration": 0.119,
      "velocity": 98,
      "chip": "ym2612"
    },
    {
      "channel": 0,
      "note": 77,
      "start": 38.662,
      "duration": 0.4146,
      "velocity": 98,
      "chip": "ym2612"
    },
    {
      "channel": 1,
      "note": 70,
      "start": 38.6624,
      "duration": 0.0575,
      "velocity": 98,
      "chip": "ym2612"
    },
    {
      "channel": 3,
      "note": 82,
      "start": 38.6627,
      "duration": 0.0576,
      "velocity": 98,
      "chip": "ym2612"
    },
    {
      "channel": 4,
      "note": 58,
      "start": 38.6629,
      "duration": 1.842,
      "velocity": 114,
      "chip": "ym2612"
    },
    {
      "channel": 1,
      "note": 82,
      "start": 38.72,
      "duration": 0.1188,
      "velocity": 98,
      "chip": "ym2612"
    },
    {
      "channel": 2,
      "note": 77,
      "start": 38.7202,
      "duration": 0.4755,
      "velocity": 98,
      "chip": "ym2612"
    },
    {
      "channel": 3,
      "note": 94,
      "start": 38.7205,
      "duration": 0.1186,
      "velocity": 98,
      "chip": "ym2612"
    },
    {
      "channel": 1,
      "note": 94,
      "start": 38.8389,
      "duration": 0.1188,
      "velocity": 98,
      "chip": "ym2612"
    },
    {
      "channel": 3,
      "note": 101,
      "start": 38.8392,
      "duration": 0.1188,
      "velocity": 98,
      "chip": "ym2612"
    },
    {
      "channel": 1,
      "note": 101,
      "start": 38.9579,
      "duration": 0.3567,
      "velocity": 98,
      "chip": "ym2612"
    },
    {
      "channel": 3,
      "note": 70,
      "start": 38.9583,
      "duration": 0.1186,
      "velocity": 98,
      "chip": "ym2612"
    },
    {
      "channel": 0,
      "note": 72,
      "start": 39.0767,
      "duration": 0.4757,
      "velocity": 98,
      "chip": "ym2612"
    },
    {
      "channel": 3,
      "note": 82,
      "start": 39.0771,
      "duration": 0.1188,
      "velocity": 98,
      "chip": "ym2612"
    },
    {
      "channel": 2,
      "note": 72,
      "start": 39.1958,
      "duration": 0.4758,
      "velocity": 98,
      "chip": "ym2612"
    },
    {
      "channel": 3,
      "note": 94,
      "start": 39.1961,
      "duration": 0.1189,
      "velocity": 98,
      "chip": "ym2612"
    },
    {
      "channel": 1,
      "note": 70,
      "start": 39.3148,
      "duration": 0.1188,
      "velocity": 98,
      "chip": "ym2612"
    },
    {
      "channel": 3,
      "note": 101,
      "start": 39.3151,
      "duration": 0.3568,
      "velocity": 98,
      "chip": "ym2612"
    },
    {
      "channel": 1,
      "note": 82,
      "start": 39.4338,
      "duration": 0.1189,
      "velocity": 98,
      "chip": "ym2612"
    },
    {
      "channel": 0,
      "note": 65,
      "start": 39.5525,
      "duration": 0.4756,
      "velocity": 98,
      "chip": "ym2612"
    },
    {
      "channel": 1,
      "note": 94,
      "start": 39.5528,
      "duration": 0.1186,
      "velocity": 98,
      "chip": "ym2612"
    },
    {
      "channel": 1,
      "note": 101,
      "start": 39.6715,
      "duration": 0.3567,
      "velocity": 98,
      "chip": "ym2612"
    },
    {
      "channel": 2,
      "note": 65,
      "start": 39.6718,
      "duration": 0.4756,
      "velocity": 98,
      "chip": "ym2612"
    },
    {
      "channel": 3,
      "note": 70,
      "start": 39.6722,
      "duration": 0.1183,
      "velocity": 98,
      "chip": "ym2612"
    },
    {
      "channel": 3,
      "note": 82,
      "start": 39.7907,
      "duration": 0.1188,
      "velocity": 98,
      "chip": "ym2612"
    },
    {
      "channel": 3,
      "note": 94,
      "start": 39.9096,
      "duration": 0.1192,
      "velocity": 98,
      "chip": "ym2612"
    },
    {
      "channel": 1,
      "note": 70,
      "start": 40.0285,
      "duration": 0.1186,
      "velocity": 98,
      "chip": "ym2612"
    },
    {
      "channel": 3,
      "note": 101,
      "start": 40.0289,
      "duration": 0.3566,
      "velocity": 98,
      "chip": "ym2612"
    },
    {
      "channel": 1,
      "note": 82,
      "start": 40.1473,
      "duration": 0.1188,
      "velocity": 98,
      "chip": "ym2612"
    },
    {
      "channel": 1,
      "note": 94,
      "start": 40.2663,
      "duration": 0.1188,
      "velocity": 98,
      "chip": "ym2612"
    },
    {
      "channel": 1,
      "note": 101,
      "start": 40.3852,
      "duration": 0.119,
      "velocity": 98,
      "chip": "ym2612"
    },
    {
      "channel": 3,
      "note": 70,
      "start": 40.3857,
      "duration": 0.119,
      "velocity": 98,
      "chip": "ym2612"
    },
    {
      "channel": 0,
      "note": 67,
      "start": 40.5041,
      "duration": 0.4146,
      "velocity": 98,
      "chip": "ym2612"
    },
    {
      "channel": 1,
      "note": 67,
      "start": 40.5045,
      "duration": 0.0575,
      "velocity": 98,
      "chip": "ym2612"
    },
    {
      "channel": 3,
      "note": 82,
      "start": 40.5048,
      "duration": 0.0577,
      "velocity": 98,
      "chip": "ym2612"
    },
    {
      "channel": 4,
      "note": 55,
      "start": 40.5051,
      "duration": 1.781,
      "velocity": 114,
      "chip": "ym2612"
    },
    {
      "channel": 1,
      "note": 79,
      "start": 40.5621,
      "duration": 0.1188,
      "velocity": 98,
      "chip": "ym2612"
    },
    {
      "channel": 2,
      "note": 67,
      "start": 40.5624,
      "duration": 0.4754,
      "velocity": 98,
      "chip": "ym2612"
    },
    {
      "channel": 3,
      "note": 94,
      "start": 40.5627,
      "duration": 0.1186,
      "velocity": 98,
      "chip": "ym2612"
    },
    {
      "channel": 1,
      "note": 91,
      "start": 40.6811,
      "duration": 0.1188,
      "velocity": 98,
      "chip": "ym2612"
    },
    {
      "channel": 3,
      "note": 101,
      "start": 40.6814,
      "duration": 0.1188,
      "velocity": 98,
      "chip": "ym2612"
    },
    {
      "channel": 1,
      "note": 98,
      "start": 40.8,
      "duration": 0.3567,
      "velocity": 98,
      "chip": "ym2612"
    },
    {
      "channel": 3,
      "note": 67,
      "start": 40.8005,
      "duration": 0.1187,
      "velocity": 98,
      "chip": "ym2612"
    },
    {
      "channel": 0,
      "note": 63,
      "start": 40.9189,
      "duration": 0.4756,
      "velocity": 98,
      "chip": "ym2612"
    },
    {
      "channel": 3,
      "note": 79,
      "start": 40.9193,
      "duration": 0.1188,
      "velocity": 98,
      "chip": "ym2612"
    },
    {
      "channel": 2,
      "note": 63,
      "start": 41.038,
      "duration": 0.4758,
      "velocity": 98,
      "chip": "ym2612"
    },
    {
      "channel": 3,
      "note": 91,
      "start": 41.0383,
      "duration": 0.1189,
      "velocity": 98,
      "chip": "ym2612"
    },
    {
      "channel": 1,
      "note": 67,
      "start": 41.157,
      "duration": 0.1188,
      "velocity": 98,
      "chip": "ym2612"
    },
    {
      "channel": 3,
      "note": 98,
      "start": 41.1573,
      "duration": 0.3567,
      "velocity": 98,
      "chip": "ym2612"
    },
    {
      "channel": 1,
      "note": 79,
      "start": 41.276,
      "duration": 0.1188,
      "velocity": 98,
      "chip": "ym2612"
    },
    {
      "channel": 0,
      "note": 75,
      "start": 41.3947,
      "duration": 0.4757,
      "velocity": 98,
      "chip": "ym2612"
    },
    {
      "channel": 1,
      "note": 91,
      "start": 41.3949,
      "duration": 0.1186,
      "velocity": 98,
      "chip": "ym2612"
    },
    {
      "channel": 1,
      "note": 98,
      "start": 41.5137,
      "duration": 0.3569,
      "velocity": 98,
      "chip": "ym2612"
    },
    {
      "channel": 2,
      "note": 75,
      "start": 41.514,
      "duration": 0.4756,
      "velocity": 98,
      "chip": "ym2612"
    },
    {
      "channel": 3,
      "note": 67,
      "start": 41.5144,
      "duration": 0.1183,
      "velocity": 98,
      "chip": "ym2612"
    },
    {
      "channel": 3,
      "note": 79,
      "start": 41.6328,
      "duration": 0.1188,
      "velocity": 98,
      "chip": "ym2612"
    },
    {
      "channel": 3,
      "note": 91,
      "start": 41.7518,
      "duration": 0.1193,
      "velocity": 98,
      "chip": "ym2612"
    },
    {
      "channel": 0,
      "note": 74,
      "start": 41.8705,
      "duration": 0.4146,
      "velocity": 98,
      "chip": "ym2612"
    },
    {
      "channel": 1,
      "note": 67,
      "start": 41.8709,
      "duration": 0.1185,
      "velocity": 98,
      "chip": "ym2612"
    },
    {
      "channel": 3,
      "note": 98,
      "start": 41.8712,
      "duration": 0.2953,
      "velocity": 98,
      "chip": "ym2612"
    },
    {
      "channel": 1,
      "note": 79,
      "start": 41.9895,
      "duration": 0.1188,
      "velocity": 98,
      "chip": "ym2612"
    },
    {
      "channel": 2,
      "note": 74,
      "start": 41.9898,
      "duration": 0.3536,
      "velocity": 98,
      "chip": "ym2612"
    },
    {
      "channel": 1,
      "note": 91,
      "start": 42.1084,
      "duration": 0.0578,
      "velocity": 98,
      "chip": "ym2612"
    },
    {
      "channel": 1,
      "note": 98,
      "start": 42.1664,
      "duration": 0.119,
      "velocity": 98,
      "chip": "ym2612"
    },
    {
      "channel": 3,
      "note": 67,
      "start": 42.1668,
      "duration": 0.119,
      "velocity": 98,
      "chip": "ym2612"
    },
    {
      "channel": 0,
      "note": 74,
      "start": 42.2852,
      "duration": 0.4146,
      "velocity": 98,
      "chip": "ym2612"
    },
    {
      "channel": 1,
      "note": 65,
      "start": 42.2856,
      "duration": 0.0575,
      "velocity": 98,
      "chip": "ym2612"
    },
    {
      "channel": 3,
      "note": 79,
      "start": 42.2859,
      "duration": 0.0577,
      "velocity": 98,
      "chip": "ym2612"
    },
    {
      "channel": 4,
      "note": 53,
      "start": 42.2862,
      "duration": 0.8291,
      "velocity": 114,
      "chip": "ym2612"
    },
    {
      "channel": 1,
      "note": 77,
      "start": 42.3433,
      "duration": 0.1188,
      "velocity": 98,
      "chip": "ym2612"
    },
    {
      "channel": 2,
      "note": 74,
      "start": 42.3435,
      "duration": 0.4755,
      "velocity": 98,
      "chip": "ym2612"
    },
    {
      "channel": 3,
      "note": 91,
      "start": 42.3438,
      "duration": 0.1186,
      "velocity": 98,
      "chip": "ym2612"
    },
    {
      "channel": 1,
      "note": 89,
      "start": 42.4622,
      "duration": 0.1188,
      "velocity": 98,
      "chip": "ym2612"
    },
    {
      "channel": 3,
      "note": 98,
      "start": 42.4625,
      "duration": 0.1188,
      "velocity": 98,
      "chip": "ym2612"
    },
    {
      "channel": 1,
      "note": 96,
      "start": 42.5812,
      "duration": 0.3567,
      "velocity": 98,
      "chip": "ym2612"
    },
    {
      "channel": 3,
      "note": 65,
      "start": 42.5816,
      "duration": 0.1186,
      "velocity": 98,
      "chip": "ym2612"
    },
    {
      "channel": 0,
      "note": 72,
      "start": 42.7,
      "duration": 0.4146,
      "velocity": 98,
      "chip": "ym2612"
    },
    {
      "channel": 3,
      "note": 77,
      "start": 42.7004,
      "duration": 0.1188,
      "velocity": 98,
      "chip": "ym2612"
    },
    {
      "channel": 2,
      "note": 72,
      "start": 42.8191,
      "duration": 0.3538,
      "velocity": 98,
      "chip": "ym2612"
    },
    {
      "channel": 3,
      "note": 89,
      "start": 42.8194,
      "duration": 0.1189,
      "velocity": 98,
      "chip": "ym2612"
    },
    {
      "channel": 1,
      "note": 65,
      "start": 42.9381,
      "duration": 0.0578,
      "velocity": 98,
      "chip": "ym2612"
    },
    {
      "channel": 3,
      "note": 96,
      "start": 42.9385,
      "duration": 0.2347,
      "velocity": 98,
      "chip": "ym2612"
    },
    {
      "channel": 1,
      "note": 77,
      "start": 42.9961,
      "duration": 0.1188,
      "velocity": 98,
      "chip": "ym2612"
    },
    {
      "channel": 0,
      "note": 70,
      "start": 43.1148,
      "duration": 0.4146,
      "velocity": 98,
      "chip": "ym2612"
    },
    {
      "channel": 1,
      "note": 89,
      "start": 43.1151,
      "duration": 0.0576,
      "velocity": 98,
      "chip": "ym2612"
    },
    {
      "channel": 4,
      "note": 55,
      "start": 43.1155,
      "duration": 0.8907,
      "velocity": 114,
      "chip": "ym2612"
    },
    {
      "channel": 1,
      "note": 96,
      "start": 43.1728,
      "duration": 0.3569,
      "velocity": 98,
      "chip": "ym2612"
    },
    {
      "channel": 2,
      "note": 70,
      "start": 43.173,
      "duration": 0.4756,
      "velocity": 98,
      "chip": "ym2612"
    },
    {
      "channel": 3,
      "note": 65,
      "start": 43.1734,
      "duration": 0.1183,
      "velocity": 98,
      "chip": "ym2612"
    },
    {
      "channel": 3,
      "note": 77,
      "start": 43.2919,
      "duration": 0.1188,
      "velocity": 98,
      "chip": "ym2612"
    },
    {
      "channel": 3,
      "note": 89,
      "start": 43.4108,
      "duration": 0.1193,
      "velocity": 98,
      "chip": "ym2612"
    },
    {
      "channel": 0,
      "note": 75,
      "start": 43.5296,
      "duration": 0.4756,
      "velocity": 98,
      "chip": "ym2612"
    },
    {
      "channel": 1,
      "note": 65,
      "start": 43.53,
      "duration": 0.1185,
      "velocity": 98,
      "chip": "ym2612"
    },
    {
      "channel": 3,
      "note": 96,
      "start": 43.5303,
      "duration": 0.3564,
      "velocity": 98,
      "chip": "ym2612"
    },
    {
      "channel": 1,
      "note": 77,
      "start": 43.6486,
      "duration": 0.1188,
      "velocity": 98,
      "chip": "ym2612"
    },
    {
      "channel": 2,
      "note": 75,
      "start": 43.6488,
      "duration": 0.4146,
      "velocity": 98,
      "chip": "ym2612"
    },
    {
      "channel": 1,
      "note": 89,
      "start": 43.7675,
      "duration": 0.1188,
      "velocity": 98,
      "chip": "ym2612"
    },
    {
      "channel": 1,
      "note": 96,
      "start": 43.8865,
      "duration": 0.119,
      "velocity": 98,
      "chip": "ym2612"
    },
    {
      "channel": 3,
      "note": 65,
      "start": 43.8869,
      "duration": 0.119,
      "velocity": 98,
      "chip": "ym2612"
    },
    {
      "channel": 0,
      "note": 77,
      "start": 44.0054,
      "duration": 0.4146,
      "velocity": 98,
      "chip": "ym2612"
    },
    {
      "channel": 1,
      "note": 70,
      "start": 44.0057,
      "duration": 0.0575,
      "velocity": 98,
      "chip": "ym2612"
    },
    {
      "channel": 3,
      "note": 77,
      "start": 44.006,
      "duration": 0.0577,
      "velocity": 98,
      "chip": "ym2612"
    },
    {
      "channel": 4,
      "note": 58,
      "start": 44.0063,
      "duration": 1.781,
      "velocity": 114,
      "chip": "ym2612"
    },
    {
      "channel": 1,
      "note": 82,
      "start": 44.0634,
      "duration": 0.1188,
      "velocity": 98,
      "chip": "ym2612"
    },
    {
      "channel": 2,
      "note": 77,
      "start": 44.0636,
      "duration": 0.4755,
      "velocity": 98,
      "chip": "ym2612"
    },
    {
      "channel": 3,
      "note": 89,
      "start": 44.0639,
      "duration": 0.1186,
      "velocity": 98,
      "chip": "ym2612"
    },
    {
      "channel": 1,
      "note": 94,
      "start": 44.1823,
      "duration": 0.1188,
      "velocity": 98,
      "chip": "ym2612"
    },
    {
      "channel": 3,
      "note": 96,
      "start": 44.1827,
      "duration": 0.1188,
      "velocity": 98,
      "chip": "ym2612"
    },
    {
      "channel": 1,
      "note": 101,
      "start": 44.3013,
      "duration": 0.3567,
      "velocity": 98,
      "chip": "ym2612"
    },
    {
      "channel": 3,
      "note": 70,
      "start": 44.3017,
      "duration": 0.1187,
      "velocity": 98,
      "chip": "ym2612"
    },
    {
      "channel": 0,
      "note": 74,
      "start": 44.4202,
      "duration": 0.4756,
      "velocity": 98,
      "chip": "ym2612"
    },
    {
      "channel": 3,
      "note": 82,
      "start": 44.4205,
      "duration": 0.1188,
      "velocity": 98,
      "chip": "ym2612"
    },
    {
      "channel": 2,
      "note": 74,
      "start": 44.5392,
      "duration": 0.4759,
      "velocity": 98,
      "chip": "ym2612"
    },
    {
      "channel": 3,
      "note": 94,
      "start": 44.5395,
      "duration": 0.119,
      "velocity": 98,
      "chip": "ym2612"
    },
    {
      "channel": 1,
      "note": 70,
      "start": 44.6583,
      "duration": 0.1186,
      "velocity": 98,
      "chip": "ym2612"
    },
    {
      "channel": 3,
      "note": 101,
      "start": 44.6586,
      "duration": 0.3568,
      "velocity": 98,
      "chip": "ym2612"
    },
    {
      "channel": 1,
      "note": 82,
      "start": 44.7771,
      "duration": 0.119,
      "velocity": 98,
      "chip": "ym2612"
    },
    {
      "channel": 0,
      "note": 70,
      "start": 44.8959,
      "duration": 0.4756,
      "velocity": 98,
      "chip": "ym2612"
    },
    {
      "channel": 1,
      "note": 94,
      "start": 44.8962,
      "duration": 0.1186,
      "velocity": 98,
      "chip": "ym2612"
    },
    {
      "channel": 1,
      "note": 101,
      "start": 45.0149,
      "duration": 0.3567,
      "velocity": 98,
      "chip": "ym2612"
    },
    {
      "channel": 2,
      "note": 70,
      "start": 45.0152,
      "duration": 0.4756,
      "velocity": 98,
      "chip": "ym2612"
    },
    {
      "channel": 3,
      "note": 70,
      "start": 45.0156,
      "duration": 0.1183,
      "velocity": 98,
      "chip": "ym2612"
    },
    {
      "channel": 3,
      "note": 82,
      "start": 45.134,
      "duration": 0.1188,
      "velocity": 98,
      "chip": "ym2612"
    },
    {
      "channel": 3,
      "note": 94,
      "start": 45.253,
      "duration": 0.1191,
      "velocity": 98,
      "chip": "ym2612"
    },
    {
      "channel": 1,
      "note": 70,
      "start": 45.3719,
      "duration": 0.1186,
      "velocity": 98,
      "chip": "ym2612"
    },
    {
      "channel": 3,
      "note": 101,
      "start": 45.3723,
      "duration": 0.2955,
      "velocity": 98,
      "chip": "ym2612"
    },
    {
      "channel": 1,
      "note": 82,
      "start": 45.4907,
      "duration": 0.1188,
      "velocity": 98,
      "chip": "ym2612"
    },
    {
      "channel": 1,
      "note": 94,
      "start": 45.6097,
      "duration": 0.0578,
      "velocity": 98,
      "chip": "ym2612"
    },
    {
      "channel": 1,
      "note": 101,
      "start": 45.6676,
      "duration": 0.119,
      "velocity": 98,
      "chip": "ym2612"
    },
    {
      "channel": 3,
      "note": 70,
      "start": 45.6681,
      "duration": 0.119,
      "velocity": 98,
      "chip": "ym2612"
    },
    {
      "channel": 0,
      "note": 77,
      "start": 45.7865,
      "duration": 0.4146,
      "velocity": 98,
      "chip": "ym2612"
    },
    {
      "channel": 1,
      "note": 70,
      "start": 45.7869,
      "duration": 0.0575,
      "velocity": 98,
      "chip": "ym2612"
    },
    {
      "channel": 3,
      "note": 82,
      "start": 45.7872,
      "duration": 0.0577,
      "velocity": 98,
      "chip": "ym2612"
    },
    {
      "channel": 4,
      "note": 58,
      "start": 45.7875,
      "duration": 1.842,
      "velocity": 114,
      "chip": "ym2612"
    },
    {
      "channel": 1,
      "note": 82,
      "start": 45.8445,
      "duration": 0.1188,
      "velocity": 98,
      "chip": "ym2612"
    },
    {
      "channel": 2,
      "note": 77,
      "start": 45.8448,
      "duration": 0.4755,
      "velocity": 98,
      "chip": "ym2612"
    },
    {
      "channel": 3,
      "note": 94,
      "start": 45.8451,
      "duration": 0.1186,
      "velocity": 98,
      "chip": "ym2612"
    },
    {
      "channel": 1,
      "note": 94,
      "start": 45.9635,
      "duration": 0.1188,
      "velocity": 98,
      "chip": "ym2612"
    },
    {
      "channel": 3,
      "note": 101,
      "start": 45.9638,
      "duration": 0.1188,
      "velocity": 98,
      "chip": "ym2612"
    },
    {
      "channel": 1,
      "note": 101,
      "start": 46.0824,
      "duration": 0.3567,
      "velocity": 98,
      "chip": "ym2612"
    },
    {
      "channel": 3,
      "note": 70,
      "start": 46.0829,
      "duration": 0.1186,
      "velocity": 98,
      "chip": "ym2612"
    },
    {
      "channel": 0,
      "note": 72,
      "start": 46.2013,
      "duration": 0.4756,
      "velocity": 98,
      "chip": "ym2612"
    },
    {
      "channel": 3,
      "note": 82,
      "start": 46.2017,
      "duration": 0.1188,
      "velocity": 98,
      "chip": "ym2612"
    },
    {
      "channel": 2,
      "note": 72,
      "start": 46.3204,
      "duration": 0.4758,
      "velocity": 98,
      "chip": "ym2612"
    },
    {
      "channel": 3,
      "note": 94,
      "start": 46.3207,
      "duration": 0.1189,
      "velocity": 98,
      "chip": "ym2612"
    },
    {
      "channel": 1,
      "note": 70,
      "start": 46.4394,
      "duration": 0.1188,
      "velocity": 98,
      "chip": "ym2612"
    },
    {
      "channel": 3,
      "note": 101,
      "start": 46.4397,
      "duration": 0.3568,
      "velocity": 98,
      "chip": "ym2612"
    },
    {
      "channel": 1,
      "note": 82,
      "start": 46.5584,
      "duration": 0.1188,
      "velocity": 98,
      "chip": "ym2612"
    },
    {
      "channel": 0,
      "note": 65,
      "start": 46.6771,
      "duration": 0.4756,
      "velocity": 98,
      "chip": "ym2612"
    },
    {
      "channel": 1,
      "note": 94,
      "start": 46.6773,
      "duration": 0.1186,
      "velocity": 98,
      "chip": "ym2612"
    },
    {
      "channel": 1,
      "note": 101,
      "start": 46.7961,
      "duration": 0.3567,
      "velocity": 98,
      "chip": "ym2612"
    },
    {
      "channel": 2,
      "note": 65,
      "start": 46.7963,
      "duration": 0.4756,
      "velocity": 98,
      "chip": "ym2612"
    },
    {
      "channel": 3,
      "note": 70,
      "start": 46.7968,
      "duration": 0.1183,
      "velocity": 98,
      "chip": "ym2612"
    },
    {
      "channel": 3,
      "note": 82,
      "start": 46.9152,
      "duration": 0.1188,
      "velocity": 98,
      "chip": "ym2612"
    },
    {
      "channel": 3,
      "note": 94,
      "start": 47.0341,
      "duration": 0.1192,
      "velocity": 98,
      "chip": "ym2612"
    },
    {
      "channel": 1,
      "note": 70,
      "start": 47.1531,
      "duration": 0.1187,
      "velocity": 98,
      "chip": "ym2612"
    },
    {
      "channel": 3,
      "note": 101,
      "start": 47.1534,
      "duration": 0.3566,
      "velocity": 98,
      "chip": "ym2612"
    },
    {
      "channel": 1,
      "note": 82,
      "start": 47.2719,
      "duration": 0.1188,
      "velocity": 98,
      "chip": "ym2612"
    },
    {
      "channel": 1,
      "note": 94,
      "start": 47.3909,
      "duration": 0.1188,
      "velocity": 98,
      "chip": "ym2612"
    },
    {
      "channel": 1,
      "note": 101,
      "start": 47.5098,
      "duration": 0.119,
      "velocity": 98,
      "chip": "ym2612"
    },
    {
      "channel": 3,
      "note": 70,
      "start": 47.5103,
      "duration": 0.119,
      "velocity": 98,
      "chip": "ym2612"
    },
    {
      "channel": 0,
      "note": 67,
      "start": 47.6287,
      "duration": 0.4146,
      "velocity": 98,
      "chip": "ym2612"
    },
    {
      "channel": 1,
      "note": 67,
      "start": 47.6291,
      "duration": 0.0574,
      "velocity": 98,
      "chip": "ym2612"
    },
    {
      "channel": 3,
      "note": 82,
      "start": 47.6294,
      "duration": 0.0576,
      "velocity": 98,
      "chip": "ym2612"
    },
    {
      "channel": 4,
      "note": 55,
      "start": 47.6297,
      "duration": 1.7809,
      "velocity": 114,
      "chip": "ym2612"
    },
    {
      "channel": 1,
      "note": 79,
      "start": 47.6866,
      "duration": 0.1188,
      "velocity": 98,
      "chip": "ym2612"
    },
    {
      "channel": 2,
      "note": 67,
      "start": 47.6869,
      "duration": 0.4755,
      "velocity": 98,
      "chip": "ym2612"
    },
    {
      "channel": 3,
      "note": 94,
      "start": 47.6872,
      "duration": 0.1186,
      "velocity": 98,
      "chip": "ym2612"
    },
    {
      "channel": 1,
      "note": 91,
      "start": 47.8056,
      "duration": 0.1188,
      "velocity": 98,
      "chip": "ym2612"
    },
    {
      "channel": 3,
      "note": 101,
      "start": 47.8059,
      "duration": 0.1188,
      "velocity": 98,
      "chip": "ym2612"
    },
    {
      "channel": 1,
      "note": 98,
      "start": 47.9246,
      "duration": 0.3567,
      "velocity": 98,
      "chip": "ym2612"
    },
    {
      "channel": 3,
      "note": 67,
      "start": 47.925,
      "duration": 0.1187,
      "velocity": 98,
      "chip": "ym2612"
    },
    {
      "channel": 0,
      "note": 63,
      "start": 48.0434,
      "duration": 0.4756,
      "velocity": 98,
      "chip": "ym2612"
    },
    {
      "channel": 3,
      "note": 79,
      "start": 48.0438,
      "duration": 0.1188,
      "velocity": 98,
      "chip": "ym2612"
    },
    {
      "channel": 2,
      "note": 63,
      "start": 48.1625,
      "duration": 0.4759,
      "velocity": 98,
      "chip": "ym2612"
    },
    {
      "channel": 3,
      "note": 91,
      "start": 48.1628,
      "duration": 0.119,
      "velocity": 98,
      "chip": "ym2612"
    },
    {
      "channel": 1,
      "note": 67,
      "start": 48.2815,
      "duration": 0.1186,
      "velocity": 98,
      "chip": "ym2612"
    },
    {
      "channel": 3,
      "note": 98,
      "start": 48.2819,
      "duration": 0.3568,
      "velocity": 98,
      "chip": "ym2612"
    },
    {
      "channel": 1,
      "note": 79,
      "start": 48.4003,
      "duration": 0.119,
      "velocity": 98,
      "chip": "ym2612"
    },
    {
      "channel": 0,
      "note": 75,
      "start": 48.5192,
      "duration": 0.4756,
      "velocity": 98,
      "chip": "ym2612"
    },
    {
      "channel": 1,
      "note": 91,
      "start": 48.5195,
      "duration": 0.1186,
      "velocity": 98,
      "chip": "ym2612"
    },
    {
      "channel": 1,
      "note": 98,
      "start": 48.6383,
      "duration": 0.3569,
      "velocity": 98,
      "chip": "ym2612"
    },
    {
      "channel": 2,
      "note": 75,
      "start": 48.6385,
      "duration": 0.4756,
      "velocity": 98,
      "chip": "ym2612"
    },
    {
      "channel": 3,
      "note": 67,
      "start": 48.6389,
      "duration": 0.1183,
      "velocity": 98,
      "chip": "ym2612"
    },
    {
      "channel": 3,
      "note": 79,
      "start": 48.7573,
      "duration": 0.1188,
      "velocity": 98,
      "chip": "ym2612"
    },
    {
      "channel": 3,
      "note": 91,
      "start": 48.8763,
      "duration": 0.1193,
      "velocity": 98,
      "chip": "ym2612"
    },
    {
      "channel": 0,
      "note": 74,
      "start": 48.995,
      "duration": 0.4146,
      "velocity": 98,
      "chip": "ym2612"
    },
    {
      "channel": 1,
      "note": 67,
      "start": 48.9954,
      "duration": 0.1185,
      "velocity": 98,
      "chip": "ym2612"
    },
    {
      "channel": 3,
      "note": 98,
      "start": 48.9957,
      "duration": 0.2953,
      "velocity": 98,
      "chip": "ym2612"
    },
    {
      "channel": 1,
      "note": 79,
      "start": 49.114,
      "duration": 0.1188,
      "velocity": 98,
      "chip": "ym2612"
    },
    {
      "channel": 2,
      "note": 74,
      "start": 49.1143,
      "duration": 0.3536,
      "velocity": 98,
      "chip": "ym2612"
    },
    {
      "channel": 1,
      "note": 91,
      "start": 49.233,
      "duration": 0.0578,
      "velocity": 98,
      "chip": "ym2612"
    },
    {
      "channel": 1,
      "note": 98,
      "start": 49.2909,
      "duration": 0.119,
      "velocity": 98,
      "chip": "ym2612"
    },
    {
      "channel": 3,
      "note": 67,
      "start": 49.2913,
      "duration": 0.119,
      "velocity": 98,
      "chip": "ym2612"
    },
    {
      "channel": 0,
      "note": 74,
      "start": 49.4098,
      "duration": 0.4146,
      "velocity": 98,
      "chip": "ym2612"
    },
    {
      "channel": 1,
      "note": 65,
      "start": 49.4101,
      "duration": 0.0575,
      "velocity": 98,
      "chip": "ym2612"
    },
    {
      "channel": 3,
      "note": 79,
      "start": 49.4105,
      "duration": 0.0576,
      "velocity": 98,
      "chip": "ym2612"
    },
    {
      "channel": 4,
      "note": 53,
      "start": 49.4107,
      "duration": 0.829,
      "velocity": 114,
      "chip": "ym2612"
    },
    {
      "channel": 1,
      "note": 77,
      "start": 49.4677,
      "duration": 0.1188,
      "velocity": 98,
      "chip": "ym2612"
    },
    {
      "channel": 2,
      "note": 74,
      "start": 49.468,
      "duration": 0.4755,
      "velocity": 98,
      "chip": "ym2612"
    },
    {
      "channel": 3,
      "note": 91,
      "start": 49.4683,
      "duration": 0.1186,
      "velocity": 98,
      "chip": "ym2612"
    },
    {
      "channel": 1,
      "note": 89,
      "start": 49.5867,
      "duration": 0.1188,
      "velocity": 98,
      "chip": "ym2612"
    },
    {
      "channel": 3,
      "note": 98,
      "start": 49.587,
      "duration": 0.1188,
      "velocity": 98,
      "chip": "ym2612"
    },
    {
      "channel": 1,
      "note": 96,
      "start": 49.7056,
      "duration": 0.3567,
      "velocity": 98,
      "chip": "ym2612"
    },
    {
      "channel": 3,
      "note": 65,
      "start": 49.7061,
      "duration": 0.1187,
      "velocity": 98,
      "chip": "ym2612"
    },
    {
      "channel": 0,
      "note": 72,
      "start": 49.8245,
      "duration": 0.4146,
      "velocity": 98,
      "chip": "ym2612"
    },
    {
      "channel": 3,
      "note": 77,
      "start": 49.8249,
      "duration": 0.1188,
      "velocity": 98,
      "chip": "ym2612"
    },
    {
      "channel": 2,
      "note": 72,
      "start": 49.9436,
      "duration": 0.3538,
      "velocity": 98,
      "chip": "ym2612"
    },
    {
      "channel": 3,
      "note": 89,
      "start": 49.9439,
      "duration": 0.1189,
      "velocity": 98,
      "chip": "ym2612"
    },
    {
      "channel": 1,
      "note": 65,
      "start": 50.0626,
      "duration": 0.0578,
      "velocity": 98,
      "chip": "ym2612"
    },
    {
      "channel": 3,
      "note": 96,
      "start": 50.0629,
      "duration": 0.2347,
      "velocity": 98,
      "chip": "ym2612"
    },
    {
      "channel": 1,
      "note": 77,
      "start": 50.1205,
      "duration": 0.1188,
      "velocity": 98,
      "chip": "ym2612"
    },
    {
      "channel": 0,
      "note": 70,
      "start": 50.2393,
      "duration": 0.4146,
      "velocity": 98,
      "chip": "ym2612"
    },
    {
      "channel": 1,
      "note": 89,
      "start": 50.2395,
      "duration": 0.0576,
      "velocity": 98,
      "chip": "ym2612"
    },
    {
      "channel": 4,
      "note": 55,
      "start": 50.2399,
      "duration": 0.8909,
      "velocity": 114,
      "chip": "ym2612"
    },
    {
      "channel": 1,
      "note": 96,
      "start": 50.2973,
      "duration": 0.3569,
      "velocity": 98,
      "chip": "ym2612"
    },
    {
      "channel": 2,
      "note": 70,
      "start": 50.2975,
      "duration": 0.4756,
      "velocity": 98,
      "chip": "ym2612"
    },
    {
      "channel": 3,
      "note": 65,
      "start": 50.298,
      "duration": 0.1183,
      "velocity": 98,
      "chip": "ym2612"
    },
    {
      "channel": 3,
      "note": 77,
      "start": 50.4164,
      "duration": 0.1188,
      "velocity": 98,
      "chip": "ym2612"
    },
    {
      "channel": 3,
      "note": 89,
      "start": 50.5353,
      "duration": 0.1193,
      "velocity": 98,
      "chip": "ym2612"
    },
    {
      "channel": 0,
      "note": 72,
      "start": 50.654,
      "duration": 0.4757,
      "velocity": 98,
      "chip": "ym2612"
    },
    {
      "channel": 1,
      "note": 65,
      "start": 50.6544,
      "duration": 0.1185,
      "velocity": 98,
      "chip": "ym2612"
    },
    {
      "channel": 3,
      "note": 96,
      "start": 50.6548,
      "duration": 0.3564,
      "velocity": 98,
      "chip": "ym2612"
    },
    {
      "channel": 1,
      "note": 77,
      "start": 50.7731,
      "duration": 0.1188,
      "velocity": 98,
      "chip": "ym2612"
    },
    {
      "channel": 2,
      "note": 72,
      "start": 50.7733,
      "duration": 0.4146,
      "velocity": 98,
      "chip": "ym2612"
    },
    {
      "channel": 1,
      "note": 89,
      "start": 50.892,
      "duration": 0.1188,
      "velocity": 98,
      "chip": "ym2612"
    },
    {
      "channel": 1,
      "note": 96,
      "start": 51.011,
      "duration": 0.1191,
      "velocity": 98,
      "chip": "ym2612"
    },
    {
      "channel": 3,
      "note": 65,
      "start": 51.0115,
      "duration": 0.119,
      "velocity": 98,
      "chip": "ym2612"
    },
    {
      "channel": 0,
      "note": 70,
      "start": 51.1299,
      "duration": 2.952,
      "velocity": 98,
      "chip": "ym2612"
    },
    {
      "channel": 1,
      "note": 70,
      "start": 51.1303,
      "duration": 0.0574,
      "velocity": 98,
      "chip": "ym2612"
    },
    {
      "channel": 3,
      "note": 77,
      "start": 51.1306,
      "duration": 0.0577,
      "velocity": 98,
      "chip": "ym2612"
    },
    {
      "channel": 4,
      "note": 58,
      "start": 51.1309,
      "duration": 0.7071,
      "velocity": 114,
      "chip": "ym2612"
    },
    {
      "channel": 1,
      "note": 82,
      "start": 51.1879,
      "duration": 0.1188,
      "velocity": 98,
      "chip": "ym2612"
    },
    {
      "channel": 2,
      "note": 82,
      "start": 51.1882,
      "duration": 2.9518,
      "velocity": 98,
      "chip": "ym2612"
    },
    {
      "channel": 3,
      "note": 89,
      "start": 51.1885,
      "duration": 0.1186,
      "velocity": 98,
      "chip": "ym2612"
    },
    {
      "channel": 1,
      "note": 94,
      "start": 51.3068,
      "duration": 0.1188,
      "velocity": 98,
      "chip": "ym2612"
    },
    {
      "channel": 3,
      "note": 96,
      "start": 51.3072,
      "duration": 0.1188,
      "velocity": 98,
      "chip": "ym2612"
    },
    {
      "channel": 1,
      "note": 106,
      "start": 51.4258,
      "duration": 0.2349,
      "velocity": 98,
      "chip": "ym2612"
    },
    {
      "channel": 3,
      "note": 70,
      "start": 51.4262,
      "duration": 0.1186,
      "velocity": 98,
      "chip": "ym2612"
    },
    {
      "channel": 3,
      "note": 82,
      "start": 51.545,
      "duration": 0.0144,
      "velocity": 98,
      "chip": "ym2612"
    },
    {
      "channel": 3,
      "note": 94,
      "start": 51.5595,
      "duration": 0.1016,
      "velocity": 98,
      "chip": "ym2612"
    },
    {
      "channel": 1,
      "note": 70,
      "start": 51.6609,
      "duration": 0.0578,
      "velocity": 98,
      "chip": "ym2612"
    },
    {
      "channel": 3,
      "note": 106,
      "start": 51.6612,
      "duration": 0.2346,
      "velocity": 98,
      "chip": "ym2612"
    },
    {
      "channel": 1,
      "note": 82,
      "start": 51.7189,
      "duration": 0.1188,
      "velocity": 98,
      "chip": "ym2612"
    },
    {
      "channel": 1,
      "note": 94,
      "start": 51.8378,
      "duration": 0.0578,
      "velocity": 98,
      "chip": "ym2612"
    },
    {
      "channel": 1,
      "note": 106,
      "start": 51.8957,
      "duration": 0.3567,
      "velocity": 98,
      "chip": "ym2612"
    },
    {
      "channel": 3,
      "note": 70,
      "start": 51.8962,
      "duration": 0.1183,
      "velocity": 98,
      "chip": "ym2612"
    },
    {
      "channel": 3,
      "note": 82,
      "start": 52.0147,
      "duration": 0.1188,
      "velocity": 98,
      "chip": "ym2612"
    },
    {
      "channel": 3,
      "note": 94,
      "start": 52.1336,
      "duration": 0.1193,
      "velocity": 98,
      "chip": "ym2612"
    },
    {
      "channel": 1,
      "note": 70,
      "start": 52.2527,
      "duration": 0.0146,
      "velocity": 98,
      "chip": "ym2612"
    },
    {
      "channel": 3,
      "note": 106,
      "start": 52.253,
      "duration": 0.2344,
      "velocity": 98,
      "chip": "ym2612"
    },
    {
      "channel": 1,
      "note": 82,
      "start": 52.2674,
      "duration": 0.1007,
      "velocity": 98,
      "chip": "ym2612"
    },
    {
      "channel": 1,
      "note": 94,
      "start": 52.3683,
      "duration": 0.1188,
      "velocity": 98,
      "chip": "ym2612"
    },
    {
      "channel": 4,
      "note": 58,
      "start": 52.3686,
      "duration": 0.1191,
      "velocity": 114,
      "chip": "ym2612"
    },
    {
      "channel": 1,
      "note": 106,
      "start": 52.4872,
      "duration": 0.2957,
      "velocity": 98,
      "chip": "ym2612"
    },
    {
      "channel": 3,
      "note": 70,
      "start": 52.4877,
      "duration": 0.1186,
      "velocity": 98,
      "chip": "ym2612"
    },
    {
      "channel": 3,
      "note": 82,
      "start": 52.6064,
      "duration": 0.0578,
      "velocity": 98,
      "chip": "ym2612"
    },
    {
      "channel": 4,
      "note": 58,
      "start": 52.6067,
      "duration": 0.7072,
      "velocity": 114,
      "chip": "ym2612"
    },
    {
      "channel": 3,
      "note": 94,
      "start": 52.6643,
      "duration": 0.119,
      "velocity": 98,
      "chip": "ym2612"
    },
    {
      "channel": 1,
      "note": 70,
      "start": 52.7832,
      "duration": 0.1187,
      "velocity": 98,
      "chip": "ym2612"
    },
    {
      "channel": 3,
      "note": 106,
      "start": 52.7835,
      "duration": 0.2522,
      "velocity": 98,
      "chip": "ym2612"
    },
    {
      "channel": 1,
      "note": 82,
      "start": 52.902,
      "duration": 0.1189,
      "velocity": 98,
      "chip": "ym2612"
    },
    {
      "channel": 1,
      "note": 94,
      "start": 53.0211,
      "duration": 0.0144,
      "velocity": 98,
      "chip": "ym2612"
    },
    {
      "channel": 1,
      "note": 106,
      "start": 53.0356,
      "duration": 1.0465,
      "velocity": 98,
      "chip": "ym2612"
    },
    {
      "channel": 3,
      "note": 70,
      "start": 53.0361,
      "duration": 0.1007,
      "velocity": 98,
      "chip": "ym2612"
    },
    {
      "channel": 3,
      "note": 82,
      "start": 53.1369,
      "duration": 0.0579,
      "velocity": 98,
      "chip": "ym2612"
    },
    {
      "channel": 3,
      "note": 94,
      "start": 53.1949,
      "duration": 0.1188,
      "velocity": 98,
      "chip": "ym2612"
    },
    {
      "channel": 3,
      "note": 106,
      "start": 53.3138,
      "duration": 0.8262,
      "velocity": 98,
      "chip": "ym2612"
    },
    {
      "channel": 4,
      "note": 58,
      "start": 54.0824,
      "duration": 0.7073,
      "velocity": 114,
      "chip": "ym2612"
    },
    {
      "channel": 4,
      "note": 58,
      "start": 55.3205,
      "duration": 0.0578,
      "velocity": 114,
      "chip": "ym2612"
    },
    {
      "channel": 4,
      "note": 58,
      "start": 55.4976,
      "duration": 0.4146,
      "velocity": 114,
      "chip": "ym2612"
    },
    {
      "channel": 4,
      "note": 58,
      "start": 56.0281,
      "duration": 0.0579,
      "velocity": 114,
      "chip": "ym2612"
    },
    {
      "channel": 4,
      "note": 58,
      "start": 56.2051,
      "duration": 0.4168,
      "velocity": 114,
      "chip": "ym2612"
    },
    {
      "channel": 0,
      "note": 70,
      "start": 56.9734,
      "duration": 0.4426,
      "velocity": 98,
      "chip": "ym2612"
    },
    {
      "channel": 1,
      "note": 65,
      "start": 56.9738,
      "duration": 0.4424,
      "velocity": 98,
      "chip": "ym2612"
    },
    {
      "channel": 4,
      "note": 58,
      "start": 56.9742,
      "duration": 2.6159,
      "velocity": 114,
      "chip": "ym2612"
    },
    {
      "channel": 2,
      "note": 70,
      "start": 56.9891,
      "duration": 0.4849,
      "velocity": 98,
      "chip": "ym2612"
    },
    {
      "channel": 3,
      "note": 65,
      "start": 56.9894,
      "duration": 0.4849,
      "velocity": 98,
      "chip": "ym2612"
    },
    {
      "channel": 0,
      "note": 70,
      "start": 57.4161,
      "duration": 0.4146,
      "velocity": 98,
      "chip": "ym2612"
    },
    {
      "channel": 1,
      "note": 65,
      "start": 57.4164,
      "duration": 0.4146,
      "velocity": 98,
      "chip": "ym2612"
    },
    {
      "channel": 2,
      "note": 70,
      "start": 57.4741,
      "duration": 0.3711,
      "velocity": 98,
      "chip": "ym2612"
    },
    {
      "channel": 3,
      "note": 65,
      "start": 57.4744,
      "duration": 0.3711,
      "velocity": 98,
      "chip": "ym2612"
    },
    {
      "channel": 0,
      "note": 72,
      "start": 57.8309,
      "duration": 0.3536,
      "velocity": 98,
      "chip": "ym2612"
    },
    {
      "channel": 1,
      "note": 67,
      "start": 57.8311,
      "duration": 0.3536,
      "velocity": 98,
      "chip": "ym2612"
    },
    {
      "channel": 2,
      "note": 72,
      "start": 57.8454,
      "duration": 0.3972,
      "velocity": 98,
      "chip": "ym2612"
    },
    {
      "channel": 3,
      "note": 67,
      "start": 57.8457,
      "duration": 0.3972,
      "velocity": 98,
      "chip": "ym2612"
    },
    {
      "channel": 0,
      "note": 77,
      "start": 58.1846,
      "duration": 0.0578,
      "velocity": 98,
      "chip": "ym2612"
    },
    {
      "channel": 1,
      "note": 70,
      "start": 58.1849,
      "duration": 0.0576,
      "velocity": 98,
      "chip": "ym2612"
    },
    {
      "channel": 2,
      "note": 77,
      "start": 58.2427,
      "duration": 0.1187,
      "velocity": 98,
      "chip": "ym2612"
    },
    {
      "channel": 3,
      "note": 70,
      "start": 58.243,
      "duration": 0.1186,
      "velocity": 98,
      "chip": "ym2612"
    },
    {
      "channel": 0,
      "note": 70,
      "start": 58.5994,
      "duration": 0.7074,
      "velocity": 98,
      "chip": "ym2612"
    },
    {
      "channel": 1,
      "note": 65,
      "start": 58.5996,
      "duration": 0.7074,
      "velocity": 98,
      "chip": "ym2612"
    },
    {
      "channel": 2,
      "note": 70,
      "start": 58.6138,
      "duration": 0.7084,
      "velocity": 98,
      "chip": "ym2612"
    },
    {
      "channel": 3,
      "note": 65,
      "start": 58.6141,
      "duration": 0.7084,
      "velocity": 98,
      "chip": "ym2612"
    },
    {
      "channel": 0,
      "note": 65,
      "start": 59.3069,
      "duration": 0.2825,
      "velocity": 98,
      "chip": "ym2612"
    },
    {
      "channel": 1,
      "note": 60,
      "start": 59.3072,
      "duration": 0.2825,
      "velocity": 98,
      "chip": "ym2612"
    },
    {
      "channel": 2,
      "note": 65,
      "start": 59.3224,
      "duration": 0.3251,
      "velocity": 98,
      "chip": "ym2612"
    },
    {
      "channel": 3,
      "note": 60,
      "start": 59.3226,
      "duration": 0.3251,
      "velocity": 98,
      "chip": "ym2612"
    },
    {
      "channel": 0,
      "note": 67,
      "start": 59.5895,
      "duration": 0.7073,
      "velocity": 98,
      "chip": "ym2612"
    },
    {
      "channel": 1,
      "note": 62,
      "start": 59.5898,
      "duration": 0.7071,
      "velocity": 98,
      "chip": "ym2612"
    },
    {
      "channel": 4,
      "note": 55,
      "start": 59.5902,
      "duration": 1.4148,
      "velocity": 114,
      "chip": "ym2612"
    },
    {
      "channel": 2,
      "note": 67,
      "start": 59.6476,
      "duration": 0.7072,
      "velocity": 98,
      "chip": "ym2612"
    },
    {
      "channel": 3,
      "note": 62,
      "start": 59.6479,
      "duration": 0.7071,
      "velocity": 98,
      "chip": "ym2612"
    },
    {
      "channel": 0,
      "note": 65,
      "start": 60.7117,
      "duration": 0.1157,
      "velocity": 98,
      "chip": "ym2612"
    },
    {
      "channel": 1,
      "note": 60,
      "start": 60.712,
      "duration": 0.1155,
      "velocity": 98,
      "chip": "ym2612"
    },
    {
      "channel": 2,
      "note": 65,
      "start": 60.7263,
      "duration": 0.1592,
      "velocity": 98,
      "chip": "ym2612"
    },
    {
      "channel": 3,
      "note": 60,
      "start": 60.7265,
      "duration": 0.159,
      "velocity": 98,
      "chip": "ym2612"
    },
    {
      "channel": 0,
      "note": 65,
      "start": 61.0045,
      "duration": 0.7073,
      "velocity": 98,
      "chip": "ym2612"
    },
    {
      "channel": 1,
      "note": 62,
      "start": 61.0047,
      "duration": 0.7073,
      "velocity": 98,
      "chip": "ym2612"
    },
    {
      "channel": 4,
      "note": 53,
      "start": 61.0051,
      "duration": 0.7073,
      "velocity": 114,
      "chip": "ym2612"
    },
    {
      "channel": 2,
      "note": 65,
      "start": 61.0625,
      "duration": 0.7073,
      "velocity": 98,
      "chip": "ym2612"
    },
    {
      "channel": 3,
      "note": 62,
      "start": 61.0628,
      "duration": 0.7074,
      "velocity": 98,
      "chip": "ym2612"
    },
    {
      "channel": 0,
      "note": 69,
      "start": 61.7119,
      "duration": 0.7684,
      "velocity": 98,
      "chip": "ym2612"
    },
    {
      "channel": 1,
      "note": 60,
      "start": 61.7122,
      "duration": 0.7684,
      "velocity": 98,
      "chip": "ym2612"
    },
    {
      "channel": 4,
      "note": 57,
      "start": 61.7126,
      "duration": 0.7684,
      "velocity": 114,
      "chip": "ym2612"
    },
    {
      "channel": 2,
      "note": 69,
      "start": 61.77,
      "duration": 0.7256,
      "velocity": 98,
      "chip": "ym2612"
    },
    {
      "channel": 3,
      "note": 60,
      "start": 61.7703,
      "duration": 0.7256,
      "velocity": 98,
      "chip": "ym2612"
    },
    {
      "channel": 0,
      "note": 70,
      "start": 62.4805,
      "duration": 0.4429,
      "velocity": 98,
      "chip": "ym2612"
    },
    {
      "channel": 1,
      "note": 62,
      "start": 62.4807,
      "duration": 0.4429,
      "velocity": 98,
      "chip": "ym2612"
    },
    {
      "channel": 4,
      "note": 58,
      "start": 62.4812,
      "duration": 2.6163,
      "velocity": 114,
      "chip": "ym2612"
    },
    {
      "channel": 2,
      "note": 70,
      "start": 62.4958,
      "duration": 0.4857,
      "velocity": 98,
      "chip": "ym2612"
    },
    {
      "channel": 3,
      "note": 62,
      "start": 62.496,
      "duration": 0.4857,
      "velocity": 98,
      "chip": "ym2612"
    },
    {
      "channel": 0,
      "note": 70,
      "start": 62.9235,
      "duration": 0.4146,
      "velocity": 98,
      "chip": "ym2612"
    },
    {
      "channel": 1,
      "note": 62,
      "start": 62.9238,
      "duration": 0.4146,
      "velocity": 98,
      "chip": "ym2612"
    },
    {
      "channel": 2,
      "note": 70,
      "start": 62.9816,
      "duration": 0.3711,
      "velocity": 98,
      "chip": "ym2612"
    },
    {
      "channel": 3,
      "note": 62,
      "start": 62.9818,
      "duration": 0.3711,
      "velocity": 98,
      "chip": "ym2612"
    },
    {
      "channel": 0,
      "note": 72,
      "start": 63.3383,
      "duration": 0.3536,
      "velocity": 98,
      "chip": "ym2612"
    },
    {
      "channel": 1,
      "note": 65,
      "start": 63.3385,
      "duration": 0.3536,
      "velocity": 98,
      "chip": "ym2612"
    },
    {
      "channel": 2,
      "note": 72,
      "start": 63.3528,
      "duration": 0.3972,
      "velocity": 98,
      "chip": "ym2612"
    },
    {
      "channel": 3,
      "note": 65,
      "start": 63.3531,
      "duration": 0.3972,
      "velocity": 98,
      "chip": "ym2612"
    },
    {
      "channel": 0,
      "note": 77,
      "start": 63.692,
      "duration": 0.0577,
      "velocity": 98,
      "chip": "ym2612"
    },
    {
      "channel": 1,
      "note": 67,
      "start": 63.6923,
      "duration": 0.0575,
      "velocity": 98,
      "chip": "ym2612"
    },
    {
      "channel": 2,
      "note": 77,
      "start": 63.7501,
      "duration": 0.1187,
      "velocity": 98,
      "chip": "ym2612"
    },
    {
      "channel": 3,
      "note": 67,
      "start": 63.7504,
      "duration": 0.1185,
      "velocity": 98,
      "chip": "ym2612"
    },
    {
      "channel": 0,
      "note": 70,
      "start": 64.1068,
      "duration": 0.7074,
      "velocity": 98,
      "chip": "ym2612"
    },
    {
      "channel": 1,
      "note": 62,
      "start": 64.107,
      "duration": 0.7074,
      "velocity": 98,
      "chip": "ym2612"
    },
    {
      "channel": 2,
      "note": 70,
      "start": 64.1212,
      "duration": 0.7084,
      "velocity": 98,
      "chip": "ym2612"
    },
    {
      "channel": 3,
      "note": 62,
      "start": 64.1215,
      "duration": 0.7084,
      "velocity": 98,
      "chip": "ym2612"
    },
    {
      "channel": 0,
      "note": 74,
      "start": 64.8143,
      "duration": 0.0446,
      "velocity": 98,
      "chip": "ym2612"
    },
    {
      "channel": 1,
      "note": 67,
      "start": 64.8146,
      "duration": 0.0446,
      "velocity": 98,
      "chip": "ym2612"
    },
    {
      "channel": 2,
      "note": 74,
      "start": 64.8297,
      "duration": 0.1483,
      "velocity": 98,
      "chip": "ym2612"
    },
    {
      "channel": 3,
      "note": 67,
      "start": 64.83,
      "duration": 0.1482,
      "velocity": 98,
      "chip": "ym2612"
    },
    {
      "channel": 0,
      "note": 75,
      "start": 64.859,
      "duration": 0.2378,
      "velocity": 98,
      "chip": "ym2612"
    },
    {
      "channel": 1,
      "note": 72,
      "start": 64.8593,
      "duration": 0.2378,
      "velocity": 98,
      "chip": "ym2612"
    },
    {
      "channel": 2,
      "note": 75,
      "start": 64.9781,
      "duration": 0.1767,
      "velocity": 98,
      "chip": "ym2612"
    },
    {
      "channel": 3,
      "note": 72,
      "start": 64.9784,
      "duration": 0.1767,
      "velocity": 98,
      "chip": "ym2612"
    },
    {
      "channel": 0,
      "note": 77,
      "start": 65.0969,
      "duration": 0.7073,
      "velocity": 98,
      "chip": "ym2612"
    },
    {
      "channel": 1,
      "note": 74,
      "start": 65.0972,
      "duration": 0.7073,
      "velocity": 98,
      "chip": "ym2612"
    },
    {
      "channel": 4,
      "note": 53,
      "start": 65.0976,
      "duration": 1.4148,
      "velocity": 114,
      "chip": "ym2612"
    },
    {
      "channel": 2,
      "note": 77,
      "start": 65.1549,
      "duration": 0.7074,
      "velocity": 98,
      "chip": "ym2612"
    },
    {
      "channel": 3,
      "note": 74,
      "start": 65.1552,
      "duration": 0.7073,
      "velocity": 98,
      "chip": "ym2612"
    },
    {
      "channel": 0,
      "note": 75,
      "start": 65.8044,
      "duration": 0.4146,
      "velocity": 98,
      "chip": "ym2612"
    },
    {
      "channel": 1,
      "note": 72,
      "start": 65.8046,
      "duration": 0.4146,
      "velocity": 98,
      "chip": "ym2612"
    },
    {
      "channel": 2,
      "note": 75,
      "start": 65.8624,
      "duration": 0.3711,
      "velocity": 98,
      "chip": "ym2612"
    },
    {
      "channel": 3,
      "note": 72,
      "start": 65.8627,
      "duration": 0.3711,
      "velocity": 98,
      "chip": "ym2612"
    },
    {
      "channel": 0,
      "note": 74,
      "start": 66.2192,
      "duration": 0.2926,
      "velocity": 98,
      "chip": "ym2612"
    },
    {
      "channel": 1,
      "note": 70,
      "start": 66.2194,
      "duration": 0.2926,
      "velocity": 98,
      "chip": "ym2612"
    },
    {
      "channel": 2,
      "note": 74,
      "start": 66.2337,
      "duration": 0.3361,
      "velocity": 98,
      "chip": "ym2612"
    },
    {
      "channel": 3,
      "note": 70,
      "start": 66.234,
      "duration": 0.3361,
      "velocity": 98,
      "chip": "ym2612"
    },
    {
      "channel": 0,
      "note": 72,
      "start": 66.5119,
      "duration": 0.7073,
      "velocity": 98,
      "chip": "ym2612"
    },
    {
      "channel": 1,
      "note": 69,
      "start": 66.5122,
      "duration": 0.7073,
      "velocity": 98,
      "chip": "ym2612"
    },
    {
      "channel": 4,
      "note": 55,
      "start": 66.5126,
      "duration": 0.7073,
      "velocity": 114,
      "chip": "ym2612"
    },
    {
      "channel": 2,
      "note": 72,
      "start": 66.5699,
      "duration": 0.7073,
      "velocity": 98,
      "chip": "ym2612"
    },
    {
      "channel": 3,
      "note": 69,
      "start": 66.5702,
      "duration": 0.7073,
      "velocity": 98,
      "chip": "ym2612"
    },
    {
      "channel": 0,
      "note": 74,
      "start": 67.2194,
      "duration": 0.7684,
      "velocity": 98,
      "chip": "ym2612"
    },
    {
      "channel": 1,
      "note": 70,
      "start": 67.2196,
      "duration": 0.4144,
      "velocity": 98,
      "chip": "ym2612"
    },
    {
      "channel": 4,
      "note": 53,
      "start": 67.22,
      "duration": 0.7684,
      "velocity": 114,
      "chip": "ym2612"
    },
    {
      "channel": 2,
      "note": 74,
      "start": 67.2774,
      "duration": 0.7255,
      "velocity": 98,
      "chip": "ym2612"
    },
    {
      "channel": 3,
      "note": 70,
      "start": 67.2777,
      "duration": 0.3712,
      "velocity": 98,
      "chip": "ym2612"
    },
    {
      "channel": 1,
      "note": 69,
      "start": 67.6342,
      "duration": 0.3538,
      "velocity": 98,
      "chip": "ym2612"
    },
    {
      "channel": 3,
      "note": 69,
      "start": 67.649,
      "duration": 0.3542,
      "velocity": 98,
      "chip": "ym2612"
    },
    {
      "channel": 0,
      "note": 70,
      "start": 67.9879,
      "duration": 0.4428,
      "velocity": 98,
      "chip": "ym2612"
    },
    {
      "channel": 1,
      "note": 65,
      "start": 67.9882,
      "duration": 0.4428,
      "velocity": 98,
      "chip": "ym2612"
    },
    {
      "channel": 4,
      "note": 58,
      "start": 67.9885,
      "duration": 2.6161,
      "velocity": 114,
      "chip": "ym2612"
    },
    {
      "channel": 2,
      "note": 70,
      "start": 68.0031,
      "duration": 0.4856,
      "velocity": 98,
      "chip": "ym2612"
    },
    {
      "channel": 3,
      "note": 65,
      "start": 68.0034,
      "duration": 0.4856,
      "velocity": 98,
      "chip": "ym2612"
    },
    {
      "channel": 0,
      "note": 70,
      "start": 68.4308,
      "duration": 0.4146,
      "velocity": 98,
      "chip": "ym2612"
    },
    {
      "channel": 1,
      "note": 65,
      "start": 68.4311,
      "duration": 0.4146,
      "velocity": 98,
      "chip": "ym2612"
    },
    {
      "channel": 2,
      "note": 70,
      "start": 68.4888,
      "duration": 0.3711,
      "velocity": 98,
      "chip": "ym2612"
    },
    {
      "channel": 3,
      "note": 65,
      "start": 68.4891,
      "duration": 0.3711,
      "velocity": 98,
      "chip": "ym2612"
    },
    {
      "channel": 0,
      "note": 72,
      "start": 68.8456,
      "duration": 0.3536,
      "velocity": 98,
      "chip": "ym2612"
    },
    {
      "channel": 1,
      "note": 67,
      "start": 68.8458,
      "duration": 0.3535,
      "velocity": 98,
      "chip": "ym2612"
    },
    {
      "channel": 2,
      "note": 72,
      "start": 68.8601,
      "duration": 0.3971,
      "velocity": 98,
      "chip": "ym2612"
    },
    {
      "channel": 3,
      "note": 67,
      "start": 68.8603,
      "duration": 0.3971,
      "velocity": 98,
      "chip": "ym2612"
    },
    {
      "channel": 0,
      "note": 77,
      "start": 69.1993,
      "duration": 0.0577,
      "velocity": 98,
      "chip": "ym2612"
    },
    {
      "channel": 1,
      "note": 72,
      "start": 69.1995,
      "duration": 0.0575,
      "velocity": 98,
      "chip": "ym2612"
    },
    {
      "channel": 2,
      "note": 77,
      "start": 69.2573,
      "duration": 0.1187,
      "velocity": 98,
      "chip": "ym2612"
    },
    {
      "channel": 3,
      "note": 72,
      "start": 69.2576,
      "duration": 0.1186,
      "velocity": 98,
      "chip": "ym2612"
    },
    {
      "channel": 0,
      "note": 70,
      "start": 69.614,
      "duration": 0.7074,
      "velocity": 98,
      "chip": "ym2612"
    },
    {
      "channel": 1,
      "note": 65,
      "start": 69.6143,
      "duration": 0.7074,
      "velocity": 98,
      "chip": "ym2612"
    },
    {
      "channel": 2,
      "note": 70,
      "start": 69.6284,
      "duration": 0.7084,
      "velocity": 98,
      "chip": "ym2612"
    },
    {
      "channel": 3,
      "note": 65,
      "start": 69.6287,
      "duration": 0.7084,
      "velocity": 98,
      "chip": "ym2612"
    },
    {
      "channel": 0,
      "note": 65,
      "start": 70.3215,
      "duration": 0.2824,
      "velocity": 98,
      "chip": "ym2612"
    },
    {
      "channel": 1,
      "note": 60,
      "start": 70.3218,
      "duration": 0.2824,
      "velocity": 98,
      "chip": "ym2612"
    },
    {
      "channel": 2,
      "note": 65,
      "start": 70.3369,
      "duration": 0.3251,
      "velocity": 98,
      "chip": "ym2612"
    },
    {
      "channel": 3,
      "note": 60,
      "start": 70.3372,
      "duration": 0.3251,
      "velocity": 98,
      "chip": "ym2612"
    },
    {
      "channel": 0,
      "note": 67,
      "start": 70.6041,
      "duration": 0.7073,
      "velocity": 98,
      "chip": "ym2612"
    },
    {
      "channel": 1,
      "note": 62,
      "start": 70.6044,
      "duration": 0.7072,
      "velocity": 98,
      "chip": "ym2612"
    },
    {
      "channel": 4,
      "note": 55,
      "start": 70.6048,
      "duration": 1.4149,
      "velocity": 114,
      "chip": "ym2612"
    },
    {
      "channel": 2,
      "note": 67,
      "start": 70.6622,
      "duration": 0.7073,
      "velocity": 98,
      "chip": "ym2612"
    },
    {
      "channel": 3,
      "note": 62,
      "start": 70.6625,
      "duration": 0.7072,
      "velocity": 98,
      "chip": "ym2612"
    },
    {
      "channel": 1,
      "note": 58,
      "start": 71.3117,
      "duration": 0.4148,
      "velocity": 98,
      "chip": "ym2612"
    },
    {
      "channel": 3,
      "note": 58,
      "start": 71.3698,
      "duration": 0.3713,
      "velocity": 98,
      "chip": "ym2612"
    },
    {
      "channel": 0,
      "note": 75,
      "start": 71.7264,
      "duration": 0.1157,
      "velocity": 98,
      "chip": "ym2612"
    },
    {
      "channel": 1,
      "note": 72,
      "start": 71.7267,
      "duration": 0.1157,
      "velocity": 98,
      "chip": "ym2612"
    },
    {
      "channel": 2,
      "note": 75,
      "start": 71.741,
      "duration": 0.1592,
      "velocity": 98,
      "chip": "ym2612"
    },
    {
      "channel": 3,
      "note": 72,
      "start": 71.7412,
      "duration": 0.1592,
      "velocity": 98,
      "chip": "ym2612"
    },
    {
      "channel": 0,
      "note": 74,
      "start": 71.8423,
      "duration": 0.1767,
      "velocity": 98,
      "chip": "ym2612"
    },
    {
      "channel": 1,
      "note": 70,
      "start": 71.8426,
      "duration": 0.1767,
      "velocity": 98,
      "chip": "ym2612"
    },
    {
      "channel": 2,
      "note": 74,
      "start": 71.9003,
      "duration": 0.1767,
      "velocity": 98,
      "chip": "ym2612"
    },
    {
      "channel": 3,
      "note": 70,
      "start": 71.9006,
      "duration": 0.1767,
      "velocity": 98,
      "chip": "ym2612"
    },
    {
      "channel": 0,
      "note": 74,
      "start": 72.0191,
      "duration": 0.4146,
      "velocity": 98,
      "chip": "ym2612"
    },
    {
      "channel": 1,
      "note": 70,
      "start": 72.0194,
      "duration": 0.4146,
      "velocity": 98,
      "chip": "ym2612"
    },
    {
      "channel": 4,
      "note": 53,
      "start": 72.0198,
      "duration": 0.7074,
      "velocity": 114,
      "chip": "ym2612"
    },
    {
      "channel": 2,
      "note": 74,
      "start": 72.0772,
      "duration": 0.371,
      "velocity": 98,
      "chip": "ym2612"
    },
    {
      "channel": 3,
      "note": 70,
      "start": 72.0775,
      "duration": 0.371,
      "velocity": 98,
      "chip": "ym2612"
    },
    {
      "channel": 0,
      "note": 72,
      "start": 72.4339,
      "duration": 0.2926,
      "velocity": 98,
      "chip": "ym2612"
    },
    {
      "channel": 1,
      "note": 69,
      "start": 72.4341,
      "duration": 0.2926,
      "velocity": 98,
      "chip": "ym2612"
    },
    {
      "channel": 2,
      "note": 72,
      "start": 72.4483,
      "duration": 0.3363,
      "velocity": 98,
      "chip": "ym2612"
    },
    {
      "channel": 3,
      "note": 69,
      "start": 72.4486,
      "duration": 0.3363,
      "velocity": 98,
      "chip": "ym2612"
    },
    {
      "channel": 0,
      "note": 70,
      "start": 72.7266,
      "duration": 0.4146,
      "velocity": 98,
      "chip": "ym2612"
    },
    {
      "channel": 1,
      "note": 67,
      "start": 72.7269,
      "duration": 0.4146,
      "velocity": 98,
      "chip": "ym2612"
    },
    {
      "channel": 4,
      "note": 57,
      "start": 72.7273,
      "duration": 0.7683,
      "velocity": 114,
      "chip": "ym2612"
    },
    {
      "channel": 2,
      "note": 70,
      "start": 72.7847,
      "duration": 0.3716,
      "velocity": 98,
      "chip": "ym2612"
    },
    {
      "channel": 3,
      "note": 67,
      "start": 72.785,
      "duration": 0.3716,
      "velocity": 98,
      "chip": "ym2612"
    },
    {
      "channel": 0,
      "note": 72,
      "start": 73.1414,
      "duration": 0.3536,
      "velocity": 98,
      "chip": "ym2612"
    },
    {
      "channel": 1,
      "note": 69,
      "start": 73.1417,
      "duration": 0.3536,
      "velocity": 98,
      "chip": "ym2612"
    },
    {
      "channel": 2,
      "note": 72,
      "start": 73.1564,
      "duration": 0.3538,
      "velocity": 98,
      "chip": "ym2612"
    },
    {
      "channel": 3,
      "note": 69,
      "start": 73.1567,
      "duration": 0.3538,
      "velocity": 98,
      "chip": "ym2612"
    },
    {
      "channel": 0,
      "note": 70,
      "start": 73.4951,
      "duration": 0.4428,
      "velocity": 98,
      "chip": "ym2612"
    },
    {
      "channel": 1,
      "note": 65,
      "start": 73.4954,
      "duration": 0.4428,
      "velocity": 98,
      "chip": "ym2612"
    },
    {
      "channel": 4,
      "note": 58,
      "start": 73.4958,
      "duration": 2.6162,
      "velocity": 114,
      "chip": "ym2612"
    },
    {
      "channel": 2,
      "note": 70,
      "start": 73.5103,
      "duration": 0.4856,
      "velocity": 98,
      "chip": "ym2612"
    },
    {
      "channel": 3,
      "note": 65,
      "start": 73.5106,
      "duration": 0.4856,
      "velocity": 98,
      "chip": "ym2612"
    },
    {
      "channel": 0,
      "note": 70,
      "start": 73.938,
      "duration": 0.4146,
      "velocity": 98,
      "chip": "ym2612"
    },
    {
      "channel": 1,
      "note": 65,
      "start": 73.9383,
      "duration": 0.4146,
      "velocity": 98,
      "chip": "ym2612"
    },
    {
      "channel": 2,
      "note": 70,
      "start": 73.9961,
      "duration": 0.3711,
      "velocity": 98,
      "chip": "ym2612"
    },
    {
      "channel": 3,
      "note": 65,
      "start": 73.9964,
      "duration": 0.3711,
      "velocity": 98,
      "chip": "ym2612"
    },
    {
      "channel": 0,
      "note": 72,
      "start": 74.3528,
      "duration": 0.3536,
      "velocity": 98,
      "chip": "ym2612"
    },
    {
      "channel": 1,
      "note": 67,
      "start": 74.3531,
      "duration": 0.3536,
      "velocity": 98,
      "chip": "ym2612"
    },
    {
      "channel": 2,
      "note": 72,
      "start": 74.3673,
      "duration": 0.3971,
      "velocity": 98,
      "chip": "ym2612"
    },
    {
      "channel": 3,
      "note": 67,
      "start": 74.3676,
      "duration": 0.3971,
      "velocity": 98,
      "chip": "ym2612"
    },
    {
      "channel": 0,
      "note": 77,
      "start": 74.7066,
      "duration": 0.0577,
      "velocity": 98,
      "chip": "ym2612"
    },
    {
      "channel": 1,
      "note": 72,
      "start": 74.7068,
      "duration": 0.0576,
      "velocity": 98,
      "chip": "ym2612"
    },
    {
      "channel": 2,
      "note": 77,
      "start": 74.7646,
      "duration": 0.1187,
      "velocity": 98,
      "chip": "ym2612"
    },
    {
      "channel": 3,
      "note": 72,
      "start": 74.7649,
      "duration": 0.1185,
      "velocity": 98,
      "chip": "ym2612"
    },
    {
      "channel": 0,
      "note": 70,
      "start": 75.1213,
      "duration": 0.7075,
      "velocity": 98,
      "chip": "ym2612"
    },
    {
      "channel": 1,
      "note": 65,
      "start": 75.1215,
      "duration": 0.7074,
      "velocity": 98,
      "chip": "ym2612"
    },
    {
      "channel": 2,
      "note": 70,
      "start": 75.1357,
      "duration": 0.7084,
      "velocity": 98,
      "chip": "ym2612"
    },
    {
      "channel": 3,
      "note": 65,
      "start": 75.136,
      "duration": 0.7084,
      "velocity": 98,
      "chip": "ym2612"
    },
    {
      "channel": 0,
      "note": 74,
      "start": 75.8289,
      "duration": 0.0446,
      "velocity": 98,
      "chip": "ym2612"
    },
    {
      "channel": 1,
      "note": 69,
      "start": 75.8291,
      "duration": 0.0446,
      "velocity": 98,
      "chip": "ym2612"
    },
    {
      "channel": 2,
      "note": 74,
      "start": 75.8443,
      "duration": 0.1483,
      "velocity": 98,
      "chip": "ym2612"
    },
    {
      "channel": 3,
      "note": 69,
      "start": 75.8446,
      "duration": 0.1483,
      "velocity": 98,
      "chip": "ym2612"
    },
    {
      "channel": 0,
      "note": 75,
      "start": 75.8736,
      "duration": 0.2378,
      "velocity": 98,
      "chip": "ym2612"
    },
    {
      "channel": 1,
      "note": 70,
      "start": 75.8739,
      "duration": 0.2378,
      "velocity": 98,
      "chip": "ym2612"
    },
    {
      "channel": 2,
      "note": 75,
      "start": 75.9927,
      "duration": 0.1767,
      "velocity": 98,
      "chip": "ym2612"
    },
    {
      "channel": 3,
      "note": 70,
      "start": 75.9929,
      "duration": 0.1767,
      "velocity": 98,
      "chip": "ym2612"
    },
    {
      "channel": 0,
      "note": 77,
      "start": 76.1115,
      "duration": 0.7074,
      "velocity": 98,
      "chip": "ym2612"
    },
    {
      "channel": 1,
      "note": 72,
      "start": 76.1117,
      "duration": 0.1766,
      "velocity": 98,
      "chip": "ym2612"
    },
    {
      "channel": 4,
      "note": 53,
      "start": 76.1122,
      "duration": 1.4148,
      "velocity": 114,
      "chip": "ym2612"
    },
    {
      "channel": 2,
      "note": 77,
      "start": 76.1695,
      "duration": 0.7073,
      "velocity": 98,
      "chip": "ym2612"
    },
    {
      "channel": 3,
      "note": 72,
      "start": 76.1698,
      "duration": 0.2376,
      "velocity": 98,
      "chip": "ym2612"
    },
    {
      "channel": 1,
      "note": 70,
      "start": 76.2885,
      "duration": 0.2378,
      "velocity": 98,
      "chip": "ym2612"
    },
    {
      "channel": 3,
      "note": 70,
      "start": 76.4076,
      "duration": 0.1329,
      "velocity": 98,
      "chip": "ym2612"
    },
    {
      "channel": 1,
      "note": 69,
      "start": 76.5263,
      "duration": 0.1157,
      "velocity": 98,
      "chip": "ym2612"
    },
    {
      "channel": 3,
      "note": 69,
      "start": 76.5406,
      "duration": 0.1595,
      "velocity": 98,
      "chip": "ym2612"
    },
    {
      "channel": 1,
      "note": 65,
      "start": 76.6422,
      "duration": 0.1769,
      "velocity": 98,
      "chip": "ym2612"
    },
    {
      "channel": 3,
      "note": 65,
      "start": 76.7003,
      "duration": 0.1769,
      "velocity": 98,
      "chip": "ym2612"
    },
    {
      "channel": 0,
      "note": 75,
      "start": 76.819,
      "duration": 0.4146,
      "velocity": 98,
      "chip": "ym2612"
    },
    {
      "channel": 1,
      "note": 70,
      "start": 76.8193,
      "duration": 0.1765,
      "velocity": 98,
      "chip": "ym2612"
    },
    {
      "channel": 2,
      "note": 75,
      "start": 76.8771,
      "duration": 0.3711,
      "velocity": 98,
      "chip": "ym2612"
    },
    {
      "channel": 3,
      "note": 70,
      "start": 76.8773,
      "duration": 0.2375,
      "velocity": 98,
      "chip": "ym2612"
    },
    {
      "channel": 1,
      "note": 67,
      "start": 76.9959,
      "duration": 0.2379,
      "velocity": 98,
      "chip": "ym2612"
    },
    {
      "channel": 3,
      "note": 67,
      "start": 77.115,
      "duration": 0.1334,
      "velocity": 98,
      "chip": "ym2612"
    },
    {
      "channel": 0,
      "note": 74,
      "start": 77.2337,
      "duration": 0.2925,
      "velocity": 98,
      "chip": "ym2612"
    },
    {
      "channel": 1,
      "note": 65,
      "start": 77.234,
      "duration": 0.1155,
      "velocity": 98,
      "chip": "ym2612"
    },
    {
      "channel": 2,
      "note": 74,
      "start": 77.2483,
      "duration": 0.336,
      "velocity": 98,
      "chip": "ym2612"
    },
    {
      "channel": 3,
      "note": 65,
      "start": 77.2485,
      "duration": 0.159,
      "velocity": 98,
      "chip": "ym2612"
    },
    {
      "channel": 1,
      "note": 63,
      "start": 77.3497,
      "duration": 0.1769,
      "velocity": 98,
      "chip": "ym2612"
    },
    {
      "channel": 3,
      "note": 63,
      "start": 77.4077,
      "duration": 0.1769,
      "velocity": 98,
      "chip": "ym2612"
    },
    {
      "channel": 0,
      "note": 72,
      "start": 77.5264,
      "duration": 0.7073,
      "velocity": 98,
      "chip": "ym2612"
    },
    {
      "channel": 1,
      "note": 67,
      "start": 77.5267,
      "duration": 0.7073,
      "velocity": 98,
      "chip": "ym2612"
    },
    {
      "channel": 4,
      "note": 55,
      "start": 77.5271,
      "duration": 0.7073,
      "velocity": 114,
      "chip": "ym2612"
    },
    {
      "channel": 2,
      "note": 72,
      "start": 77.5845,
      "duration": 0.7073,
      "velocity": 98,
      "chip": "ym2612"
    },
    {
      "channel": 3,
      "note": 67,
      "start": 77.5847,
      "duration": 0.7073,
      "velocity": 98,
      "chip": "ym2612"
    },
    {
      "channel": 0,
      "note": 74,
      "start": 78.2339,
      "duration": 0.5305,
      "velocity": 98,
      "chip": "ym2612"
    },
    {
      "channel": 1,
      "note": 65,
      "start": 78.2341,
      "duration": 0.4144,
      "velocity": 98,
      "chip": "ym2612"
    },
    {
      "channel": 4,
      "note": 53,
      "start": 78.2345,
      "duration": 0.7683,
      "velocity": 114,
      "chip": "ym2612"
    },
    {
      "channel": 2,
      "note": 74,
      "start": 78.2919,
      "duration": 0.5915,
      "velocity": 98,
      "chip": "ym2612"
    },
    {
      "channel": 3,
      "note": 65,
      "start": 78.2922,
      "duration": 0.371,
      "velocity": 98,
      "chip": "ym2612"
    },
    {
      "channel": 0,
      "note": 70,
      "start": 79.0024,
      "duration": 0.2661,
      "velocity": 98,
      "chip": "ym2612"
    },
    {
      "channel": 4,
      "note": 58,
      "start": 79.0029,
      "duration": 0.1502,
      "velocity": 114,
      "chip": "ym2612"
    },
    {
      "channel": 2,
      "note": 70,
      "start": 79.0176,
      "duration": 0.3091,
      "velocity": 98,
      "chip": "ym2612"
    },
    {
      "channel": 3,
      "note": 82,
      "start": 79.0179,
      "duration": 0.0264,
      "velocity": 98,
      "chip": "ym2612"
    },
    {
      "channel": 3,
      "note": 77,
      "start": 79.0445,
      "duration": 0.1224,
      "velocity": 98,
      "chip": "ym2612"
    },
    {
      "channel": 1,
      "note": 62,
      "start": 79.1529,
      "duration": 0.2927,
      "velocity": 98,
      "chip": "ym2612"
    },
    {
      "channel": 0,
      "note": 65,
      "start": 79.2686,
      "duration": 0.0578,
      "velocity": 98,
      "chip": "ym2612"
    },
    {
      "channel": 4,
      "note": 58,
      "start": 79.2691,
      "duration": 0.0581,
      "velocity": 114,
      "chip": "ym2612"
    },
    {
      "channel": 0,
      "note": 70,
      "start": 79.3266,
      "duration": 0.1188,
      "velocity": 98,
      "chip": "ym2612"
    },
    {
      "channel": 2,
      "note": 65,
      "start": 79.3269,
      "duration": 0.1188,
      "velocity": 98,
      "chip": "ym2612"
    },
    {
      "channel": 3,
      "note": 75,
      "start": 79.3271,
      "duration": 0.1765,
      "velocity": 98,
      "chip": "ym2612"
    },
    {
      "channel": 0,
      "note": 77,
      "start": 79.4455,
      "duration": 0.7684,
      "velocity": 98,
      "chip": "ym2612"
    },
    {
      "channel": 2,
      "note": 70,
      "start": 79.4459,
      "duration": 0.0576,
      "velocity": 98,
      "chip": "ym2612"
    },
    {
      "channel": 4,
      "note": 58,
      "start": 79.4462,
      "duration": 0.4141,
      "velocity": 114,
      "chip": "ym2612"
    },
    {
      "channel": 2,
      "note": 77,
      "start": 79.5036,
      "duration": 0.7684,
      "velocity": 98,
      "chip": "ym2612"
    },
    {
      "channel": 3,
      "note": 82,
      "start": 79.5038,
      "duration": 0.2376,
      "velocity": 98,
      "chip": "ym2612"
    },
    {
      "channel": 1,
      "note": 62,
      "start": 79.6224,
      "duration": 0.3536,
      "velocity": 98,
      "chip": "ym2612"
    },
    {
      "channel": 3,
      "note": 77,
      "start": 79.7415,
      "duration": 0.1327,
      "velocity": 98,
      "chip": "ym2612"
    },
    {
      "channel": 0,
      "note": 79,
      "start": 80.214,
      "duration": 0.0577,
      "velocity": 98,
      "chip": "ym2612"
    },
    {
      "channel": 4,
      "note": 58,
      "start": 80.2145,
      "duration": 0.4147,
      "velocity": 114,
      "chip": "ym2612"
    },
    {
      "channel": 2,
      "note": 79,
      "start": 80.2721,
      "duration": 0.1189,
      "velocity": 98,
      "chip": "ym2612"
    },
    {
      "channel": 3,
      "note": 82,
      "start": 80.2723,
      "duration": 0.2378,
      "velocity": 98,
      "chip": "ym2612"
    },
    {
      "channel": 0,
      "note": 79,
      "start": 80.3909,
      "duration": 0.1188,
      "velocity": 98,
      "chip": "ym2612"
    },
    {
      "channel": 2,
      "note": 79,
      "start": 80.51,
      "duration": 0.1191,
      "velocity": 98,
      "chip": "ym2612"
    },
    {
      "channel": 3,
      "note": 77,
      "start": 80.5102,
      "duration": 0.133,
      "velocity": 98,
      "chip": "ym2612"
    },
    {
      "channel": 0,
      "note": 81,
      "start": 80.6288,
      "duration": 0.014,
      "velocity": 98,
      "chip": "ym2612"
    },
    {
      "channel": 1,
      "note": 62,
      "start": 80.629,
      "duration": 0.2926,
      "velocity": 98,
      "chip": "ym2612"
    },
    {
      "channel": 2,
      "note": 81,
      "start": 80.6432,
      "duration": 0.1016,
      "velocity": 98,
      "chip": "ym2612"
    },
    {
      "channel": 0,
      "note": 82,
      "start": 80.7446,
      "duration": 0.0579,
      "velocity": 98,
      "chip": "ym2612"
    },
    {
      "channel": 4,
      "note": 58,
      "start": 80.7451,
      "duration": 0.0581,
      "velocity": 114,
      "chip": "ym2612"
    },
    {
      "channel": 2,
      "note": 82,
      "start": 80.8029,
      "duration": 0.119,
      "velocity": 98,
      "chip": "ym2612"
    },
    {
      "channel": 3,
      "note": 74,
      "start": 80.8031,
      "duration": 0.1766,
      "velocity": 98,
      "chip": "ym2612"
    },
    {
      "channel": 0,
      "note": 77,
      "start": 80.9215,
      "duration": 0.6971,
      "velocity": 98,
      "chip": "ym2612"
    },
    {
      "channel": 1,
      "note": 60,
      "start": 80.9218,
      "duration": 0.1765,
      "velocity": 98,
      "chip": "ym2612"
    },
    {
      "channel": 4,
      "note": 58,
      "start": 80.9222,
      "duration": 0.4142,
      "velocity": 114,
      "chip": "ym2612"
    },
    {
      "channel": 2,
      "note": 77,
      "start": 80.9795,
      "duration": 0.6971,
      "velocity": 98,
      "chip": "ym2612"
    },
    {
      "channel": 3,
      "note": 82,
      "start": 80.9798,
      "duration": 0.2376,
      "velocity": 98,
      "chip": "ym2612"
    },
    {
      "channel": 1,
      "note": 62,
      "start": 81.0984,
      "duration": 0.2823,
      "velocity": 98,
      "chip": "ym2612"
    },
    {
      "channel": 3,
      "note": 77,
      "start": 81.2175,
      "duration": 0.1335,
      "velocity": 98,
      "chip": "ym2612"
    },
    {
      "channel": 0,
      "note": 79,
      "start": 81.6188,
      "duration": 0.0577,
      "velocity": 98,
      "chip": "ym2612"
    },
    {
      "channel": 1,
      "note": 63,
      "start": 81.619,
      "duration": 0.7073,
      "velocity": 98,
      "chip": "ym2612"
    },
    {
      "channel": 4,
      "note": 58,
      "start": 81.6194,
      "duration": 0.4144,
      "velocity": 114,
      "chip": "ym2612"
    },
    {
      "channel": 2,
      "note": 79,
      "start": 81.6768,
      "duration": 0.1189,
      "velocity": 98,
      "chip": "ym2612"
    },
    {
      "channel": 3,
      "note": 79,
      "start": 81.6771,
      "duration": 0.1188,
      "velocity": 98,
      "chip": "ym2612"
    },
    {
      "channel": 0,
      "note": 79,
      "start": 81.7956,
      "duration": 0.1188,
      "velocity": 98,
      "chip": "ym2612"
    },
    {
      "channel": 2,
      "note": 79,
      "start": 81.9147,
      "duration": 0.1189,
      "velocity": 98,
      "chip": "ym2612"
    },
    {
      "channel": 3,
      "note": 79,
      "start": 81.915,
      "duration": 0.1188,
      "velocity": 98,
      "chip": "ym2612"
    },
    {
      "channel": 0,
      "note": 75,
      "start": 82.0335,
      "duration": 0.0139,
      "velocity": 98,
      "chip": "ym2612"
    },
    {
      "channel": 2,
      "note": 75,
      "start": 82.0477,
      "duration": 0.1018,
      "velocity": 98,
      "chip": "ym2612"
    },
    {
      "channel": 3,
      "note": 79,
      "start": 82.048,
      "duration": 0.1016,
      "velocity": 98,
      "chip": "ym2612"
    },
    {
      "channel": 0,
      "note": 74,
      "start": 82.1494,
      "duration": 0.0579,
      "velocity": 98,
      "chip": "ym2612"
    },
    {
      "channel": 4,
      "note": 58,
      "start": 82.1499,
      "duration": 0.058,
      "velocity": 114,
      "chip": "ym2612"
    },
    {
      "channel": 2,
      "note": 74,
      "start": 82.2076,
      "duration": 0.119,
      "velocity": 98,
      "chip": "ym2612"
    },
    {
      "channel": 3,
      "note": 75,
      "start": 82.2079,
      "duration": 0.5476,
      "velocity": 98,
      "chip": "ym2612"
    },
    {
      "channel": 0,
      "note": 72,
      "start": 82.3263,
      "duration": 0.4146,
      "velocity": 98,
      "chip": "ym2612"
    },
    {
      "channel": 1,
      "note": 60,
      "start": 82.3265,
      "duration": 0.7073,
      "velocity": 98,
      "chip": "ym2612"
    },
    {
      "channel": 4,
      "note": 60,
      "start": 82.3269,
      "duration": 0.4143,
      "velocity": 114,
      "chip": "ym2612"
    },
    {
      "channel": 2,
      "note": 72,
      "start": 82.3843,
      "duration": 0.3709,
      "velocity": 98,
      "chip": "ym2612"
    },
    {
      "channel": 0,
      "note": 79,
      "start": 82.741,
      "duration": 0.2926,
      "velocity": 98,
      "chip": "ym2612"
    },
    {
      "channel": 2,
      "note": 79,
      "start": 82.7553,
      "duration": 0.3363,
      "velocity": 98,
      "chip": "ym2612"
    },
    {
      "channel": 3,
      "note": 86,
      "start": 82.7556,
      "duration": 0.3363,
      "velocity": 98,
      "chip": "ym2612"
    },
    {
      "channel": 4,
      "note": 60,
      "start": 82.8571,
      "duration": 0.1771,
      "velocity": 114,
      "chip": "ym2612"
    },
    {
      "channel": 0,
      "note": 77,
      "start": 83.0337,
      "duration": 0.7073,
      "velocity": 98,
      "chip": "ym2612"
    },
    {
      "channel": 1,
      "note": 62,
      "start": 83.034,
      "duration": 0.7071,
      "velocity": 98,
      "chip": "ym2612"
    },
    {
      "channel": 4,
      "note": 53,
      "start": 83.0344,
      "duration": 0.4141,
      "velocity": 114,
      "chip": "ym2612"
    },
    {
      "channel": 2,
      "note": 77,
      "start": 83.0917,
      "duration": 0.7073,
      "velocity": 98,
      "chip": "ym2612"
    },
    {
      "channel": 3,
      "note": 82,
      "start": 83.092,
      "duration": 0.7072,
      "velocity": 98,
      "chip": "ym2612"
    },
    {
      "channel": 4,
      "note": 53,
      "start": 83.5646,
      "duration": 0.0579,
      "velocity": 114,
      "chip": "ym2612"
    },
    {
      "channel": 1,
      "note": 60,
      "start": 83.7412,
      "duration": 0.4145,
      "velocity": 98,
      "chip": "ym2612"
    },
    {
      "channel": 4,
      "note": 53,
      "start": 83.7417,
      "duration": 0.4144,
      "velocity": 114,
      "chip": "ym2612"
    },
    {
      "channel": 3,
      "note": 81,
      "start": 83.7993,
      "duration": 0.8749,
      "velocity": 98,
      "chip": "ym2612"
    },
    {
      "channel": 0,
      "note": 70,
      "start": 84.5097,
      "duration": 0.2661,
      "velocity": 98,
      "chip": "ym2612"
    },
    {
      "channel": 4,
      "note": 58,
      "start": 84.5102,
      "duration": 0.1502,
      "velocity": 114,
      "chip": "ym2612"
    },
    {
      "channel": 2,
      "note": 70,
      "start": 84.5249,
      "duration": 0.3093,
      "velocity": 98,
      "chip": "ym2612"
    },
    {
      "channel": 1,
      "note": 62,
      "start": 84.6602,
      "duration": 0.2926,
      "velocity": 98,
      "chip": "ym2612"
    },
    {
      "channel": 3,
      "note": 62,
      "start": 84.6743,
      "duration": 0.3366,
      "velocity": 98,
      "chip": "ym2612"
    },
    {
      "channel": 0,
      "note": 65,
      "start": 84.7759,
      "duration": 0.0579,
      "velocity": 98,
      "chip": "ym2612"
    },
    {
      "channel": 4,
      "note": 58,
      "start": 84.7763,
      "duration": 0.058,
      "velocity": 114,
      "chip": "ym2612"
    },
    {
      "channel": 0,
      "note": 70,
      "start": 84.834,
      "duration": 0.1187,
      "velocity": 98,
      "chip": "ym2612"
    },
    {
      "channel": 2,
      "note": 65,
      "start": 84.8343,
      "duration": 0.1187,
      "velocity": 98,
      "chip": "ym2612"
    },
    {
      "channel": 0,
      "note": 77,
      "start": 84.9528,
      "duration": 0.7683,
      "velocity": 98,
      "chip": "ym2612"
    },
    {
      "channel": 2,
      "note": 70,
      "start": 84.9531,
      "duration": 0.0576,
      "velocity": 98,
      "chip": "ym2612"
    },
    {
      "channel": 4,
      "note": 58,
      "start": 84.9534,
      "duration": 0.4142,
      "velocity": 114,
      "chip": "ym2612"
    },
    {
      "channel": 2,
      "note": 77,
      "start": 85.0108,
      "duration": 0.7684,
      "velocity": 98,
      "chip": "ym2612"
    },
    {
      "channel": 1,
      "note": 62,
      "start": 85.1297,
      "duration": 0.3535,
      "velocity": 98,
      "chip": "ym2612"
    },
    {
      "channel": 3,
      "note": 62,
      "start": 85.2488,
      "duration": 0.3535,
      "velocity": 98,
      "chip": "ym2612"
    },
    {
      "channel": 0,
      "note": 79,
      "start": 85.7212,
      "duration": 0.0577,
      "velocity": 98,
      "chip": "ym2612"
    },
    {
      "channel": 4,
      "note": 58,
      "start": 85.7217,
      "duration": 0.4148,
      "velocity": 114,
      "chip": "ym2612"
    },
    {
      "channel": 2,
      "note": 79,
      "start": 85.7793,
      "duration": 0.1189,
      "velocity": 98,
      "chip": "ym2612"
    },
    {
      "channel": 0,
      "note": 79,
      "start": 85.8981,
      "duration": 0.1188,
      "velocity": 98,
      "chip": "ym2612"
    },
    {
      "channel": 2,
      "note": 79,
      "start": 86.0172,
      "duration": 0.1191,
      "velocity": 98,
      "chip": "ym2612"
    },
    {
      "channel": 0,
      "note": 81,
      "start": 86.136,
      "duration": 0.0141,
      "velocity": 98,
      "chip": "ym2612"
    },
    {
      "channel": 1,
      "note": 62,
      "start": 86.1363,
      "duration": 0.2926,
      "velocity": 98,
      "chip": "ym2612"
    },
    {
      "channel": 2,
      "note": 81,
      "start": 86.1504,
      "duration": 0.1016,
      "velocity": 98,
      "chip": "ym2612"
    },
    {
      "channel": 3,
      "note": 62,
      "start": 86.1507,
      "duration": 0.3362,
      "velocity": 98,
      "chip": "ym2612"
    },
    {
      "channel": 0,
      "note": 82,
      "start": 86.2519,
      "duration": 0.0578,
      "velocity": 98,
      "chip": "ym2612"
    },
    {
      "channel": 4,
      "note": 58,
      "start": 86.2524,
      "duration": 0.0578,
      "velocity": 114,
      "chip": "ym2612"
    },
    {
      "channel": 2,
      "note": 82,
      "start": 86.3101,
      "duration": 0.119,
      "velocity": 98,
      "chip": "ym2612"
    },
    {
      "channel": 0,
      "note": 77,
      "start": 86.4287,
      "duration": 0.6971,
      "velocity": 98,
      "chip": "ym2612"
    },
    {
      "channel": 1,
      "note": 60,
      "start": 86.429,
      "duration": 0.1765,
      "velocity": 98,
      "chip": "ym2612"
    },
    {
      "channel": 4,
      "note": 58,
      "start": 86.4294,
      "duration": 0.4141,
      "velocity": 114,
      "chip": "ym2612"
    },
    {
      "channel": 2,
      "note": 77,
      "start": 86.4868,
      "duration": 0.6971,
      "velocity": 98,
      "chip": "ym2612"
    },
    {
      "channel": 3,
      "note": 60,
      "start": 86.4871,
      "duration": 0.2376,
      "velocity": 98,
      "chip": "ym2612"
    },
    {
      "channel": 1,
      "note": 62,
      "start": 86.6056,
      "duration": 0.2823,
      "velocity": 98,
      "chip": "ym2612"
    },
    {
      "channel": 3,
      "note": 62,
      "start": 86.7248,
      "duration": 0.2823,
      "velocity": 98,
      "chip": "ym2612"
    },
    {
      "channel": 0,
      "note": 79,
      "start": 87.126,
      "duration": 0.0577,
      "velocity": 98,
      "chip": "ym2612"
    },
    {
      "channel": 1,
      "note": 63,
      "start": 87.1263,
      "duration": 0.5305,
      "velocity": 98,
      "chip": "ym2612"
    },
    {
      "channel": 4,
      "note": 58,
      "start": 87.1266,
      "duration": 0.4144,
      "velocity": 114,
      "chip": "ym2612"
    },
    {
      "channel": 2,
      "note": 79,
      "start": 87.1841,
      "duration": 0.1189,
      "velocity": 98,
      "chip": "ym2612"
    },
    {
      "channel": 3,
      "note": 63,
      "start": 87.1843,
      "duration": 0.5306,
      "velocity": 98,
      "chip": "ym2612"
    },
    {
      "channel": 0,
      "note": 79,
      "start": 87.3029,
      "duration": 0.1188,
      "velocity": 98,
      "chip": "ym2612"
    },
    {
      "channel": 2,
      "note": 79,
      "start": 87.422,
      "duration": 0.1189,
      "velocity": 98,
      "chip": "ym2612"
    },
    {
      "channel": 0,
      "note": 75,
      "start": 87.5407,
      "duration": 0.0139,
      "velocity": 98,
      "chip": "ym2612"
    },
    {
      "channel": 2,
      "note": 75,
      "start": 87.555,
      "duration": 0.102,
      "velocity": 98,
      "chip": "ym2612"
    },
    {
      "channel": 0,
      "note": 74,
      "start": 87.6566,
      "duration": 0.0579,
      "velocity": 98,
      "chip": "ym2612"
    },
    {
      "channel": 1,
      "note": 65,
      "start": 87.6569,
      "duration": 0.5915,
      "velocity": 98,
      "chip": "ym2612"
    },
    {
      "channel": 4,
      "note": 58,
      "start": 87.6573,
      "duration": 0.0579,
      "velocity": 114,
      "chip": "ym2612"
    },
    {
      "channel": 2,
      "note": 74,
      "start": 87.7149,
      "duration": 0.1188,
      "velocity": 98,
      "chip": "ym2612"
    },
    {
      "channel": 3,
      "note": 65,
      "start": 87.7151,
      "duration": 0.5478,
      "velocity": 98,
      "chip": "ym2612"
    },
    {
      "channel": 0,
      "note": 79,
      "start": 87.8335,
      "duration": 0.4146,
      "velocity": 98,
      "chip": "ym2612"
    },
    {
      "channel": 4,
      "note": 58,
      "start": 87.834,
      "duration": 0.4147,
      "velocity": 114,
      "chip": "ym2612"
    },
    {
      "channel": 2,
      "note": 79,
      "start": 87.8916,
      "duration": 0.3711,
      "velocity": 98,
      "chip": "ym2612"
    },
    {
      "channel": 0,
      "note": 81,
      "start": 88.2483,
      "duration": 0.1157,
      "velocity": 98,
      "chip": "ym2612"
    },
    {
      "channel": 1,
      "note": 67,
      "start": 88.2485,
      "duration": 0.1157,
      "velocity": 98,
      "chip": "ym2612"
    },
    {
      "channel": 2,
      "note": 81,
      "start": 88.2628,
      "duration": 0.1593,
      "velocity": 98,
      "chip": "ym2612"
    },
    {
      "channel": 3,
      "note": 67,
      "start": 88.2631,
      "duration": 0.1593,
      "velocity": 98,
      "chip": "ym2612"
    },
    {
      "channel": 0,
      "note": 82,
      "start": 88.3642,
      "duration": 0.1768,
      "velocity": 98,
      "chip": "ym2612"
    },
    {
      "channel": 1,
      "note": 69,
      "start": 88.3644,
      "duration": 0.8841,
      "velocity": 98,
      "chip": "ym2612"
    },
    {
      "channel": 2,
      "note": 82,
      "start": 88.4222,
      "duration": 0.1767,
      "velocity": 98,
      "chip": "ym2612"
    },
    {
      "channel": 3,
      "note": 69,
      "start": 88.4225,
      "duration": 0.8841,
      "velocity": 98,
      "chip": "ym2612"
    },
    {
      "channel": 0,
      "note": 84,
      "start": 88.5411,
      "duration": 0.7073,
      "velocity": 98,
      "chip": "ym2612"
    },
    {
      "channel": 4,
      "note": 58,
      "start": 88.5415,
      "duration": 0.4144,
      "velocity": 114,
      "chip": "ym2612"
    },
    {
      "channel": 2,
      "note": 84,
      "start": 88.5991,
      "duration": 0.7073,
      "velocity": 98,
      "chip": "ym2612"
    },
    {
      "channel": 4,
      "note": 58,
      "start": 89.072,
      "duration": 0.0577,
      "velocity": 114,
      "chip": "ym2612"
    },
    {
      "channel": 1,
      "note": 65,
      "start": 89.2486,
      "duration": 0.4146,
      "velocity": 98,
      "chip": "ym2612"
    },
    {
      "channel": 4,
      "note": 60,
      "start": 89.249,
      "duration": 0.4144,
      "velocity": 114,
      "chip": "ym2612"
    },
    {
      "channel": 3,
      "note": 65,
      "start": 89.3067,
      "duration": 0.3711,
      "velocity": 98,
      "chip": "ym2612"
    },
    {
      "channel": 4,
      "note": 60,
      "start": 89.7795,
      "duration": 0.1188,
      "velocity": 114,
      "chip": "ym2612"
    },
    {
      "channel": 0,
      "note": 87,
      "start": 90.0171,
      "duration": 0.028,
      "velocity": 98,
      "chip": "ym2612"
    },
    {
      "channel": 1,
      "note": 82,
      "start": 90.0173,
      "duration": 0.028,
      "velocity": 98,
      "chip": "ym2612"
    },
    {
      "channel": 4,
      "note": 58,
      "start": 90.0177,
      "duration": 0.1497,
      "velocity": 114,
      "chip": "ym2612"
    },
    {
      "channel": 2,
      "note": 87,
      "start": 90.0323,
      "duration": 0.027,
      "velocity": 98,
      "chip": "ym2612"
    },
    {
      "channel": 3,
      "note": 82,
      "start": 90.0326,
      "duration": 0.0271,
      "velocity": 98,
      "chip": "ym2612"
    },
    {
      "channel": 0,
      "note": 82,
      "start": 90.0453,
      "duration": 0.1218,
      "velocity": 98,
      "chip": "ym2612"
    },
    {
      "channel": 1,
      "note": 77,
      "start": 90.0456,
      "duration": 0.1217,
      "velocity": 98,
      "chip": "ym2612"
    },
    {
      "channel": 2,
      "note": 82,
      "start": 90.0595,
      "duration": 0.1217,
      "velocity": 98,
      "chip": "ym2612"
    },
    {
      "channel": 3,
      "note": 77,
      "start": 90.0598,
      "duration": 0.1215,
      "velocity": 98,
      "chip": "ym2612"
    },
    {
      "channel": 0,
      "note": 77,
      "start": 90.2832,
      "duration": 0.1767,
      "velocity": 98,
      "chip": "ym2612"
    },
    {
      "channel": 1,
      "note": 75,
      "start": 90.2834,
      "duration": 0.1767,
      "velocity": 98,
      "chip": "ym2612"
    },
    {
      "channel": 4,
      "note": 58,
      "start": 90.2838,
      "duration": 0.0579,
      "velocity": 114,
      "chip": "ym2612"
    },
    {
      "channel": 2,
      "note": 87,
      "start": 90.3414,
      "duration": 0.1766,
      "velocity": 98,
      "chip": "ym2612"
    },
    {
      "channel": 3,
      "note": 75,
      "start": 90.3417,
      "duration": 0.1766,
      "velocity": 98,
      "chip": "ym2612"
    },
    {
      "channel": 0,
      "note": 86,
      "start": 90.46,
      "duration": 0.1767,
      "velocity": 98,
      "chip": "ym2612"
    },
    {
      "channel": 1,
      "note": 82,
      "start": 90.4603,
      "duration": 0.1767,
      "velocity": 98,
      "chip": "ym2612"
    },
    {
      "channel": 4,
      "note": 58,
      "start": 90.4607,
      "duration": 0.4142,
      "velocity": 114,
      "chip": "ym2612"
    },
    {
      "channel": 2,
      "note": 86,
      "start": 90.5181,
      "duration": 0.2378,
      "velocity": 98,
      "chip": "ym2612"
    },
    {
      "channel": 3,
      "note": 82,
      "start": 90.5183,
      "duration": 0.2378,
      "velocity": 98,
      "chip": "ym2612"
    },
    {
      "channel": 0,
      "note": 82,
      "start": 90.6369,
      "duration": 0.2377,
      "velocity": 98,
      "chip": "ym2612"
    },
    {
      "channel": 1,
      "note": 77,
      "start": 90.6371,
      "duration": 0.2375,
      "velocity": 98,
      "chip": "ym2612"
    },
    {
      "channel": 2,
      "note": 82,
      "start": 90.756,
      "duration": 0.1328,
      "velocity": 98,
      "chip": "ym2612"
    },
    {
      "channel": 3,
      "note": 77,
      "start": 90.7563,
      "duration": 0.1326,
      "velocity": 98,
      "chip": "ym2612"
    },
    {
      "channel": 0,
      "note": 86,
      "start": 91.2285,
      "duration": 0.1767,
      "velocity": 98,
      "chip": "ym2612"
    },
    {
      "channel": 1,
      "note": 82,
      "start": 91.2288,
      "duration": 0.1767,
      "velocity": 98,
      "chip": "ym2612"
    },
    {
      "channel": 4,
      "note": 58,
      "start": 91.2292,
      "duration": 0.4142,
      "velocity": 114,
      "chip": "ym2612"
    },
    {
      "channel": 2,
      "note": 86,
      "start": 91.2866,
      "duration": 0.2378,
      "velocity": 98,
      "chip": "ym2612"
    },
    {
      "channel": 3,
      "note": 82,
      "start": 91.2868,
      "duration": 0.2378,
      "velocity": 98,
      "chip": "ym2612"
    },
    {
      "channel": 0,
      "note": 82,
      "start": 91.4054,
      "duration": 0.2377,
      "velocity": 98,
      "chip": "ym2612"
    },
    {
      "channel": 1,
      "note": 77,
      "start": 91.4057,
      "duration": 0.2375,
      "velocity": 98,
      "chip": "ym2612"
    },
    {
      "channel": 2,
      "note": 82,
      "start": 91.5245,
      "duration": 0.1326,
      "velocity": 98,
      "chip": "ym2612"
    },
    {
      "channel": 3,
      "note": 77,
      "start": 91.5248,
      "duration": 0.1324,
      "velocity": 98,
      "chip": "ym2612"
    },
    {
      "channel": 0,
      "note": 77,
      "start": 91.7591,
      "duration": 0.1767,
      "velocity": 98,
      "chip": "ym2612"
    },
    {
      "channel": 1,
      "note": 74,
      "start": 91.7594,
      "duration": 0.1767,
      "velocity": 98,
      "chip": "ym2612"
    },
    {
      "channel": 4,
      "note": 58,
      "start": 91.7598,
      "duration": 0.0579,
      "velocity": 114,
      "chip": "ym2612"
    },
    {
      "channel": 2,
      "note": 86,
      "start": 91.8173,
      "duration": 0.1766,
      "velocity": 98,
      "chip": "ym2612"
    },
    {
      "channel": 3,
      "note": 74,
      "start": 91.8176,
      "duration": 0.1766,
      "velocity": 98,
      "chip": "ym2612"
    },
    {
      "channel": 0,
      "note": 86,
      "start": 91.936,
      "duration": 0.1768,
      "velocity": 98,
      "chip": "ym2612"
    },
    {
      "channel": 1,
      "note": 82,
      "start": 91.9362,
      "duration": 0.1768,
      "velocity": 98,
      "chip": "ym2612"
    },
    {
      "channel": 4,
      "note": 58,
      "start": 91.9366,
      "duration": 0.4143,
      "velocity": 114,
      "chip": "ym2612"
    },
    {
      "channel": 2,
      "note": 86,
      "start": 91.994,
      "duration": 0.2378,
      "velocity": 98,
      "chip": "ym2612"
    },
    {
      "channel": 3,
      "note": 82,
      "start": 91.9943,
      "duration": 0.2378,
      "velocity": 98,
      "chip": "ym2612"
    },
    {
      "channel": 0,
      "note": 82,
      "start": 92.1129,
      "duration": 0.2377,
      "velocity": 98,
      "chip": "ym2612"
    },
    {
      "channel": 1,
      "note": 77,
      "start": 92.1131,
      "duration": 0.2376,
      "velocity": 98,
      "chip": "ym2612"
    },
    {
      "channel": 2,
      "note": 82,
      "start": 92.2319,
      "duration": 0.1336,
      "velocity": 98,
      "chip": "ym2612"
    },
    {
      "channel": 3,
      "note": 77,
      "start": 92.2322,
      "duration": 0.1334,
      "velocity": 98,
      "chip": "ym2612"
    },
    {
      "channel": 0,
      "note": 82,
      "start": 92.6334,
      "duration": 0.0577,
      "velocity": 98,
      "chip": "ym2612"
    },
    {
      "channel": 1,
      "note": 79,
      "start": 92.6337,
      "duration": 0.0576,
      "velocity": 98,
      "chip": "ym2612"
    },
    {
      "channel": 4,
      "note": 58,
      "start": 92.634,
      "duration": 0.4146,
      "velocity": 114,
      "chip": "ym2612"
    },
    {
      "channel": 2,
      "note": 82,
      "start": 92.6915,
      "duration": 0.1191,
      "velocity": 98,
      "chip": "ym2612"
    },
    {
      "channel": 3,
      "note": 79,
      "start": 92.6918,
      "duration": 0.1189,
      "velocity": 98,
      "chip": "ym2612"
    },
    {
      "channel": 0,
      "note": 82,
      "start": 92.8103,
      "duration": 0.1188,
      "velocity": 98,
      "chip": "ym2612"
    },
    {
      "channel": 1,
      "note": 79,
      "start": 92.8105,
      "duration": 0.1186,
      "velocity": 98,
      "chip": "ym2612"
    },
    {
      "channel": 2,
      "note": 82,
      "start": 92.9294,
      "duration": 0.1191,
      "velocity": 98,
      "chip": "ym2612"
    },
    {
      "channel": 3,
      "note": 79,
      "start": 92.9297,
      "duration": 0.1189,
      "velocity": 98,
      "chip": "ym2612"
    },
    {
      "channel": 0,
      "note": 84,
      "start": 93.0482,
      "duration": 0.0141,
      "velocity": 98,
      "chip": "ym2612"
    },
    {
      "channel": 1,
      "note": 79,
      "start": 93.0484,
      "duration": 0.014,
      "velocity": 98,
      "chip": "ym2612"
    },
    {
      "channel": 2,
      "note": 84,
      "start": 93.0627,
      "duration": 0.1017,
      "velocity": 98,
      "chip": "ym2612"
    },
    {
      "channel": 3,
      "note": 79,
      "start": 93.0629,
      "duration": 0.1015,
      "velocity": 98,
      "chip": "ym2612"
    },
    {
      "channel": 0,
      "note": 86,
      "start": 93.1641,
      "duration": 0.0577,
      "velocity": 98,
      "chip": "ym2612"
    },
    {
      "channel": 1,
      "note": 75,
      "start": 93.1643,
      "duration": 0.5915,
      "velocity": 98,
      "chip": "ym2612"
    },
    {
      "channel": 4,
      "note": 58,
      "start": 93.1648,
      "duration": 0.0577,
      "velocity": 114,
      "chip": "ym2612"
    },
    {
      "channel": 2,
      "note": 86,
      "start": 93.2222,
      "duration": 0.1189,
      "velocity": 98,
      "chip": "ym2612"
    },
    {
      "channel": 3,
      "note": 75,
      "start": 93.2224,
      "duration": 0.5478,
      "velocity": 98,
      "chip": "ym2612"
    },
    {
      "channel": 0,
      "note": 87,
      "start": 93.341,
      "duration": 0.4146,
      "velocity": 98,
      "chip": "ym2612"
    },
    {
      "channel": 4,
      "note": 60,
      "start": 93.3414,
      "duration": 0.4147,
      "velocity": 114,
      "chip": "ym2612"
    },
    {
      "channel": 2,
      "note": 87,
      "start": 93.399,
      "duration": 0.371,
      "velocity": 98,
      "chip": "ym2612"
    },
    {
      "channel": 0,
      "note": 89,
      "start": 93.7557,
      "duration": 0.2925,
      "velocity": 98,
      "chip": "ym2612"
    },
    {
      "channel": 1,
      "note": 86,
      "start": 93.7559,
      "duration": 0.2925,
      "velocity": 98,
      "chip": "ym2612"
    },
    {
      "channel": 2,
      "note": 89,
      "start": 93.7701,
      "duration": 0.3361,
      "velocity": 98,
      "chip": "ym2612"
    },
    {
      "channel": 3,
      "note": 86,
      "start": 93.7704,
      "duration": 0.3361,
      "velocity": 98,
      "chip": "ym2612"
    },
    {
      "channel": 4,
      "note": 60,
      "start": 93.8718,
      "duration": 0.1771,
      "velocity": 114,
      "chip": "ym2612"
    },
    {
      "channel": 0,
      "note": 86,
      "start": 94.0483,
      "duration": 0.7073,
      "velocity": 98,
      "chip": "ym2612"
    },
    {
      "channel": 1,
      "note": 82,
      "start": 94.0486,
      "duration": 0.7073,
      "velocity": 98,
      "chip": "ym2612"
    },
    {
      "channel": 4,
      "note": 53,
      "start": 94.049,
      "duration": 0.4142,
      "velocity": 114,
      "chip": "ym2612"
    },
    {
      "channel": 2,
      "note": 86,
      "start": 94.1064,
      "duration": 0.7072,
      "velocity": 98,
      "chip": "ym2612"
    },
    {
      "channel": 3,
      "note": 82,
      "start": 94.1067,
      "duration": 0.7072,
      "velocity": 98,
      "chip": "ym2612"
    },
    {
      "channel": 4,
      "note": 53,
      "start": 94.5792,
      "duration": 0.0578,
      "velocity": 114,
      "chip": "ym2612"
    },
    {
      "channel": 0,
      "note": 84,
      "start": 94.7558,
      "duration": 0.7684,
      "velocity": 98,
      "chip": "ym2612"
    },
    {
      "channel": 1,
      "note": 81,
      "start": 94.756,
      "duration": 0.9187,
      "velocity": 98,
      "chip": "ym2612"
    },
    {
      "channel": 4,
      "note": 53,
      "start": 94.7564,
      "duration": 0.4142,
      "velocity": 114,
      "chip": "ym2612"
    },
    {
      "channel": 2,
      "note": 84,
      "start": 94.8138,
      "duration": 0.7256,
      "velocity": 98,
      "chip": "ym2612"
    },
    {
      "channel": 3,
      "note": 81,
      "start": 94.8141,
      "duration": 0.8748,
      "velocity": 98,
      "chip": "ym2612"
    },
    {
      "channel": 0,
      "note": 87,
      "start": 95.5243,
      "duration": 0.0278,
      "velocity": 98,
      "chip": "ym2612"
    },
    {
      "channel": 4,
      "note": 58,
      "start": 95.5248,
      "duration": 0.1502,
      "velocity": 114,
      "chip": "ym2612"
    },
    {
      "channel": 2,
      "note": 87,
      "start": 95.5395,
      "duration": 0.0266,
      "velocity": 98,
      "chip": "ym2612"
    },
    {
      "channel": 0,
      "note": 82,
      "start": 95.5522,
      "duration": 0.1223,
      "velocity": 98,
      "chip": "ym2612"
    },
    {
      "channel": 2,
      "note": 82,
      "start": 95.5663,
      "duration": 0.1224,
      "velocity": 98,
      "chip": "ym2612"
    },
    {
      "channel": 1,
      "note": 75,
      "start": 95.6748,
      "duration": 0.2927,
      "velocity": 98,
      "chip": "ym2612"
    },
    {
      "channel": 3,
      "note": 75,
      "start": 95.689,
      "duration": 0.3366,
      "velocity": 98,
      "chip": "ym2612"
    },
    {
      "channel": 0,
      "note": 77,
      "start": 95.7906,
      "duration": 0.1767,
      "velocity": 98,
      "chip": "ym2612"
    },
    {
      "channel": 4,
      "note": 58,
      "start": 95.7911,
      "duration": 0.0577,
      "velocity": 114,
      "chip": "ym2612"
    },
    {
      "channel": 2,
      "note": 77,
      "start": 95.8487,
      "duration": 0.1768,
      "velocity": 98,
      "chip": "ym2612"
    },
    {
      "channel": 0,
      "note": 87,
      "start": 95.9675,
      "duration": 0.1768,
      "velocity": 98,
      "chip": "ym2612"
    },
    {
      "channel": 4,
      "note": 58,
      "start": 95.968,
      "duration": 0.4144,
      "velocity": 114,
      "chip": "ym2612"
    },
    {
      "channel": 2,
      "note": 87,
      "start": 96.0256,
      "duration": 0.2378,
      "velocity": 98,
      "chip": "ym2612"
    },
    {
      "channel": 0,
      "note": 82,
      "start": 96.1444,
      "duration": 0.2377,
      "velocity": 98,
      "chip": "ym2612"
    },
    {
      "channel": 1,
      "note": 75,
      "start": 96.1446,
      "duration": 0.3534,
      "velocity": 98,
      "chip": "ym2612"
    },
    {
      "channel": 2,
      "note": 82,
      "start": 96.2635,
      "duration": 0.1328,
      "velocity": 98,
      "chip": "ym2612"
    },
    {
      "channel": 3,
      "note": 75,
      "start": 96.2637,
      "duration": 0.3534,
      "velocity": 98,
      "chip": "ym2612"
    },
    {
      "channel": 0,
      "note": 86,
      "start": 96.736,
      "duration": 0.1768,
      "velocity": 98,
      "chip": "ym2612"
    },
    {
      "channel": 4,
      "note": 58,
      "start": 96.7365,
      "duration": 0.4146,
      "velocity": 114,
      "chip": "ym2612"
    },
    {
      "channel": 2,
      "note": 86,
      "start": 96.7941,
      "duration": 0.2378,
      "velocity": 98,
      "chip": "ym2612"
    },
    {
      "channel": 0,
      "note": 79,
      "start": 96.9129,
      "duration": 0.2377,
      "velocity": 98,
      "chip": "ym2612"
    },
    {
      "channel": 2,
      "note": 79,
      "start": 97.032,
      "duration": 0.1328,
      "velocity": 98,
      "chip": "ym2612"
    },
    {
      "channel": 1,
      "note": 74,
      "start": 97.1509,
      "duration": 0.2927,
      "velocity": 98,
      "chip": "ym2612"
    },
    {
      "channel": 3,
      "note": 74,
      "start": 97.1651,
      "duration": 0.3366,
      "velocity": 98,
      "chip": "ym2612"
    },
    {
      "channel": 0,
      "note": 79,
      "start": 97.2667,
      "duration": 0.1767,
      "velocity": 98,
      "chip": "ym2612"
    },
    {
      "channel": 4,
      "note": 58,
      "start": 97.2671,
      "duration": 0.0579,
      "velocity": 114,
      "chip": "ym2612"
    },
    {
      "channel": 2,
      "note": 79,
      "start": 97.3249,
      "duration": 0.1766,
      "velocity": 98,
      "chip": "ym2612"
    },
    {
      "channel": 0,
      "note": 86,
      "start": 97.4435,
      "duration": 0.1767,
      "velocity": 98,
      "chip": "ym2612"
    },
    {
      "channel": 1,
      "note": 72,
      "start": 97.4438,
      "duration": 0.1767,
      "velocity": 98,
      "chip": "ym2612"
    },
    {
      "channel": 4,
      "note": 58,
      "start": 97.4442,
      "duration": 0.4142,
      "velocity": 114,
      "chip": "ym2612"
    },
    {
      "channel": 2,
      "note": 86,
      "start": 97.5016,
      "duration": 0.2378,
      "velocity": 98,
      "chip": "ym2612"
    },
    {
      "channel": 3,
      "note": 72,
      "start": 97.5019,
      "duration": 0.2378,
      "velocity": 98,
      "chip": "ym2612"
    },
    {
      "channel": 0,
      "note": 79,
      "start": 97.6204,
      "duration": 0.2377,
      "velocity": 98,
      "chip": "ym2612"
    },
    {
      "channel": 1,
      "note": 74,
      "start": 97.6207,
      "duration": 0.2822,
      "velocity": 98,
      "chip": "ym2612"
    },
    {
      "channel": 2,
      "note": 79,
      "start": 97.7395,
      "duration": 0.1336,
      "velocity": 98,
      "chip": "ym2612"
    },
    {
      "channel": 3,
      "note": 74,
      "start": 97.7398,
      "duration": 0.2822,
      "velocity": 98,
      "chip": "ym2612"
    },
    {
      "channel": 0,
      "note": 82,
      "start": 98.1408,
      "duration": 0.4146,
      "velocity": 98,
      "chip": "ym2612"
    },
    {
      "channel": 4,
      "note": 58,
      "start": 98.1413,
      "duration": 0.4147,
      "velocity": 114,
      "chip": "ym2612"
    },
    {
      "channel": 2,
      "note": 82,
      "start": 98.1989,
      "duration": 0.3709,
      "velocity": 98,
      "chip": "ym2612"
    },
    {
      "channel": 0,
      "note": 86,
      "start": 98.5556,
      "duration": 0.2926,
      "velocity": 98,
      "chip": "ym2612"
    },
    {
      "channel": 1,
      "note": 72,
      "start": 98.5559,
      "duration": 0.2926,
      "velocity": 98,
      "chip": "ym2612"
    },
    {
      "channel": 2,
      "note": 86,
      "start": 98.57,
      "duration": 0.3363,
      "velocity": 98,
      "chip": "ym2612"
    },
    {
      "channel": 3,
      "note": 72,
      "start": 98.5702,
      "duration": 0.3363,
      "velocity": 98,
      "chip": "ym2612"
    },
    {
      "channel": 4,
      "note": 58,
      "start": 98.6717,
      "duration": 0.0577,
      "velocity": 114,
      "chip": "ym2612"
    },
    {
      "channel": 0,
      "note": 87,
      "start": 98.8483,
      "duration": 0.4146,
      "velocity": 98,
      "chip": "ym2612"
    },
    {
      "channel": 1,
      "note": 74,
      "start": 98.8485,
      "duration": 0.4146,
      "velocity": 98,
      "chip": "ym2612"
    },
    {
      "channel": 4,
      "note": 58,
      "start": 98.849,
      "duration": 0.4146,
      "velocity": 114,
      "chip": "ym2612"
    },
    {
      "channel": 2,
      "note": 87,
      "start": 98.9063,
      "duration": 0.3711,
      "velocity": 98,
      "chip": "ym2612"
    },
    {
      "channel": 3,
      "note": 74,
      "start": 98.9066,
      "duration": 0.3711,
      "velocity": 98,
      "chip": "ym2612"
    },
    {
      "channel": 0,
      "note": 86,
      "start": 99.2631,
      "duration": 0.1157,
      "velocity": 98,
      "chip": "ym2612"
    },
    {
      "channel": 1,
      "note": 75,
      "start": 99.2633,
      "duration": 0.1157,
      "velocity": 98,
      "chip": "ym2612"
    },
    {
      "channel": 2,
      "note": 86,
      "start": 99.2776,
      "duration": 0.1593,
      "velocity": 98,
      "chip": "ym2612"
    },
    {
      "channel": 3,
      "note": 75,
      "start": 99.2778,
      "duration": 0.1593,
      "velocity": 98,
      "chip": "ym2612"
    },
    {
      "channel": 0,
      "note": 84,
      "start": 99.3789,
      "duration": 0.38,
      "velocity": 98,
      "chip": "ym2612"
    },
    {
      "channel": 1,
      "note": 74,
      "start": 99.3791,
      "duration": 0.38,
      "velocity": 98,
      "chip": "ym2612"
    },
    {
      "channel": 2,
      "note": 84,
      "start": 99.4369,
      "duration": 0.3371,
      "velocity": 98,
      "chip": "ym2612"
    },
    {
      "channel": 3,
      "note": 74,
      "start": 99.4372,
      "duration": 0.3371,
      "velocity": 98,
      "chip": "ym2612"
    },
    {
      "channel": 4,
      "note": 58,
      "start": 99.556,
      "duration": 0.2034,
      "velocity": 114,
      "chip": "ym2612"
    },
    {
      "channel": 0,
      "note": 86,
      "start": 99.759,
      "duration": 0.0281,
      "velocity": 98,
      "chip": "ym2612"
    },
    {
      "channel": 1,
      "note": 72,
      "start": 99.7592,
      "duration": 0.0551,
      "velocity": 98,
      "chip": "ym2612"
    },
    {
      "channel": 2,
      "note": 86,
      "start": 99.7742,
      "duration": 0.0261,
      "velocity": 98,
      "chip": "ym2612"
    },
    {
      "channel": 3,
      "note": 72,
      "start": 99.7745,
      "duration": 0.0536,
      "velocity": 98,
      "chip": "ym2612"
    },
    {
      "channel": 0,
      "note": 87,
      "start": 99.7872,
      "duration": 0.0269,
      "velocity": 98,
      "chip": "ym2612"
    },
    {
      "channel": 4,
      "note": 58,
      "start": 99.7877,
      "duration": 0.0129,
      "velocity": 114,
      "chip": "ym2612"
    },
    {
      "channel": 2,
      "note": 87,
      "start": 99.8005,
      "duration": 0.0273,
      "velocity": 98,
      "chip": "ym2612"
    },
    {
      "channel": 0,
      "note": 89,
      "start": 99.8142,
      "duration": 0.9742,
      "velocity": 98,
      "chip": "ym2612"
    },
    {
      "channel": 1,
      "note": 74,
      "start": 99.8145,
      "duration": 0.053,
      "velocity": 98,
      "chip": "ym2612"
    },
    {
      "channel": 4,
      "note": 60,
      "start": 99.8149,
      "duration": 0.053,
      "velocity": 114,
      "chip": "ym2612"
    },
    {
      "channel": 2,
      "note": 89,
      "start": 99.828,
      "duration": 0.9741,
      "velocity": 98,
      "chip": "ym2612"
    },
    {
      "channel": 3,
      "note": 74,
      "start": 99.8282,
      "duration": 0.0544,
      "velocity": 98,
      "chip": "ym2612"
    },
    {
      "channel": 1,
      "note": 75,
      "start": 99.8677,
      "duration": 0.0285,
      "velocity": 98,
      "chip": "ym2612"
    },
    {
      "channel": 3,
      "note": 75,
      "start": 99.8828,
      "duration": 0.0274,
      "velocity": 98,
      "chip": "ym2612"
    },
    {
      "channel": 4,
      "note": 60,
      "start": 99.8966,
      "duration": 0.0137,
      "velocity": 114,
      "chip": "ym2612"
    },
    {
      "channel": 1,
      "note": 77,
      "start": 99.9343,
      "duration": 0.5291,
      "velocity": 98,
      "chip": "ym2612"
    },
    {
      "channel": 4,
      "note": 53,
      "start": 99.9347,
      "duration": 0.2914,
      "velocity": 114,
      "chip": "ym2612"
    },
    {
      "channel": 3,
      "note": 77,
      "start": 99.9484,
      "duration": 0.6342,
      "velocity": 98,
      "chip": "ym2612"
    },
    {
      "channel": 4,
      "note": 53,
      "start": 100.2263,
      "duration": 0.2378,
      "velocity": 114,
      "chip": "ym2612"
    },
    {
      "channel": 4,
      "note": 53,
      "start": 100.4642,
      "duration": 0.2702,
      "velocity": 114,
      "chip": "ym2612"
    },
    {
      "channel": 1,
      "note": 82,
      "start": 100.734,
      "duration": 0.0274,
      "velocity": 98,
      "chip": "ym2612"
    },
    {
      "channel": 4,
      "note": 54,
      "start": 100.7345,
      "duration": 0.0548,
      "velocity": 114,
      "chip": "ym2612"
    },
    {
      "channel": 3,
      "note": 82,
      "start": 100.7488,
      "duration": 0.0261,
      "velocity": 98,
      "chip": "ym2612"
    },
    {
      "channel": 1,
      "note": 81,
      "start": 100.7616,
      "duration": 0.0271,
      "velocity": 98,
      "chip": "ym2612"
    },
    {
      "channel": 3,
      "note": 81,
      "start": 100.7751,
      "duration": 0.0272,
      "velocity": 98,
      "chip": "ym2612"
    },
    {
      "channel": 1,
      "note": 79,
      "start": 100.7889,
      "duration": 0.0327,
      "velocity": 98,
      "chip": "ym2612"
    },
    {
      "channel": 4,
      "note": 55,
      "start": 100.7894,
      "duration": 0.0597,
      "velocity": 114,
      "chip": "ym2612"
    },
    {
      "channel": 3,
      "note": 79,
      "start": 100.8024,
      "duration": 0.0335,
      "velocity": 98,
      "chip": "ym2612"
    },
    {
      "channel": 0,
      "note": 89,
      "start": 100.8215,
      "duration": 0.027,
      "velocity": 98,
      "chip": "ym2612"
    },
    {
      "channel": 1,
      "note": 77,
      "start": 100.8217,
      "duration": 0.027,
      "velocity": 98,
      "chip": "ym2612"
    },
    {
      "channel": 2,
      "note": 89,
      "start": 100.8358,
      "duration": 0.0271,
      "velocity": 98,
      "chip": "ym2612"
    },
    {
      "channel": 3,
      "note": 77,
      "start": 100.8361,
      "duration": 0.0271,
      "velocity": 98,
      "chip": "ym2612"
    },
    {
      "channel": 0,
      "note": 91,
      "start": 100.8486,
      "duration": 0.0336,
      "velocity": 98,
      "chip": "ym2612"
    },
    {
      "channel": 1,
      "note": 74,
      "start": 100.8489,
      "duration": 0.0336,
      "velocity": 98,
      "chip": "ym2612"
    },
    {
      "channel": 4,
      "note": 56,
      "start": 100.8493,
      "duration": 0.0336,
      "velocity": 114,
      "chip": "ym2612"
    },
    {
      "channel": 2,
      "note": 91,
      "start": 100.863,
      "duration": 0.0325,
      "velocity": 98,
      "chip": "ym2612"
    },
    {
      "channel": 3,
      "note": 74,
      "start": 100.8633,
      "duration": 0.0325,
      "velocity": 98,
      "chip": "ym2612"
    },
    {
      "channel": 0,
      "note": 93,
      "start": 100.8823,
      "duration": 0.0272,
      "velocity": 98,
      "chip": "ym2612"
    },
    {
      "channel": 1,
      "note": 72,
      "start": 100.8826,
      "duration": 0.0272,
      "velocity": 98,
      "chip": "ym2612"
    },
    {
      "channel": 4,
      "note": 57,
      "start": 100.883,
      "duration": 0.0272,
      "velocity": 114,
      "chip": "ym2612"
    },
    {
      "channel": 2,
      "note": 93,
      "start": 100.8957,
      "duration": 0.028,
      "velocity": 98,
      "chip": "ym2612"
    },
    {
      "channel": 3,
      "note": 72,
      "start": 100.8959,
      "duration": 0.028,
      "velocity": 98,
      "chip": "ym2612"
    },
    {
      "channel": 0,
      "note": 94,
      "start": 100.9097,
      "duration": 0.2515,
      "velocity": 98,
      "chip": "ym2612"
    },
    {
      "channel": 1,
      "note": 70,
      "start": 100.9099,
      "duration": 0.2516,
      "velocity": 98,
      "chip": "ym2612"
    },
    {
      "channel": 4,
      "note": 58,
      "start": 100.9103,
      "duration": 0.0548,
      "velocity": 114,
      "chip": "ym2612"
    },
    {
      "channel": 2,
      "note": 94,
      "start": 100.9238,
      "duration": 0.252,
      "velocity": 98,
      "chip": "ym2612"
    },
    {
      "channel": 3,
      "note": 70,
      "start": 100.9241,
      "duration": 0.2521,
      "velocity": 98,
      "chip": "ym2612"
    },
    {
      "channel": 4,
      "note": 58,
      "start": 100.9944,
      "duration": 0.0269,
      "velocity": 114,
      "chip": "ym2612"
    },
    {
      "channel": 4,
      "note": 58,
      "start": 101.0214,
      "duration": 0.1408,
      "velocity": 114,
      "chip": "ym2612"
    },
    {
      "channel": 0,
      "note": 93,
      "start": 101.1614,
      "duration": 0.0287,
      "velocity": 98,
      "chip": "ym2612"
    },
    {
      "channel": 1,
      "note": 72,
      "start": 101.1618,
      "duration": 0.1262,
      "velocity": 98,
      "chip": "ym2612"
    },
    {
      "channel": 2,
      "note": 93,
      "start": 101.1761,
      "duration": 0.0275,
      "velocity": 98,
      "chip": "ym2612"
    },
    {
      "channel": 3,
      "note": 72,
      "start": 101.1764,
      "duration": 0.1268,
      "velocity": 98,
      "chip": "ym2612"
    },
    {
      "channel": 0,
      "note": 91,
      "start": 101.1902,
      "duration": 0.0975,
      "velocity": 98,
      "chip": "ym2612"
    },
    {
      "channel": 2,
      "note": 91,
      "start": 101.2037,
      "duration": 0.0992,
      "velocity": 98,
      "chip": "ym2612"
    },
    {
      "channel": 0,
      "note": 89,
      "start": 101.2879,
      "duration": 0.4377,
      "velocity": 98,
      "chip": "ym2612"
    },
    {
      "channel": 1,
      "note": 74,
      "start": 101.2881,
      "duration": 0.4377,
      "velocity": 98,
      "chip": "ym2612"
    },
    {
      "channel": 4,
      "note": 58,
      "start": 101.2885,
      "duration": 0.142,
      "velocity": 114,
      "chip": "ym2612"
    },
    {
      "channel": 2,
      "note": 89,
      "start": 101.3031,
      "duration": 0.4361,
      "velocity": 98,
      "chip": "ym2612"
    },
    {
      "channel": 3,
      "note": 74,
      "start": 101.3034,
      "duration": 0.4361,
      "velocity": 98,
      "chip": "ym2612"
    },
    {
      "channel": 4,
      "note": 58,
      "start": 101.4593,
      "duration": 0.028,
      "velocity": 114,
      "chip": "ym2612"
    },
    {
      "channel": 4,
      "note": 58,
      "start": 101.4875,
      "duration": 0.2389,
      "velocity": 114,
      "chip": "ym2612"
    },
    {
      "channel": 0,
      "note": 86,
      "start": 101.7532,
      "duration": 0.0952,
      "velocity": 98,
      "chip": "ym2612"
    },
    {
      "channel": 1,
      "note": 74,
      "start": 101.7534,
      "duration": 0.0952,
      "velocity": 98,
      "chip": "ym2612"
    },
    {
      "channel": 2,
      "note": 86,
      "start": 101.7668,
      "duration": 0.0968,
      "velocity": 98,
      "chip": "ym2612"
    },
    {
      "channel": 3,
      "note": 74,
      "start": 101.7671,
      "duration": 0.0968,
      "velocity": 98,
      "chip": "ym2612"
    },
    {
      "channel": 0,
      "note": 91,
      "start": 101.8485,
      "duration": 0.2462,
      "velocity": 98,
      "chip": "ym2612"
    },
    {
      "channel": 1,
      "note": 75,
      "start": 101.8487,
      "duration": 0.2462,
      "velocity": 98,
      "chip": "ym2612"
    },
    {
      "channel": 4,
      "note": 57,
      "start": 101.8491,
      "duration": 0.142,
      "velocity": 114,
      "chip": "ym2612"
    },
    {
      "channel": 2,
      "note": 91,
      "start": 101.8638,
      "duration": 0.245,
      "velocity": 98,
      "chip": "ym2612"
    },
    {
      "channel": 3,
      "note": 75,
      "start": 101.8641,
      "duration": 0.245,
      "velocity": 98,
      "chip": "ym2612"
    },
    {
      "channel": 4,
      "note": 57,
      "start": 102.0188,
      "duration": 0.0766,
      "velocity": 114,
      "chip": "ym2612"
    },
    {
      "channel": 0,
      "note": 87,
      "start": 102.0949,
      "duration": 0.109,
      "velocity": 98,
      "chip": "ym2612"
    },
    {
      "channel": 1,
      "note": 74,
      "start": 102.0951,
      "duration": 0.1362,
      "velocity": 98,
      "chip": "ym2612"
    },
    {
      "channel": 4,
      "note": 57,
      "start": 102.0955,
      "duration": 0.1363,
      "velocity": 114,
      "chip": "ym2612"
    },
    {
      "channel": 2,
      "note": 87,
      "start": 102.109,
      "duration": 0.1093,
      "velocity": 98,
      "chip": "ym2612"
    },
    {
      "channel": 3,
      "note": 74,
      "start": 102.1092,
      "duration": 0.1365,
      "velocity": 98,
      "chip": "ym2612"
    },
    {
      "channel": 0,
      "note": 89,
      "start": 102.204,
      "duration": 0.014,
      "velocity": 98,
      "chip": "ym2612"
    },
    {
      "channel": 0,
      "note": 87,
      "start": 102.2181,
      "duration": 0.0129,
      "velocity": 98,
      "chip": "ym2612"
    },
    {
      "channel": 2,
      "note": 89,
      "start": 102.2184,
      "duration": 0.0131,
      "velocity": 98,
      "chip": "ym2612"
    },
    {
      "channel": 0,
      "note": 86,
      "start": 102.2312,
      "duration": 0.0284,
      "velocity": 98,
      "chip": "ym2612"
    },
    {
      "channel": 1,
      "note": 75,
      "start": 102.2314,
      "duration": 0.1269,
      "velocity": 98,
      "chip": "ym2612"
    },
    {
      "channel": 2,
      "note": 87,
      "start": 102.2317,
      "duration": 0.0138,
      "velocity": 98,
      "chip": "ym2612"
    },
    {
      "channel": 4,
      "note": 55,
      "start": 102.232,
      "duration": 0.1267,
      "velocity": 114,
      "chip": "ym2612"
    },
    {
      "channel": 2,
      "note": 86,
      "start": 102.2456,
      "duration": 0.0274,
      "velocity": 98,
      "chip": "ym2612"
    },
    {
      "channel": 3,
      "note": 75,
      "start": 102.2459,
      "duration": 0.1277,
      "velocity": 98,
      "chip": "ym2612"
    },
    {
      "channel": 0,
      "note": 86,
      "start": 102.2597,
      "duration": 0.0984,
      "velocity": 98,
      "chip": "ym2612"
    },
    {
      "channel": 2,
      "note": 86,
      "start": 102.2732,
      "duration": 0.1001,
      "velocity": 98,
      "chip": "ym2612"
    },
    {
      "channel": 0,
      "note": 84,
      "start": 102.3582,
      "duration": 0.1698,
      "velocity": 98,
      "chip": "ym2612"
    },
    {
      "channel": 1,
      "note": 77,
      "start": 102.3584,
      "duration": 0.4372,
      "velocity": 98,
      "chip": "ym2612"
    },
    {
      "channel": 4,
      "note": 53,
      "start": 102.3588,
      "duration": 0.1418,
      "velocity": 114,
      "chip": "ym2612"
    },
    {
      "channel": 2,
      "note": 84,
      "start": 102.3734,
      "duration": 0.168,
      "velocity": 98,
      "chip": "ym2612"
    },
    {
      "channel": 3,
      "note": 77,
      "start": 102.3737,
      "duration": 0.4354,
      "velocity": 98,
      "chip": "ym2612"
    },
    {
      "channel": 4,
      "note": 53,
      "start": 102.5284,
      "duration": 0.0271,
      "velocity": 114,
      "chip": "ym2612"
    },
    {
      "channel": 0,
      "note": 84,
      "start": 102.5552,
      "duration": 0.2402,
      "velocity": 98,
      "chip": "ym2612"
    },
    {
      "channel": 4,
      "note": 53,
      "start": 102.5557,
      "duration": 0.2402,
      "velocity": 114,
      "chip": "ym2612"
    },
    {
      "channel": 2,
      "note": 84,
      "start": 102.5691,
      "duration": 0.2398,
      "velocity": 98,
      "chip": "ym2612"
    },
    {
      "channel": 0,
      "note": 86,
      "start": 102.7955,
      "duration": 0.027,
      "velocity": 98,
      "chip": "ym2612"
    },
    {
      "channel": 4,
      "note": 53,
      "start": 102.796,
      "duration": 0.027,
      "velocity": 114,
      "chip": "ym2612"
    },
    {
      "channel": 2,
      "note": 86,
      "start": 102.809,
      "duration": 0.0271,
      "velocity": 98,
      "chip": "ym2612"
    },
    {
      "channel": 0,
      "note": 87,
      "start": 102.8227,
      "duration": 0.0959,
      "velocity": 98,
      "chip": "ym2612"
    },
    {
      "channel": 4,
      "note": 51,
      "start": 102.8232,
      "duration": 0.0961,
      "velocity": 114,
      "chip": "ym2612"
    },
    {
      "channel": 2,
      "note": 87,
      "start": 102.8363,
      "duration": 0.0976,
      "velocity": 98,
      "chip": "ym2612"
    },
    {
      "channel": 0,
      "note": 86,
      "start": 102.9187,
      "duration": 0.2463,
      "velocity": 98,
      "chip": "ym2612"
    },
    {
      "channel": 1,
      "note": 78,
      "start": 102.919,
      "duration": 0.383,
      "velocity": 98,
      "chip": "ym2612"
    },
    {
      "channel": 4,
      "note": 50,
      "start": 102.9194,
      "duration": 0.1419,
      "velocity": 114,
      "chip": "ym2612"
    },
    {
      "channel": 2,
      "note": 86,
      "start": 102.9341,
      "duration": 0.2449,
      "velocity": 98,
      "chip": "ym2612"
    },
    {
      "channel": 3,
      "note": 78,
      "start": 102.9343,
      "duration": 0.3822,
      "velocity": 98,
      "chip": "ym2612"
    },
    {
      "channel": 4,
      "note": 50,
      "start": 103.089,
      "duration": 0.0765,
      "velocity": 114,
      "chip": "ym2612"
    },
    {
      "channel": 0,
      "note": 84,
      "start": 103.1651,
      "duration": 0.1089,
      "velocity": 98,
      "chip": "ym2612"
    },
    {
      "channel": 4,
      "note": 50,
      "start": 103.1656,
      "duration": 0.1089,
      "velocity": 114,
      "chip": "ym2612"
    },
    {
      "channel": 2,
      "note": 84,
      "start": 103.1791,
      "duration": 0.1097,
      "velocity": 98,
      "chip": "ym2612"
    },
    {
      "channel": 0,
      "note": 86,
      "start": 103.2742,
      "duration": 0.0142,
      "velocity": 98,
      "chip": "ym2612"
    },
    {
      "channel": 4,
      "note": 50,
      "start": 103.2747,
      "duration": 0.0144,
      "velocity": 114,
      "chip": "ym2612"
    },
    {
      "channel": 0,
      "note": 84,
      "start": 103.2885,
      "duration": 0.0132,
      "velocity": 98,
      "chip": "ym2612"
    },
    {
      "channel": 2,
      "note": 86,
      "start": 103.2889,
      "duration": 0.0134,
      "velocity": 98,
      "chip": "ym2612"
    },
    {
      "channel": 4,
      "note": 50,
      "start": 103.2892,
      "duration": 0.0133,
      "velocity": 114,
      "chip": "ym2612"
    },
    {
      "channel": 0,
      "note": 82,
      "start": 103.3019,
      "duration": 0.0284,
      "velocity": 98,
      "chip": "ym2612"
    },
    {
      "channel": 1,
      "note": 74,
      "start": 103.3021,
      "duration": 0.0284,
      "velocity": 98,
      "chip": "ym2612"
    },
    {
      "channel": 2,
      "note": 84,
      "start": 103.3024,
      "duration": 0.0139,
      "velocity": 98,
      "chip": "ym2612"
    },
    {
      "channel": 4,
      "note": 49,
      "start": 103.3027,
      "duration": 0.0282,
      "velocity": 114,
      "chip": "ym2612"
    },
    {
      "channel": 2,
      "note": 82,
      "start": 103.3164,
      "duration": 0.0277,
      "velocity": 98,
      "chip": "ym2612"
    },
    {
      "channel": 3,
      "note": 74,
      "start": 103.3166,
      "duration": 0.0278,
      "velocity": 98,
      "chip": "ym2612"
    },
    {
      "channel": 0,
      "note": 81,
      "start": 103.3304,
      "duration": 0.098,
      "velocity": 98,
      "chip": "ym2612"
    },
    {
      "channel": 1,
      "note": 78,
      "start": 103.3306,
      "duration": 0.098,
      "velocity": 98,
      "chip": "ym2612"
    },
    {
      "channel": 4,
      "note": 50,
      "start": 103.331,
      "duration": 0.098,
      "velocity": 114,
      "chip": "ym2612"
    },
    {
      "channel": 2,
      "note": 81,
      "start": 103.3443,
      "duration": 0.0995,
      "velocity": 98,
      "chip": "ym2612"
    },
    {
      "channel": 3,
      "note": 78,
      "start": 103.3446,
      "duration": 0.0995,
      "velocity": 98,
      "chip": "ym2612"
    },
    {
      "channel": 0,
      "note": 82,
      "start": 103.4285,
      "duration": 0.4374,
      "velocity": 98,
      "chip": "ym2612"
    },
    {
      "channel": 1,
      "note": 79,
      "start": 103.4288,
      "duration": 0.1423,
      "velocity": 98,
      "chip": "ym2612"
    },
    {
      "channel": 4,
      "note": 55,
      "start": 103.4292,
      "duration": 0.1422,
      "velocity": 114,
      "chip": "ym2612"
    },
    {
      "channel": 2,
      "note": 82,
      "start": 103.4439,
      "duration": 0.4351,
      "velocity": 98,
      "chip": "ym2612"
    },
    {
      "channel": 3,
      "note": 79,
      "start": 103.4442,
      "duration": 0.142,
      "velocity": 98,
      "chip": "ym2612"
    },
    {
      "channel": 1,
      "note": 75,
      "start": 103.5712,
      "duration": 0.0548,
      "velocity": 98,
      "chip": "ym2612"
    },
    {
      "channel": 3,
      "note": 75,
      "start": 103.5863,
      "duration": 0.0536,
      "velocity": 98,
      "chip": "ym2612"
    },
    {
      "channel": 4,
      "note": 55,
      "start": 103.5994,
      "duration": 0.0271,
      "velocity": 114,
      "chip": "ym2612"
    },
    {
      "channel": 1,
      "note": 74,
      "start": 103.6262,
      "duration": 0.2398,
      "velocity": 98,
      "chip": "ym2612"
    },
    {
      "channel": 4,
      "note": 55,
      "start": 103.6266,
      "duration": 0.2397,
      "velocity": 114,
      "chip": "ym2612"
    },
    {
      "channel": 3,
      "note": 74,
      "start": 103.64,
      "duration": 0.2391,
      "velocity": 98,
      "chip": "ym2612"
    },
    {
      "channel": 0,
      "note": 77,
      "start": 103.8928,
      "duration": 0.0965,
      "velocity": 98,
      "chip": "ym2612"
    },
    {
      "channel": 1,
      "note": 72,
      "start": 103.893,
      "duration": 0.0965,
      "velocity": 98,
      "chip": "ym2612"
    },
    {
      "channel": 2,
      "note": 77,
      "start": 103.9065,
      "duration": 0.098,
      "velocity": 98,
      "chip": "ym2612"
    },
    {
      "channel": 3,
      "note": 72,
      "start": 103.9068,
      "duration": 0.098,
      "velocity": 98,
      "chip": "ym2612"
    },
    {
      "channel": 0,
      "note": 79,
      "start": 103.9894,
      "duration": 0.1699,
      "velocity": 98,
      "chip": "ym2612"
    },
    {
      "channel": 1,
      "note": 75,
      "start": 103.9896,
      "duration": 0.1973,
      "velocity": 98,
      "chip": "ym2612"
    },
    {
      "channel": 4,
      "note": 51,
      "start": 103.99,
      "duration": 0.1417,
      "velocity": 114,
      "chip": "ym2612"
    },
    {
      "channel": 2,
      "note": 79,
      "start": 104.0046,
      "duration": 0.1683,
      "velocity": 98,
      "chip": "ym2612"
    },
    {
      "channel": 3,
      "note": 75,
      "start": 104.0049,
      "duration": 0.1961,
      "velocity": 98,
      "chip": "ym2612"
    },
    {
      "channel": 0,
      "note": 77,
      "start": 104.1594,
      "duration": 0.0273,
      "velocity": 98,
      "chip": "ym2612"
    },
    {
      "channel": 4,
      "note": 51,
      "start": 104.1598,
      "duration": 0.0275,
      "velocity": 114,
      "chip": "ym2612"
    },
    {
      "channel": 2,
      "note": 77,
      "start": 104.173,
      "duration": 0.0277,
      "velocity": 98,
      "chip": "ym2612"
    },
    {
      "channel": 0,
      "note": 79,
      "start": 104.1868,
      "duration": 0.107,
      "velocity": 98,
      "chip": "ym2612"
    },
    {
      "channel": 1,
      "note": 70,
      "start": 104.1871,
      "duration": 0.2672,
      "velocity": 98,
      "chip": "ym2612"
    },
    {
      "channel": 4,
      "note": 51,
      "start": 104.1875,
      "duration": 0.2401,
      "velocity": 114,
      "chip": "ym2612"
    },
    {
      "channel": 2,
      "note": 79,
      "start": 104.2008,
      "duration": 0.2122,
      "velocity": 98,
      "chip": "ym2612"
    },
    {
      "channel": 3,
      "note": 70,
      "start": 104.2011,
      "duration": 0.2673,
      "velocity": 98,
      "chip": "ym2612"
    },
    {
      "channel": 0,
      "note": 74,
      "start": 104.2939,
      "duration": 0.1188,
      "velocity": 98,
      "chip": "ym2612"
    },
    {
      "channel": 0,
      "note": 79,
      "start": 104.4129,
      "duration": 0.0141,
      "velocity": 98,
      "chip": "ym2612"
    },
    {
      "channel": 2,
      "note": 74,
      "start": 104.4132,
      "duration": 0.0141,
      "velocity": 98,
      "chip": "ym2612"
    },
    {
      "channel": 0,
      "note": 82,
      "start": 104.4271,
      "duration": 0.027,
      "velocity": 98,
      "chip": "ym2612"
    },
    {
      "channel": 2,
      "note": 79,
      "start": 104.4274,
      "duration": 0.013,
      "velocity": 98,
      "chip": "ym2612"
    },
    {
      "channel": 2,
      "note": 82,
      "start": 104.4406,
      "duration": 0.0275,
      "velocity": 98,
      "chip": "ym2612"
    },
    {
      "channel": 0,
      "note": 86,
      "start": 104.4542,
      "duration": 0.0956,
      "velocity": 98,
      "chip": "ym2612"
    },
    {
      "channel": 1,
      "note": 75,
      "start": 104.4544,
      "duration": 0.0956,
      "velocity": 98,
      "chip": "ym2612"
    },
    {
      "channel": 4,
      "note": 51,
      "start": 104.4548,
      "duration": 0.0956,
      "velocity": 114,
      "chip": "ym2612"
    },
    {
      "channel": 2,
      "note": 86,
      "start": 104.4682,
      "duration": 0.2007,
      "velocity": 98,
      "chip": "ym2612"
    },
    {
      "channel": 3,
      "note": 75,
      "start": 104.4685,
      "duration": 0.2007,
      "velocity": 98,
      "chip": "ym2612"
    },
    {
      "channel": 0,
      "note": 84,
      "start": 104.55,
      "duration": 0.4137,
      "velocity": 98,
      "chip": "ym2612"
    },
    {
      "channel": 1,
      "note": 77,
      "start": 104.5502,
      "duration": 0.3254,
      "velocity": 98,
      "chip": "ym2612"
    },
    {
      "channel": 4,
      "note": 53,
      "start": 104.5506,
      "duration": 0.2374,
      "velocity": 114,
      "chip": "ym2612"
    },
    {
      "channel": 2,
      "note": 84,
      "start": 104.669,
      "duration": 0.3101,
      "velocity": 98,
      "chip": "ym2612"
    },
    {
      "channel": 3,
      "note": 77,
      "start": 104.6693,
      "duration": 0.2194,
      "velocity": 98,
      "chip": "ym2612"
    },
    {
      "channel": 4,
      "note": 65,
      "start": 104.7881,
      "duration": 0.0334,
      "velocity": 114,
      "chip": "ym2612"
    },
    {
      "channel": 4,
      "note": 53,
      "start": 104.8217,
      "duration": 0.0265,
      "velocity": 114,
      "chip": "ym2612"
    },
    {
      "channel": 4,
      "note": 65,
      "start": 104.8483,
      "duration": 0.0276,
      "velocity": 114,
      "chip": "ym2612"
    },
    {
      "channel": 4,
      "note": 65,
      "start": 104.876,
      "duration": 0.0882,
      "velocity": 114,
      "chip": "ym2612"
    },
    {
      "channel": 1,
      "note": 75,
      "start": 104.964,
      "duration": 0.0348,
      "velocity": 98,
      "chip": "ym2612"
    },
    {
      "channel": 4,
      "note": 53,
      "start": 104.9644,
      "duration": 0.0348,
      "velocity": 114,
      "chip": "ym2612"
    },
    {
      "channel": 3,
      "note": 75,
      "start": 104.9794,
      "duration": 0.0336,
      "velocity": 98,
      "chip": "ym2612"
    },
    {
      "channel": 0,
      "note": 82,
      "start": 104.9987,
      "duration": 0.0347,
      "velocity": 98,
      "chip": "ym2612"
    },
    {
      "channel": 1,
      "note": 77,
      "start": 104.9989,
      "duration": 0.0347,
      "velocity": 98,
      "chip": "ym2612"
    },
    {
      "channel": 4,
      "note": 55,
      "start": 104.9993,
      "duration": 0.0347,
      "velocity": 114,
      "chip": "ym2612"
    },
    {
      "channel": 2,
      "note": 82,
      "start": 105.0129,
      "duration": 0.034,
      "velocity": 98,
      "chip": "ym2612"
    },
    {
      "channel": 3,
      "note": 77,
      "start": 105.0132,
      "duration": 0.034,
      "velocity": 98,
      "chip": "ym2612"
    },
    {
      "channel": 0,
      "note": 84,
      "start": 105.0335,
      "duration": 0.0275,
      "velocity": 98,
      "chip": "ym2612"
    },
    {
      "channel": 1,
      "note": 75,
      "start": 105.0337,
      "duration": 0.0275,
      "velocity": 98,
      "chip": "ym2612"
    },
    {
      "channel": 4,
      "note": 57,
      "start": 105.0341,
      "duration": 0.0275,
      "velocity": 114,
      "chip": "ym2612"
    },
    {
      "channel": 2,
      "note": 84,
      "start": 105.047,
      "duration": 0.0281,
      "velocity": 98,
      "chip": "ym2612"
    },
    {
      "channel": 3,
      "note": 75,
      "start": 105.0473,
      "duration": 0.0281,
      "velocity": 98,
      "chip": "ym2612"
    },
    {
      "channel": 0,
      "note": 86,
      "start": 105.0612,
      "duration": 0.249,
      "velocity": 98,
      "chip": "ym2612"
    },
    {
      "channel": 1,
      "note": 77,
      "start": 105.0614,
      "duration": 0.1088,
      "velocity": 98,
      "chip": "ym2612"
    },
    {
      "channel": 4,
      "note": 58,
      "start": 105.0618,
      "duration": 0.0546,
      "velocity": 114,
      "chip": "ym2612"
    },
    {
      "channel": 2,
      "note": 86,
      "start": 105.0753,
      "duration": 0.2501,
      "velocity": 98,
      "chip": "ym2612"
    },
    {
      "channel": 3,
      "note": 77,
      "start": 105.0755,
      "duration": 0.1097,
      "velocity": 98,
      "chip": "ym2612"
    },
    {
      "channel": 4,
      "note": 58,
      "start": 105.1445,
      "duration": 0.0261,
      "velocity": 114,
      "chip": "ym2612"
    },
    {
      "channel": 1,
      "note": 79,
      "start": 105.1704,
      "duration": 0.14,
      "velocity": 98,
      "chip": "ym2612"
    },
    {
      "channel": 4,
      "note": 58,
      "start": 105.1707,
      "duration": 0.14,
      "velocity": 114,
      "chip": "ym2612"
    },
    {
      "channel": 3,
      "note": 79,
      "start": 105.1853,
      "duration": 0.1403,
      "velocity": 98,
      "chip": "ym2612"
    },
    {
      "channel": 0,
      "note": 89,
      "start": 105.3103,
      "duration": 0.028,
      "velocity": 98,
      "chip": "ym2612"
    },
    {
      "channel": 1,
      "note": 81,
      "start": 105.3106,
      "duration": 0.1275,
      "velocity": 98,
      "chip": "ym2612"
    },
    {
      "channel": 2,
      "note": 89,
      "start": 105.3255,
      "duration": 0.0264,
      "velocity": 98,
      "chip": "ym2612"
    },
    {
      "channel": 3,
      "note": 81,
      "start": 105.3258,
      "duration": 0.1275,
      "velocity": 98,
      "chip": "ym2612"
    },
    {
      "channel": 0,
      "note": 87,
      "start": 105.3385,
      "duration": 0.0993,
      "velocity": 98,
      "chip": "ym2612"
    },
    {
      "channel": 2,
      "note": 87,
      "start": 105.352,
      "duration": 0.101,
      "velocity": 98,
      "chip": "ym2612"
    },
    {
      "channel": 0,
      "note": 86,
      "start": 105.438,
      "duration": 0.4371,
      "velocity": 98,
      "chip": "ym2612"
    },
    {
      "channel": 1,
      "note": 82,
      "start": 105.4382,
      "duration": 0.1968,
      "velocity": 98,
      "chip": "ym2612"
    },
    {
      "channel": 4,
      "note": 58,
      "start": 105.4386,
      "duration": 0.1417,
      "velocity": 114,
      "chip": "ym2612"
    },
    {
      "channel": 2,
      "note": 86,
      "start": 105.4531,
      "duration": 0.4351,
      "velocity": 98,
      "chip": "ym2612"
    },
    {
      "channel": 3,
      "note": 82,
      "start": 105.4534,
      "duration": 0.1955,
      "velocity": 98,
      "chip": "ym2612"
    },
    {
      "channel": 4,
      "note": 58,
      "start": 105.608,
      "duration": 0.0274,
      "velocity": 114,
      "chip": "ym2612"
    },
    {
      "channel": 1,
      "note": 77,
      "start": 105.6351,
      "duration": 0.24,
      "velocity": 98,
      "chip": "ym2612"
    },
    {
      "channel": 4,
      "note": 58,
      "start": 105.6355,
      "duration": 0.2399,
      "velocity": 114,
      "chip": "ym2612"
    },
    {
      "channel": 3,
      "note": 77,
      "start": 105.649,
      "duration": 0.2393,
      "velocity": 98,
      "chip": "ym2612"
    },
    {
      "channel": 4,
      "note": 59,
      "start": 105.9988,
      "duration": 0.1429,
      "velocity": 114,
      "chip": "ym2612"
    },
    {
      "channel": 0,
      "note": 87,
      "start": 106.1143,
      "duration": 0.0548,
      "velocity": 98,
      "chip": "ym2612"
    },
    {
      "channel": 1,
      "note": 84,
      "start": 106.1146,
      "duration": 0.0548,
      "velocity": 98,
      "chip": "ym2612"
    },
    {
      "channel": 2,
      "note": 87,
      "start": 106.1286,
      "duration": 0.1023,
      "velocity": 98,
      "chip": "ym2612"
    },
    {
      "channel": 3,
      "note": 84,
      "start": 106.1289,
      "duration": 0.1023,
      "velocity": 98,
      "chip": "ym2612"
    },
    {
      "channel": 0,
      "note": 82,
      "start": 106.1693,
      "duration": 0.0758,
      "velocity": 98,
      "chip": "ym2612"
    },
    {
      "channel": 1,
      "note": 79,
      "start": 106.1695,
      "duration": 0.0758,
      "velocity": 98,
      "chip": "ym2612"
    },
    {
      "channel": 4,
      "note": 59,
      "start": 106.1699,
      "duration": 0.0758,
      "velocity": 114,
      "chip": "ym2612"
    },
    {
      "channel": 2,
      "note": 82,
      "start": 106.2311,
      "duration": 0.028,
      "velocity": 98,
      "chip": "ym2612"
    },
    {
      "channel": 3,
      "note": 79,
      "start": 106.2314,
      "duration": 0.028,
      "velocity": 98,
      "chip": "ym2612"
    },
    {
      "channel": 0,
      "note": 79,
      "start": 106.2452,
      "duration": 0.1352,
      "velocity": 98,
      "chip": "ym2612"
    },
    {
      "channel": 1,
      "note": 75,
      "start": 106.2454,
      "duration": 0.1352,
      "velocity": 98,
      "chip": "ym2612"
    },
    {
      "channel": 4,
      "note": 60,
      "start": 106.2458,
      "duration": 0.1351,
      "velocity": 114,
      "chip": "ym2612"
    },
    {
      "channel": 2,
      "note": 79,
      "start": 106.2593,
      "duration": 0.1363,
      "velocity": 98,
      "chip": "ym2612"
    },
    {
      "channel": 3,
      "note": 75,
      "start": 106.2595,
      "duration": 0.1363,
      "velocity": 98,
      "chip": "ym2612"
    },
    {
      "channel": 0,
      "note": 86,
      "start": 106.3805,
      "duration": 0.0285,
      "velocity": 98,
      "chip": "ym2612"
    },
    {
      "channel": 1,
      "note": 79,
      "start": 106.3808,
      "duration": 0.0285,
      "velocity": 98,
      "chip": "ym2612"
    },
    {
      "channel": 2,
      "note": 86,
      "start": 106.3957,
      "duration": 0.0277,
      "velocity": 98,
      "chip": "ym2612"
    },
    {
      "channel": 3,
      "note": 79,
      "start": 106.3959,
      "duration": 0.0278,
      "velocity": 98,
      "chip": "ym2612"
    },
    {
      "channel": 0,
      "note": 89,
      "start": 106.4091,
      "duration": 0.0858,
      "velocity": 98,
      "chip": "ym2612"
    },
    {
      "channel": 1,
      "note": 84,
      "start": 106.4094,
      "duration": 0.0858,
      "velocity": 98,
      "chip": "ym2612"
    },
    {
      "channel": 4,
      "note": 62,
      "start": 106.4098,
      "duration": 0.0276,
      "velocity": 114,
      "chip": "ym2612"
    },
    {
      "channel": 2,
      "note": 89,
      "start": 106.4235,
      "duration": 0.0857,
      "velocity": 98,
      "chip": "ym2612"
    },
    {
      "channel": 3,
      "note": 84,
      "start": 106.4238,
      "duration": 0.0857,
      "velocity": 98,
      "chip": "ym2612"
    },
    {
      "channel": 4,
      "note": 60,
      "start": 106.4376,
      "duration": 0.0268,
      "velocity": 114,
      "chip": "ym2612"
    },
    {
      "channel": 0,
      "note": 84,
      "start": 106.4951,
      "duration": 0.0559,
      "velocity": 98,
      "chip": "ym2612"
    },
    {
      "channel": 1,
      "note": 77,
      "start": 106.4954,
      "duration": 0.0559,
      "velocity": 98,
      "chip": "ym2612"
    },
    {
      "channel": 4,
      "note": 57,
      "start": 106.4957,
      "duration": 0.0285,
      "velocity": 114,
      "chip": "ym2612"
    },
    {
      "channel": 2,
      "note": 84,
      "start": 106.5094,
      "duration": 0.0564,
      "velocity": 98,
      "chip": "ym2612"
    },
    {
      "channel": 3,
      "note": 77,
      "start": 106.5097,
      "duration": 0.0564,
      "velocity": 98,
      "chip": "ym2612"
    },
    {
      "channel": 4,
      "note": 55,
      "start": 106.5244,
      "duration": 0.0272,
      "velocity": 114,
      "chip": "ym2612"
    },
    {
      "channel": 0,
      "note": 77,
      "start": 106.5512,
      "duration": 0.0556,
      "velocity": 98,
      "chip": "ym2612"
    },
    {
      "channel": 1,
      "note": 74,
      "start": 106.5514,
      "duration": 0.0554,
      "velocity": 98,
      "chip": "ym2612"
    },
    {
      "channel": 2,
      "note": 77,
      "start": 106.5659,
      "duration": 0.0548,
      "velocity": 98,
      "chip": "ym2612"
    },
    {
      "channel": 3,
      "note": 74,
      "start": 106.5662,
      "duration": 0.0546,
      "velocity": 98,
      "chip": "ym2612"
    },
    {
      "channel": 4,
      "note": 53,
      "start": 106.5791,
      "duration": 0.028,
      "velocity": 114,
      "chip": "ym2612"
    },
    {
      "channel": 4,
      "note": 53,
      "start": 106.6073,
      "duration": 0.0268,
      "velocity": 114,
      "chip": "ym2612"
    },
    {
      "channel": 4,
      "note": 51,
      "start": 106.6343,
      "duration": 0.0287,
      "velocity": 114,
      "chip": "ym2612"
    },
    {
      "channel": 0,
      "note": 77,
      "start": 106.6624,
      "duration": 0.1632,
      "velocity": 98,
      "chip": "ym2612"
    },
    {
      "channel": 1,
      "note": 72,
      "start": 106.6627,
      "duration": 0.4039,
      "velocity": 98,
      "chip": "ym2612"
    },
    {
      "channel": 4,
      "note": 50,
      "start": 106.6631,
      "duration": 0.1353,
      "velocity": 114,
      "chip": "ym2612"
    },
    {
      "channel": 2,
      "note": 77,
      "start": 106.6765,
      "duration": 0.212,
      "velocity": 98,
      "chip": "ym2612"
    },
    {
      "channel": 3,
      "note": 72,
      "start": 106.6768,
      "duration": 0.4037,
      "velocity": 98,
      "chip": "ym2612"
    },
    {
      "channel": 0,
      "note": 71,
      "start": 106.8258,
      "duration": 0.0767,
      "velocity": 98,
      "chip": "ym2612"
    },
    {
      "channel": 4,
      "note": 50,
      "start": 106.8262,
      "duration": 0.0626,
      "velocity": 114,
      "chip": "ym2612"
    },
    {
      "channel": 2,
      "note": 71,
      "start": 106.8886,
      "duration": 0.0276,
      "velocity": 98,
      "chip": "ym2612"
    },
    {
      "channel": 4,
      "note": 50,
      "start": 106.889,
      "duration": 0.0139,
      "velocity": 114,
      "chip": "ym2612"
    },
    {
      "channel": 0,
      "note": 72,
      "start": 106.9026,
      "duration": 0.1085,
      "velocity": 98,
      "chip": "ym2612"
    },
    {
      "channel": 4,
      "note": 48,
      "start": 106.903,
      "duration": 0.1085,
      "velocity": 114,
      "chip": "ym2612"
    },
    {
      "channel": 2,
      "note": 72,
      "start": 106.9164,
      "duration": 0.1092,
      "velocity": 98,
      "chip": "ym2612"
    },
    {
      "channel": 0,
      "note": 74,
      "start": 107.0112,
      "duration": 0.0272,
      "velocity": 98,
      "chip": "ym2612"
    },
    {
      "channel": 4,
      "note": 49,
      "start": 107.0117,
      "duration": 0.0272,
      "velocity": 114,
      "chip": "ym2612"
    },
    {
      "channel": 2,
      "note": 74,
      "start": 107.0257,
      "duration": 0.0278,
      "velocity": 98,
      "chip": "ym2612"
    },
    {
      "channel": 0,
      "note": 75,
      "start": 107.0385,
      "duration": 0.0278,
      "velocity": 98,
      "chip": "ym2612"
    },
    {
      "channel": 4,
      "note": 51,
      "start": 107.039,
      "duration": 0.028,
      "velocity": 114,
      "chip": "ym2612"
    },
    {
      "channel": 2,
      "note": 75,
      "start": 107.0536,
      "duration": 0.0266,
      "velocity": 98,
      "chip": "ym2612"
    },
    {
      "channel": 0,
      "note": 77,
      "start": 107.0665,
      "duration": 0.099,
      "velocity": 98,
      "chip": "ym2612"
    },
    {
      "channel": 1,
      "note": 69,
      "start": 107.0667,
      "duration": 0.2689,
      "velocity": 98,
      "chip": "ym2612"
    },
    {
      "channel": 4,
      "note": 53,
      "start": 107.0671,
      "duration": 0.0988,
      "velocity": 114,
      "chip": "ym2612"
    },
    {
      "channel": 2,
      "note": 77,
      "start": 107.0803,
      "duration": 0.1002,
      "velocity": 98,
      "chip": "ym2612"
    },
    {
      "channel": 3,
      "note": 69,
      "start": 107.0806,
      "duration": 0.2688,
      "velocity": 98,
      "chip": "ym2612"
    },
    {
      "channel": 0,
      "note": 79,
      "start": 107.1656,
      "duration": 0.4374,
      "velocity": 98,
      "chip": "ym2612"
    },
    {
      "channel": 4,
      "note": 55,
      "start": 107.166,
      "duration": 0.142,
      "velocity": 114,
      "chip": "ym2612"
    },
    {
      "channel": 2,
      "note": 79,
      "start": 107.1807,
      "duration": 0.4355,
      "velocity": 98,
      "chip": "ym2612"
    },
    {
      "channel": 1,
      "note": 70,
      "start": 107.3357,
      "duration": 0.2941,
      "velocity": 98,
      "chip": "ym2612"
    },
    {
      "channel": 4,
      "note": 55,
      "start": 107.3361,
      "duration": 0.0273,
      "velocity": 114,
      "chip": "ym2612"
    },
    {
      "channel": 3,
      "note": 70,
      "start": 107.3495,
      "duration": 0.2941,
      "velocity": 98,
      "chip": "ym2612"
    },
    {
      "channel": 4,
      "note": 55,
      "start": 107.3635,
      "duration": 0.2397,
      "velocity": 114,
      "chip": "ym2612"
    },
    {
      "channel": 4,
      "note": 55,
      "start": 107.6034,
      "duration": 0.0268,
      "velocity": 114,
      "chip": "ym2612"
    },
    {
      "channel": 0,
      "note": 74,
      "start": 107.6298,
      "duration": 0.0963,
      "velocity": 98,
      "chip": "ym2612"
    },
    {
      "channel": 4,
      "note": 53,
      "start": 107.6303,
      "duration": 0.0964,
      "velocity": 114,
      "chip": "ym2612"
    },
    {
      "channel": 2,
      "note": 74,
      "start": 107.6436,
      "duration": 0.0979,
      "velocity": 98,
      "chip": "ym2612"
    },
    {
      "channel": 0,
      "note": 79,
      "start": 107.7263,
      "duration": 0.1423,
      "velocity": 98,
      "chip": "ym2612"
    },
    {
      "channel": 1,
      "note": 67,
      "start": 107.7265,
      "duration": 0.3821,
      "velocity": 98,
      "chip": "ym2612"
    },
    {
      "channel": 4,
      "note": 51,
      "start": 107.7269,
      "duration": 0.142,
      "velocity": 114,
      "chip": "ym2612"
    },
    {
      "channel": 2,
      "note": 79,
      "start": 107.7416,
      "duration": 0.142,
      "velocity": 98,
      "chip": "ym2612"
    },
    {
      "channel": 3,
      "note": 67,
      "start": 107.7419,
      "duration": 0.3824,
      "velocity": 98,
      "chip": "ym2612"
    },
    {
      "channel": 0,
      "note": 72,
      "start": 107.8964,
      "duration": 0.0765,
      "velocity": 98,
      "chip": "ym2612"
    },
    {
      "channel": 4,
      "note": 51,
      "start": 107.8968,
      "duration": 0.0765,
      "velocity": 114,
      "chip": "ym2612"
    },
    {
      "channel": 2,
      "note": 72,
      "start": 107.9592,
      "duration": 0.0276,
      "velocity": 98,
      "chip": "ym2612"
    },
    {
      "channel": 0,
      "note": 74,
      "start": 107.973,
      "duration": 0.1354,
      "velocity": 98,
      "chip": "ym2612"
    },
    {
      "channel": 4,
      "note": 48,
      "start": 107.9735,
      "duration": 0.1355,
      "velocity": 114,
      "chip": "ym2612"
    },
    {
      "channel": 2,
      "note": 74,
      "start": 107.9869,
      "duration": 0.137,
      "velocity": 98,
      "chip": "ym2612"
    },
    {
      "channel": 0,
      "note": 75,
      "start": 108.1085,
      "duration": 0.0151,
      "velocity": 98,
      "chip": "ym2612"
    },
    {
      "channel": 1,
      "note": 69,
      "start": 108.1088,
      "duration": 0.0284,
      "velocity": 98,
      "chip": "ym2612"
    },
    {
      "channel": 4,
      "note": 55,
      "start": 108.1091,
      "duration": 0.0286,
      "velocity": 114,
      "chip": "ym2612"
    },
    {
      "channel": 0,
      "note": 77,
      "start": 108.1238,
      "duration": 0.0132,
      "velocity": 98,
      "chip": "ym2612"
    },
    {
      "channel": 2,
      "note": 75,
      "start": 108.1241,
      "duration": 0.0134,
      "velocity": 98,
      "chip": "ym2612"
    },
    {
      "channel": 3,
      "note": 69,
      "start": 108.1244,
      "duration": 0.0268,
      "velocity": 98,
      "chip": "ym2612"
    },
    {
      "channel": 0,
      "note": 79,
      "start": 108.1371,
      "duration": 0.0988,
      "velocity": 98,
      "chip": "ym2612"
    },
    {
      "channel": 1,
      "note": 70,
      "start": 108.1373,
      "duration": 0.0988,
      "velocity": 98,
      "chip": "ym2612"
    },
    {
      "channel": 2,
      "note": 77,
      "start": 108.1376,
      "duration": 0.0133,
      "velocity": 98,
      "chip": "ym2612"
    },
    {
      "channel": 4,
      "note": 63,
      "start": 108.1379,
      "duration": 0.0986,
      "velocity": 114,
      "chip": "ym2612"
    },
    {
      "channel": 2,
      "note": 79,
      "start": 108.151,
      "duration": 0.1002,
      "velocity": 98,
      "chip": "ym2612"
    },
    {
      "channel": 3,
      "note": 70,
      "start": 108.1513,
      "duration": 0.1002,
      "velocity": 98,
      "chip": "ym2612"
    },
    {
      "channel": 0,
      "note": 81,
      "start": 108.236,
      "duration": 0.3225,
      "velocity": 98,
      "chip": "ym2612"
    },
    {
      "channel": 1,
      "note": 72,
      "start": 108.2363,
      "duration": 0.3224,
      "velocity": 98,
      "chip": "ym2612"
    },
    {
      "channel": 4,
      "note": 65,
      "start": 108.2366,
      "duration": 0.3784,
      "velocity": 114,
      "chip": "ym2612"
    },
    {
      "channel": 2,
      "note": 81,
      "start": 108.2514,
      "duration": 0.322,
      "velocity": 98,
      "chip": "ym2612"
    },
    {
      "channel": 3,
      "note": 72,
      "start": 108.2516,
      "duration": 0.3218,
      "velocity": 98,
      "chip": "ym2612"
    },
    {
      "channel": 0,
      "note": 77,
      "start": 108.5861,
      "duration": 0.0282,
      "velocity": 98,
      "chip": "ym2612"
    },
    {
      "channel": 1,
      "note": 72,
      "start": 108.5864,
      "duration": 0.0282,
      "velocity": 98,
      "chip": "ym2612"
    },
    {
      "channel": 2,
      "note": 77,
      "start": 108.6002,
      "duration": 0.0282,
      "velocity": 98,
      "chip": "ym2612"
    },
    {
      "channel": 3,
      "note": 72,
      "start": 108.6005,
      "duration": 0.0282,
      "velocity": 98,
      "chip": "ym2612"
    },
    {
      "channel": 0,
      "note": 79,
      "start": 108.6145,
      "duration": 0.1121,
      "velocity": 98,
      "chip": "ym2612"
    },
    {
      "channel": 1,
      "note": 75,
      "start": 108.6148,
      "duration": 0.1119,
      "velocity": 98,
      "chip": "ym2612"
    },
    {
      "channel": 4,
      "note": 55,
      "start": 108.6151,
      "duration": 0.2995,
      "velocity": 114,
      "chip": "ym2612"
    },
    {
      "channel": 2,
      "note": 79,
      "start": 108.6285,
      "duration": 0.1121,
      "velocity": 98,
      "chip": "ym2612"
    },
    {
      "channel": 3,
      "note": 75,
      "start": 108.6288,
      "duration": 0.1119,
      "velocity": 98,
      "chip": "ym2612"
    },
    {
      "channel": 0,
      "note": 81,
      "start": 108.886,
      "duration": 0.028,
      "velocity": 98,
      "chip": "ym2612"
    },
    {
      "channel": 1,
      "note": 69,
      "start": 108.8863,
      "duration": 0.028,
      "velocity": 98,
      "chip": "ym2612"
    },
    {
      "channel": 2,
      "note": 81,
      "start": 108.9011,
      "duration": 0.027,
      "velocity": 98,
      "chip": "ym2612"
    },
    {
      "channel": 3,
      "note": 69,
      "start": 108.9014,
      "duration": 0.027,
      "velocity": 98,
      "chip": "ym2612"
    },
    {
      "channel": 0,
      "note": 77,
      "start": 108.9142,
      "duration": 0.1138,
      "velocity": 98,
      "chip": "ym2612"
    },
    {
      "channel": 1,
      "note": 72,
      "start": 108.9144,
      "duration": 0.1137,
      "velocity": 98,
      "chip": "ym2612"
    },
    {
      "channel": 4,
      "note": 53,
      "start": 108.9149,
      "duration": 0.3485,
      "velocity": 114,
      "chip": "ym2612"
    },
    {
      "channel": 2,
      "note": 77,
      "start": 108.9283,
      "duration": 0.1135,
      "velocity": 98,
      "chip": "ym2612"
    },
    {
      "channel": 3,
      "note": 72,
      "start": 108.9285,
      "duration": 0.1133,
      "velocity": 98,
      "chip": "ym2612"
    },
    {
      "channel": 0,
      "note": 77,
      "start": 109.2249,
      "duration": 0.0378,
      "velocity": 98,
      "chip": "ym2612"
    },
    {
      "channel": 1,
      "note": 70,
      "start": 109.2252,
      "duration": 0.0378,
      "velocity": 98,
      "chip": "ym2612"
    },
    {
      "channel": 2,
      "note": 77,
      "start": 109.2401,
      "duration": 0.0368,
      "velocity": 98,
      "chip": "ym2612"
    },
    {
      "channel": 3,
      "note": 70,
      "start": 109.2403,
      "duration": 0.0368,
      "velocity": 98,
      "chip": "ym2612"
    },
    {
      "channel": 0,
      "note": 82,
      "start": 109.2629,
      "duration": 0.1112,
      "velocity": 98,
      "chip": "ym2612"
    },
    {
      "channel": 1,
      "note": 75,
      "start": 109.2632,
      "duration": 0.1112,
      "velocity": 98,
      "chip": "ym2612"
    },
    {
      "channel": 4,
      "note": 55,
      "start": 109.2635,
      "duration": 0.1112,
      "velocity": 114,
      "chip": "ym2612"
    },
    {
      "channel": 2,
      "note": 82,
      "start": 109.277,
      "duration": 0.111,
      "velocity": 98,
      "chip": "ym2612"
    },
    {
      "channel": 3,
      "note": 75,
      "start": 109.2773,
      "duration": 0.1111,
      "velocity": 98,
      "chip": "ym2612"
    },
    {
      "channel": 0,
      "note": 84,
      "start": 109.3742,
      "duration": 0.1129,
      "velocity": 98,
      "chip": "ym2612"
    },
    {
      "channel": 1,
      "note": 79,
      "start": 109.3745,
      "duration": 0.1129,
      "velocity": 98,
      "chip": "ym2612"
    },
    {
      "channel": 4,
      "note": 50,
      "start": 109.3749,
      "duration": 0.1129,
      "velocity": 114,
      "chip": "ym2612"
    },
    {
      "channel": 2,
      "note": 84,
      "start": 109.3882,
      "duration": 0.113,
      "velocity": 98,
      "chip": "ym2612"
    },
    {
      "channel": 3,
      "note": 79,
      "start": 109.3885,
      "duration": 0.113,
      "velocity": 98,
      "chip": "ym2612"
    },
    {
      "channel": 0,
      "note": 77,
      "start": 109.4873,
      "duration": 0.1129,
      "velocity": 98,
      "chip": "ym2612"
    },
    {
      "channel": 1,
      "note": 72,
      "start": 109.4875,
      "duration": 0.231,
      "velocity": 98,
      "chip": "ym2612"
    },
    {
      "channel": 4,
      "note": 51,
      "start": 109.4879,
      "duration": 0.1127,
      "velocity": 114,
      "chip": "ym2612"
    },
    {
      "channel": 2,
      "note": 77,
      "start": 109.5013,
      "duration": 0.1136,
      "velocity": 98,
      "chip": "ym2612"
    },
    {
      "channel": 3,
      "note": 72,
      "start": 109.5016,
      "duration": 0.2322,
      "velocity": 98,
      "chip": "ym2612"
    },
    {
      "channel": 0,
      "note": 75,
      "start": 109.6003,
      "duration": 0.1179,
      "velocity": 98,
      "chip": "ym2612"
    },
    {
      "channel": 4,
      "note": 53,
      "start": 109.6008,
      "duration": 0.1181,
      "velocity": 114,
      "chip": "ym2612"
    },
    {
      "channel": 2,
      "note": 75,
      "start": 109.6151,
      "duration": 0.1185,
      "velocity": 98,
      "chip": "ym2612"
    },
    {
      "channel": 0,
      "note": 74,
      "start": 109.7184,
      "duration": 1.4903,
      "velocity": 98,
      "chip": "ym2612"
    },
    {
      "channel": 1,
      "note": 70,
      "start": 109.7186,
      "duration": 1.4901,
      "velocity": 98,
      "chip": "ym2612"
    },
    {
      "channel": 4,
      "note": 58,
      "start": 109.719,
      "duration": 2.4415,
      "velocity": 114,
      "chip": "ym2612"
    },
    {
      "channel": 2,
      "note": 74,
      "start": 109.7337,
      "duration": 1.5941,
      "velocity": 98,
      "chip": "ym2612"
    },
    {
      "channel": 3,
      "note": 70,
      "start": 109.7339,
      "duration": 1.5939,
      "velocity": 98,
      "chip": "ym2612"
    },
    {
      "channel": 4,
      "note": 55,
      "start": 112.1607,
      "duration": 1.5776,
      "velocity": 114,
      "chip": "ym2612"
    },
    {
      "channel": 4,
      "note": 53,
      "start": 113.7384,
      "duration": 1.8522,
      "velocity": 114,
      "chip": "ym2612"
    },
    {
      "channel": 4,
      "note": 58,
      "start": 115.5908,
      "duration": 3.5213,
      "velocity": 114,
      "chip": "ym2612"
    },
    {
      "channel": 4,
      "note": 57,
      "start": 119.1122,
      "duration": 1.5776,
      "velocity": 114,
      "chip": "ym2612"
    },
    {
      "channel": 4,
      "note": 53,
      "start": 120.6899,
      "duration": 1.8548,
      "velocity": 114,
      "chip": "ym2612"
    },
    {
      "channel": 0,
      "note": 74,
      "start": 122.5431,
      "duration": 1.617,
      "velocity": 87,
      "chip": "ym2612"
    },
    {
      "channel": 1,
      "note": 65,
      "start": 122.5445,
      "duration": 3.2809,
      "velocity": 112,
      "chip": "ym2612"
    },
    {
      "channel": 4,
      "note": 58,
      "start": 122.5449,
      "duration": 3.519,
      "velocity": 114,
      "chip": "ym2612"
    },
    {
      "channel": 2,
      "note": 74,
      "start": 122.5601,
      "duration": 1.7191,
      "velocity": 87,
      "chip": "ym2612"
    },
    {
      "channel": 3,
      "note": 65,
      "start": 122.5616,
      "duration": 3.3829,
      "velocity": 99,
      "chip": "ym2612"
    },
    {
      "channel": 0,
      "note": 70,
      "start": 124.1603,
      "duration": 1.903,
      "velocity": 87,
      "chip": "ym2612"
    },
    {
      "channel": 2,
      "note": 70,
      "start": 124.2794,
      "duration": 1.7987,
      "velocity": 87,
      "chip": "ym2612"
    },
    {
      "channel": 0,
      "note": 75,
      "start": 126.0635,
      "duration": 1.1018,
      "velocity": 87,
      "chip": "ym2612"
    },
    {
      "channel": 1,
      "note": 67,
      "start": 126.0637,
      "duration": 0.6258,
      "velocity": 112,
      "chip": "ym2612"
    },
    {
      "channel": 4,
      "note": 60,
      "start": 126.0641,
      "duration": 1.5778,
      "velocity": 114,
      "chip": "ym2612"
    },
    {
      "channel": 2,
      "note": 75,
      "start": 126.0782,
      "duration": 1.2061,
      "velocity": 87,
      "chip": "ym2612"
    },
    {
      "channel": 3,
      "note": 67,
      "start": 126.0785,
      "duration": 0.7302,
      "velocity": 99,
      "chip": "ym2612"
    },
    {
      "channel": 1,
      "note": 63,
      "start": 126.6897,
      "duration": 0.9516,
      "velocity": 112,
      "chip": "ym2612"
    },
    {
      "channel": 3,
      "note": 63,
      "start": 126.8088,
      "duration": 0.9516,
      "velocity": 99,
      "chip": "ym2612"
    },
    {
      "channel": 0,
      "note": 74,
      "start": 127.1654,
      "duration": 0.2378,
      "velocity": 87,
      "chip": "ym2612"
    },
    {
      "channel": 2,
      "note": 74,
      "start": 127.2845,
      "duration": 0.2379,
      "velocity": 87,
      "chip": "ym2612"
    },
    {
      "channel": 0,
      "note": 75,
      "start": 127.4033,
      "duration": 0.1188,
      "velocity": 87,
      "chip": "ym2612"
    },
    {
      "channel": 0,
      "note": 74,
      "start": 127.5222,
      "duration": 0.1188,
      "velocity": 87,
      "chip": "ym2612"
    },
    {
      "channel": 2,
      "note": 75,
      "start": 127.5226,
      "duration": 0.119,
      "velocity": 87,
      "chip": "ym2612"
    },
    {
      "channel": 0,
      "note": 72,
      "start": 127.6412,
      "duration": 0.9515,
      "velocity": 87,
      "chip": "ym2612"
    },
    {
      "channel": 1,
      "note": 60,
      "start": 127.6414,
      "duration": 1.427,
      "velocity": 112,
      "chip": "ym2612"
    },
    {
      "channel": 2,
      "note": 74,
      "start": 127.6417,
      "duration": 0.1185,
      "velocity": 87,
      "chip": "ym2612"
    },
    {
      "channel": 4,
      "note": 57,
      "start": 127.642,
      "duration": 1.852,
      "velocity": 114,
      "chip": "ym2612"
    },
    {
      "channel": 2,
      "note": 72,
      "start": 127.7603,
      "duration": 0.9514,
      "velocity": 87,
      "chip": "ym2612"
    },
    {
      "channel": 3,
      "note": 60,
      "start": 127.7605,
      "duration": 1.4271,
      "velocity": 99,
      "chip": "ym2612"
    },
    {
      "channel": 0,
      "note": 74,
      "start": 128.5928,
      "duration": 0.7135,
      "velocity": 87,
      "chip": "ym2612"
    },
    {
      "channel": 2,
      "note": 74,
      "start": 128.7118,
      "duration": 0.6627,
      "velocity": 87,
      "chip": "ym2612"
    },
    {
      "channel": 1,
      "note": 65,
      "start": 129.1876,
      "duration": 0.3061,
      "velocity": 112,
      "chip": "ym2612"
    },
    {
      "channel": 3,
      "note": 65,
      "start": 129.3067,
      "duration": 0.2017,
      "velocity": 99,
      "chip": "ym2612"
    },
    {
      "channel": 0,
      "note": 74,
      "start": 129.4935,
      "duration": 0.6666,
      "velocity": 87,
      "chip": "ym2612"
    },
    {
      "channel": 1,
      "note": 62,
      "start": 129.4938,
      "duration": 1.1421,
      "velocity": 112,
      "chip": "ym2612"
    },
    {
      "channel": 4,
      "note": 55,
      "start": 129.4942,
      "duration": 3.5213,
      "velocity": 114,
      "chip": "ym2612"
    },
    {
      "channel": 2,
      "note": 74,
      "start": 129.5082,
      "duration": 0.7709,
      "velocity": 87,
      "chip": "ym2612"
    },
    {
      "channel": 3,
      "note": 62,
      "start": 129.5085,
      "duration": 1.2466,
      "velocity": 99,
      "chip": "ym2612"
    },
    {
      "channel": 0,
      "note": 70,
      "start": 130.1602,
      "duration": 0.9514,
      "velocity": 87,
      "chip": "ym2612"
    },
    {
      "channel": 2,
      "note": 70,
      "start": 130.2793,
      "duration": 0.9515,
      "velocity": 87,
      "chip": "ym2612"
    },
    {
      "channel": 1,
      "note": 60,
      "start": 130.6361,
      "duration": 0.4758,
      "velocity": 112,
      "chip": "ym2612"
    },
    {
      "channel": 3,
      "note": 60,
      "start": 130.7552,
      "duration": 0.4759,
      "velocity": 99,
      "chip": "ym2612"
    },
    {
      "channel": 0,
      "note": 67,
      "start": 131.1118,
      "duration": 0.9514,
      "velocity": 87,
      "chip": "ym2612"
    },
    {
      "channel": 1,
      "note": 62,
      "start": 131.112,
      "duration": 1.6649,
      "velocity": 112,
      "chip": "ym2612"
    },
    {
      "channel": 2,
      "note": 67,
      "start": 131.2309,
      "duration": 0.9514,
      "velocity": 87,
      "chip": "ym2612"
    },
    {
      "channel": 3,
      "note": 62,
      "start": 131.2312,
      "duration": 1.6649,
      "velocity": 99,
      "chip": "ym2612"
    },
    {
      "channel": 0,
      "note": 67,
      "start": 132.5392,
      "duration": 0.4756,
      "velocity": 87,
      "chip": "ym2612"
    },
    {
      "channel": 2,
      "note": 67,
      "start": 132.6583,
      "duration": 0.3713,
      "velocity": 87,
      "chip": "ym2612"
    },
    {
      "channel": 0,
      "note": 69,
      "start": 133.015,
      "duration": 2.5291,
      "velocity": 87,
      "chip": "ym2612"
    },
    {
      "channel": 1,
      "note": 65,
      "start": 133.0152,
      "duration": 0.6258,
      "velocity": 112,
      "chip": "ym2612"
    },
    {
      "channel": 4,
      "note": 57,
      "start": 133.0156,
      "duration": 3.4298,
      "velocity": 114,
      "chip": "ym2612"
    },
    {
      "channel": 2,
      "note": 69,
      "start": 133.0297,
      "duration": 2.6335,
      "velocity": 87,
      "chip": "ym2612"
    },
    {
      "channel": 3,
      "note": 65,
      "start": 133.0299,
      "duration": 0.7302,
      "velocity": 99,
      "chip": "ym2612"
    },
    {
      "channel": 1,
      "note": 63,
      "start": 133.6412,
      "duration": 0.9515,
      "velocity": 112,
      "chip": "ym2612"
    },
    {
      "channel": 3,
      "note": 63,
      "start": 133.7603,
      "duration": 0.9515,
      "velocity": 99,
      "chip": "ym2612"
    },
    {
      "channel": 1,
      "note": 60,
      "start": 134.5928,
      "duration": 0.9516,
      "velocity": 112,
      "chip": "ym2612"
    },
    {
      "channel": 3,
      "note": 60,
      "start": 134.7119,
      "duration": 0.9516,
      "velocity": 99,
      "chip": "ym2612"
    },
    {
      "channel": 0,
      "note": 69,
      "start": 135.5443,
      "duration": 0.4756,
      "velocity": 87,
      "chip": "ym2612"
    },
    {
      "channel": 1,
      "note": 63,
      "start": 135.5445,
      "duration": 0.4756,
      "velocity": 112,
      "chip": "ym2612"
    },
    {
      "channel": 2,
      "note": 69,
      "start": 135.6634,
      "duration": 0.4757,
      "velocity": 87,
      "chip": "ym2612"
    },
    {
      "channel": 3,
      "note": 63,
      "start": 135.6636,
      "duration": 0.4757,
      "velocity": 99,
      "chip": "ym2612"
    },
    {
      "channel": 0,
      "note": 65,
      "start": 136.0201,
      "duration": 0.4248,
      "velocity": 87,
      "chip": "ym2612"
    },
    {
      "channel": 1,
      "note": 65,
      "start": 136.0203,
      "duration": 0.4248,
      "velocity": 112,
      "chip": "ym2612"
    },
    {
      "channel": 2,
      "note": 65,
      "start": 136.1392,
      "duration": 0.3204,
      "velocity": 87,
      "chip": "ym2612"
    },
    {
      "channel": 3,
      "note": 65,
      "start": 136.1394,
      "duration": 0.3204,
      "velocity": 99,
      "chip": "ym2612"
    },
    {
      "channel": 0,
      "note": 70,
      "start": 136.445,
      "duration": 1.6182,
      "velocity": 87,
      "chip": "ym2612"
    },
    {
      "channel": 1,
      "note": 62,
      "start": 136.4452,
      "duration": 1.6182,
      "velocity": 112,
      "chip": "ym2612"
    },
    {
      "channel": 4,
      "note": 58,
      "start": 136.4456,
      "duration": 3.5213,
      "velocity": 114,
      "chip": "ym2612"
    },
    {
      "channel": 2,
      "note": 70,
      "start": 136.4597,
      "duration": 1.7226,
      "velocity": 87,
      "chip": "ym2612"
    },
    {
      "channel": 3,
      "note": 62,
      "start": 136.4599,
      "duration": 1.7226,
      "velocity": 99,
      "chip": "ym2612"
    },
    {
      "channel": 0,
      "note": 72,
      "start": 138.0633,
      "duration": 1.4272,
      "velocity": 87,
      "chip": "ym2612"
    },
    {
      "channel": 1,
      "note": 69,
      "start": 138.0635,
      "duration": 1.903,
      "velocity": 112,
      "chip": "ym2612"
    },
    {
      "channel": 2,
      "note": 72,
      "start": 138.1824,
      "duration": 1.4272,
      "velocity": 87,
      "chip": "ym2612"
    },
    {
      "channel": 3,
      "note": 69,
      "start": 138.1826,
      "duration": 1.7986,
      "velocity": 99,
      "chip": "ym2612"
    },
    {
      "channel": 0,
      "note": 70,
      "start": 139.9664,
      "duration": 5.3336,
      "velocity": 87,
      "chip": "ym2612"
    },
    {
      "channel": 1,
      "note": 65,
      "start": 139.9667,
      "duration": 5.3334,
      "velocity": 112,
      "chip": "ym2612"
    },
    {
      "channel": 4,
      "note": 58,
      "start": 139.9671,
      "duration": 5.3332,
      "velocity": 114,
      "chip": "ym2612"
    },
    {
      "channel": 2,
      "note": 70,
      "start": 139.9811,
      "duration": 5.438,
      "velocity": 87,
      "chip": "ym2612"
    },
    {
      "channel": 3,
      "note": 65,
      "start": 139.9814,
      "duration": 5.4378,
      "velocity": 99,
      "chip": "ym2612"
    }
  ]
}