{
  "track_name": "Main Menu",
  "duration_sec": 51.593,
  "sample_rate": 44100,
  "note_count": 1289,
  "unique_pitches": 39,
  "pitch_range": 61,
  "avg_note_duration": 0.2095,
  "reconstruction_stats": {
    "notes_reconstructed": 1289,
    "keyon_events": 1289,
    "keyoff_events": 1283,
    "orphan_keyons": 6,
    "unique_pitches": 39,
    "pitch_range": 61,
    "avg_duration_sec": 0.2095
  },
  "metadata": {
    "source": "G\\Game no Kandzume Otokuyou\\Main Menu.vgz"
  },
  "notes": [
    {
      "channel": 0,
      "note": 77,
      "start": 0.0,
      "duration": 0.415,
      "velocity": 112,
      "chip": "ym2612"
    },
    {
      "channel": 3,
      "note": 49,
      "start": 0.0093,
      "duration": 0.2076,
      "velocity": 109,
      "chip": "ym2612"
    },
    {
      "channel": 4,
      "note": 53,
      "start": 0.013,
      "duration": 0.2071,
      "velocity": 111,
      "chip": "ym2612"
    },
    {
      "channel": 1,
      "note": 80,
      "start": 0.216,
      "duration": 0.2993,
      "velocity": 97,
      "chip": "ym2612"
    },
    {
      "channel": 2,
      "note": 77,
      "start": 0.2168,
      "duration": 0.2991,
      "velocity": 97,
      "chip": "ym2612"
    },
    {
      "channel": 3,
      "note": 61,
      "start": 0.2176,
      "duration": 0.0985,
      "velocity": 109,
      "chip": "ym2612"
    },
    {
      "channel": 4,
      "note": 95,
      "start": 0.2207,
      "duration": 0.1994,
      "velocity": 122,
      "chip": "ym2612"
    },
    {
      "channel": 5,
      "note": 77,
      "start": 0.2841,
      "duration": 0.3987,
      "velocity": 106,
      "chip": "ym2612"
    },
    {
      "channel": 3,
      "note": 61,
      "start": 0.3165,
      "duration": 0.1002,
      "velocity": 109,
      "chip": "ym2612"
    },
    {
      "channel": 0,
      "note": 80,
      "start": 0.4156,
      "duration": 0.3994,
      "velocity": 112,
      "chip": "ym2612"
    },
    {
      "channel": 3,
      "note": 49,
      "start": 0.4173,
      "duration": 0.1987,
      "velocity": 109,
      "chip": "ym2612"
    },
    {
      "channel": 4,
      "note": 49,
      "start": 0.4205,
      "duration": 0.1986,
      "velocity": 111,
      "chip": "ym2612"
    },
    {
      "channel": 1,
      "note": 80,
      "start": 0.5158,
      "duration": 0.0996,
      "velocity": 97,
      "chip": "ym2612"
    },
    {
      "channel": 2,
      "note": 77,
      "start": 0.5163,
      "duration": 0.0994,
      "velocity": 97,
      "chip": "ym2612"
    },
    {
      "channel": 3,
      "note": 61,
      "start": 0.6166,
      "duration": 0.0989,
      "velocity": 109,
      "chip": "ym2612"
    },
    {
      "channel": 4,
      "note": 95,
      "start": 0.6197,
      "duration": 0.2011,
      "velocity": 127,
      "chip": "ym2612"
    },
    {
      "channel": 5,
      "note": 80,
      "start": 0.6834,
      "duration": 0.4,
      "velocity": 106,
      "chip": "ym2612"
    },
    {
      "channel": 3,
      "note": 61,
      "start": 0.716,
      "duration": 0.1013,
      "velocity": 109,
      "chip": "ym2612"
    },
    {
      "channel": 0,
      "note": 89,
      "start": 0.8156,
      "duration": 0.2994,
      "velocity": 112,
      "chip": "ym2612"
    },
    {
      "channel": 1,
      "note": 80,
      "start": 0.8164,
      "duration": 0.2994,
      "velocity": 97,
      "chip": "ym2612"
    },
    {
      "channel": 2,
      "note": 77,
      "start": 0.8172,
      "duration": 0.2992,
      "velocity": 97,
      "chip": "ym2612"
    },
    {
      "channel": 3,
      "note": 49,
      "start": 0.818,
      "duration": 0.1982,
      "velocity": 109,
      "chip": "ym2612"
    },
    {
      "channel": 4,
      "note": 53,
      "start": 0.8215,
      "duration": 0.1979,
      "velocity": 111,
      "chip": "ym2612"
    },
    {
      "channel": 3,
      "note": 61,
      "start": 1.0168,
      "duration": 0.1001,
      "velocity": 109,
      "chip": "ym2612"
    },
    {
      "channel": 4,
      "note": 95,
      "start": 1.02,
      "duration": 0.1994,
      "velocity": 122,
      "chip": "ym2612"
    },
    {
      "channel": 5,
      "note": 89,
      "start": 1.0841,
      "duration": 0.2987,
      "velocity": 106,
      "chip": "ym2612"
    },
    {
      "channel": 0,
      "note": 87,
      "start": 1.1156,
      "duration": 0.2994,
      "velocity": 112,
      "chip": "ym2612"
    },
    {
      "channel": 1,
      "note": 80,
      "start": 1.1162,
      "duration": 0.0991,
      "velocity": 97,
      "chip": "ym2612"
    },
    {
      "channel": 2,
      "note": 77,
      "start": 1.1168,
      "duration": 0.0987,
      "velocity": 97,
      "chip": "ym2612"
    },
    {
      "channel": 3,
      "note": 61,
      "start": 1.1175,
      "duration": 0.0985,
      "velocity": 109,
      "chip": "ym2612"
    },
    {
      "channel": 3,
      "note": 49,
      "start": 1.2166,
      "duration": 0.2007,
      "velocity": 109,
      "chip": "ym2612"
    },
    {
      "channel": 4,
      "note": 49,
      "start": 1.2199,
      "duration": 0.2006,
      "velocity": 111,
      "chip": "ym2612"
    },
    {
      "channel": 5,
      "note": 87,
      "start": 1.3834,
      "duration": 0.2994,
      "velocity": 106,
      "chip": "ym2612"
    },
    {
      "channel": 0,
      "note": 85,
      "start": 1.4156,
      "duration": 0.1994,
      "velocity": 112,
      "chip": "ym2612"
    },
    {
      "channel": 1,
      "note": 80,
      "start": 1.4164,
      "duration": 0.1996,
      "velocity": 97,
      "chip": "ym2612"
    },
    {
      "channel": 2,
      "note": 77,
      "start": 1.4172,
      "duration": 0.1993,
      "velocity": 97,
      "chip": "ym2612"
    },
    {
      "channel": 3,
      "note": 61,
      "start": 1.4179,
      "duration": 0.098,
      "velocity": 109,
      "chip": "ym2612"
    },
    {
      "channel": 4,
      "note": 95,
      "start": 1.421,
      "duration": 0.1993,
      "velocity": 127,
      "chip": "ym2612"
    },
    {
      "channel": 3,
      "note": 61,
      "start": 1.5164,
      "duration": 0.1005,
      "velocity": 109,
      "chip": "ym2612"
    },
    {
      "channel": 0,
      "note": 84,
      "start": 1.6156,
      "duration": 0.3994,
      "velocity": 112,
      "chip": "ym2612"
    },
    {
      "channel": 3,
      "note": 53,
      "start": 1.6174,
      "duration": 0.1995,
      "velocity": 109,
      "chip": "ym2612"
    },
    {
      "channel": 4,
      "note": 53,
      "start": 1.621,
      "duration": 0.199,
      "velocity": 111,
      "chip": "ym2612"
    },
    {
      "channel": 5,
      "note": 85,
      "start": 1.6834,
      "duration": 0.1998,
      "velocity": 106,
      "chip": "ym2612"
    },
    {
      "channel": 1,
      "note": 80,
      "start": 1.816,
      "duration": 0.2993,
      "velocity": 97,
      "chip": "ym2612"
    },
    {
      "channel": 2,
      "note": 77,
      "start": 1.8168,
      "duration": 0.2991,
      "velocity": 97,
      "chip": "ym2612"
    },
    {
      "channel": 3,
      "note": 65,
      "start": 1.8176,
      "duration": 0.0985,
      "velocity": 109,
      "chip": "ym2612"
    },
    {
      "channel": 4,
      "note": 95,
      "start": 1.8207,
      "duration": 0.1994,
      "velocity": 122,
      "chip": "ym2612"
    },
    {
      "channel": 5,
      "note": 84,
      "start": 1.8839,
      "duration": 0.3989,
      "velocity": 106,
      "chip": "ym2612"
    },
    {
      "channel": 3,
      "note": 65,
      "start": 1.9165,
      "duration": 0.1002,
      "velocity": 109,
      "chip": "ym2612"
    },
    {
      "channel": 0,
      "note": 80,
      "start": 2.0156,
      "duration": 0.3994,
      "velocity": 112,
      "chip": "ym2612"
    },
    {
      "channel": 3,
      "note": 53,
      "start": 2.0173,
      "duration": 0.1987,
      "velocity": 109,
      "chip": "ym2612"
    },
    {
      "channel": 4,
      "note": 49,
      "start": 2.0205,
      "duration": 0.1986,
      "velocity": 111,
      "chip": "ym2612"
    },
    {
      "channel": 1,
      "note": 80,
      "start": 2.1158,
      "duration": 0.0996,
      "velocity": 97,
      "chip": "ym2612"
    },
    {
      "channel": 2,
      "note": 77,
      "start": 2.1163,
      "duration": 0.0994,
      "velocity": 97,
      "chip": "ym2612"
    },
    {
      "channel": 3,
      "note": 65,
      "start": 2.2166,
      "duration": 0.0989,
      "velocity": 109,
      "chip": "ym2612"
    },
    {
      "channel": 4,
      "note": 95,
      "start": 2.2197,
      "duration": 0.2011,
      "velocity": 127,
      "chip": "ym2612"
    },
    {
      "channel": 5,
      "note": 80,
      "start": 2.2834,
      "duration": 0.4,
      "velocity": 106,
      "chip": "ym2612"
    },
    {
      "channel": 3,
      "note": 65,
      "start": 2.316,
      "duration": 0.1013,
      "velocity": 109,
      "chip": "ym2612"
    },
    {
      "channel": 0,
      "note": 89,
      "start": 2.4156,
      "duration": 0.2994,
      "velocity": 112,
      "chip": "ym2612"
    },
    {
      "channel": 1,
      "note": 80,
      "start": 2.4164,
      "duration": 0.2994,
      "velocity": 97,
      "chip": "ym2612"
    },
    {
      "channel": 2,
      "note": 77,
      "start": 2.4172,
      "duration": 0.2992,
      "velocity": 97,
      "chip": "ym2612"
    },
    {
      "channel": 3,
      "note": 53,
      "start": 2.418,
      "duration": 0.1982,
      "velocity": 109,
      "chip": "ym2612"
    },
    {
      "channel": 4,
      "note": 53,
      "start": 2.4215,
      "duration": 0.1979,
      "velocity": 111,
      "chip": "ym2612"
    },
    {
      "channel": 3,
      "note": 65,
      "start": 2.6168,
      "duration": 0.1001,
      "velocity": 109,
      "chip": "ym2612"
    },
    {
      "channel": 4,
      "note": 95,
      "start": 2.62,
      "duration": 0.1994,
      "velocity": 122,
      "chip": "ym2612"
    },
    {
      "channel": 5,
      "note": 89,
      "start": 2.6841,
      "duration": 0.2987,
      "velocity": 106,
      "chip": "ym2612"
    },
    {
      "channel": 0,
      "note": 84,
      "start": 2.7156,
      "duration": 0.2994,
      "velocity": 112,
      "chip": "ym2612"
    },
    {
      "channel": 1,
      "note": 80,
      "start": 2.7162,
      "duration": 0.0991,
      "velocity": 97,
      "chip": "ym2612"
    },
    {
      "channel": 2,
      "note": 77,
      "start": 2.7168,
      "duration": 0.0987,
      "velocity": 97,
      "chip": "ym2612"
    },
    {
      "channel": 3,
      "note": 65,
      "start": 2.7175,
      "duration": 0.0985,
      "velocity": 109,
      "chip": "ym2612"
    },
    {
      "channel": 3,
      "note": 53,
      "start": 2.8166,
      "duration": 0.2007,
      "velocity": 109,
      "chip": "ym2612"
    },
    {
      "channel": 4,
      "note": 49,
      "start": 2.8199,
      "duration": 0.2006,
      "velocity": 111,
      "chip": "ym2612"
    },
    {
      "channel": 5,
      "note": 84,
      "start": 2.9834,
      "duration": 0.2994,
      "velocity": 106,
      "chip": "ym2612"
    },
    {
      "channel": 0,
      "note": 89,
      "start": 3.0156,
      "duration": 0.1994,
      "velocity": 112,
      "chip": "ym2612"
    },
    {
      "channel": 1,
      "note": 80,
      "start": 3.0164,
      "duration": 0.1996,
      "velocity": 97,
      "chip": "ym2612"
    },
    {
      "channel": 2,
      "note": 77,
      "start": 3.0172,
      "duration": 0.1994,
      "velocity": 97,
      "chip": "ym2612"
    },
    {
      "channel": 3,
      "note": 65,
      "start": 3.0179,
      "duration": 0.098,
      "velocity": 109,
      "chip": "ym2612"
    },
    {
      "channel": 4,
      "note": 95,
      "start": 3.021,
      "duration": 0.1994,
      "velocity": 127,
      "chip": "ym2612"
    },
    {
      "channel": 3,
      "note": 65,
      "start": 3.1164,
      "duration": 0.1006,
      "velocity": 109,
      "chip": "ym2612"
    },
    {
      "channel": 0,
      "note": 90,
      "start": 3.2156,
      "duration": 0.3994,
      "velocity": 112,
      "chip": "ym2612"
    },
    {
      "channel": 3,
      "note": 54,
      "start": 3.2176,
      "duration": 0.1993,
      "velocity": 109,
      "chip": "ym2612"
    },
    {
      "channel": 4,
      "note": 53,
      "start": 3.2212,
      "duration": 0.1989,
      "velocity": 111,
      "chip": "ym2612"
    },
    {
      "channel": 5,
      "note": 89,
      "start": 3.2834,
      "duration": 0.1998,
      "velocity": 106,
      "chip": "ym2612"
    },
    {
      "channel": 1,
      "note": 82,
      "start": 3.416,
      "duration": 0.2993,
      "velocity": 97,
      "chip": "ym2612"
    },
    {
      "channel": 2,
      "note": 78,
      "start": 3.4168,
      "duration": 0.2991,
      "velocity": 97,
      "chip": "ym2612"
    },
    {
      "channel": 3,
      "note": 66,
      "start": 3.4176,
      "duration": 0.0985,
      "velocity": 109,
      "chip": "ym2612"
    },
    {
      "channel": 4,
      "note": 95,
      "start": 3.4207,
      "duration": 0.1994,
      "velocity": 122,
      "chip": "ym2612"
    },
    {
      "channel": 5,
      "note": 90,
      "start": 3.4839,
      "duration": 0.3989,
      "velocity": 106,
      "chip": "ym2612"
    },
    {
      "channel": 3,
      "note": 66,
      "start": 3.5165,
      "duration": 0.1002,
      "velocity": 109,
      "chip": "ym2612"
    },
    {
      "channel": 0,
      "note": 90,
      "start": 3.6156,
      "duration": 0.2994,
      "velocity": 112,
      "chip": "ym2612"
    },
    {
      "channel": 3,
      "note": 54,
      "start": 3.6173,
      "duration": 0.1987,
      "velocity": 109,
      "chip": "ym2612"
    },
    {
      "channel": 4,
      "note": 49,
      "start": 3.6206,
      "duration": 0.1985,
      "velocity": 111,
      "chip": "ym2612"
    },
    {
      "channel": 1,
      "note": 82,
      "start": 3.7158,
      "duration": 0.0996,
      "velocity": 97,
      "chip": "ym2612"
    },
    {
      "channel": 2,
      "note": 78,
      "start": 3.7163,
      "duration": 0.0994,
      "velocity": 97,
      "chip": "ym2612"
    },
    {
      "channel": 3,
      "note": 66,
      "start": 3.8166,
      "duration": 0.0993,
      "velocity": 109,
      "chip": "ym2612"
    },
    {
      "channel": 4,
      "note": 95,
      "start": 3.8197,
      "duration": 0.2006,
      "velocity": 127,
      "chip": "ym2612"
    },
    {
      "channel": 5,
      "note": 90,
      "start": 3.8834,
      "duration": 0.2999,
      "velocity": 106,
      "chip": "ym2612"
    },
    {
      "channel": 0,
      "note": 92,
      "start": 3.9156,
      "duration": 0.2994,
      "velocity": 112,
      "chip": "ym2612"
    },
    {
      "channel": 3,
      "note": 66,
      "start": 3.9164,
      "duration": 0.1005,
      "velocity": 109,
      "chip": "ym2612"
    },
    {
      "channel": 1,
      "note": 82,
      "start": 4.016,
      "duration": 0.2994,
      "velocity": 97,
      "chip": "ym2612"
    },
    {
      "channel": 2,
      "note": 78,
      "start": 4.0167,
      "duration": 0.2992,
      "velocity": 97,
      "chip": "ym2612"
    },
    {
      "channel": 3,
      "note": 54,
      "start": 4.0176,
      "duration": 0.199,
      "velocity": 109,
      "chip": "ym2612"
    },
    {
      "channel": 4,
      "note": 53,
      "start": 4.021,
      "duration": 0.1987,
      "velocity": 111,
      "chip": "ym2612"
    },
    {
      "channel": 5,
      "note": 92,
      "start": 4.184,
      "duration": 0.2987,
      "velocity": 106,
      "chip": "ym2612"
    },
    {
      "channel": 0,
      "note": 90,
      "start": 4.2156,
      "duration": 0.1994,
      "velocity": 112,
      "chip": "ym2612"
    },
    {
      "channel": 3,
      "note": 66,
      "start": 4.2172,
      "duration": 0.0993,
      "velocity": 109,
      "chip": "ym2612"
    },
    {
      "channel": 4,
      "note": 95,
      "start": 4.2203,
      "duration": 0.1995,
      "velocity": 122,
      "chip": "ym2612"
    },
    {
      "channel": 1,
      "note": 82,
      "start": 4.3158,
      "duration": 0.1,
      "velocity": 97,
      "chip": "ym2612"
    },
    {
      "channel": 2,
      "note": 78,
      "start": 4.3163,
      "duration": 0.0997,
      "velocity": 97,
      "chip": "ym2612"
    },
    {
      "channel": 3,
      "note": 66,
      "start": 4.317,
      "duration": 0.0995,
      "velocity": 109,
      "chip": "ym2612"
    },
    {
      "channel": 0,
      "note": 92,
      "start": 4.4156,
      "duration": 0.1994,
      "velocity": 112,
      "chip": "ym2612"
    },
    {
      "channel": 3,
      "note": 54,
      "start": 4.4171,
      "duration": 0.2003,
      "velocity": 109,
      "chip": "ym2612"
    },
    {
      "channel": 4,
      "note": 49,
      "start": 4.4203,
      "duration": 0.2002,
      "velocity": 111,
      "chip": "ym2612"
    },
    {
      "channel": 5,
      "note": 90,
      "start": 4.4833,
      "duration": 0.1999,
      "velocity": 106,
      "chip": "ym2612"
    },
    {
      "channel": 0,
      "note": 94,
      "start": 4.6156,
      "duration": 0.1994,
      "velocity": 112,
      "chip": "ym2612"
    },
    {
      "channel": 1,
      "note": 82,
      "start": 4.6164,
      "duration": 0.1994,
      "velocity": 97,
      "chip": "ym2612"
    },
    {
      "channel": 2,
      "note": 78,
      "start": 4.6172,
      "duration": 0.1991,
      "velocity": 97,
      "chip": "ym2612"
    },
    {
      "channel": 3,
      "note": 66,
      "start": 4.618,
      "duration": 0.0979,
      "velocity": 109,
      "chip": "ym2612"
    },
    {
      "channel": 4,
      "note": 95,
      "start": 4.6211,
      "duration": 0.1992,
      "velocity": 127,
      "chip": "ym2612"
    },
    {
      "channel": 5,
      "note": 92,
      "start": 4.6838,
      "duration": 0.199,
      "velocity": 106,
      "chip": "ym2612"
    },
    {
      "channel": 3,
      "note": 66,
      "start": 4.7164,
      "duration": 0.1003,
      "velocity": 109,
      "chip": "ym2612"
    },
    {
      "channel": 0,
      "note": 96,
      "start": 4.8156,
      "duration": 0.0994,
      "velocity": 112,
      "chip": "ym2612"
    },
    {
      "channel": 3,
      "note": 56,
      "start": 4.8172,
      "duration": 0.2001,
      "velocity": 109,
      "chip": "ym2612"
    },
    {
      "channel": 4,
      "note": 53,
      "start": 4.821,
      "duration": 0.1995,
      "velocity": 111,
      "chip": "ym2612"
    },
    {
      "channel": 5,
      "note": 94,
      "start": 4.8834,
      "duration": 0.1998,
      "velocity": 106,
      "chip": "ym2612"
    },
    {
      "channel": 0,
      "note": 94,
      "start": 4.9156,
      "duration": 0.0994,
      "velocity": 112,
      "chip": "ym2612"
    },
    {
      "channel": 0,
      "note": 92,
      "start": 5.0156,
      "duration": 0.0994,
      "velocity": 112,
      "chip": "ym2612"
    },
    {
      "channel": 1,
      "note": 84,
      "start": 5.0164,
      "duration": 0.2994,
      "velocity": 97,
      "chip": "ym2612"
    },
    {
      "channel": 2,
      "note": 80,
      "start": 5.0172,
      "duration": 0.2992,
      "velocity": 97,
      "chip": "ym2612"
    },
    {
      "channel": 3,
      "note": 68,
      "start": 5.0179,
      "duration": 0.0985,
      "velocity": 109,
      "chip": "ym2612"
    },
    {
      "channel": 4,
      "note": 95,
      "start": 5.021,
      "duration": 0.1989,
      "velocity": 122,
      "chip": "ym2612"
    },
    {
      "channel": 5,
      "note": 96,
      "start": 5.0838,
      "duration": 0.0994,
      "velocity": 106,
      "chip": "ym2612"
    },
    {
      "channel": 0,
      "note": 96,
      "start": 5.1156,
      "duration": 0.0994,
      "velocity": 112,
      "chip": "ym2612"
    },
    {
      "channel": 3,
      "note": 68,
      "start": 5.1168,
      "duration": 0.0998,
      "velocity": 109,
      "chip": "ym2612"
    },
    {
      "channel": 5,
      "note": 94,
      "start": 5.1838,
      "duration": 0.0995,
      "velocity": 106,
      "chip": "ym2612"
    },
    {
      "channel": 0,
      "note": 94,
      "start": 5.2156,
      "duration": 0.0994,
      "velocity": 112,
      "chip": "ym2612"
    },
    {
      "channel": 3,
      "note": 56,
      "start": 5.2172,
      "duration": 0.1991,
      "velocity": 109,
      "chip": "ym2612"
    },
    {
      "channel": 4,
      "note": 49,
      "start": 5.2205,
      "duration": 0.199,
      "velocity": 111,
      "chip": "ym2612"
    },
    {
      "channel": 5,
      "note": 92,
      "start": 5.284,
      "duration": 0.0992,
      "velocity": 106,
      "chip": "ym2612"
    },
    {
      "channel": 0,
      "note": 92,
      "start": 5.3156,
      "duration": 0.0994,
      "velocity": 112,
      "chip": "ym2612"
    },
    {
      "channel": 1,
      "note": 84,
      "start": 5.3162,
      "duration": 0.0995,
      "velocity": 97,
      "chip": "ym2612"
    },
    {
      "channel": 2,
      "note": 80,
      "start": 5.3168,
      "duration": 0.0992,
      "velocity": 97,
      "chip": "ym2612"
    },
    {
      "channel": 5,
      "note": 96,
      "start": 5.3838,
      "duration": 0.0989,
      "velocity": 106,
      "chip": "ym2612"
    },
    {
      "channel": 0,
      "note": 96,
      "start": 5.4156,
      "duration": 0.0994,
      "velocity": 112,
      "chip": "ym2612"
    },
    {
      "channel": 3,
      "note": 68,
      "start": 5.417,
      "duration": 0.1003,
      "velocity": 109,
      "chip": "ym2612"
    },
    {
      "channel": 4,
      "note": 95,
      "start": 5.4201,
      "duration": 0.2005,
      "velocity": 122,
      "chip": "ym2612"
    },
    {
      "channel": 5,
      "note": 94,
      "start": 5.4834,
      "duration": 0.0998,
      "velocity": 106,
      "chip": "ym2612"
    },
    {
      "channel": 0,
      "note": 92,
      "start": 5.5156,
      "duration": 0.0994,
      "velocity": 112,
      "chip": "ym2612"
    },
    {
      "channel": 1,
      "note": 84,
      "start": 5.5164,
      "duration": 0.0994,
      "velocity": 97,
      "chip": "ym2612"
    },
    {
      "channel": 2,
      "note": 80,
      "start": 5.5172,
      "duration": 0.0994,
      "velocity": 97,
      "chip": "ym2612"
    },
    {
      "channel": 3,
      "note": 68,
      "start": 5.5178,
      "duration": 0.0996,
      "velocity": 109,
      "chip": "ym2612"
    },
    {
      "channel": 5,
      "note": 92,
      "start": 5.5838,
      "duration": 0.0994,
      "velocity": 106,
      "chip": "ym2612"
    },
    {
      "channel": 0,
      "note": 94,
      "start": 5.6156,
      "duration": 0.3994,
      "velocity": 112,
      "chip": "ym2612"
    },
    {
      "channel": 1,
      "note": 85,
      "start": 5.6164,
      "duration": 0.199,
      "velocity": 97,
      "chip": "ym2612"
    },
    {
      "channel": 2,
      "note": 78,
      "start": 5.6172,
      "duration": 0.199,
      "velocity": 97,
      "chip": "ym2612"
    },
    {
      "channel": 3,
      "note": 54,
      "start": 5.6179,
      "duration": 0.199,
      "velocity": 109,
      "chip": "ym2612"
    },
    {
      "channel": 4,
      "note": 49,
      "start": 5.6212,
      "duration": 0.3969,
      "velocity": 122,
      "chip": "ym2612"
    },
    {
      "channel": 5,
      "note": 96,
      "start": 5.6838,
      "duration": 0.0994,
      "velocity": 106,
      "chip": "ym2612"
    },
    {
      "channel": 5,
      "note": 92,
      "start": 5.7838,
      "duration": 0.0994,
      "velocity": 106,
      "chip": "ym2612"
    },
    {
      "channel": 1,
      "note": 85,
      "start": 5.816,
      "duration": 0.1997,
      "velocity": 97,
      "chip": "ym2612"
    },
    {
      "channel": 2,
      "note": 78,
      "start": 5.8168,
      "duration": 0.1998,
      "velocity": 97,
      "chip": "ym2612"
    },
    {
      "channel": 3,
      "note": 66,
      "start": 5.8176,
      "duration": 0.1998,
      "velocity": 109,
      "chip": "ym2612"
    },
    {
      "channel": 5,
      "note": 94,
      "start": 5.884,
      "duration": 0.3993,
      "velocity": 106,
      "chip": "ym2612"
    },
    {
      "channel": 0,
      "note": 96,
      "start": 6.0156,
      "duration": 0.3994,
      "velocity": 112,
      "chip": "ym2612"
    },
    {
      "channel": 1,
      "note": 84,
      "start": 6.0164,
      "duration": 0.199,
      "velocity": 97,
      "chip": "ym2612"
    },
    {
      "channel": 2,
      "note": 77,
      "start": 6.0172,
      "duration": 0.199,
      "velocity": 97,
      "chip": "ym2612"
    },
    {
      "channel": 3,
      "note": 53,
      "start": 6.0179,
      "duration": 0.199,
      "velocity": 109,
      "chip": "ym2612"
    },
    {
      "channel": 4,
      "note": 49,
      "start": 6.0184,
      "duration": 0.0982,
      "velocity": 122,
      "chip": "ym2612"
    },
    {
      "channel": 4,
      "note": 49,
      "start": 6.117,
      "duration": 0.1007,
      "velocity": 122,
      "chip": "ym2612"
    },
    {
      "channel": 1,
      "note": 84,
      "start": 6.216,
      "duration": 0.2,
      "velocity": 97,
      "chip": "ym2612"
    },
    {
      "channel": 2,
      "note": 77,
      "start": 6.2168,
      "duration": 0.1998,
      "velocity": 97,
      "chip": "ym2612"
    },
    {
      "channel": 3,
      "note": 65,
      "start": 6.2176,
      "duration": 0.1994,
      "velocity": 109,
      "chip": "ym2612"
    },
    {
      "channel": 4,
      "note": 49,
      "start": 6.218,
      "duration": 0.0983,
      "velocity": 122,
      "chip": "ym2612"
    },
    {
      "channel": 5,
      "note": 96,
      "start": 6.284,
      "duration": 0.3994,
      "velocity": 106,
      "chip": "ym2612"
    },
    {
      "channel": 4,
      "note": 49,
      "start": 6.3167,
      "duration": 0.1041,
      "velocity": 127,
      "chip": "ym2612"
    },
    {
      "channel": 0,
      "note": 77,
      "start": 6.4157,
      "duration": 0.3993,
      "velocity": 112,
      "chip": "ym2612"
    },
    {
      "channel": 3,
      "note": 49,
      "start": 6.4176,
      "duration": 0.1994,
      "velocity": 109,
      "chip": "ym2612"
    },
    {
      "channel": 4,
      "note": 53,
      "start": 6.4215,
      "duration": 0.1986,
      "velocity": 111,
      "chip": "ym2612"
    },
    {
      "channel": 1,
      "note": 80,
      "start": 6.616,
      "duration": 0.2993,
      "velocity": 97,
      "chip": "ym2612"
    },
    {
      "channel": 2,
      "note": 77,
      "start": 6.6168,
      "duration": 0.2991,
      "velocity": 97,
      "chip": "ym2612"
    },
    {
      "channel": 3,
      "note": 61,
      "start": 6.6176,
      "duration": 0.0985,
      "velocity": 109,
      "chip": "ym2612"
    },
    {
      "channel": 4,
      "note": 95,
      "start": 6.6207,
      "duration": 0.1994,
      "velocity": 122,
      "chip": "ym2612"
    },
    {
      "channel": 5,
      "note": 77,
      "start": 6.684,
      "duration": 0.3988,
      "velocity": 106,
      "chip": "ym2612"
    },
    {
      "channel": 3,
      "note": 61,
      "start": 6.7165,
      "duration": 0.1002,
      "velocity": 109,
      "chip": "ym2612"
    },
    {
      "channel": 0,
      "note": 80,
      "start": 6.8156,
      "duration": 0.3994,
      "velocity": 112,
      "chip": "ym2612"
    },
    {
      "channel": 3,
      "note": 49,
      "start": 6.8173,
      "duration": 0.1987,
      "velocity": 109,
      "chip": "ym2612"
    },
    {
      "channel": 4,
      "note": 49,
      "start": 6.8205,
      "duration": 0.1986,
      "velocity": 111,
      "chip": "ym2612"
    },
    {
      "channel": 1,
      "note": 80,
      "start": 6.9158,
      "duration": 0.0996,
      "velocity": 97,
      "chip": "ym2612"
    },
    {
      "channel": 2,
      "note": 77,
      "start": 6.9163,
      "duration": 0.0994,
      "velocity": 97,
      "chip": "ym2612"
    },
    {
      "channel": 3,
      "note": 61,
      "start": 7.0166,
      "duration": 0.0989,
      "velocity": 109,
      "chip": "ym2612"
    },
    {
      "channel": 4,
      "note": 95,
      "start": 7.0197,
      "duration": 0.2011,
      "velocity": 127,
      "chip": "ym2612"
    },
    {
      "channel": 5,
      "note": 80,
      "start": 7.0834,
      "duration": 0.4,
      "velocity": 106,
      "chip": "ym2612"
    },
    {
      "channel": 3,
      "note": 61,
      "start": 7.116,
      "duration": 0.1013,
      "velocity": 109,
      "chip": "ym2612"
    },
    {
      "channel": 0,
      "note": 89,
      "start": 7.2156,
      "duration": 0.2994,
      "velocity": 112,
      "chip": "ym2612"
    },
    {
      "channel": 1,
      "note": 80,
      "start": 7.2164,
      "duration": 0.2994,
      "velocity": 97,
      "chip": "ym2612"
    },
    {
      "channel": 2,
      "note": 77,
      "start": 7.2172,
      "duration": 0.2992,
      "velocity": 97,
      "chip": "ym2612"
    },
    {
      "channel": 3,
      "note": 49,
      "start": 7.218,
      "duration": 0.1982,
      "velocity": 109,
      "chip": "ym2612"
    },
    {
      "channel": 4,
      "note": 53,
      "start": 7.2215,
      "duration": 0.1979,
      "velocity": 111,
      "chip": "ym2612"
    },
    {
      "channel": 3,
      "note": 61,
      "start": 7.4168,
      "duration": 0.1001,
      "velocity": 109,
      "chip": "ym2612"
    },
    {
      "channel": 4,
      "note": 95,
      "start": 7.42,
      "duration": 0.1994,
      "velocity": 122,
      "chip": "ym2612"
    },
    {
      "channel": 5,
      "note": 89,
      "start": 7.4841,
      "duration": 0.2987,
      "velocity": 106,
      "chip": "ym2612"
    },
    {
      "channel": 0,
      "note": 87,
      "start": 7.5156,
      "duration": 0.2994,
      "velocity": 112,
      "chip": "ym2612"
    },
    {
      "channel": 1,
      "note": 80,
      "start": 7.5162,
      "duration": 0.0991,
      "velocity": 97,
      "chip": "ym2612"
    },
    {
      "channel": 2,
      "note": 77,
      "start": 7.5168,
      "duration": 0.0987,
      "velocity": 97,
      "chip": "ym2612"
    },
    {
      "channel": 3,
      "note": 61,
      "start": 7.5175,
      "duration": 0.0985,
      "velocity": 109,
      "chip": "ym2612"
    },
    {
      "channel": 3,
      "note": 49,
      "start": 7.6166,
      "duration": 0.2007,
      "velocity": 109,
      "chip": "ym2612"
    },
    {
      "channel": 4,
      "note": 49,
      "start": 7.6199,
      "duration": 0.2006,
      "velocity": 111,
      "chip": "ym2612"
    },
    {
      "channel": 5,
      "note": 87,
      "start": 7.7834,
      "duration": 0.2994,
      "velocity": 106,
      "chip": "ym2612"
    },
    {
      "channel": 0,
      "note": 85,
      "start": 7.8156,
      "duration": 0.1994,
      "velocity": 112,
      "chip": "ym2612"
    },
    {
      "channel": 1,
      "note": 80,
      "start": 7.8164,
      "duration": 0.1996,
      "velocity": 97,
      "chip": "ym2612"
    },
    {
      "channel": 2,
      "note": 77,
      "start": 7.8172,
      "duration": 0.1993,
      "velocity": 97,
      "chip": "ym2612"
    },
    {
      "channel": 3,
      "note": 61,
      "start": 7.8179,
      "duration": 0.098,
      "velocity": 109,
      "chip": "ym2612"
    },
    {
      "channel": 4,
      "note": 95,
      "start": 7.821,
      "duration": 0.1993,
      "velocity": 127,
      "chip": "ym2612"
    },
    {
      "channel": 3,
      "note": 61,
      "start": 7.9164,
      "duration": 0.1005,
      "velocity": 109,
      "chip": "ym2612"
    },
    {
      "channel": 0,
      "note": 84,
      "start": 8.0156,
      "duration": 0.3994,
      "velocity": 112,
      "chip": "ym2612"
    },
    {
      "channel": 3,
      "note": 53,
      "start": 8.0174,
      "duration": 0.1995,
      "velocity": 109,
      "chip": "ym2612"
    },
    {
      "channel": 4,
      "note": 53,
      "start": 8.021,
      "duration": 0.199,
      "velocity": 111,
      "chip": "ym2612"
    },
    {
      "channel": 5,
      "note": 85,
      "start": 8.0834,
      "duration": 0.1998,
      "velocity": 106,
      "chip": "ym2612"
    },
    {
      "channel": 1,
      "note": 80,
      "start": 8.216,
      "duration": 0.2993,
      "velocity": 97,
      "chip": "ym2612"
    },
    {
      "channel": 2,
      "note": 77,
      "start": 8.2168,
      "duration": 0.2991,
      "velocity": 97,
      "chip": "ym2612"
    },
    {
      "channel": 3,
      "note": 65,
      "start": 8.2176,
      "duration": 0.0985,
      "velocity": 109,
      "chip": "ym2612"
    },
    {
      "channel": 4,
      "note": 95,
      "start": 8.2207,
      "duration": 0.1994,
      "velocity": 122,
      "chip": "ym2612"
    },
    {
      "channel": 5,
      "note": 84,
      "start": 8.2839,
      "duration": 0.3989,
      "velocity": 106,
      "chip": "ym2612"
    },
    {
      "channel": 3,
      "note": 65,
      "start": 8.3165,
      "duration": 0.1002,
      "velocity": 109,
      "chip": "ym2612"
    },
    {
      "channel": 0,
      "note": 80,
      "start": 8.4156,
      "duration": 0.3994,
      "velocity": 112,
      "chip": "ym2612"
    },
    {
      "channel": 3,
      "note": 53,
      "start": 8.4173,
      "duration": 0.1987,
      "velocity": 109,
      "chip": "ym2612"
    },
    {
      "channel": 4,
      "note": 49,
      "start": 8.4205,
      "duration": 0.1986,
      "velocity": 111,
      "chip": "ym2612"
    },
    {
      "channel": 1,
      "note": 80,
      "start": 8.5158,
      "duration": 0.0996,
      "velocity": 97,
      "chip": "ym2612"
    },
    {
      "channel": 2,
      "note": 77,
      "start": 8.5163,
      "duration": 0.0994,
      "velocity": 97,
      "chip": "ym2612"
    },
    {
      "channel": 3,
      "note": 65,
      "start": 8.6166,
      "duration": 0.0989,
      "velocity": 109,
      "chip": "ym2612"
    },
    {
      "channel": 4,
      "note": 95,
      "start": 8.6197,
      "duration": 0.2011,
      "velocity": 127,
      "chip": "ym2612"
    },
    {
      "channel": 5,
      "note": 80,
      "start": 8.6834,
      "duration": 0.4,
      "velocity": 106,
      "chip": "ym2612"
    },
    {
      "channel": 3,
      "note": 65,
      "start": 8.716,
      "duration": 0.1013,
      "velocity": 109,
      "chip": "ym2612"
    },
    {
      "channel": 0,
      "note": 89,
      "start": 8.8156,
      "duration": 0.2994,
      "velocity": 112,
      "chip": "ym2612"
    },
    {
      "channel": 1,
      "note": 80,
      "start": 8.8164,
      "duration": 0.2994,
      "velocity": 97,
      "chip": "ym2612"
    },
    {
      "channel": 2,
      "note": 77,
      "start": 8.8172,
      "duration": 0.2992,
      "velocity": 97,
      "chip": "ym2612"
    },
    {
      "channel": 3,
      "note": 53,
      "start": 8.818,
      "duration": 0.1982,
      "velocity": 109,
      "chip": "ym2612"
    },
    {
      "channel": 4,
      "note": 53,
      "start": 8.8215,
      "duration": 0.1979,
      "velocity": 111,
      "chip": "ym2612"
    },
    {
      "channel": 3,
      "note": 65,
      "start": 9.0168,
      "duration": 0.1001,
      "velocity": 109,
      "chip": "ym2612"
    },
    {
      "channel": 4,
      "note": 95,
      "start": 9.02,
      "duration": 0.1994,
      "velocity": 122,
      "chip": "ym2612"
    },
    {
      "channel": 5,
      "note": 89,
      "start": 9.0841,
      "duration": 0.2987,
      "velocity": 106,
      "chip": "ym2612"
    },
    {
      "channel": 0,
      "note": 84,
      "start": 9.1156,
      "duration": 0.2994,
      "velocity": 112,
      "chip": "ym2612"
    },
    {
      "channel": 1,
      "note": 80,
      "start": 9.1162,
      "duration": 0.0991,
      "velocity": 97,
      "chip": "ym2612"
    },
    {
      "channel": 2,
      "note": 77,
      "start": 9.1168,
      "duration": 0.0987,
      "velocity": 97,
      "chip": "ym2612"
    },
    {
      "channel": 3,
      "note": 65,
      "start": 9.1175,
      "duration": 0.0985,
      "velocity": 109,
      "chip": "ym2612"
    },
    {
      "channel": 3,
      "note": 53,
      "start": 9.2166,
      "duration": 0.2007,
      "velocity": 109,
      "chip": "ym2612"
    },
    {
      "channel": 4,
      "note": 49,
      "start": 9.2199,
      "duration": 0.2006,
      "velocity": 111,
      "chip": "ym2612"
    },
    {
      "channel": 5,
      "note": 84,
      "start": 9.3834,
      "duration": 0.2994,
      "velocity": 106,
      "chip": "ym2612"
    },
    {
      "channel": 0,
      "note": 89,
      "start": 9.4156,
      "duration": 0.1994,
      "velocity": 112,
      "chip": "ym2612"
    },
    {
      "channel": 1,
      "note": 80,
      "start": 9.4164,
      "duration": 0.1996,
      "velocity": 97,
      "chip": "ym2612"
    },
    {
      "channel": 2,
      "note": 77,
      "start": 9.4172,
      "duration": 0.1994,
      "velocity": 97,
      "chip": "ym2612"
    },
    {
      "channel": 3,
      "note": 65,
      "start": 9.4179,
      "duration": 0.098,
      "velocity": 109,
      "chip": "ym2612"
    },
    {
      "channel": 4,
      "note": 95,
      "start": 9.421,
      "duration": 0.1994,
      "velocity": 127,
      "chip": "ym2612"
    },
    {
      "channel": 3,
      "note": 65,
      "start": 9.5164,
      "duration": 0.1006,
      "velocity": 109,
      "chip": "ym2612"
    },
    {
      "channel": 0,
      "note": 90,
      "start": 9.6156,
      "duration": 0.3994,
      "velocity": 112,
      "chip": "ym2612"
    },
    {
      "channel": 3,
      "note": 54,
      "start": 9.6176,
      "duration": 0.1993,
      "velocity": 109,
      "chip": "ym2612"
    },
    {
      "channel": 4,
      "note": 53,
      "start": 9.6212,
      "duration": 0.1989,
      "velocity": 111,
      "chip": "ym2612"
    },
    {
      "channel": 5,
      "note": 89,
      "start": 9.6834,
      "duration": 0.1998,
      "velocity": 106,
      "chip": "ym2612"
    },
    {
      "channel": 1,
      "note": 82,
      "start": 9.816,
      "duration": 0.2993,
      "velocity": 97,
      "chip": "ym2612"
    },
    {
      "channel": 2,
      "note": 78,
      "start": 9.8168,
      "duration": 0.2991,
      "velocity": 97,
      "chip": "ym2612"
    },
    {
      "channel": 3,
      "note": 66,
      "start": 9.8176,
      "duration": 0.0985,
      "velocity": 109,
      "chip": "ym2612"
    },
    {
      "channel": 4,
      "note": 95,
      "start": 9.8207,
      "duration": 0.1994,
      "velocity": 122,
      "chip": "ym2612"
    },
    {
      "channel": 5,
      "note": 90,
      "start": 9.8839,
      "duration": 0.3989,
      "velocity": 106,
      "chip": "ym2612"
    },
    {
      "channel": 3,
      "note": 66,
      "start": 9.9165,
      "duration": 0.1002,
      "velocity": 109,
      "chip": "ym2612"
    },
    {
      "channel": 0,
      "note": 90,
      "start": 10.0156,
      "duration": 0.2994,
      "velocity": 112,
      "chip": "ym2612"
    },
    {
      "channel": 3,
      "note": 54,
      "start": 10.0173,
      "duration": 0.1987,
      "velocity": 109,
      "chip": "ym2612"
    },
    {
      "channel": 4,
      "note": 49,
      "start": 10.0206,
      "duration": 0.1985,
      "velocity": 111,
      "chip": "ym2612"
    },
    {
      "channel": 1,
      "note": 82,
      "start": 10.1158,
      "duration": 0.0996,
      "velocity": 97,
      "chip": "ym2612"
    },
    {
      "channel": 2,
      "note": 78,
      "start": 10.1163,
      "duration": 0.0994,
      "velocity": 97,
      "chip": "ym2612"
    },
    {
      "channel": 3,
      "note": 66,
      "start": 10.2166,
      "duration": 0.0993,
      "velocity": 109,
      "chip": "ym2612"
    },
    {
      "channel": 4,
      "note": 95,
      "start": 10.2197,
      "duration": 0.2006,
      "velocity": 127,
      "chip": "ym2612"
    },
    {
      "channel": 5,
      "note": 90,
      "start": 10.2834,
      "duration": 0.2999,
      "velocity": 106,
      "chip": "ym2612"
    },
    {
      "channel": 0,
      "note": 92,
      "start": 10.3156,
      "duration": 0.2994,
      "velocity": 112,
      "chip": "ym2612"
    },
    {
      "channel": 3,
      "note": 66,
      "start": 10.3164,
      "duration": 0.1005,
      "velocity": 109,
      "chip": "ym2612"
    },
    {
      "channel": 1,
      "note": 82,
      "start": 10.416,
      "duration": 0.2994,
      "velocity": 97,
      "chip": "ym2612"
    },
    {
      "channel": 2,
      "note": 78,
      "start": 10.4167,
      "duration": 0.2992,
      "velocity": 97,
      "chip": "ym2612"
    },
    {
      "channel": 3,
      "note": 54,
      "start": 10.4176,
      "duration": 0.199,
      "velocity": 109,
      "chip": "ym2612"
    },
    {
      "channel": 4,
      "note": 53,
      "start": 10.421,
      "duration": 0.1987,
      "velocity": 111,
      "chip": "ym2612"
    },
    {
      "channel": 5,
      "note": 92,
      "start": 10.584,
      "duration": 0.2987,
      "velocity": 106,
      "chip": "ym2612"
    },
    {
      "channel": 0,
      "note": 90,
      "start": 10.6156,
      "duration": 0.1994,
      "velocity": 112,
      "chip": "ym2612"
    },
    {
      "channel": 3,
      "note": 66,
      "start": 10.6172,
      "duration": 0.0993,
      "velocity": 109,
      "chip": "ym2612"
    },
    {
      "channel": 4,
      "note": 95,
      "start": 10.6203,
      "duration": 0.1995,
      "velocity": 122,
      "chip": "ym2612"
    },
    {
      "channel": 1,
      "note": 82,
      "start": 10.7158,
      "duration": 0.1,
      "velocity": 97,
      "chip": "ym2612"
    },
    {
      "channel": 2,
      "note": 78,
      "start": 10.7163,
      "duration": 0.0997,
      "velocity": 97,
      "chip": "ym2612"
    },
    {
      "channel": 3,
      "note": 66,
      "start": 10.717,
      "duration": 0.0995,
      "velocity": 109,
      "chip": "ym2612"
    },
    {
      "channel": 0,
      "note": 92,
      "start": 10.8156,
      "duration": 0.1994,
      "velocity": 112,
      "chip": "ym2612"
    },
    {
      "channel": 3,
      "note": 54,
      "start": 10.8171,
      "duration": 0.2003,
      "velocity": 109,
      "chip": "ym2612"
    },
    {
      "channel": 4,
      "note": 49,
      "start": 10.8203,
      "duration": 0.2002,
      "velocity": 111,
      "chip": "ym2612"
    },
    {
      "channel": 5,
      "note": 90,
      "start": 10.8833,
      "duration": 0.1999,
      "velocity": 106,
      "chip": "ym2612"
    },
    {
      "channel": 0,
      "note": 94,
      "start": 11.0156,
      "duration": 0.1994,
      "velocity": 112,
      "chip": "ym2612"
    },
    {
      "channel": 1,
      "note": 82,
      "start": 11.0164,
      "duration": 0.1994,
      "velocity": 97,
      "chip": "ym2612"
    },
    {
      "channel": 2,
      "note": 78,
      "start": 11.0172,
      "duration": 0.1991,
      "velocity": 97,
      "chip": "ym2612"
    },
    {
      "channel": 3,
      "note": 66,
      "start": 11.018,
      "duration": 0.0979,
      "velocity": 109,
      "chip": "ym2612"
    },
    {
      "channel": 4,
      "note": 95,
      "start": 11.0211,
      "duration": 0.199,
      "velocity": 122,
      "chip": "ym2612"
    },
    {
      "channel": 5,
      "note": 92,
      "start": 11.0838,
      "duration": 0.1989,
      "velocity": 106,
      "chip": "ym2612"
    },
    {
      "channel": 3,
      "note": 66,
      "start": 11.1164,
      "duration": 0.1003,
      "velocity": 109,
      "chip": "ym2612"
    },
    {
      "channel": 0,
      "note": 96,
      "start": 11.2156,
      "duration": 0.0994,
      "velocity": 112,
      "chip": "ym2612"
    },
    {
      "channel": 3,
      "note": 56,
      "start": 11.2172,
      "duration": 0.2001,
      "velocity": 109,
      "chip": "ym2612"
    },
    {
      "channel": 4,
      "note": 49,
      "start": 11.2207,
      "duration": 0.0959,
      "velocity": 122,
      "chip": "ym2612"
    },
    {
      "channel": 5,
      "note": 94,
      "start": 11.2834,
      "duration": 0.1998,
      "velocity": 106,
      "chip": "ym2612"
    },
    {
      "channel": 0,
      "note": 94,
      "start": 11.3156,
      "duration": 0.0994,
      "velocity": 112,
      "chip": "ym2612"
    },
    {
      "channel": 4,
      "note": 49,
      "start": 11.317,
      "duration": 0.1011,
      "velocity": 122,
      "chip": "ym2612"
    },
    {
      "channel": 0,
      "note": 92,
      "start": 11.4156,
      "duration": 0.0994,
      "velocity": 112,
      "chip": "ym2612"
    },
    {
      "channel": 1,
      "note": 84,
      "start": 11.4164,
      "duration": 0.2994,
      "velocity": 97,
      "chip": "ym2612"
    },
    {
      "channel": 2,
      "note": 80,
      "start": 11.4172,
      "duration": 0.2992,
      "velocity": 97,
      "chip": "ym2612"
    },
    {
      "channel": 3,
      "note": 68,
      "start": 11.4179,
      "duration": 0.0985,
      "velocity": 109,
      "chip": "ym2612"
    },
    {
      "channel": 4,
      "note": 49,
      "start": 11.4184,
      "duration": 0.0985,
      "velocity": 122,
      "chip": "ym2612"
    },
    {
      "channel": 5,
      "note": 96,
      "start": 11.4838,
      "duration": 0.0994,
      "velocity": 106,
      "chip": "ym2612"
    },
    {
      "channel": 0,
      "note": 96,
      "start": 11.5156,
      "duration": 0.0994,
      "velocity": 112,
      "chip": "ym2612"
    },
    {
      "channel": 3,
      "note": 68,
      "start": 11.5168,
      "duration": 0.0998,
      "velocity": 109,
      "chip": "ym2612"
    },
    {
      "channel": 4,
      "note": 49,
      "start": 11.5174,
      "duration": 0.1028,
      "velocity": 122,
      "chip": "ym2612"
    },
    {
      "channel": 5,
      "note": 94,
      "start": 11.5838,
      "duration": 0.0995,
      "velocity": 106,
      "chip": "ym2612"
    },
    {
      "channel": 0,
      "note": 94,
      "start": 11.6156,
      "duration": 0.0994,
      "velocity": 112,
      "chip": "ym2612"
    },
    {
      "channel": 3,
      "note": 56,
      "start": 11.6172,
      "duration": 0.1991,
      "velocity": 109,
      "chip": "ym2612"
    },
    {
      "channel": 4,
      "note": 49,
      "start": 11.6208,
      "duration": 0.0969,
      "velocity": 122,
      "chip": "ym2612"
    },
    {
      "channel": 5,
      "note": 92,
      "start": 11.684,
      "duration": 0.0992,
      "velocity": 106,
      "chip": "ym2612"
    },
    {
      "channel": 0,
      "note": 92,
      "start": 11.7156,
      "duration": 0.0994,
      "velocity": 112,
      "chip": "ym2612"
    },
    {
      "channel": 1,
      "note": 84,
      "start": 11.7162,
      "duration": 0.0995,
      "velocity": 97,
      "chip": "ym2612"
    },
    {
      "channel": 2,
      "note": 80,
      "start": 11.7168,
      "duration": 0.0992,
      "velocity": 97,
      "chip": "ym2612"
    },
    {
      "channel": 4,
      "note": 49,
      "start": 11.718,
      "duration": 0.099,
      "velocity": 122,
      "chip": "ym2612"
    },
    {
      "channel": 5,
      "note": 96,
      "start": 11.7838,
      "duration": 0.0989,
      "velocity": 106,
      "chip": "ym2612"
    },
    {
      "channel": 0,
      "note": 96,
      "start": 11.8156,
      "duration": 0.0994,
      "velocity": 112,
      "chip": "ym2612"
    },
    {
      "channel": 3,
      "note": 68,
      "start": 11.817,
      "duration": 0.1003,
      "velocity": 109,
      "chip": "ym2612"
    },
    {
      "channel": 4,
      "note": 49,
      "start": 11.8175,
      "duration": 0.1005,
      "velocity": 122,
      "chip": "ym2612"
    },
    {
      "channel": 5,
      "note": 94,
      "start": 11.8834,
      "duration": 0.0998,
      "velocity": 106,
      "chip": "ym2612"
    },
    {
      "channel": 0,
      "note": 92,
      "start": 11.9156,
      "duration": 0.0994,
      "velocity": 112,
      "chip": "ym2612"
    },
    {
      "channel": 1,
      "note": 84,
      "start": 11.9164,
      "duration": 0.0994,
      "velocity": 97,
      "chip": "ym2612"
    },
    {
      "channel": 2,
      "note": 80,
      "start": 11.9172,
      "duration": 0.0994,
      "velocity": 97,
      "chip": "ym2612"
    },
    {
      "channel": 3,
      "note": 68,
      "start": 11.9178,
      "duration": 0.0996,
      "velocity": 109,
      "chip": "ym2612"
    },
    {
      "channel": 4,
      "note": 49,
      "start": 11.9183,
      "duration": 0.1027,
      "velocity": 122,
      "chip": "ym2612"
    },
    {
      "channel": 5,
      "note": 92,
      "start": 11.9838,
      "duration": 0.0994,
      "velocity": 106,
      "chip": "ym2612"
    },
    {
      "channel": 0,
      "note": 94,
      "start": 12.0156,
      "duration": 0.3994,
      "velocity": 112,
      "chip": "ym2612"
    },
    {
      "channel": 1,
      "note": 85,
      "start": 12.0164,
      "duration": 0.199,
      "velocity": 97,
      "chip": "ym2612"
    },
    {
      "channel": 2,
      "note": 78,
      "start": 12.0172,
      "duration": 0.199,
      "velocity": 97,
      "chip": "ym2612"
    },
    {
      "channel": 3,
      "note": 54,
      "start": 12.0179,
      "duration": 0.199,
      "velocity": 109,
      "chip": "ym2612"
    },
    {
      "channel": 4,
      "note": 49,
      "start": 12.0216,
      "duration": 0.095,
      "velocity": 122,
      "chip": "ym2612"
    },
    {
      "channel": 5,
      "note": 96,
      "start": 12.0838,
      "duration": 0.0994,
      "velocity": 106,
      "chip": "ym2612"
    },
    {
      "channel": 4,
      "note": 49,
      "start": 12.117,
      "duration": 0.1007,
      "velocity": 122,
      "chip": "ym2612"
    },
    {
      "channel": 5,
      "note": 92,
      "start": 12.1838,
      "duration": 0.0994,
      "velocity": 106,
      "chip": "ym2612"
    },
    {
      "channel": 1,
      "note": 85,
      "start": 12.216,
      "duration": 0.1997,
      "velocity": 97,
      "chip": "ym2612"
    },
    {
      "channel": 2,
      "note": 78,
      "start": 12.2168,
      "duration": 0.1998,
      "velocity": 97,
      "chip": "ym2612"
    },
    {
      "channel": 3,
      "note": 66,
      "start": 12.2176,
      "duration": 0.1998,
      "velocity": 109,
      "chip": "ym2612"
    },
    {
      "channel": 4,
      "note": 49,
      "start": 12.218,
      "duration": 0.0983,
      "velocity": 122,
      "chip": "ym2612"
    },
    {
      "channel": 5,
      "note": 94,
      "start": 12.284,
      "duration": 0.3993,
      "velocity": 106,
      "chip": "ym2612"
    },
    {
      "channel": 4,
      "note": 49,
      "start": 12.3167,
      "duration": 0.1043,
      "velocity": 122,
      "chip": "ym2612"
    },
    {
      "channel": 0,
      "note": 96,
      "start": 12.4156,
      "duration": 0.3995,
      "velocity": 112,
      "chip": "ym2612"
    },
    {
      "channel": 1,
      "note": 84,
      "start": 12.4164,
      "duration": 0.199,
      "velocity": 97,
      "chip": "ym2612"
    },
    {
      "channel": 2,
      "note": 77,
      "start": 12.4172,
      "duration": 0.199,
      "velocity": 97,
      "chip": "ym2612"
    },
    {
      "channel": 3,
      "note": 53,
      "start": 12.4179,
      "duration": 0.199,
      "velocity": 109,
      "chip": "ym2612"
    },
    {
      "channel": 4,
      "note": 49,
      "start": 12.4215,
      "duration": 0.0951,
      "velocity": 122,
      "chip": "ym2612"
    },
    {
      "channel": 4,
      "note": 49,
      "start": 12.517,
      "duration": 0.1007,
      "velocity": 122,
      "chip": "ym2612"
    },
    {
      "channel": 1,
      "note": 84,
      "start": 12.616,
      "duration": 0.2002,
      "velocity": 97,
      "chip": "ym2612"
    },
    {
      "channel": 2,
      "note": 77,
      "start": 12.6168,
      "duration": 0.2,
      "velocity": 97,
      "chip": "ym2612"
    },
    {
      "channel": 3,
      "note": 65,
      "start": 12.6176,
      "duration": 0.1998,
      "velocity": 109,
      "chip": "ym2612"
    },
    {
      "channel": 4,
      "note": 49,
      "start": 12.618,
      "duration": 0.0983,
      "velocity": 122,
      "chip": "ym2612"
    },
    {
      "channel": 5,
      "note": 96,
      "start": 12.684,
      "duration": 0.3995,
      "velocity": 106,
      "chip": "ym2612"
    },
    {
      "channel": 4,
      "note": 49,
      "start": 12.7167,
      "duration": 0.1046,
      "velocity": 127,
      "chip": "ym2612"
    },
    {
      "channel": 0,
      "note": 85,
      "start": 12.8158,
      "duration": 0.3992,
      "velocity": 112,
      "chip": "ym2612"
    },
    {
      "channel": 3,
      "note": 49,
      "start": 12.8179,
      "duration": 0.0975,
      "velocity": 109,
      "chip": "ym2612"
    },
    {
      "channel": 4,
      "note": 53,
      "start": 12.822,
      "duration": 0.1981,
      "velocity": 111,
      "chip": "ym2612"
    },
    {
      "channel": 3,
      "note": 51,
      "start": 12.916,
      "duration": 0.1009,
      "velocity": 109,
      "chip": "ym2612"
    },
    {
      "channel": 1,
      "note": 80,
      "start": 13.016,
      "duration": 0.2993,
      "velocity": 97,
      "chip": "ym2612"
    },
    {
      "channel": 2,
      "note": 77,
      "start": 13.0168,
      "duration": 0.2991,
      "velocity": 97,
      "chip": "ym2612"
    },
    {
      "channel": 3,
      "note": 53,
      "start": 13.0176,
      "duration": 0.0985,
      "velocity": 109,
      "chip": "ym2612"
    },
    {
      "channel": 4,
      "note": 95,
      "start": 13.0207,
      "duration": 0.1987,
      "velocity": 122,
      "chip": "ym2612"
    },
    {
      "channel": 5,
      "note": 85,
      "start": 13.0841,
      "duration": 0.3985,
      "velocity": 106,
      "chip": "ym2612"
    },
    {
      "channel": 3,
      "note": 49,
      "start": 13.1166,
      "duration": 0.0998,
      "velocity": 109,
      "chip": "ym2612"
    },
    {
      "channel": 0,
      "note": 85,
      "start": 13.2154,
      "duration": 0.3996,
      "velocity": 112,
      "chip": "ym2612"
    },
    {
      "channel": 4,
      "note": 49,
      "start": 13.2198,
      "duration": 0.1987,
      "velocity": 111,
      "chip": "ym2612"
    },
    {
      "channel": 1,
      "note": 80,
      "start": 13.3158,
      "duration": 0.0996,
      "velocity": 97,
      "chip": "ym2612"
    },
    {
      "channel": 2,
      "note": 77,
      "start": 13.3163,
      "duration": 0.0994,
      "velocity": 97,
      "chip": "ym2612"
    },
    {
      "channel": 4,
      "note": 95,
      "start": 13.4191,
      "duration": 0.2015,
      "velocity": 127,
      "chip": "ym2612"
    },
    {
      "channel": 5,
      "note": 85,
      "start": 13.483,
      "duration": 0.4004,
      "velocity": 106,
      "chip": "ym2612"
    },
    {
      "channel": 0,
      "note": 85,
      "start": 13.6154,
      "duration": 0.2996,
      "velocity": 112,
      "chip": "ym2612"
    },
    {
      "channel": 1,
      "note": 80,
      "start": 13.6162,
      "duration": 0.2995,
      "velocity": 97,
      "chip": "ym2612"
    },
    {
      "channel": 2,
      "note": 77,
      "start": 13.617,
      "duration": 0.2994,
      "velocity": 97,
      "chip": "ym2612"
    },
    {
      "channel": 3,
      "note": 49,
      "start": 13.6177,
      "duration": 0.1985,
      "velocity": 109,
      "chip": "ym2612"
    },
    {
      "channel": 4,
      "note": 53,
      "start": 13.6212,
      "duration": 0.198,
      "velocity": 111,
      "chip": "ym2612"
    },
    {
      "channel": 3,
      "note": 49,
      "start": 13.8167,
      "duration": 0.1003,
      "velocity": 109,
      "chip": "ym2612"
    },
    {
      "channel": 4,
      "note": 95,
      "start": 13.8198,
      "duration": 0.199,
      "velocity": 122,
      "chip": "ym2612"
    },
    {
      "channel": 5,
      "note": 85,
      "start": 13.884,
      "duration": 0.2988,
      "velocity": 106,
      "chip": "ym2612"
    },
    {
      "channel": 0,
      "note": 84,
      "start": 13.9156,
      "duration": 0.2994,
      "velocity": 112,
      "chip": "ym2612"
    },
    {
      "channel": 1,
      "note": 80,
      "start": 13.9162,
      "duration": 0.0991,
      "velocity": 97,
      "chip": "ym2612"
    },
    {
      "channel": 2,
      "note": 77,
      "start": 13.9168,
      "duration": 0.0987,
      "velocity": 97,
      "chip": "ym2612"
    },
    {
      "channel": 3,
      "note": 49,
      "start": 13.9175,
      "duration": 0.198,
      "velocity": 109,
      "chip": "ym2612"
    },
    {
      "channel": 4,
      "note": 49,
      "start": 14.0194,
      "duration": 0.201,
      "velocity": 111,
      "chip": "ym2612"
    },
    {
      "channel": 3,
      "note": 49,
      "start": 14.116,
      "duration": 0.1013,
      "velocity": 109,
      "chip": "ym2612"
    },
    {
      "channel": 5,
      "note": 84,
      "start": 14.1834,
      "duration": 0.2994,
      "velocity": 106,
      "chip": "ym2612"
    },
    {
      "channel": 0,
      "note": 82,
      "start": 14.2156,
      "duration": 0.1994,
      "velocity": 112,
      "chip": "ym2612"
    },
    {
      "channel": 1,
      "note": 80,
      "start": 14.2164,
      "duration": 0.1996,
      "velocity": 97,
      "chip": "ym2612"
    },
    {
      "channel": 2,
      "note": 77,
      "start": 14.2172,
      "duration": 0.1992,
      "velocity": 97,
      "chip": "ym2612"
    },
    {
      "channel": 3,
      "note": 49,
      "start": 14.2178,
      "duration": 0.1989,
      "velocity": 109,
      "chip": "ym2612"
    },
    {
      "channel": 4,
      "note": 95,
      "start": 14.2209,
      "duration": 0.1992,
      "velocity": 127,
      "chip": "ym2612"
    },
    {
      "channel": 0,
      "note": 84,
      "start": 14.4156,
      "duration": 0.7994,
      "velocity": 112,
      "chip": "ym2612"
    },
    {
      "channel": 3,
      "note": 53,
      "start": 14.4173,
      "duration": 0.0981,
      "velocity": 109,
      "chip": "ym2612"
    },
    {
      "channel": 4,
      "note": 53,
      "start": 14.4209,
      "duration": 0.1992,
      "velocity": 111,
      "chip": "ym2612"
    },
    {
      "channel": 5,
      "note": 82,
      "start": 14.4834,
      "duration": 0.1998,
      "velocity": 106,
      "chip": "ym2612"
    },
    {
      "channel": 3,
      "note": 54,
      "start": 14.516,
      "duration": 0.1009,
      "velocity": 109,
      "chip": "ym2612"
    },
    {
      "channel": 1,
      "note": 80,
      "start": 14.616,
      "duration": 0.2994,
      "velocity": 97,
      "chip": "ym2612"
    },
    {
      "channel": 2,
      "note": 77,
      "start": 14.6168,
      "duration": 0.2992,
      "velocity": 97,
      "chip": "ym2612"
    },
    {
      "channel": 3,
      "note": 56,
      "start": 14.6176,
      "duration": 0.0985,
      "velocity": 109,
      "chip": "ym2612"
    },
    {
      "channel": 4,
      "note": 95,
      "start": 14.6207,
      "duration": 0.1985,
      "velocity": 122,
      "chip": "ym2612"
    },
    {
      "channel": 5,
      "note": 84,
      "start": 14.6839,
      "duration": 0.7995,
      "velocity": 106,
      "chip": "ym2612"
    },
    {
      "channel": 3,
      "note": 53,
      "start": 14.7166,
      "duration": 0.0996,
      "velocity": 109,
      "chip": "ym2612"
    },
    {
      "channel": 4,
      "note": 49,
      "start": 14.8197,
      "duration": 0.1988,
      "velocity": 111,
      "chip": "ym2612"
    },
    {
      "channel": 1,
      "note": 80,
      "start": 14.9158,
      "duration": 0.0996,
      "velocity": 97,
      "chip": "ym2612"
    },
    {
      "channel": 2,
      "note": 77,
      "start": 14.9165,
      "duration": 0.0993,
      "velocity": 97,
      "chip": "ym2612"
    },
    {
      "channel": 4,
      "note": 95,
      "start": 15.0191,
      "duration": 0.2016,
      "velocity": 127,
      "chip": "ym2612"
    },
    {
      "channel": 0,
      "note": 80,
      "start": 15.2156,
      "duration": 0.7994,
      "velocity": 112,
      "chip": "ym2612"
    },
    {
      "channel": 1,
      "note": 80,
      "start": 15.2164,
      "duration": 0.299,
      "velocity": 97,
      "chip": "ym2612"
    },
    {
      "channel": 2,
      "note": 77,
      "start": 15.2172,
      "duration": 0.2988,
      "velocity": 97,
      "chip": "ym2612"
    },
    {
      "channel": 3,
      "note": 53,
      "start": 15.2179,
      "duration": 0.1983,
      "velocity": 109,
      "chip": "ym2612"
    },
    {
      "channel": 4,
      "note": 53,
      "start": 15.2214,
      "duration": 0.1978,
      "velocity": 111,
      "chip": "ym2612"
    },
    {
      "channel": 3,
      "note": 53,
      "start": 15.4167,
      "duration": 0.0999,
      "velocity": 109,
      "chip": "ym2612"
    },
    {
      "channel": 4,
      "note": 95,
      "start": 15.4198,
      "duration": 0.1992,
      "velocity": 122,
      "chip": "ym2612"
    },
    {
      "channel": 5,
      "note": 80,
      "start": 15.4841,
      "duration": 0.7992,
      "velocity": 106,
      "chip": "ym2612"
    },
    {
      "channel": 1,
      "note": 80,
      "start": 15.5158,
      "duration": 0.0996,
      "velocity": 97,
      "chip": "ym2612"
    },
    {
      "channel": 2,
      "note": 77,
      "start": 15.5165,
      "duration": 0.0993,
      "velocity": 97,
      "chip": "ym2612"
    },
    {
      "channel": 3,
      "note": 53,
      "start": 15.5171,
      "duration": 0.1984,
      "velocity": 109,
      "chip": "ym2612"
    },
    {
      "channel": 4,
      "note": 49,
      "start": 15.6195,
      "duration": 0.2005,
      "velocity": 111,
      "chip": "ym2612"
    },
    {
      "channel": 3,
      "note": 53,
      "start": 15.716,
      "duration": 0.1009,
      "velocity": 109,
      "chip": "ym2612"
    },
    {
      "channel": 1,
      "note": 80,
      "start": 15.816,
      "duration": 0.1999,
      "velocity": 97,
      "chip": "ym2612"
    },
    {
      "channel": 2,
      "note": 77,
      "start": 15.8168,
      "duration": 0.1998,
      "velocity": 97,
      "chip": "ym2612"
    },
    {
      "channel": 3,
      "note": 53,
      "start": 15.8174,
      "duration": 0.1994,
      "velocity": 109,
      "chip": "ym2612"
    },
    {
      "channel": 4,
      "note": 95,
      "start": 15.8205,
      "duration": 0.1998,
      "velocity": 127,
      "chip": "ym2612"
    },
    {
      "channel": 0,
      "note": 82,
      "start": 16.0156,
      "duration": 0.3994,
      "velocity": 112,
      "chip": "ym2612"
    },
    {
      "channel": 3,
      "note": 54,
      "start": 16.0174,
      "duration": 0.098,
      "velocity": 109,
      "chip": "ym2612"
    },
    {
      "channel": 4,
      "note": 53,
      "start": 16.021,
      "duration": 0.199,
      "velocity": 111,
      "chip": "ym2612"
    },
    {
      "channel": 3,
      "note": 56,
      "start": 16.116,
      "duration": 0.1009,
      "velocity": 109,
      "chip": "ym2612"
    },
    {
      "channel": 1,
      "note": 82,
      "start": 16.216,
      "duration": 0.2993,
      "velocity": 97,
      "chip": "ym2612"
    },
    {
      "channel": 2,
      "note": 78,
      "start": 16.2168,
      "duration": 0.2991,
      "velocity": 97,
      "chip": "ym2612"
    },
    {
      "channel": 3,
      "note": 58,
      "start": 16.2176,
      "duration": 0.0985,
      "velocity": 109,
      "chip": "ym2612"
    },
    {
      "channel": 4,
      "note": 95,
      "start": 16.2207,
      "duration": 0.1987,
      "velocity": 122,
      "chip": "ym2612"
    },
    {
      "channel": 5,
      "note": 82,
      "start": 16.2839,
      "duration": 0.3987,
      "velocity": 106,
      "chip": "ym2612"
    },
    {
      "channel": 3,
      "note": 54,
      "start": 16.3166,
      "duration": 0.0998,
      "velocity": 109,
      "chip": "ym2612"
    },
    {
      "channel": 0,
      "note": 82,
      "start": 16.4154,
      "duration": 0.3996,
      "velocity": 112,
      "chip": "ym2612"
    },
    {
      "channel": 4,
      "note": 49,
      "start": 16.4198,
      "duration": 0.1987,
      "velocity": 111,
      "chip": "ym2612"
    },
    {
      "channel": 1,
      "note": 82,
      "start": 16.5158,
      "duration": 0.0996,
      "velocity": 97,
      "chip": "ym2612"
    },
    {
      "channel": 2,
      "note": 78,
      "start": 16.5163,
      "duration": 0.0994,
      "velocity": 97,
      "chip": "ym2612"
    },
    {
      "channel": 4,
      "note": 95,
      "start": 16.6191,
      "duration": 0.2015,
      "velocity": 127,
      "chip": "ym2612"
    },
    {
      "channel": 5,
      "note": 82,
      "start": 16.683,
      "duration": 0.4004,
      "velocity": 106,
      "chip": "ym2612"
    },
    {
      "channel": 0,
      "note": 82,
      "start": 16.8154,
      "duration": 0.2996,
      "velocity": 112,
      "chip": "ym2612"
    },
    {
      "channel": 1,
      "note": 82,
      "start": 16.8162,
      "duration": 0.2995,
      "velocity": 97,
      "chip": "ym2612"
    },
    {
      "channel": 2,
      "note": 78,
      "start": 16.817,
      "duration": 0.2994,
      "velocity": 97,
      "chip": "ym2612"
    },
    {
      "channel": 3,
      "note": 54,
      "start": 16.8177,
      "duration": 0.1985,
      "velocity": 109,
      "chip": "ym2612"
    },
    {
      "channel": 4,
      "note": 53,
      "start": 16.8212,
      "duration": 0.198,
      "velocity": 111,
      "chip": "ym2612"
    },
    {
      "channel": 3,
      "note": 54,
      "start": 17.0167,
      "duration": 0.1003,
      "velocity": 109,
      "chip": "ym2612"
    },
    {
      "channel": 4,
      "note": 95,
      "start": 17.0198,
      "duration": 0.199,
      "velocity": 122,
      "chip": "ym2612"
    },
    {
      "channel": 5,
      "note": 82,
      "start": 17.084,
      "duration": 0.2988,
      "velocity": 106,
      "chip": "ym2612"
    },
    {
      "channel": 0,
      "note": 84,
      "start": 17.1156,
      "duration": 0.2994,
      "velocity": 112,
      "chip": "ym2612"
    },
    {
      "channel": 1,
      "note": 82,
      "start": 17.1162,
      "duration": 0.0991,
      "velocity": 97,
      "chip": "ym2612"
    },
    {
      "channel": 2,
      "note": 78,
      "start": 17.1168,
      "duration": 0.0987,
      "velocity": 97,
      "chip": "ym2612"
    },
    {
      "channel": 3,
      "note": 54,
      "start": 17.1175,
      "duration": 0.198,
      "velocity": 109,
      "chip": "ym2612"
    },
    {
      "channel": 4,
      "note": 49,
      "start": 17.2194,
      "duration": 0.201,
      "velocity": 111,
      "chip": "ym2612"
    },
    {
      "channel": 3,
      "note": 54,
      "start": 17.316,
      "duration": 0.1013,
      "velocity": 109,
      "chip": "ym2612"
    },
    {
      "channel": 5,
      "note": 84,
      "start": 17.3834,
      "duration": 0.2994,
      "velocity": 106,
      "chip": "ym2612"
    },
    {
      "channel": 0,
      "note": 85,
      "start": 17.4156,
      "duration": 0.1994,
      "velocity": 112,
      "chip": "ym2612"
    },
    {
      "channel": 1,
      "note": 82,
      "start": 17.4164,
      "duration": 0.1996,
      "velocity": 97,
      "chip": "ym2612"
    },
    {
      "channel": 2,
      "note": 78,
      "start": 17.4172,
      "duration": 0.1993,
      "velocity": 97,
      "chip": "ym2612"
    },
    {
      "channel": 3,
      "note": 54,
      "start": 17.4178,
      "duration": 0.1989,
      "velocity": 109,
      "chip": "ym2612"
    },
    {
      "channel": 4,
      "note": 95,
      "start": 17.4209,
      "duration": 0.1995,
      "velocity": 127,
      "chip": "ym2612"
    },
    {
      "channel": 0,
      "note": 87,
      "start": 17.6156,
      "duration": 0.7994,
      "velocity": 112,
      "chip": "ym2612"
    },
    {
      "channel": 3,
      "note": 51,
      "start": 17.6174,
      "duration": 0.0981,
      "velocity": 109,
      "chip": "ym2612"
    },
    {
      "channel": 4,
      "note": 53,
      "start": 17.6211,
      "duration": 0.199,
      "velocity": 111,
      "chip": "ym2612"
    },
    {
      "channel": 5,
      "note": 85,
      "start": 17.6834,
      "duration": 0.1998,
      "velocity": 106,
      "chip": "ym2612"
    },
    {
      "channel": 3,
      "note": 53,
      "start": 17.716,
      "duration": 0.1009,
      "velocity": 109,
      "chip": "ym2612"
    },
    {
      "channel": 1,
      "note": 82,
      "start": 17.816,
      "duration": 0.2994,
      "velocity": 97,
      "chip": "ym2612"
    },
    {
      "channel": 2,
      "note": 78,
      "start": 17.8168,
      "duration": 0.2992,
      "velocity": 97,
      "chip": "ym2612"
    },
    {
      "channel": 3,
      "note": 54,
      "start": 17.8176,
      "duration": 0.0985,
      "velocity": 109,
      "chip": "ym2612"
    },
    {
      "channel": 4,
      "note": 95,
      "start": 17.8207,
      "duration": 0.1985,
      "velocity": 122,
      "chip": "ym2612"
    },
    {
      "channel": 5,
      "note": 87,
      "start": 17.8839,
      "duration": 0.7997,
      "velocity": 106,
      "chip": "ym2612"
    },
    {
      "channel": 3,
      "note": 51,
      "start": 17.9166,
      "duration": 0.0996,
      "velocity": 109,
      "chip": "ym2612"
    },
    {
      "channel": 4,
      "note": 49,
      "start": 18.0197,
      "duration": 0.1988,
      "velocity": 111,
      "chip": "ym2612"
    },
    {
      "channel": 1,
      "note": 82,
      "start": 18.1158,
      "duration": 0.0996,
      "velocity": 97,
      "chip": "ym2612"
    },
    {
      "channel": 2,
      "note": 78,
      "start": 18.1165,
      "duration": 0.0993,
      "velocity": 97,
      "chip": "ym2612"
    },
    {
      "channel": 4,
      "note": 95,
      "start": 18.2191,
      "duration": 0.2013,
      "velocity": 122,
      "chip": "ym2612"
    },
    {
      "channel": 0,
      "note": 87,
      "start": 18.4154,
      "duration": 0.2996,
      "velocity": 112,
      "chip": "ym2612"
    },
    {
      "channel": 1,
      "note": 82,
      "start": 18.4162,
      "duration": 0.2995,
      "velocity": 97,
      "chip": "ym2612"
    },
    {
      "channel": 2,
      "note": 78,
      "start": 18.417,
      "duration": 0.2994,
      "velocity": 97,
      "chip": "ym2612"
    },
    {
      "channel": 3,
      "note": 51,
      "start": 18.4177,
      "duration": 0.799,
      "velocity": 109,
      "chip": "ym2612"
    },
    {
      "channel": 4,
      "note": 49,
      "start": 18.421,
      "duration": 0.3954,
      "velocity": 122,
      "chip": "ym2612"
    },
    {
      "channel": 5,
      "note": 87,
      "start": 18.684,
      "duration": 0.2988,
      "velocity": 106,
      "chip": "ym2612"
    },
    {
      "channel": 0,
      "note": 89,
      "start": 18.7156,
      "duration": 0.2994,
      "velocity": 112,
      "chip": "ym2612"
    },
    {
      "channel": 1,
      "note": 82,
      "start": 18.7162,
      "duration": 0.0991,
      "velocity": 97,
      "chip": "ym2612"
    },
    {
      "channel": 2,
      "note": 78,
      "start": 18.7168,
      "duration": 0.0987,
      "velocity": 97,
      "chip": "ym2612"
    },
    {
      "channel": 4,
      "note": 49,
      "start": 18.8167,
      "duration": 0.0996,
      "velocity": 122,
      "chip": "ym2612"
    },
    {
      "channel": 4,
      "note": 49,
      "start": 18.9167,
      "duration": 0.101,
      "velocity": 122,
      "chip": "ym2612"
    },
    {
      "channel": 5,
      "note": 89,
      "start": 18.9835,
      "duration": 0.2993,
      "velocity": 106,
      "chip": "ym2612"
    },
    {
      "channel": 0,
      "note": 90,
      "start": 19.0156,
      "duration": 0.1994,
      "velocity": 112,
      "chip": "ym2612"
    },
    {
      "channel": 1,
      "note": 82,
      "start": 19.0164,
      "duration": 0.1996,
      "velocity": 97,
      "chip": "ym2612"
    },
    {
      "channel": 2,
      "note": 78,
      "start": 19.0172,
      "duration": 0.1993,
      "velocity": 97,
      "chip": "ym2612"
    },
    {
      "channel": 4,
      "note": 49,
      "start": 19.0181,
      "duration": 0.0982,
      "velocity": 122,
      "chip": "ym2612"
    },
    {
      "channel": 4,
      "note": 49,
      "start": 19.1167,
      "duration": 0.1039,
      "velocity": 127,
      "chip": "ym2612"
    },
    {
      "channel": 0,
      "note": 92,
      "start": 19.2156,
      "duration": 0.7994,
      "velocity": 112,
      "chip": "ym2612"
    },
    {
      "channel": 3,
      "note": 53,
      "start": 19.2174,
      "duration": 0.0981,
      "velocity": 109,
      "chip": "ym2612"
    },
    {
      "channel": 4,
      "note": 53,
      "start": 19.2213,
      "duration": 0.1988,
      "velocity": 111,
      "chip": "ym2612"
    },
    {
      "channel": 5,
      "note": 90,
      "start": 19.2834,
      "duration": 0.1998,
      "velocity": 106,
      "chip": "ym2612"
    },
    {
      "channel": 3,
      "note": 54,
      "start": 19.316,
      "duration": 0.1009,
      "velocity": 109,
      "chip": "ym2612"
    },
    {
      "channel": 1,
      "note": 80,
      "start": 19.416,
      "duration": 0.2994,
      "velocity": 97,
      "chip": "ym2612"
    },
    {
      "channel": 2,
      "note": 77,
      "start": 19.4168,
      "duration": 0.2992,
      "velocity": 97,
      "chip": "ym2612"
    },
    {
      "channel": 3,
      "note": 56,
      "start": 19.4176,
      "duration": 0.0985,
      "velocity": 109,
      "chip": "ym2612"
    },
    {
      "channel": 4,
      "note": 95,
      "start": 19.4207,
      "duration": 0.1985,
      "velocity": 122,
      "chip": "ym2612"
    },
    {
      "channel": 5,
      "note": 92,
      "start": 19.4839,
      "duration": 0.7997,
      "velocity": 106,
      "chip": "ym2612"
    },
    {
      "channel": 3,
      "note": 53,
      "start": 19.5166,
      "duration": 0.2994,
      "velocity": 109,
      "chip": "ym2612"
    },
    {
      "channel": 4,
      "note": 49,
      "start": 19.6197,
      "duration": 0.1993,
      "velocity": 111,
      "chip": "ym2612"
    },
    {
      "channel": 1,
      "note": 80,
      "start": 19.7158,
      "duration": 0.0996,
      "velocity": 97,
      "chip": "ym2612"
    },
    {
      "channel": 2,
      "note": 77,
      "start": 19.7165,
      "duration": 0.0993,
      "velocity": 97,
      "chip": "ym2612"
    },
    {
      "channel": 3,
      "note": 53,
      "start": 19.8165,
      "duration": 0.2008,
      "velocity": 109,
      "chip": "ym2612"
    },
    {
      "channel": 4,
      "note": 95,
      "start": 19.8196,
      "duration": 0.201,
      "velocity": 127,
      "chip": "ym2612"
    },
    {
      "channel": 0,
      "note": 84,
      "start": 20.0156,
      "duration": 0.7994,
      "velocity": 112,
      "chip": "ym2612"
    },
    {
      "channel": 1,
      "note": 80,
      "start": 20.0164,
      "duration": 0.299,
      "velocity": 97,
      "chip": "ym2612"
    },
    {
      "channel": 2,
      "note": 77,
      "start": 20.0172,
      "duration": 0.2988,
      "velocity": 97,
      "chip": "ym2612"
    },
    {
      "channel": 3,
      "note": 53,
      "start": 20.0178,
      "duration": 0.2988,
      "velocity": 109,
      "chip": "ym2612"
    },
    {
      "channel": 4,
      "note": 53,
      "start": 20.0212,
      "duration": 0.1978,
      "velocity": 111,
      "chip": "ym2612"
    },
    {
      "channel": 4,
      "note": 95,
      "start": 20.2196,
      "duration": 0.1994,
      "velocity": 122,
      "chip": "ym2612"
    },
    {
      "channel": 5,
      "note": 84,
      "start": 20.2842,
      "duration": 0.799,
      "velocity": 106,
      "chip": "ym2612"
    },
    {
      "channel": 1,
      "note": 80,
      "start": 20.3158,
      "duration": 0.0996,
      "velocity": 97,
      "chip": "ym2612"
    },
    {
      "channel": 2,
      "note": 77,
      "start": 20.3165,
      "duration": 0.0993,
      "velocity": 97,
      "chip": "ym2612"
    },
    {
      "channel": 3,
      "note": 65,
      "start": 20.3172,
      "duration": 0.2997,
      "velocity": 109,
      "chip": "ym2612"
    },
    {
      "channel": 4,
      "note": 49,
      "start": 20.4195,
      "duration": 0.2006,
      "velocity": 111,
      "chip": "ym2612"
    },
    {
      "channel": 1,
      "note": 80,
      "start": 20.616,
      "duration": 0.1999,
      "velocity": 97,
      "chip": "ym2612"
    },
    {
      "channel": 2,
      "note": 77,
      "start": 20.6168,
      "duration": 0.1996,
      "velocity": 97,
      "chip": "ym2612"
    },
    {
      "channel": 3,
      "note": 53,
      "start": 20.6176,
      "duration": 0.1991,
      "velocity": 109,
      "chip": "ym2612"
    },
    {
      "channel": 4,
      "note": 95,
      "start": 20.6207,
      "duration": 0.1995,
      "velocity": 127,
      "chip": "ym2612"
    },
    {
      "channel": 0,
      "note": 85,
      "start": 20.8156,
      "duration": 1.1994,
      "velocity": 112,
      "chip": "ym2612"
    },
    {
      "channel": 3,
      "note": 46,
      "start": 20.8173,
      "duration": 0.0981,
      "velocity": 109,
      "chip": "ym2612"
    },
    {
      "channel": 4,
      "note": 53,
      "start": 20.8209,
      "duration": 0.1992,
      "velocity": 111,
      "chip": "ym2612"
    },
    {
      "channel": 3,
      "note": 48,
      "start": 20.916,
      "duration": 0.1009,
      "velocity": 109,
      "chip": "ym2612"
    },
    {
      "channel": 1,
      "note": 82,
      "start": 21.016,
      "duration": 0.2994,
      "velocity": 97,
      "chip": "ym2612"
    },
    {
      "channel": 2,
      "note": 77,
      "start": 21.0168,
      "duration": 0.2992,
      "velocity": 97,
      "chip": "ym2612"
    },
    {
      "channel": 3,
      "note": 49,
      "start": 21.0176,
      "duration": 0.0985,
      "velocity": 109,
      "chip": "ym2612"
    },
    {
      "channel": 4,
      "note": 95,
      "start": 21.0207,
      "duration": 0.1985,
      "velocity": 122,
      "chip": "ym2612"
    },
    {
      "channel": 5,
      "note": 85,
      "start": 21.0839,
      "duration": 1.1993,
      "velocity": 106,
      "chip": "ym2612"
    },
    {
      "channel": 3,
      "note": 58,
      "start": 21.1167,
      "duration": 0.2993,
      "velocity": 109,
      "chip": "ym2612"
    },
    {
      "channel": 4,
      "note": 49,
      "start": 21.2197,
      "duration": 0.1993,
      "velocity": 111,
      "chip": "ym2612"
    },
    {
      "channel": 1,
      "note": 82,
      "start": 21.3158,
      "duration": 0.0996,
      "velocity": 97,
      "chip": "ym2612"
    },
    {
      "channel": 2,
      "note": 77,
      "start": 21.3165,
      "duration": 0.0993,
      "velocity": 97,
      "chip": "ym2612"
    },
    {
      "channel": 3,
      "note": 58,
      "start": 21.4165,
      "duration": 0.2005,
      "velocity": 109,
      "chip": "ym2612"
    },
    {
      "channel": 4,
      "note": 95,
      "start": 21.4196,
      "duration": 0.2006,
      "velocity": 127,
      "chip": "ym2612"
    },
    {
      "channel": 1,
      "note": 82,
      "start": 21.616,
      "duration": 0.2994,
      "velocity": 97,
      "chip": "ym2612"
    },
    {
      "channel": 2,
      "note": 77,
      "start": 21.6168,
      "duration": 0.2992,
      "velocity": 97,
      "chip": "ym2612"
    },
    {
      "channel": 3,
      "note": 58,
      "start": 21.6174,
      "duration": 0.2992,
      "velocity": 109,
      "chip": "ym2612"
    },
    {
      "channel": 4,
      "note": 53,
      "start": 21.6209,
      "duration": 0.1981,
      "velocity": 111,
      "chip": "ym2612"
    },
    {
      "channel": 4,
      "note": 95,
      "start": 21.8196,
      "duration": 0.1998,
      "velocity": 122,
      "chip": "ym2612"
    },
    {
      "channel": 1,
      "note": 82,
      "start": 21.9158,
      "duration": 0.0999,
      "velocity": 97,
      "chip": "ym2612"
    },
    {
      "channel": 2,
      "note": 77,
      "start": 21.9165,
      "duration": 0.0996,
      "velocity": 97,
      "chip": "ym2612"
    },
    {
      "channel": 3,
      "note": 70,
      "start": 21.9172,
      "duration": 0.3001,
      "velocity": 109,
      "chip": "ym2612"
    },
    {
      "channel": 0,
      "note": 87,
      "start": 22.0156,
      "duration": 0.1994,
      "velocity": 112,
      "chip": "ym2612"
    },
    {
      "channel": 4,
      "note": 49,
      "start": 22.0198,
      "duration": 0.2006,
      "velocity": 111,
      "chip": "ym2612"
    },
    {
      "channel": 0,
      "note": 89,
      "start": 22.2156,
      "duration": 0.1994,
      "velocity": 112,
      "chip": "ym2612"
    },
    {
      "channel": 1,
      "note": 82,
      "start": 22.2164,
      "duration": 0.1996,
      "velocity": 97,
      "chip": "ym2612"
    },
    {
      "channel": 2,
      "note": 77,
      "start": 22.2172,
      "duration": 0.1994,
      "velocity": 97,
      "chip": "ym2612"
    },
    {
      "channel": 3,
      "note": 58,
      "start": 22.2179,
      "duration": 0.1989,
      "velocity": 109,
      "chip": "ym2612"
    },
    {
      "channel": 4,
      "note": 95,
      "start": 22.221,
      "duration": 0.1993,
      "velocity": 127,
      "chip": "ym2612"
    },
    {
      "channel": 5,
      "note": 87,
      "start": 22.2838,
      "duration": 0.199,
      "velocity": 106,
      "chip": "ym2612"
    },
    {
      "channel": 0,
      "note": 90,
      "start": 22.4156,
      "duration": 0.7994,
      "velocity": 112,
      "chip": "ym2612"
    },
    {
      "channel": 3,
      "note": 51,
      "start": 22.4174,
      "duration": 0.2986,
      "velocity": 109,
      "chip": "ym2612"
    },
    {
      "channel": 4,
      "note": 53,
      "start": 22.421,
      "duration": 0.1987,
      "velocity": 111,
      "chip": "ym2612"
    },
    {
      "channel": 5,
      "note": 89,
      "start": 22.4834,
      "duration": 0.1999,
      "velocity": 106,
      "chip": "ym2612"
    },
    {
      "channel": 1,
      "note": 82,
      "start": 22.616,
      "duration": 0.2994,
      "velocity": 97,
      "chip": "ym2612"
    },
    {
      "channel": 2,
      "note": 78,
      "start": 22.6168,
      "duration": 0.2992,
      "velocity": 97,
      "chip": "ym2612"
    },
    {
      "channel": 4,
      "note": 95,
      "start": 22.6203,
      "duration": 0.1988,
      "velocity": 122,
      "chip": "ym2612"
    },
    {
      "channel": 5,
      "note": 90,
      "start": 22.684,
      "duration": 0.7994,
      "velocity": 106,
      "chip": "ym2612"
    },
    {
      "channel": 3,
      "note": 63,
      "start": 22.7167,
      "duration": 0.1999,
      "velocity": 109,
      "chip": "ym2612"
    },
    {
      "channel": 4,
      "note": 49,
      "start": 22.8197,
      "duration": 0.1995,
      "velocity": 111,
      "chip": "ym2612"
    },
    {
      "channel": 1,
      "note": 82,
      "start": 22.9158,
      "duration": 0.0996,
      "velocity": 97,
      "chip": "ym2612"
    },
    {
      "channel": 2,
      "note": 78,
      "start": 22.9165,
      "duration": 0.0993,
      "velocity": 97,
      "chip": "ym2612"
    },
    {
      "channel": 3,
      "note": 63,
      "start": 22.9171,
      "duration": 0.0989,
      "velocity": 109,
      "chip": "ym2612"
    },
    {
      "channel": 3,
      "note": 51,
      "start": 23.0166,
      "duration": 0.0989,
      "velocity": 109,
      "chip": "ym2612"
    },
    {
      "channel": 4,
      "note": 95,
      "start": 23.0197,
      "duration": 0.2004,
      "velocity": 127,
      "chip": "ym2612"
    },
    {
      "channel": 3,
      "note": 51,
      "start": 23.116,
      "duration": 0.1999,
      "velocity": 109,
      "chip": "ym2612"
    },
    {
      "channel": 0,
      "note": 90,
      "start": 23.2154,
      "duration": 0.2996,
      "velocity": 112,
      "chip": "ym2612"
    },
    {
      "channel": 1,
      "note": 82,
      "start": 23.2162,
      "duration": 0.2995,
      "velocity": 97,
      "chip": "ym2612"
    },
    {
      "channel": 2,
      "note": 78,
      "start": 23.217,
      "duration": 0.2994,
      "velocity": 97,
      "chip": "ym2612"
    },
    {
      "channel": 4,
      "note": 53,
      "start": 23.2208,
      "duration": 0.1986,
      "velocity": 111,
      "chip": "ym2612"
    },
    {
      "channel": 3,
      "note": 51,
      "start": 23.3164,
      "duration": 0.0998,
      "velocity": 109,
      "chip": "ym2612"
    },
    {
      "channel": 3,
      "note": 63,
      "start": 23.4168,
      "duration": 0.1002,
      "velocity": 109,
      "chip": "ym2612"
    },
    {
      "channel": 4,
      "note": 95,
      "start": 23.42,
      "duration": 0.1988,
      "velocity": 122,
      "chip": "ym2612"
    },
    {
      "channel": 5,
      "note": 90,
      "start": 23.484,
      "duration": 0.2988,
      "velocity": 106,
      "chip": "ym2612"
    },
    {
      "channel": 0,
      "note": 92,
      "start": 23.5156,
      "duration": 0.2994,
      "velocity": 112,
      "chip": "ym2612"
    },
    {
      "channel": 1,
      "note": 82,
      "start": 23.5162,
      "duration": 0.0991,
      "velocity": 97,
      "chip": "ym2612"
    },
    {
      "channel": 2,
      "note": 78,
      "start": 23.5168,
      "duration": 0.0987,
      "velocity": 97,
      "chip": "ym2612"
    },
    {
      "channel": 3,
      "note": 51,
      "start": 23.5176,
      "duration": 0.1979,
      "velocity": 109,
      "chip": "ym2612"
    },
    {
      "channel": 4,
      "note": 49,
      "start": 23.6194,
      "duration": 0.2012,
      "velocity": 111,
      "chip": "ym2612"
    },
    {
      "channel": 3,
      "note": 63,
      "start": 23.7161,
      "duration": 0.1012,
      "velocity": 109,
      "chip": "ym2612"
    },
    {
      "channel": 5,
      "note": 92,
      "start": 23.7834,
      "duration": 0.2993,
      "velocity": 106,
      "chip": "ym2612"
    },
    {
      "channel": 0,
      "note": 94,
      "start": 23.8156,
      "duration": 0.1994,
      "velocity": 112,
      "chip": "ym2612"
    },
    {
      "channel": 1,
      "note": 82,
      "start": 23.8164,
      "duration": 0.1996,
      "velocity": 97,
      "chip": "ym2612"
    },
    {
      "channel": 2,
      "note": 78,
      "start": 23.8172,
      "duration": 0.1993,
      "velocity": 97,
      "chip": "ym2612"
    },
    {
      "channel": 3,
      "note": 51,
      "start": 23.8179,
      "duration": 0.1988,
      "velocity": 109,
      "chip": "ym2612"
    },
    {
      "channel": 4,
      "note": 95,
      "start": 23.8211,
      "duration": 0.1992,
      "velocity": 122,
      "chip": "ym2612"
    },
    {
      "channel": 0,
      "note": 96,
      "start": 24.0156,
      "duration": 1.5994,
      "velocity": 112,
      "chip": "ym2612"
    },
    {
      "channel": 3,
      "note": 56,
      "start": 24.0174,
      "duration": 1.5998,
      "velocity": 109,
      "chip": "ym2612"
    },
    {
      "channel": 4,
      "note": 49,
      "start": 24.0209,
      "duration": 0.0952,
      "velocity": 122,
      "chip": "ym2612"
    },
    {
      "channel": 5,
      "note": 94,
      "start": 24.0834,
      "duration": 0.2,
      "velocity": 106,
      "chip": "ym2612"
    },
    {
      "channel": 4,
      "note": 49,
      "start": 24.1165,
      "duration": 0.1008,
      "velocity": 122,
      "chip": "ym2612"
    },
    {
      "channel": 1,
      "note": 80,
      "start": 24.216,
      "duration": 0.2994,
      "velocity": 97,
      "chip": "ym2612"
    },
    {
      "channel": 2,
      "note": 75,
      "start": 24.2168,
      "duration": 0.2992,
      "velocity": 97,
      "chip": "ym2612"
    },
    {
      "channel": 4,
      "note": 49,
      "start": 24.2177,
      "duration": 0.0987,
      "velocity": 122,
      "chip": "ym2612"
    },
    {
      "channel": 5,
      "note": 96,
      "start": 24.284,
      "duration": 1.5993,
      "velocity": 106,
      "chip": "ym2612"
    },
    {
      "channel": 4,
      "note": 49,
      "start": 24.3168,
      "duration": 0.1027,
      "velocity": 122,
      "chip": "ym2612"
    },
    {
      "channel": 4,
      "note": 49,
      "start": 24.42,
      "duration": 0.0973,
      "velocity": 122,
      "chip": "ym2612"
    },
    {
      "channel": 1,
      "note": 80,
      "start": 24.5158,
      "duration": 0.0996,
      "velocity": 97,
      "chip": "ym2612"
    },
    {
      "channel": 2,
      "note": 75,
      "start": 24.5165,
      "duration": 0.0993,
      "velocity": 97,
      "chip": "ym2612"
    },
    {
      "channel": 4,
      "note": 49,
      "start": 24.5178,
      "duration": 0.0986,
      "velocity": 122,
      "chip": "ym2612"
    },
    {
      "channel": 4,
      "note": 49,
      "start": 24.6168,
      "duration": 0.0992,
      "velocity": 122,
      "chip": "ym2612"
    },
    {
      "channel": 4,
      "note": 49,
      "start": 24.7163,
      "duration": 0.1039,
      "velocity": 122,
      "chip": "ym2612"
    },
    {
      "channel": 1,
      "note": 80,
      "start": 24.816,
      "duration": 0.2994,
      "velocity": 97,
      "chip": "ym2612"
    },
    {
      "channel": 2,
      "note": 75,
      "start": 24.8168,
      "duration": 0.2992,
      "velocity": 97,
      "chip": "ym2612"
    },
    {
      "channel": 4,
      "note": 49,
      "start": 24.8208,
      "duration": 0.096,
      "velocity": 122,
      "chip": "ym2612"
    },
    {
      "channel": 4,
      "note": 49,
      "start": 24.9172,
      "duration": 0.0994,
      "velocity": 122,
      "chip": "ym2612"
    },
    {
      "channel": 4,
      "note": 49,
      "start": 25.017,
      "duration": 0.1001,
      "velocity": 122,
      "chip": "ym2612"
    },
    {
      "channel": 1,
      "note": 80,
      "start": 25.1158,
      "duration": 0.0996,
      "velocity": 97,
      "chip": "ym2612"
    },
    {
      "channel": 2,
      "note": 75,
      "start": 25.1165,
      "duration": 0.0993,
      "velocity": 97,
      "chip": "ym2612"
    },
    {
      "channel": 4,
      "note": 49,
      "start": 25.1174,
      "duration": 0.1019,
      "velocity": 122,
      "chip": "ym2612"
    },
    {
      "channel": 4,
      "note": 49,
      "start": 25.2198,
      "duration": 0.0964,
      "velocity": 122,
      "chip": "ym2612"
    },
    {
      "channel": 4,
      "note": 49,
      "start": 25.3167,
      "duration": 0.1007,
      "velocity": 122,
      "chip": "ym2612"
    },
    {
      "channel": 1,
      "note": 80,
      "start": 25.416,
      "duration": 0.2001,
      "velocity": 97,
      "chip": "ym2612"
    },
    {
      "channel": 2,
      "note": 75,
      "start": 25.4168,
      "duration": 0.1999,
      "velocity": 97,
      "chip": "ym2612"
    },
    {
      "channel": 4,
      "note": 49,
      "start": 25.4177,
      "duration": 0.0987,
      "velocity": 122,
      "chip": "ym2612"
    },
    {
      "channel": 4,
      "note": 49,
      "start": 25.5168,
      "duration": 0.1044,
      "velocity": 127,
      "chip": "ym2612"
    },
    {
      "channel": 0,
      "note": 77,
      "start": 25.6157,
      "duration": 0.3993,
      "velocity": 112,
      "chip": "ym2612"
    },
    {
      "channel": 3,
      "note": 49,
      "start": 25.6177,
      "duration": 0.1992,
      "velocity": 109,
      "chip": "ym2612"
    },
    {
      "channel": 4,
      "note": 53,
      "start": 25.6219,
      "duration": 0.1982,
      "velocity": 111,
      "chip": "ym2612"
    },
    {
      "channel": 1,
      "note": 80,
      "start": 25.816,
      "duration": 0.2993,
      "velocity": 97,
      "chip": "ym2612"
    },
    {
      "channel": 2,
      "note": 77,
      "start": 25.8168,
      "duration": 0.2991,
      "velocity": 97,
      "chip": "ym2612"
    },
    {
      "channel": 3,
      "note": 61,
      "start": 25.8176,
      "duration": 0.0985,
      "velocity": 109,
      "chip": "ym2612"
    },
    {
      "channel": 4,
      "note": 95,
      "start": 25.8207,
      "duration": 0.1994,
      "velocity": 122,
      "chip": "ym2612"
    },
    {
      "channel": 5,
      "note": 77,
      "start": 25.884,
      "duration": 0.3988,
      "velocity": 106,
      "chip": "ym2612"
    },
    {
      "channel": 3,
      "note": 61,
      "start": 25.9165,
      "duration": 0.1002,
      "velocity": 109,
      "chip": "ym2612"
    },
    {
      "channel": 0,
      "note": 80,
      "start": 26.0156,
      "duration": 0.3994,
      "velocity": 112,
      "chip": "ym2612"
    },
    {
      "channel": 3,
      "note": 49,
      "start": 26.0173,
      "duration": 0.1987,
      "velocity": 109,
      "chip": "ym2612"
    },
    {
      "channel": 4,
      "note": 49,
      "start": 26.0205,
      "duration": 0.1986,
      "velocity": 111,
      "chip": "ym2612"
    },
    {
      "channel": 1,
      "note": 80,
      "start": 26.1158,
      "duration": 0.0996,
      "velocity": 97,
      "chip": "ym2612"
    },
    {
      "channel": 2,
      "note": 77,
      "start": 26.1163,
      "duration": 0.0994,
      "velocity": 97,
      "chip": "ym2612"
    },
    {
      "channel": 3,
      "note": 61,
      "start": 26.2166,
      "duration": 0.0989,
      "velocity": 109,
      "chip": "ym2612"
    },
    {
      "channel": 4,
      "note": 95,
      "start": 26.2197,
      "duration": 0.2011,
      "velocity": 127,
      "chip": "ym2612"
    },
    {
      "channel": 5,
      "note": 80,
      "start": 26.2834,
      "duration": 0.4,
      "velocity": 106,
      "chip": "ym2612"
    },
    {
      "channel": 3,
      "note": 61,
      "start": 26.316,
      "duration": 0.1013,
      "velocity": 109,
      "chip": "ym2612"
    },
    {
      "channel": 0,
      "note": 89,
      "start": 26.4156,
      "duration": 0.2994,
      "velocity": 112,
      "chip": "ym2612"
    },
    {
      "channel": 1,
      "note": 80,
      "start": 26.4164,
      "duration": 0.2994,
      "velocity": 97,
      "chip": "ym2612"
    },
    {
      "channel": 2,
      "note": 77,
      "start": 26.4172,
      "duration": 0.2992,
      "velocity": 97,
      "chip": "ym2612"
    },
    {
      "channel": 3,
      "note": 49,
      "start": 26.418,
      "duration": 0.1982,
      "velocity": 109,
      "chip": "ym2612"
    },
    {
      "channel": 4,
      "note": 53,
      "start": 26.4215,
      "duration": 0.1979,
      "velocity": 111,
      "chip": "ym2612"
    },
    {
      "channel": 3,
      "note": 61,
      "start": 26.6168,
      "duration": 0.1001,
      "velocity": 109,
      "chip": "ym2612"
    },
    {
      "channel": 4,
      "note": 95,
      "start": 26.62,
      "duration": 0.1994,
      "velocity": 122,
      "chip": "ym2612"
    },
    {
      "channel": 5,
      "note": 89,
      "start": 26.6841,
      "duration": 0.2987,
      "velocity": 106,
      "chip": "ym2612"
    },
    {
      "channel": 0,
      "note": 87,
      "start": 26.7156,
      "duration": 0.2994,
      "velocity": 112,
      "chip": "ym2612"
    },
    {
      "channel": 1,
      "note": 80,
      "start": 26.7162,
      "duration": 0.0991,
      "velocity": 97,
      "chip": "ym2612"
    },
    {
      "channel": 2,
      "note": 77,
      "start": 26.7168,
      "duration": 0.0987,
      "velocity": 97,
      "chip": "ym2612"
    },
    {
      "channel": 3,
      "note": 61,
      "start": 26.7175,
      "duration": 0.0985,
      "velocity": 109,
      "chip": "ym2612"
    },
    {
      "channel": 3,
      "note": 49,
      "start": 26.8166,
      "duration": 0.2007,
      "velocity": 109,
      "chip": "ym2612"
    },
    {
      "channel": 4,
      "note": 49,
      "start": 26.8199,
      "duration": 0.2006,
      "velocity": 111,
      "chip": "ym2612"
    },
    {
      "channel": 5,
      "note": 87,
      "start": 26.9834,
      "duration": 0.2994,
      "velocity": 106,
      "chip": "ym2612"
    },
    {
      "channel": 0,
      "note": 85,
      "start": 27.0156,
      "duration": 0.1994,
      "velocity": 112,
      "chip": "ym2612"
    },
    {
      "channel": 1,
      "note": 80,
      "start": 27.0164,
      "duration": 0.1996,
      "velocity": 97,
      "chip": "ym2612"
    },
    {
      "channel": 2,
      "note": 77,
      "start": 27.0172,
      "duration": 0.1993,
      "velocity": 97,
      "chip": "ym2612"
    },
    {
      "channel": 3,
      "note": 61,
      "start": 27.0179,
      "duration": 0.098,
      "velocity": 109,
      "chip": "ym2612"
    },
    {
      "channel": 4,
      "note": 95,
      "start": 27.021,
      "duration": 0.1993,
      "velocity": 127,
      "chip": "ym2612"
    },
    {
      "channel": 3,
      "note": 61,
      "start": 27.1164,
      "duration": 0.1005,
      "velocity": 109,
      "chip": "ym2612"
    },
    {
      "channel": 0,
      "note": 84,
      "start": 27.2156,
      "duration": 0.3994,
      "velocity": 112,
      "chip": "ym2612"
    },
    {
      "channel": 3,
      "note": 53,
      "start": 27.2174,
      "duration": 0.1995,
      "velocity": 109,
      "chip": "ym2612"
    },
    {
      "channel": 4,
      "note": 53,
      "start": 27.221,
      "duration": 0.199,
      "velocity": 111,
      "chip": "ym2612"
    },
    {
      "channel": 5,
      "note": 85,
      "start": 27.2834,
      "duration": 0.1998,
      "velocity": 106,
      "chip": "ym2612"
    },
    {
      "channel": 1,
      "note": 80,
      "start": 27.416,
      "duration": 0.2993,
      "velocity": 97,
      "chip": "ym2612"
    },
    {
      "channel": 2,
      "note": 77,
      "start": 27.4168,
      "duration": 0.2991,
      "velocity": 97,
      "chip": "ym2612"
    },
    {
      "channel": 3,
      "note": 65,
      "start": 27.4176,
      "duration": 0.0985,
      "velocity": 109,
      "chip": "ym2612"
    },
    {
      "channel": 4,
      "note": 95,
      "start": 27.4207,
      "duration": 0.1994,
      "velocity": 122,
      "chip": "ym2612"
    },
    {
      "channel": 5,
      "note": 84,
      "start": 27.4839,
      "duration": 0.3989,
      "velocity": 106,
      "chip": "ym2612"
    },
    {
      "channel": 3,
      "note": 65,
      "start": 27.5165,
      "duration": 0.1002,
      "velocity": 109,
      "chip": "ym2612"
    },
    {
      "channel": 0,
      "note": 80,
      "start": 27.6156,
      "duration": 0.3994,
      "velocity": 112,
      "chip": "ym2612"
    },
    {
      "channel": 3,
      "note": 53,
      "start": 27.6173,
      "duration": 0.1987,
      "velocity": 109,
      "chip": "ym2612"
    },
    {
      "channel": 4,
      "note": 49,
      "start": 27.6205,
      "duration": 0.1986,
      "velocity": 111,
      "chip": "ym2612"
    },
    {
      "channel": 1,
      "note": 80,
      "start": 27.7158,
      "duration": 0.0996,
      "velocity": 97,
      "chip": "ym2612"
    },
    {
      "channel": 2,
      "note": 77,
      "start": 27.7163,
      "duration": 0.0994,
      "velocity": 97,
      "chip": "ym2612"
    },
    {
      "channel": 3,
      "note": 65,
      "start": 27.8166,
      "duration": 0.0989,
      "velocity": 109,
      "chip": "ym2612"
    },
    {
      "channel": 4,
      "note": 95,
      "start": 27.8197,
      "duration": 0.2011,
      "velocity": 127,
      "chip": "ym2612"
    },
    {
      "channel": 5,
      "note": 80,
      "start": 27.8834,
      "duration": 0.4,
      "velocity": 106,
      "chip": "ym2612"
    },
    {
      "channel": 3,
      "note": 65,
      "start": 27.916,
      "duration": 0.1013,
      "velocity": 109,
      "chip": "ym2612"
    },
    {
      "channel": 0,
      "note": 89,
      "start": 28.0156,
      "duration": 0.2994,
      "velocity": 112,
      "chip": "ym2612"
    },
    {
      "channel": 1,
      "note": 80,
      "start": 28.0164,
      "duration": 0.2994,
      "velocity": 97,
      "chip": "ym2612"
    },
    {
      "channel": 2,
      "note": 77,
      "start": 28.0172,
      "duration": 0.2992,
      "velocity": 97,
      "chip": "ym2612"
    },
    {
      "channel": 3,
      "note": 53,
      "start": 28.018,
      "duration": 0.1982,
      "velocity": 109,
      "chip": "ym2612"
    },
    {
      "channel": 4,
      "note": 53,
      "start": 28.0215,
      "duration": 0.1979,
      "velocity": 111,
      "chip": "ym2612"
    },
    {
      "channel": 3,
      "note": 65,
      "start": 28.2168,
      "duration": 0.1001,
      "velocity": 109,
      "chip": "ym2612"
    },
    {
      "channel": 4,
      "note": 95,
      "start": 28.22,
      "duration": 0.1994,
      "velocity": 122,
      "chip": "ym2612"
    },
    {
      "channel": 5,
      "note": 89,
      "start": 28.2841,
      "duration": 0.2987,
      "velocity": 106,
      "chip": "ym2612"
    },
    {
      "channel": 0,
      "note": 84,
      "start": 28.3156,
      "duration": 0.2994,
      "velocity": 112,
      "chip": "ym2612"
    },
    {
      "channel": 1,
      "note": 80,
      "start": 28.3162,
      "duration": 0.0991,
      "velocity": 97,
      "chip": "ym2612"
    },
    {
      "channel": 2,
      "note": 77,
      "start": 28.3168,
      "duration": 0.0987,
      "velocity": 97,
      "chip": "ym2612"
    },
    {
      "channel": 3,
      "note": 65,
      "start": 28.3175,
      "duration": 0.0985,
      "velocity": 109,
      "chip": "ym2612"
    },
    {
      "channel": 3,
      "note": 53,
      "start": 28.4166,
      "duration": 0.2007,
      "velocity": 109,
      "chip": "ym2612"
    },
    {
      "channel": 4,
      "note": 49,
      "start": 28.4199,
      "duration": 0.2006,
      "velocity": 111,
      "chip": "ym2612"
    },
    {
      "channel": 5,
      "note": 84,
      "start": 28.5834,
      "duration": 0.2994,
      "velocity": 106,
      "chip": "ym2612"
    },
    {
      "channel": 0,
      "note": 89,
      "start": 28.6156,
      "duration": 0.1994,
      "velocity": 112,
      "chip": "ym2612"
    },
    {
      "channel": 1,
      "note": 80,
      "start": 28.6164,
      "duration": 0.1996,
      "velocity": 97,
      "chip": "ym2612"
    },
    {
      "channel": 2,
      "note": 77,
      "start": 28.6172,
      "duration": 0.1994,
      "velocity": 97,
      "chip": "ym2612"
    },
    {
      "channel": 3,
      "note": 65,
      "start": 28.6179,
      "duration": 0.098,
      "velocity": 109,
      "chip": "ym2612"
    },
    {
      "channel": 4,
      "note": 95,
      "start": 28.621,
      "duration": 0.1994,
      "velocity": 127,
      "chip": "ym2612"
    },
    {
      "channel": 3,
      "note": 65,
      "start": 28.7164,
      "duration": 0.1006,
      "velocity": 109,
      "chip": "ym2612"
    },
    {
      "channel": 0,
      "note": 90,
      "start": 28.8156,
      "duration": 0.3994,
      "velocity": 112,
      "chip": "ym2612"
    },
    {
      "channel": 3,
      "note": 54,
      "start": 28.8176,
      "duration": 0.1993,
      "velocity": 109,
      "chip": "ym2612"
    },
    {
      "channel": 4,
      "note": 53,
      "start": 28.8212,
      "duration": 0.1989,
      "velocity": 111,
      "chip": "ym2612"
    },
    {
      "channel": 5,
      "note": 89,
      "start": 28.8834,
      "duration": 0.1998,
      "velocity": 106,
      "chip": "ym2612"
    },
    {
      "channel": 1,
      "note": 82,
      "start": 29.016,
      "duration": 0.2993,
      "velocity": 97,
      "chip": "ym2612"
    },
    {
      "channel": 2,
      "note": 78,
      "start": 29.0168,
      "duration": 0.2991,
      "velocity": 97,
      "chip": "ym2612"
    },
    {
      "channel": 3,
      "note": 66,
      "start": 29.0176,
      "duration": 0.0985,
      "velocity": 109,
      "chip": "ym2612"
    },
    {
      "channel": 4,
      "note": 95,
      "start": 29.0207,
      "duration": 0.1994,
      "velocity": 122,
      "chip": "ym2612"
    },
    {
      "channel": 5,
      "note": 90,
      "start": 29.0839,
      "duration": 0.3989,
      "velocity": 106,
      "chip": "ym2612"
    },
    {
      "channel": 3,
      "note": 66,
      "start": 29.1165,
      "duration": 0.1002,
      "velocity": 109,
      "chip": "ym2612"
    },
    {
      "channel": 0,
      "note": 90,
      "start": 29.2156,
      "duration": 0.2994,
      "velocity": 112,
      "chip": "ym2612"
    },
    {
      "channel": 3,
      "note": 54,
      "start": 29.2173,
      "duration": 0.1987,
      "velocity": 109,
      "chip": "ym2612"
    },
    {
      "channel": 4,
      "note": 49,
      "start": 29.2206,
      "duration": 0.1985,
      "velocity": 111,
      "chip": "ym2612"
    },
    {
      "channel": 1,
      "note": 82,
      "start": 29.3158,
      "duration": 0.0996,
      "velocity": 97,
      "chip": "ym2612"
    },
    {
      "channel": 2,
      "note": 78,
      "start": 29.3163,
      "duration": 0.0994,
      "velocity": 97,
      "chip": "ym2612"
    },
    {
      "channel": 3,
      "note": 66,
      "start": 29.4166,
      "duration": 0.0993,
      "velocity": 109,
      "chip": "ym2612"
    },
    {
      "channel": 4,
      "note": 95,
      "start": 29.4197,
      "duration": 0.2006,
      "velocity": 127,
      "chip": "ym2612"
    },
    {
      "channel": 5,
      "note": 90,
      "start": 29.4834,
      "duration": 0.2999,
      "velocity": 106,
      "chip": "ym2612"
    },
    {
      "channel": 0,
      "note": 92,
      "start": 29.5156,
      "duration": 0.2994,
      "velocity": 112,
      "chip": "ym2612"
    },
    {
      "channel": 3,
      "note": 66,
      "start": 29.5164,
      "duration": 0.1005,
      "velocity": 109,
      "chip": "ym2612"
    },
    {
      "channel": 1,
      "note": 82,
      "start": 29.616,
      "duration": 0.2994,
      "velocity": 97,
      "chip": "ym2612"
    },
    {
      "channel": 2,
      "note": 78,
      "start": 29.6167,
      "duration": 0.2992,
      "velocity": 97,
      "chip": "ym2612"
    },
    {
      "channel": 3,
      "note": 54,
      "start": 29.6176,
      "duration": 0.199,
      "velocity": 109,
      "chip": "ym2612"
    },
    {
      "channel": 4,
      "note": 53,
      "start": 29.621,
      "duration": 0.1987,
      "velocity": 111,
      "chip": "ym2612"
    },
    {
      "channel": 5,
      "note": 92,
      "start": 29.784,
      "duration": 0.2987,
      "velocity": 106,
      "chip": "ym2612"
    },
    {
      "channel": 0,
      "note": 90,
      "start": 29.8156,
      "duration": 0.1994,
      "velocity": 112,
      "chip": "ym2612"
    },
    {
      "channel": 3,
      "note": 66,
      "start": 29.8172,
      "duration": 0.0993,
      "velocity": 109,
      "chip": "ym2612"
    },
    {
      "channel": 4,
      "note": 95,
      "start": 29.8203,
      "duration": 0.1995,
      "velocity": 122,
      "chip": "ym2612"
    },
    {
      "channel": 1,
      "note": 82,
      "start": 29.9158,
      "duration": 0.1,
      "velocity": 97,
      "chip": "ym2612"
    },
    {
      "channel": 2,
      "note": 78,
      "start": 29.9163,
      "duration": 0.0997,
      "velocity": 97,
      "chip": "ym2612"
    },
    {
      "channel": 3,
      "note": 66,
      "start": 29.917,
      "duration": 0.0995,
      "velocity": 109,
      "chip": "ym2612"
    },
    {
      "channel": 0,
      "note": 92,
      "start": 30.0156,
      "duration": 0.1994,
      "velocity": 112,
      "chip": "ym2612"
    },
    {
      "channel": 3,
      "note": 54,
      "start": 30.0171,
      "duration": 0.2003,
      "velocity": 109,
      "chip": "ym2612"
    },
    {
      "channel": 4,
      "note": 49,
      "start": 30.0203,
      "duration": 0.2002,
      "velocity": 111,
      "chip": "ym2612"
    },
    {
      "channel": 5,
      "note": 90,
      "start": 30.0833,
      "duration": 0.1999,
      "velocity": 106,
      "chip": "ym2612"
    },
    {
      "channel": 0,
      "note": 94,
      "start": 30.2156,
      "duration": 0.1994,
      "velocity": 112,
      "chip": "ym2612"
    },
    {
      "channel": 1,
      "note": 82,
      "start": 30.2164,
      "duration": 0.1994,
      "velocity": 97,
      "chip": "ym2612"
    },
    {
      "channel": 2,
      "note": 78,
      "start": 30.2172,
      "duration": 0.1991,
      "velocity": 97,
      "chip": "ym2612"
    },
    {
      "channel": 3,
      "note": 66,
      "start": 30.218,
      "duration": 0.0979,
      "velocity": 109,
      "chip": "ym2612"
    },
    {
      "channel": 4,
      "note": 95,
      "start": 30.2211,
      "duration": 0.1992,
      "velocity": 127,
      "chip": "ym2612"
    },
    {
      "channel": 5,
      "note": 92,
      "start": 30.2838,
      "duration": 0.199,
      "velocity": 106,
      "chip": "ym2612"
    },
    {
      "channel": 3,
      "note": 66,
      "start": 30.3164,
      "duration": 0.1003,
      "velocity": 109,
      "chip": "ym2612"
    },
    {
      "channel": 0,
      "note": 96,
      "start": 30.4156,
      "duration": 0.0994,
      "velocity": 112,
      "chip": "ym2612"
    },
    {
      "channel": 3,
      "note": 56,
      "start": 30.4172,
      "duration": 0.2001,
      "velocity": 109,
      "chip": "ym2612"
    },
    {
      "channel": 4,
      "note": 53,
      "start": 30.421,
      "duration": 0.1995,
      "velocity": 111,
      "chip": "ym2612"
    },
    {
      "channel": 5,
      "note": 94,
      "start": 30.4834,
      "duration": 0.1998,
      "velocity": 106,
      "chip": "ym2612"
    },
    {
      "channel": 0,
      "note": 94,
      "start": 30.5156,
      "duration": 0.0994,
      "velocity": 112,
      "chip": "ym2612"
    },
    {
      "channel": 0,
      "note": 92,
      "start": 30.6156,
      "duration": 0.0994,
      "velocity": 112,
      "chip": "ym2612"
    },
    {
      "channel": 1,
      "note": 84,
      "start": 30.6164,
      "duration": 0.2994,
      "velocity": 97,
      "chip": "ym2612"
    },
    {
      "channel": 2,
      "note": 80,
      "start": 30.6172,
      "duration": 0.2992,
      "velocity": 97,
      "chip": "ym2612"
    },
    {
      "channel": 3,
      "note": 68,
      "start": 30.6179,
      "duration": 0.0985,
      "velocity": 109,
      "chip": "ym2612"
    },
    {
      "channel": 4,
      "note": 95,
      "start": 30.621,
      "duration": 0.1989,
      "velocity": 122,
      "chip": "ym2612"
    },
    {
      "channel": 5,
      "note": 96,
      "start": 30.6838,
      "duration": 0.0994,
      "velocity": 106,
      "chip": "ym2612"
    },
    {
      "channel": 0,
      "note": 96,
      "start": 30.7156,
      "duration": 0.0994,
      "velocity": 112,
      "chip": "ym2612"
    },
    {
      "channel": 3,
      "note": 68,
      "start": 30.7168,
      "duration": 0.0998,
      "velocity": 109,
      "chip": "ym2612"
    },
    {
      "channel": 5,
      "note": 94,
      "start": 30.7838,
      "duration": 0.0995,
      "velocity": 106,
      "chip": "ym2612"
    },
    {
      "channel": 0,
      "note": 94,
      "start": 30.8156,
      "duration": 0.0994,
      "velocity": 112,
      "chip": "ym2612"
    },
    {
      "channel": 3,
      "note": 56,
      "start": 30.8172,
      "duration": 0.1991,
      "velocity": 109,
      "chip": "ym2612"
    },
    {
      "channel": 4,
      "note": 49,
      "start": 30.8205,
      "duration": 0.199,
      "velocity": 111,
      "chip": "ym2612"
    },
    {
      "channel": 5,
      "note": 92,
      "start": 30.884,
      "duration": 0.0992,
      "velocity": 106,
      "chip": "ym2612"
    },
    {
      "channel": 0,
      "note": 92,
      "start": 30.9156,
      "duration": 0.0994,
      "velocity": 112,
      "chip": "ym2612"
    },
    {
      "channel": 1,
      "note": 84,
      "start": 30.9162,
      "duration": 0.0995,
      "velocity": 97,
      "chip": "ym2612"
    },
    {
      "channel": 2,
      "note": 80,
      "start": 30.9168,
      "duration": 0.0992,
      "velocity": 97,
      "chip": "ym2612"
    },
    {
      "channel": 5,
      "note": 96,
      "start": 30.9838,
      "duration": 0.0989,
      "velocity": 106,
      "chip": "ym2612"
    },
    {
      "channel": 0,
      "note": 96,
      "start": 31.0156,
      "duration": 0.0994,
      "velocity": 112,
      "chip": "ym2612"
    },
    {
      "channel": 3,
      "note": 68,
      "start": 31.017,
      "duration": 0.1003,
      "velocity": 109,
      "chip": "ym2612"
    },
    {
      "channel": 4,
      "note": 95,
      "start": 31.0201,
      "duration": 0.2005,
      "velocity": 122,
      "chip": "ym2612"
    },
    {
      "channel": 5,
      "note": 94,
      "start": 31.0834,
      "duration": 0.0998,
      "velocity": 106,
      "chip": "ym2612"
    },
    {
      "channel": 0,
      "note": 92,
      "start": 31.1156,
      "duration": 0.0994,
      "velocity": 112,
      "chip": "ym2612"
    },
    {
      "channel": 1,
      "note": 84,
      "start": 31.1164,
      "duration": 0.0994,
      "velocity": 97,
      "chip": "ym2612"
    },
    {
      "channel": 2,
      "note": 80,
      "start": 31.1172,
      "duration": 0.0994,
      "velocity": 97,
      "chip": "ym2612"
    },
    {
      "channel": 3,
      "note": 68,
      "start": 31.1178,
      "duration": 0.0996,
      "velocity": 109,
      "chip": "ym2612"
    },
    {
      "channel": 5,
      "note": 92,
      "start": 31.1838,
      "duration": 0.0994,
      "velocity": 106,
      "chip": "ym2612"
    },
    {
      "channel": 0,
      "note": 94,
      "start": 31.2156,
      "duration": 0.3994,
      "velocity": 112,
      "chip": "ym2612"
    },
    {
      "channel": 1,
      "note": 85,
      "start": 31.2164,
      "duration": 0.199,
      "velocity": 97,
      "chip": "ym2612"
    },
    {
      "channel": 2,
      "note": 78,
      "start": 31.2172,
      "duration": 0.199,
      "velocity": 97,
      "chip": "ym2612"
    },
    {
      "channel": 3,
      "note": 54,
      "start": 31.2179,
      "duration": 0.199,
      "velocity": 109,
      "chip": "ym2612"
    },
    {
      "channel": 4,
      "note": 49,
      "start": 31.2212,
      "duration": 0.3969,
      "velocity": 122,
      "chip": "ym2612"
    },
    {
      "channel": 5,
      "note": 96,
      "start": 31.2838,
      "duration": 0.0994,
      "velocity": 106,
      "chip": "ym2612"
    },
    {
      "channel": 5,
      "note": 92,
      "start": 31.3838,
      "duration": 0.0994,
      "velocity": 106,
      "chip": "ym2612"
    },
    {
      "channel": 1,
      "note": 85,
      "start": 31.416,
      "duration": 0.1997,
      "velocity": 97,
      "chip": "ym2612"
    },
    {
      "channel": 2,
      "note": 78,
      "start": 31.4168,
      "duration": 0.1998,
      "velocity": 97,
      "chip": "ym2612"
    },
    {
      "channel": 3,
      "note": 66,
      "start": 31.4176,
      "duration": 0.1998,
      "velocity": 109,
      "chip": "ym2612"
    },
    {
      "channel": 5,
      "note": 94,
      "start": 31.484,
      "duration": 0.3993,
      "velocity": 106,
      "chip": "ym2612"
    },
    {
      "channel": 0,
      "note": 96,
      "start": 31.6156,
      "duration": 0.3994,
      "velocity": 112,
      "chip": "ym2612"
    },
    {
      "channel": 1,
      "note": 84,
      "start": 31.6164,
      "duration": 0.199,
      "velocity": 97,
      "chip": "ym2612"
    },
    {
      "channel": 2,
      "note": 77,
      "start": 31.6172,
      "duration": 0.199,
      "velocity": 97,
      "chip": "ym2612"
    },
    {
      "channel": 3,
      "note": 53,
      "start": 31.6179,
      "duration": 0.199,
      "velocity": 109,
      "chip": "ym2612"
    },
    {
      "channel": 4,
      "note": 49,
      "start": 31.6184,
      "duration": 0.0982,
      "velocity": 122,
      "chip": "ym2612"
    },
    {
      "channel": 4,
      "note": 49,
      "start": 31.717,
      "duration": 0.1007,
      "velocity": 122,
      "chip": "ym2612"
    },
    {
      "channel": 1,
      "note": 84,
      "start": 31.816,
      "duration": 0.2,
      "velocity": 97,
      "chip": "ym2612"
    },
    {
      "channel": 2,
      "note": 77,
      "start": 31.8168,
      "duration": 0.1998,
      "velocity": 97,
      "chip": "ym2612"
    },
    {
      "channel": 3,
      "note": 65,
      "start": 31.8176,
      "duration": 0.1994,
      "velocity": 109,
      "chip": "ym2612"
    },
    {
      "channel": 4,
      "note": 49,
      "start": 31.818,
      "duration": 0.0983,
      "velocity": 122,
      "chip": "ym2612"
    },
    {
      "channel": 5,
      "note": 96,
      "start": 31.884,
      "duration": 0.3994,
      "velocity": 106,
      "chip": "ym2612"
    },
    {
      "channel": 4,
      "note": 49,
      "start": 31.9167,
      "duration": 0.1041,
      "velocity": 127,
      "chip": "ym2612"
    },
    {
      "channel": 0,
      "note": 77,
      "start": 32.0157,
      "duration": 0.3993,
      "velocity": 112,
      "chip": "ym2612"
    },
    {
      "channel": 3,
      "note": 49,
      "start": 32.0176,
      "duration": 0.1994,
      "velocity": 109,
      "chip": "ym2612"
    },
    {
      "channel": 4,
      "note": 53,
      "start": 32.0215,
      "duration": 0.1986,
      "velocity": 111,
      "chip": "ym2612"
    },
    {
      "channel": 1,
      "note": 80,
      "start": 32.216,
      "duration": 0.2993,
      "velocity": 97,
      "chip": "ym2612"
    },
    {
      "channel": 2,
      "note": 77,
      "start": 32.2168,
      "duration": 0.2991,
      "velocity": 97,
      "chip": "ym2612"
    },
    {
      "channel": 3,
      "note": 61,
      "start": 32.2176,
      "duration": 0.0985,
      "velocity": 109,
      "chip": "ym2612"
    },
    {
      "channel": 4,
      "note": 95,
      "start": 32.2207,
      "duration": 0.1994,
      "velocity": 122,
      "chip": "ym2612"
    },
    {
      "channel": 5,
      "note": 77,
      "start": 32.284,
      "duration": 0.3988,
      "velocity": 106,
      "chip": "ym2612"
    },
    {
      "channel": 3,
      "note": 61,
      "start": 32.3165,
      "duration": 0.1002,
      "velocity": 109,
      "chip": "ym2612"
    },
    {
      "channel": 0,
      "note": 80,
      "start": 32.4156,
      "duration": 0.3994,
      "velocity": 112,
      "chip": "ym2612"
    },
    {
      "channel": 3,
      "note": 49,
      "start": 32.4173,
      "duration": 0.1987,
      "velocity": 109,
      "chip": "ym2612"
    },
    {
      "channel": 4,
      "note": 49,
      "start": 32.4205,
      "duration": 0.1986,
      "velocity": 111,
      "chip": "ym2612"
    },
    {
      "channel": 1,
      "note": 80,
      "start": 32.5158,
      "duration": 0.0996,
      "velocity": 97,
      "chip": "ym2612"
    },
    {
      "channel": 2,
      "note": 77,
      "start": 32.5163,
      "duration": 0.0994,
      "velocity": 97,
      "chip": "ym2612"
    },
    {
      "channel": 3,
      "note": 61,
      "start": 32.6166,
      "duration": 0.0989,
      "velocity": 109,
      "chip": "ym2612"
    },
    {
      "channel": 4,
      "note": 95,
      "start": 32.6197,
      "duration": 0.2011,
      "velocity": 127,
      "chip": "ym2612"
    },
    {
      "channel": 5,
      "note": 80,
      "start": 32.6834,
      "duration": 0.4,
      "velocity": 106,
      "chip": "ym2612"
    },
    {
      "channel": 3,
      "note": 61,
      "start": 32.716,
      "duration": 0.1013,
      "velocity": 109,
      "chip": "ym2612"
    },
    {
      "channel": 0,
      "note": 89,
      "start": 32.8156,
      "duration": 0.2994,
      "velocity": 112,
      "chip": "ym2612"
    },
    {
      "channel": 1,
      "note": 80,
      "start": 32.8164,
      "duration": 0.2994,
      "velocity": 97,
      "chip": "ym2612"
    },
    {
      "channel": 2,
      "note": 77,
      "start": 32.8172,
      "duration": 0.2992,
      "velocity": 97,
      "chip": "ym2612"
    },
    {
      "channel": 3,
      "note": 49,
      "start": 32.818,
      "duration": 0.1982,
      "velocity": 109,
      "chip": "ym2612"
    },
    {
      "channel": 4,
      "note": 53,
      "start": 32.8215,
      "duration": 0.1979,
      "velocity": 111,
      "chip": "ym2612"
    },
    {
      "channel": 3,
      "note": 61,
      "start": 33.0168,
      "duration": 0.1001,
      "velocity": 109,
      "chip": "ym2612"
    },
    {
      "channel": 4,
      "note": 95,
      "start": 33.02,
      "duration": 0.1994,
      "velocity": 122,
      "chip": "ym2612"
    },
    {
      "channel": 5,
      "note": 89,
      "start": 33.0841,
      "duration": 0.2987,
      "velocity": 106,
      "chip": "ym2612"
    },
    {
      "channel": 0,
      "note": 87,
      "start": 33.1156,
      "duration": 0.2994,
      "velocity": 112,
      "chip": "ym2612"
    },
    {
      "channel": 1,
      "note": 80,
      "start": 33.1162,
      "duration": 0.0991,
      "velocity": 97,
      "chip": "ym2612"
    },
    {
      "channel": 2,
      "note": 77,
      "start": 33.1168,
      "duration": 0.0987,
      "velocity": 97,
      "chip": "ym2612"
    },
    {
      "channel": 3,
      "note": 61,
      "start": 33.1175,
      "duration": 0.0985,
      "velocity": 109,
      "chip": "ym2612"
    },
    {
      "channel": 3,
      "note": 49,
      "start": 33.2166,
      "duration": 0.2007,
      "velocity": 109,
      "chip": "ym2612"
    },
    {
      "channel": 4,
      "note": 49,
      "start": 33.2199,
      "duration": 0.2006,
      "velocity": 111,
      "chip": "ym2612"
    },
    {
      "channel": 5,
      "note": 87,
      "start": 33.3834,
      "duration": 0.2994,
      "velocity": 106,
      "chip": "ym2612"
    },
    {
      "channel": 0,
      "note": 85,
      "start": 33.4156,
      "duration": 0.1994,
      "velocity": 112,
      "chip": "ym2612"
    },
    {
      "channel": 1,
      "note": 80,
      "start": 33.4164,
      "duration": 0.1996,
      "velocity": 97,
      "chip": "ym2612"
    },
    {
      "channel": 2,
      "note": 77,
      "start": 33.4172,
      "duration": 0.1993,
      "velocity": 97,
      "chip": "ym2612"
    },
    {
      "channel": 3,
      "note": 61,
      "start": 33.4179,
      "duration": 0.098,
      "velocity": 109,
      "chip": "ym2612"
    },
    {
      "channel": 4,
      "note": 95,
      "start": 33.421,
      "duration": 0.1993,
      "velocity": 127,
      "chip": "ym2612"
    },
    {
      "channel": 3,
      "note": 61,
      "start": 33.5164,
      "duration": 0.1005,
      "velocity": 109,
      "chip": "ym2612"
    },
    {
      "channel": 0,
      "note": 84,
      "start": 33.6156,
      "duration": 0.3994,
      "velocity": 112,
      "chip": "ym2612"
    },
    {
      "channel": 3,
      "note": 53,
      "start": 33.6174,
      "duration": 0.1995,
      "velocity": 109,
      "chip": "ym2612"
    },
    {
      "channel": 4,
      "note": 53,
      "start": 33.621,
      "duration": 0.199,
      "velocity": 111,
      "chip": "ym2612"
    },
    {
      "channel": 5,
      "note": 85,
      "start": 33.6834,
      "duration": 0.1998,
      "velocity": 106,
      "chip": "ym2612"
    },
    {
      "channel": 1,
      "note": 80,
      "start": 33.816,
      "duration": 0.2993,
      "velocity": 97,
      "chip": "ym2612"
    },
    {
      "channel": 2,
      "note": 77,
      "start": 33.8168,
      "duration": 0.2991,
      "velocity": 97,
      "chip": "ym2612"
    },
    {
      "channel": 3,
      "note": 65,
      "start": 33.8176,
      "duration": 0.0985,
      "velocity": 109,
      "chip": "ym2612"
    },
    {
      "channel": 4,
      "note": 95,
      "start": 33.8207,
      "duration": 0.1994,
      "velocity": 122,
      "chip": "ym2612"
    },
    {
      "channel": 5,
      "note": 84,
      "start": 33.8839,
      "duration": 0.3989,
      "velocity": 106,
      "chip": "ym2612"
    },
    {
      "channel": 3,
      "note": 65,
      "start": 33.9165,
      "duration": 0.1002,
      "velocity": 109,
      "chip": "ym2612"
    },
    {
      "channel": 0,
      "note": 80,
      "start": 34.0156,
      "duration": 0.3994,
      "velocity": 112,
      "chip": "ym2612"
    },
    {
      "channel": 3,
      "note": 53,
      "start": 34.0173,
      "duration": 0.1987,
      "velocity": 109,
      "chip": "ym2612"
    },
    {
      "channel": 4,
      "note": 49,
      "start": 34.0205,
      "duration": 0.1986,
      "velocity": 111,
      "chip": "ym2612"
    },
    {
      "channel": 1,
      "note": 80,
      "start": 34.1158,
      "duration": 0.0996,
      "velocity": 97,
      "chip": "ym2612"
    },
    {
      "channel": 2,
      "note": 77,
      "start": 34.1163,
      "duration": 0.0994,
      "velocity": 97,
      "chip": "ym2612"
    },
    {
      "channel": 3,
      "note": 65,
      "start": 34.2166,
      "duration": 0.0989,
      "velocity": 109,
      "chip": "ym2612"
    },
    {
      "channel": 4,
      "note": 95,
      "start": 34.2197,
      "duration": 0.2011,
      "velocity": 127,
      "chip": "ym2612"
    },
    {
      "channel": 5,
      "note": 80,
      "start": 34.2834,
      "duration": 0.4,
      "velocity": 106,
      "chip": "ym2612"
    },
    {
      "channel": 3,
      "note": 65,
      "start": 34.316,
      "duration": 0.1013,
      "velocity": 109,
      "chip": "ym2612"
    },
    {
      "channel": 0,
      "note": 89,
      "start": 34.4156,
      "duration": 0.2994,
      "velocity": 112,
      "chip": "ym2612"
    },
    {
      "channel": 1,
      "note": 80,
      "start": 34.4164,
      "duration": 0.2994,
      "velocity": 97,
      "chip": "ym2612"
    },
    {
      "channel": 2,
      "note": 77,
      "start": 34.4172,
      "duration": 0.2992,
      "velocity": 97,
      "chip": "ym2612"
    },
    {
      "channel": 3,
      "note": 53,
      "start": 34.418,
      "duration": 0.1982,
      "velocity": 109,
      "chip": "ym2612"
    },
    {
      "channel": 4,
      "note": 53,
      "start": 34.4215,
      "duration": 0.1979,
      "velocity": 111,
      "chip": "ym2612"
    },
    {
      "channel": 3,
      "note": 65,
      "start": 34.6168,
      "duration": 0.1001,
      "velocity": 109,
      "chip": "ym2612"
    },
    {
      "channel": 4,
      "note": 95,
      "start": 34.62,
      "duration": 0.1994,
      "velocity": 122,
      "chip": "ym2612"
    },
    {
      "channel": 5,
      "note": 89,
      "start": 34.6841,
      "duration": 0.2987,
      "velocity": 106,
      "chip": "ym2612"
    },
    {
      "channel": 0,
      "note": 84,
      "start": 34.7156,
      "duration": 0.2994,
      "velocity": 112,
      "chip": "ym2612"
    },
    {
      "channel": 1,
      "note": 80,
      "start": 34.7162,
      "duration": 0.0991,
      "velocity": 97,
      "chip": "ym2612"
    },
    {
      "channel": 2,
      "note": 77,
      "start": 34.7168,
      "duration": 0.0987,
      "velocity": 97,
      "chip": "ym2612"
    },
    {
      "channel": 3,
      "note": 65,
      "start": 34.7175,
      "duration": 0.0985,
      "velocity": 109,
      "chip": "ym2612"
    },
    {
      "channel": 3,
      "note": 53,
      "start": 34.8166,
      "duration": 0.2007,
      "velocity": 109,
      "chip": "ym2612"
    },
    {
      "channel": 4,
      "note": 49,
      "start": 34.8199,
      "duration": 0.2006,
      "velocity": 111,
      "chip": "ym2612"
    },
    {
      "channel": 5,
      "note": 84,
      "start": 34.9834,
      "duration": 0.2994,
      "velocity": 106,
      "chip": "ym2612"
    },
    {
      "channel": 0,
      "note": 89,
      "start": 35.0156,
      "duration": 0.1994,
      "velocity": 112,
      "chip": "ym2612"
    },
    {
      "channel": 1,
      "note": 80,
      "start": 35.0164,
      "duration": 0.1996,
      "velocity": 97,
      "chip": "ym2612"
    },
    {
      "channel": 2,
      "note": 77,
      "start": 35.0172,
      "duration": 0.1994,
      "velocity": 97,
      "chip": "ym2612"
    },
    {
      "channel": 3,
      "note": 65,
      "start": 35.0179,
      "duration": 0.098,
      "velocity": 109,
      "chip": "ym2612"
    },
    {
      "channel": 4,
      "note": 95,
      "start": 35.021,
      "duration": 0.1994,
      "velocity": 127,
      "chip": "ym2612"
    },
    {
      "channel": 3,
      "note": 65,
      "start": 35.1164,
      "duration": 0.1006,
      "velocity": 109,
      "chip": "ym2612"
    },
    {
      "channel": 0,
      "note": 90,
      "start": 35.2156,
      "duration": 0.3994,
      "velocity": 112,
      "chip": "ym2612"
    },
    {
      "channel": 3,
      "note": 54,
      "start": 35.2176,
      "duration": 0.1993,
      "velocity": 109,
      "chip": "ym2612"
    },
    {
      "channel": 4,
      "note": 53,
      "start": 35.2212,
      "duration": 0.1989,
      "velocity": 111,
      "chip": "ym2612"
    },
    {
      "channel": 5,
      "note": 89,
      "start": 35.2834,
      "duration": 0.1998,
      "velocity": 106,
      "chip": "ym2612"
    },
    {
      "channel": 1,
      "note": 82,
      "start": 35.416,
      "duration": 0.2993,
      "velocity": 97,
      "chip": "ym2612"
    },
    {
      "channel": 2,
      "note": 78,
      "start": 35.4168,
      "duration": 0.2991,
      "velocity": 97,
      "chip": "ym2612"
    },
    {
      "channel": 3,
      "note": 66,
      "start": 35.4176,
      "duration": 0.0985,
      "velocity": 109,
      "chip": "ym2612"
    },
    {
      "channel": 4,
      "note": 95,
      "start": 35.4207,
      "duration": 0.1994,
      "velocity": 122,
      "chip": "ym2612"
    },
    {
      "channel": 5,
      "note": 90,
      "start": 35.4839,
      "duration": 0.3989,
      "velocity": 106,
      "chip": "ym2612"
    },
    {
      "channel": 3,
      "note": 66,
      "start": 35.5165,
      "duration": 0.1002,
      "velocity": 109,
      "chip": "ym2612"
    },
    {
      "channel": 0,
      "note": 90,
      "start": 35.6156,
      "duration": 0.2994,
      "velocity": 112,
      "chip": "ym2612"
    },
    {
      "channel": 3,
      "note": 54,
      "start": 35.6173,
      "duration": 0.1987,
      "velocity": 109,
      "chip": "ym2612"
    },
    {
      "channel": 4,
      "note": 49,
      "start": 35.6206,
      "duration": 0.1985,
      "velocity": 111,
      "chip": "ym2612"
    },
    {
      "channel": 1,
      "note": 82,
      "start": 35.7158,
      "duration": 0.0996,
      "velocity": 97,
      "chip": "ym2612"
    },
    {
      "channel": 2,
      "note": 78,
      "start": 35.7163,
      "duration": 0.0994,
      "velocity": 97,
      "chip": "ym2612"
    },
    {
      "channel": 3,
      "note": 66,
      "start": 35.8166,
      "duration": 0.0993,
      "velocity": 109,
      "chip": "ym2612"
    },
    {
      "channel": 4,
      "note": 95,
      "start": 35.8197,
      "duration": 0.2006,
      "velocity": 127,
      "chip": "ym2612"
    },
    {
      "channel": 5,
      "note": 90,
      "start": 35.8834,
      "duration": 0.2999,
      "velocity": 106,
      "chip": "ym2612"
    },
    {
      "channel": 0,
      "note": 92,
      "start": 35.9156,
      "duration": 0.2994,
      "velocity": 112,
      "chip": "ym2612"
    },
    {
      "channel": 3,
      "note": 66,
      "start": 35.9164,
      "duration": 0.1005,
      "velocity": 109,
      "chip": "ym2612"
    },
    {
      "channel": 1,
      "note": 82,
      "start": 36.016,
      "duration": 0.2994,
      "velocity": 97,
      "chip": "ym2612"
    },
    {
      "channel": 2,
      "note": 78,
      "start": 36.0167,
      "duration": 0.2992,
      "velocity": 97,
      "chip": "ym2612"
    },
    {
      "channel": 3,
      "note": 54,
      "start": 36.0176,
      "duration": 0.199,
      "velocity": 109,
      "chip": "ym2612"
    },
    {
      "channel": 4,
      "note": 53,
      "start": 36.021,
      "duration": 0.1987,
      "velocity": 111,
      "chip": "ym2612"
    },
    {
      "channel": 5,
      "note": 92,
      "start": 36.184,
      "duration": 0.2987,
      "velocity": 106,
      "chip": "ym2612"
    },
    {
      "channel": 0,
      "note": 90,
      "start": 36.2156,
      "duration": 0.1994,
      "velocity": 112,
      "chip": "ym2612"
    },
    {
      "channel": 3,
      "note": 66,
      "start": 36.2172,
      "duration": 0.0993,
      "velocity": 109,
      "chip": "ym2612"
    },
    {
      "channel": 4,
      "note": 95,
      "start": 36.2203,
      "duration": 0.1995,
      "velocity": 122,
      "chip": "ym2612"
    },
    {
      "channel": 1,
      "note": 82,
      "start": 36.3158,
      "duration": 0.1,
      "velocity": 97,
      "chip": "ym2612"
    },
    {
      "channel": 2,
      "note": 78,
      "start": 36.3163,
      "duration": 0.0997,
      "velocity": 97,
      "chip": "ym2612"
    },
    {
      "channel": 3,
      "note": 66,
      "start": 36.317,
      "duration": 0.0995,
      "velocity": 109,
      "chip": "ym2612"
    },
    {
      "channel": 0,
      "note": 92,
      "start": 36.4156,
      "duration": 0.1994,
      "velocity": 112,
      "chip": "ym2612"
    },
    {
      "channel": 3,
      "note": 54,
      "start": 36.4171,
      "duration": 0.2003,
      "velocity": 109,
      "chip": "ym2612"
    },
    {
      "channel": 4,
      "note": 49,
      "start": 36.4203,
      "duration": 0.2002,
      "velocity": 111,
      "chip": "ym2612"
    },
    {
      "channel": 5,
      "note": 90,
      "start": 36.4833,
      "duration": 0.1999,
      "velocity": 106,
      "chip": "ym2612"
    },
    {
      "channel": 0,
      "note": 94,
      "start": 36.6156,
      "duration": 0.1994,
      "velocity": 112,
      "chip": "ym2612"
    },
    {
      "channel": 1,
      "note": 82,
      "start": 36.6164,
      "duration": 0.1994,
      "velocity": 97,
      "chip": "ym2612"
    },
    {
      "channel": 2,
      "note": 78,
      "start": 36.6172,
      "duration": 0.1991,
      "velocity": 97,
      "chip": "ym2612"
    },
    {
      "channel": 3,
      "note": 66,
      "start": 36.618,
      "duration": 0.0979,
      "velocity": 109,
      "chip": "ym2612"
    },
    {
      "channel": 4,
      "note": 95,
      "start": 36.6211,
      "duration": 0.199,
      "velocity": 122,
      "chip": "ym2612"
    },
    {
      "channel": 5,
      "note": 92,
      "start": 36.6838,
      "duration": 0.1989,
      "velocity": 106,
      "chip": "ym2612"
    },
    {
      "channel": 3,
      "note": 66,
      "start": 36.7164,
      "duration": 0.1003,
      "velocity": 109,
      "chip": "ym2612"
    },
    {
      "channel": 0,
      "note": 96,
      "start": 36.8156,
      "duration": 0.0994,
      "velocity": 112,
      "chip": "ym2612"
    },
    {
      "channel": 3,
      "note": 56,
      "start": 36.8172,
      "duration": 0.2001,
      "velocity": 109,
      "chip": "ym2612"
    },
    {
      "channel": 4,
      "note": 49,
      "start": 36.8207,
      "duration": 0.0959,
      "velocity": 122,
      "chip": "ym2612"
    },
    {
      "channel": 5,
      "note": 94,
      "start": 36.8834,
      "duration": 0.1998,
      "velocity": 106,
      "chip": "ym2612"
    },
    {
      "channel": 0,
      "note": 94,
      "start": 36.9156,
      "duration": 0.0994,
      "velocity": 112,
      "chip": "ym2612"
    },
    {
      "channel": 4,
      "note": 49,
      "start": 36.917,
      "duration": 0.1011,
      "velocity": 122,
      "chip": "ym2612"
    },
    {
      "channel": 0,
      "note": 92,
      "start": 37.0156,
      "duration": 0.0994,
      "velocity": 112,
      "chip": "ym2612"
    },
    {
      "channel": 1,
      "note": 84,
      "start": 37.0164,
      "duration": 0.2994,
      "velocity": 97,
      "chip": "ym2612"
    },
    {
      "channel": 2,
      "note": 80,
      "start": 37.0172,
      "duration": 0.2992,
      "velocity": 97,
      "chip": "ym2612"
    },
    {
      "channel": 3,
      "note": 68,
      "start": 37.0179,
      "duration": 0.0985,
      "velocity": 109,
      "chip": "ym2612"
    },
    {
      "channel": 4,
      "note": 49,
      "start": 37.0184,
      "duration": 0.0985,
      "velocity": 122,
      "chip": "ym2612"
    },
    {
      "channel": 5,
      "note": 96,
      "start": 37.0838,
      "duration": 0.0994,
      "velocity": 106,
      "chip": "ym2612"
    },
    {
      "channel": 0,
      "note": 96,
      "start": 37.1156,
      "duration": 0.0994,
      "velocity": 112,
      "chip": "ym2612"
    },
    {
      "channel": 3,
      "note": 68,
      "start": 37.1168,
      "duration": 0.0998,
      "velocity": 109,
      "chip": "ym2612"
    },
    {
      "channel": 4,
      "note": 49,
      "start": 37.1174,
      "duration": 0.1028,
      "velocity": 122,
      "chip": "ym2612"
    },
    {
      "channel": 5,
      "note": 94,
      "start": 37.1838,
      "duration": 0.0995,
      "velocity": 106,
      "chip": "ym2612"
    },
    {
      "channel": 0,
      "note": 94,
      "start": 37.2156,
      "duration": 0.0994,
      "velocity": 112,
      "chip": "ym2612"
    },
    {
      "channel": 3,
      "note": 56,
      "start": 37.2172,
      "duration": 0.1991,
      "velocity": 109,
      "chip": "ym2612"
    },
    {
      "channel": 4,
      "note": 49,
      "start": 37.2208,
      "duration": 0.0969,
      "velocity": 122,
      "chip": "ym2612"
    },
    {
      "channel": 5,
      "note": 92,
      "start": 37.284,
      "duration": 0.0992,
      "velocity": 106,
      "chip": "ym2612"
    },
    {
      "channel": 0,
      "note": 92,
      "start": 37.3156,
      "duration": 0.0994,
      "velocity": 112,
      "chip": "ym2612"
    },
    {
      "channel": 1,
      "note": 84,
      "start": 37.3162,
      "duration": 0.0995,
      "velocity": 97,
      "chip": "ym2612"
    },
    {
      "channel": 2,
      "note": 80,
      "start": 37.3168,
      "duration": 0.0992,
      "velocity": 97,
      "chip": "ym2612"
    },
    {
      "channel": 4,
      "note": 49,
      "start": 37.318,
      "duration": 0.099,
      "velocity": 122,
      "chip": "ym2612"
    },
    {
      "channel": 5,
      "note": 96,
      "start": 37.3838,
      "duration": 0.0989,
      "velocity": 106,
      "chip": "ym2612"
    },
    {
      "channel": 0,
      "note": 96,
      "start": 37.4156,
      "duration": 0.0994,
      "velocity": 112,
      "chip": "ym2612"
    },
    {
      "channel": 3,
      "note": 68,
      "start": 37.417,
      "duration": 0.1003,
      "velocity": 109,
      "chip": "ym2612"
    },
    {
      "channel": 4,
      "note": 49,
      "start": 37.4175,
      "duration": 0.1005,
      "velocity": 122,
      "chip": "ym2612"
    },
    {
      "channel": 5,
      "note": 94,
      "start": 37.4834,
      "duration": 0.0998,
      "velocity": 106,
      "chip": "ym2612"
    },
    {
      "channel": 0,
      "note": 92,
      "start": 37.5156,
      "duration": 0.0994,
      "velocity": 112,
      "chip": "ym2612"
    },
    {
      "channel": 1,
      "note": 84,
      "start": 37.5164,
      "duration": 0.0994,
      "velocity": 97,
      "chip": "ym2612"
    },
    {
      "channel": 2,
      "note": 80,
      "start": 37.5172,
      "duration": 0.0994,
      "velocity": 97,
      "chip": "ym2612"
    },
    {
      "channel": 3,
      "note": 68,
      "start": 37.5178,
      "duration": 0.0996,
      "velocity": 109,
      "chip": "ym2612"
    },
    {
      "channel": 4,
      "note": 49,
      "start": 37.5183,
      "duration": 0.1027,
      "velocity": 122,
      "chip": "ym2612"
    },
    {
      "channel": 5,
      "note": 92,
      "start": 37.5838,
      "duration": 0.0994,
      "velocity": 106,
      "chip": "ym2612"
    },
    {
      "channel": 0,
      "note": 94,
      "start": 37.6156,
      "duration": 0.3994,
      "velocity": 112,
      "chip": "ym2612"
    },
    {
      "channel": 1,
      "note": 85,
      "start": 37.6164,
      "duration": 0.199,
      "velocity": 97,
      "chip": "ym2612"
    },
    {
      "channel": 2,
      "note": 78,
      "start": 37.6172,
      "duration": 0.199,
      "velocity": 97,
      "chip": "ym2612"
    },
    {
      "channel": 3,
      "note": 54,
      "start": 37.6179,
      "duration": 0.199,
      "velocity": 109,
      "chip": "ym2612"
    },
    {
      "channel": 4,
      "note": 49,
      "start": 37.6216,
      "duration": 0.095,
      "velocity": 122,
      "chip": "ym2612"
    },
    {
      "channel": 5,
      "note": 96,
      "start": 37.6838,
      "duration": 0.0994,
      "velocity": 106,
      "chip": "ym2612"
    },
    {
      "channel": 4,
      "note": 49,
      "start": 37.717,
      "duration": 0.1007,
      "velocity": 122,
      "chip": "ym2612"
    },
    {
      "channel": 5,
      "note": 92,
      "start": 37.7838,
      "duration": 0.0994,
      "velocity": 106,
      "chip": "ym2612"
    },
    {
      "channel": 1,
      "note": 85,
      "start": 37.816,
      "duration": 0.1997,
      "velocity": 97,
      "chip": "ym2612"
    },
    {
      "channel": 2,
      "note": 78,
      "start": 37.8168,
      "duration": 0.1998,
      "velocity": 97,
      "chip": "ym2612"
    },
    {
      "channel": 3,
      "note": 66,
      "start": 37.8176,
      "duration": 0.1998,
      "velocity": 109,
      "chip": "ym2612"
    },
    {
      "channel": 4,
      "note": 49,
      "start": 37.818,
      "duration": 0.0983,
      "velocity": 122,
      "chip": "ym2612"
    },
    {
      "channel": 5,
      "note": 94,
      "start": 37.884,
      "duration": 0.3993,
      "velocity": 106,
      "chip": "ym2612"
    },
    {
      "channel": 4,
      "note": 49,
      "start": 37.9167,
      "duration": 0.1043,
      "velocity": 122,
      "chip": "ym2612"
    },
    {
      "channel": 0,
      "note": 96,
      "start": 38.0156,
      "duration": 0.3995,
      "velocity": 112,
      "chip": "ym2612"
    },
    {
      "channel": 1,
      "note": 84,
      "start": 38.0164,
      "duration": 0.199,
      "velocity": 97,
      "chip": "ym2612"
    },
    {
      "channel": 2,
      "note": 77,
      "start": 38.0172,
      "duration": 0.199,
      "velocity": 97,
      "chip": "ym2612"
    },
    {
      "channel": 3,
      "note": 53,
      "start": 38.0179,
      "duration": 0.199,
      "velocity": 109,
      "chip": "ym2612"
    },
    {
      "channel": 4,
      "note": 49,
      "start": 38.0215,
      "duration": 0.0951,
      "velocity": 122,
      "chip": "ym2612"
    },
    {
      "channel": 4,
      "note": 49,
      "start": 38.117,
      "duration": 0.1007,
      "velocity": 122,
      "chip": "ym2612"
    },
    {
      "channel": 1,
      "note": 84,
      "start": 38.216,
      "duration": 0.2001,
      "velocity": 97,
      "chip": "ym2612"
    },
    {
      "channel": 2,
      "note": 77,
      "start": 38.2168,
      "duration": 0.1998,
      "velocity": 97,
      "chip": "ym2612"
    },
    {
      "channel": 3,
      "note": 65,
      "start": 38.2176,
      "duration": 0.2018,
      "velocity": 108,
      "chip": "ym2612"
    },
    {
      "channel": 4,
      "note": 49,
      "start": 38.218,
      "duration": 0.0983,
      "velocity": 122,
      "chip": "ym2612"
    },
    {
      "channel": 5,
      "note": 96,
      "start": 38.284,
      "duration": 0.3987,
      "velocity": 106,
      "chip": "ym2612"
    },
    {
      "channel": 4,
      "note": 49,
      "start": 38.3167,
      "duration": 0.1062,
      "velocity": 127,
      "chip": "ym2612"
    },
    {
      "channel": 0,
      "note": 97,
      "start": 38.4158,
      "duration": 0.7992,
      "velocity": 112,
      "chip": "ym2612"
    },
    {
      "channel": 4,
      "note": 53,
      "start": 38.4236,
      "duration": 0.1944,
      "velocity": 111,
      "chip": "ym2612"
    },
    {
      "channel": 4,
      "note": 95,
      "start": 38.6186,
      "duration": 0.204,
      "velocity": 122,
      "chip": "ym2612"
    },
    {
      "channel": 5,
      "note": 97,
      "start": 38.6834,
      "duration": 0.8001,
      "velocity": 106,
      "chip": "ym2612"
    },
    {
      "channel": 1,
      "note": 82,
      "start": 38.816,
      "duration": 0.3997,
      "velocity": 97,
      "chip": "ym2612"
    },
    {
      "channel": 2,
      "note": 78,
      "start": 38.8168,
      "duration": 0.3998,
      "velocity": 97,
      "chip": "ym2612"
    },
    {
      "channel": 3,
      "note": 54,
      "start": 38.8198,
      "duration": 0.3976,
      "velocity": 109,
      "chip": "ym2612"
    },
    {
      "channel": 4,
      "note": 49,
      "start": 38.8231,
      "duration": 0.1959,
      "velocity": 111,
      "chip": "ym2612"
    },
    {
      "channel": 4,
      "note": 95,
      "start": 39.0196,
      "duration": 0.201,
      "velocity": 127,
      "chip": "ym2612"
    },
    {
      "channel": 0,
      "note": 102,
      "start": 39.2156,
      "duration": 0.2994,
      "velocity": 112,
      "chip": "ym2612"
    },
    {
      "channel": 1,
      "note": 82,
      "start": 39.2164,
      "duration": 0.2994,
      "velocity": 97,
      "chip": "ym2612"
    },
    {
      "channel": 2,
      "note": 78,
      "start": 39.2172,
      "duration": 0.2992,
      "velocity": 97,
      "chip": "ym2612"
    },
    {
      "channel": 3,
      "note": 54,
      "start": 39.2178,
      "duration": 0.1984,
      "velocity": 109,
      "chip": "ym2612"
    },
    {
      "channel": 4,
      "note": 53,
      "start": 39.2213,
      "duration": 0.1981,
      "velocity": 111,
      "chip": "ym2612"
    },
    {
      "channel": 3,
      "note": 66,
      "start": 39.4168,
      "duration": 0.1001,
      "velocity": 109,
      "chip": "ym2612"
    },
    {
      "channel": 4,
      "note": 95,
      "start": 39.42,
      "duration": 0.1993,
      "velocity": 122,
      "chip": "ym2612"
    },
    {
      "channel": 5,
      "note": 102,
      "start": 39.4841,
      "duration": 0.2987,
      "velocity": 106,
      "chip": "ym2612"
    },
    {
      "channel": 0,
      "note": 101,
      "start": 39.5156,
      "duration": 0.2994,
      "velocity": 112,
      "chip": "ym2612"
    },
    {
      "channel": 1,
      "note": 82,
      "start": 39.5162,
      "duration": 0.0991,
      "velocity": 97,
      "chip": "ym2612"
    },
    {
      "channel": 2,
      "note": 78,
      "start": 39.5168,
      "duration": 0.0987,
      "velocity": 97,
      "chip": "ym2612"
    },
    {
      "channel": 3,
      "note": 66,
      "start": 39.5175,
      "duration": 0.0984,
      "velocity": 109,
      "chip": "ym2612"
    },
    {
      "channel": 3,
      "note": 54,
      "start": 39.6165,
      "duration": 0.2008,
      "velocity": 109,
      "chip": "ym2612"
    },
    {
      "channel": 4,
      "note": 49,
      "start": 39.6198,
      "duration": 0.2006,
      "velocity": 111,
      "chip": "ym2612"
    },
    {
      "channel": 5,
      "note": 101,
      "start": 39.7834,
      "duration": 0.2994,
      "velocity": 106,
      "chip": "ym2612"
    },
    {
      "channel": 0,
      "note": 99,
      "start": 39.8156,
      "duration": 0.1994,
      "velocity": 112,
      "chip": "ym2612"
    },
    {
      "channel": 1,
      "note": 82,
      "start": 39.8164,
      "duration": 0.1995,
      "velocity": 97,
      "chip": "ym2612"
    },
    {
      "channel": 2,
      "note": 78,
      "start": 39.8172,
      "duration": 0.1991,
      "velocity": 97,
      "chip": "ym2612"
    },
    {
      "channel": 3,
      "note": 66,
      "start": 39.8179,
      "duration": 0.098,
      "velocity": 109,
      "chip": "ym2612"
    },
    {
      "channel": 4,
      "note": 95,
      "start": 39.821,
      "duration": 0.199,
      "velocity": 127,
      "chip": "ym2612"
    },
    {
      "channel": 3,
      "note": 66,
      "start": 39.9164,
      "duration": 0.1002,
      "velocity": 109,
      "chip": "ym2612"
    },
    {
      "channel": 0,
      "note": 101,
      "start": 40.0156,
      "duration": 0.7994,
      "velocity": 112,
      "chip": "ym2612"
    },
    {
      "channel": 3,
      "note": 53,
      "start": 40.0172,
      "duration": 0.1998,
      "velocity": 109,
      "chip": "ym2612"
    },
    {
      "channel": 4,
      "note": 53,
      "start": 40.0208,
      "duration": 0.1993,
      "velocity": 111,
      "chip": "ym2612"
    },
    {
      "channel": 5,
      "note": 99,
      "start": 40.0834,
      "duration": 0.1998,
      "velocity": 106,
      "chip": "ym2612"
    },
    {
      "channel": 1,
      "note": 84,
      "start": 40.216,
      "duration": 0.2994,
      "velocity": 97,
      "chip": "ym2612"
    },
    {
      "channel": 2,
      "note": 80,
      "start": 40.2168,
      "duration": 0.2992,
      "velocity": 97,
      "chip": "ym2612"
    },
    {
      "channel": 3,
      "note": 65,
      "start": 40.2176,
      "duration": 0.0985,
      "velocity": 109,
      "chip": "ym2612"
    },
    {
      "channel": 4,
      "note": 95,
      "start": 40.2207,
      "duration": 0.199,
      "velocity": 122,
      "chip": "ym2612"
    },
    {
      "channel": 5,
      "note": 101,
      "start": 40.284,
      "duration": 0.7995,
      "velocity": 106,
      "chip": "ym2612"
    },
    {
      "channel": 3,
      "note": 65,
      "start": 40.3165,
      "duration": 0.0998,
      "velocity": 109,
      "chip": "ym2612"
    },
    {
      "channel": 3,
      "note": 53,
      "start": 40.4169,
      "duration": 0.199,
      "velocity": 109,
      "chip": "ym2612"
    },
    {
      "channel": 4,
      "note": 49,
      "start": 40.4202,
      "duration": 0.1989,
      "velocity": 111,
      "chip": "ym2612"
    },
    {
      "channel": 1,
      "note": 84,
      "start": 40.5158,
      "duration": 0.0996,
      "velocity": 97,
      "chip": "ym2612"
    },
    {
      "channel": 2,
      "note": 80,
      "start": 40.5165,
      "duration": 0.0993,
      "velocity": 97,
      "chip": "ym2612"
    },
    {
      "channel": 3,
      "note": 65,
      "start": 40.6166,
      "duration": 0.0989,
      "velocity": 109,
      "chip": "ym2612"
    },
    {
      "channel": 4,
      "note": 95,
      "start": 40.6197,
      "duration": 0.201,
      "velocity": 127,
      "chip": "ym2612"
    },
    {
      "channel": 3,
      "note": 65,
      "start": 40.716,
      "duration": 0.1012,
      "velocity": 109,
      "chip": "ym2612"
    },
    {
      "channel": 0,
      "note": 101,
      "start": 40.8154,
      "duration": 0.2996,
      "velocity": 112,
      "chip": "ym2612"
    },
    {
      "channel": 1,
      "note": 84,
      "start": 40.8162,
      "duration": 0.2995,
      "velocity": 97,
      "chip": "ym2612"
    },
    {
      "channel": 2,
      "note": 80,
      "start": 40.817,
      "duration": 0.2994,
      "velocity": 97,
      "chip": "ym2612"
    },
    {
      "channel": 3,
      "note": 53,
      "start": 40.8179,
      "duration": 0.1983,
      "velocity": 109,
      "chip": "ym2612"
    },
    {
      "channel": 4,
      "note": 53,
      "start": 40.8214,
      "duration": 0.198,
      "velocity": 111,
      "chip": "ym2612"
    },
    {
      "channel": 3,
      "note": 65,
      "start": 41.0168,
      "duration": 0.1001,
      "velocity": 109,
      "chip": "ym2612"
    },
    {
      "channel": 4,
      "note": 95,
      "start": 41.02,
      "duration": 0.1994,
      "velocity": 122,
      "chip": "ym2612"
    },
    {
      "channel": 5,
      "note": 101,
      "start": 41.084,
      "duration": 0.2988,
      "velocity": 106,
      "chip": "ym2612"
    },
    {
      "channel": 0,
      "note": 102,
      "start": 41.1156,
      "duration": 0.2994,
      "velocity": 112,
      "chip": "ym2612"
    },
    {
      "channel": 1,
      "note": 84,
      "start": 41.1162,
      "duration": 0.0991,
      "velocity": 97,
      "chip": "ym2612"
    },
    {
      "channel": 2,
      "note": 80,
      "start": 41.1168,
      "duration": 0.0987,
      "velocity": 97,
      "chip": "ym2612"
    },
    {
      "channel": 3,
      "note": 65,
      "start": 41.1175,
      "duration": 0.0985,
      "velocity": 109,
      "chip": "ym2612"
    },
    {
      "channel": 3,
      "note": 53,
      "start": 41.2166,
      "duration": 0.2008,
      "velocity": 109,
      "chip": "ym2612"
    },
    {
      "channel": 4,
      "note": 49,
      "start": 41.2199,
      "duration": 0.2006,
      "velocity": 111,
      "chip": "ym2612"
    },
    {
      "channel": 5,
      "note": 102,
      "start": 41.3834,
      "duration": 0.2994,
      "velocity": 106,
      "chip": "ym2612"
    },
    {
      "channel": 0,
      "note": 104,
      "start": 41.4156,
      "duration": 0.1994,
      "velocity": 112,
      "chip": "ym2612"
    },
    {
      "channel": 1,
      "note": 84,
      "start": 41.4164,
      "duration": 0.1996,
      "velocity": 97,
      "chip": "ym2612"
    },
    {
      "channel": 2,
      "note": 80,
      "start": 41.4172,
      "duration": 0.1993,
      "velocity": 97,
      "chip": "ym2612"
    },
    {
      "channel": 3,
      "note": 65,
      "start": 41.418,
      "duration": 0.0979,
      "velocity": 109,
      "chip": "ym2612"
    },
    {
      "channel": 4,
      "note": 95,
      "start": 41.4211,
      "duration": 0.1992,
      "velocity": 127,
      "chip": "ym2612"
    },
    {
      "channel": 3,
      "note": 65,
      "start": 41.5164,
      "duration": 0.1005,
      "velocity": 109,
      "chip": "ym2612"
    },
    {
      "channel": 0,
      "note": 102,
      "start": 41.6156,
      "duration": 0.7994,
      "velocity": 112,
      "chip": "ym2612"
    },
    {
      "channel": 3,
      "note": 51,
      "start": 41.6175,
      "duration": 0.1994,
      "velocity": 109,
      "chip": "ym2612"
    },
    {
      "channel": 4,
      "note": 53,
      "start": 41.621,
      "duration": 0.199,
      "velocity": 111,
      "chip": "ym2612"
    },
    {
      "channel": 5,
      "note": 104,
      "start": 41.6834,
      "duration": 0.1998,
      "velocity": 106,
      "chip": "ym2612"
    },
    {
      "channel": 1,
      "note": 82,
      "start": 41.816,
      "duration": 0.2994,
      "velocity": 97,
      "chip": "ym2612"
    },
    {
      "channel": 2,
      "note": 78,
      "start": 41.8168,
      "duration": 0.2992,
      "velocity": 97,
      "chip": "ym2612"
    },
    {
      "channel": 3,
      "note": 63,
      "start": 41.8176,
      "duration": 0.0985,
      "velocity": 109,
      "chip": "ym2612"
    },
    {
      "channel": 4,
      "note": 95,
      "start": 41.8207,
      "duration": 0.199,
      "velocity": 122,
      "chip": "ym2612"
    },
    {
      "channel": 5,
      "note": 102,
      "start": 41.884,
      "duration": 0.7995,
      "velocity": 106,
      "chip": "ym2612"
    },
    {
      "channel": 3,
      "note": 63,
      "start": 41.9165,
      "duration": 0.0998,
      "velocity": 109,
      "chip": "ym2612"
    },
    {
      "channel": 3,
      "note": 51,
      "start": 42.0169,
      "duration": 0.199,
      "velocity": 109,
      "chip": "ym2612"
    },
    {
      "channel": 4,
      "note": 49,
      "start": 42.0202,
      "duration": 0.1989,
      "velocity": 111,
      "chip": "ym2612"
    },
    {
      "channel": 1,
      "note": 82,
      "start": 42.1158,
      "duration": 0.0996,
      "velocity": 97,
      "chip": "ym2612"
    },
    {
      "channel": 2,
      "note": 78,
      "start": 42.1165,
      "duration": 0.0993,
      "velocity": 97,
      "chip": "ym2612"
    },
    {
      "channel": 3,
      "note": 63,
      "start": 42.2166,
      "duration": 0.0989,
      "velocity": 109,
      "chip": "ym2612"
    },
    {
      "channel": 4,
      "note": 95,
      "start": 42.2197,
      "duration": 0.2012,
      "velocity": 127,
      "chip": "ym2612"
    },
    {
      "channel": 3,
      "note": 63,
      "start": 42.316,
      "duration": 0.1014,
      "velocity": 109,
      "chip": "ym2612"
    },
    {
      "channel": 0,
      "note": 94,
      "start": 42.4156,
      "duration": 0.7994,
      "velocity": 112,
      "chip": "ym2612"
    },
    {
      "channel": 1,
      "note": 82,
      "start": 42.4164,
      "duration": 0.299,
      "velocity": 97,
      "chip": "ym2612"
    },
    {
      "channel": 2,
      "note": 78,
      "start": 42.4172,
      "duration": 0.2988,
      "velocity": 97,
      "chip": "ym2612"
    },
    {
      "channel": 3,
      "note": 51,
      "start": 42.418,
      "duration": 0.1982,
      "velocity": 109,
      "chip": "ym2612"
    },
    {
      "channel": 4,
      "note": 53,
      "start": 42.4216,
      "duration": 0.1978,
      "velocity": 111,
      "chip": "ym2612"
    },
    {
      "channel": 3,
      "note": 63,
      "start": 42.6168,
      "duration": 0.0998,
      "velocity": 109,
      "chip": "ym2612"
    },
    {
      "channel": 4,
      "note": 95,
      "start": 42.62,
      "duration": 0.1995,
      "velocity": 122,
      "chip": "ym2612"
    },
    {
      "channel": 5,
      "note": 94,
      "start": 42.6841,
      "duration": 0.7991,
      "velocity": 106,
      "chip": "ym2612"
    },
    {
      "channel": 1,
      "note": 82,
      "start": 42.7158,
      "duration": 0.0996,
      "velocity": 97,
      "chip": "ym2612"
    },
    {
      "channel": 2,
      "note": 78,
      "start": 42.7165,
      "duration": 0.0993,
      "velocity": 97,
      "chip": "ym2612"
    },
    {
      "channel": 3,
      "note": 63,
      "start": 42.7171,
      "duration": 0.099,
      "velocity": 109,
      "chip": "ym2612"
    },
    {
      "channel": 3,
      "note": 51,
      "start": 42.8167,
      "duration": 0.2002,
      "velocity": 109,
      "chip": "ym2612"
    },
    {
      "channel": 4,
      "note": 49,
      "start": 42.82,
      "duration": 0.2001,
      "velocity": 111,
      "chip": "ym2612"
    },
    {
      "channel": 1,
      "note": 82,
      "start": 43.016,
      "duration": 0.1999,
      "velocity": 97,
      "chip": "ym2612"
    },
    {
      "channel": 2,
      "note": 78,
      "start": 43.0168,
      "duration": 0.1997,
      "velocity": 97,
      "chip": "ym2612"
    },
    {
      "channel": 3,
      "note": 63,
      "start": 43.0176,
      "duration": 0.0985,
      "velocity": 109,
      "chip": "ym2612"
    },
    {
      "channel": 4,
      "note": 95,
      "start": 43.0207,
      "duration": 0.1999,
      "velocity": 127,
      "chip": "ym2612"
    },
    {
      "channel": 3,
      "note": 63,
      "start": 43.1165,
      "duration": 0.1004,
      "velocity": 109,
      "chip": "ym2612"
    },
    {
      "channel": 0,
      "note": 96,
      "start": 43.2156,
      "duration": 1.1994,
      "velocity": 112,
      "chip": "ym2612"
    },
    {
      "channel": 3,
      "note": 56,
      "start": 43.2175,
      "duration": 0.1994,
      "velocity": 109,
      "chip": "ym2612"
    },
    {
      "channel": 4,
      "note": 53,
      "start": 43.2212,
      "duration": 0.1988,
      "velocity": 111,
      "chip": "ym2612"
    },
    {
      "channel": 1,
      "note": 80,
      "start": 43.416,
      "duration": 0.2994,
      "velocity": 97,
      "chip": "ym2612"
    },
    {
      "channel": 2,
      "note": 75,
      "start": 43.4168,
      "duration": 0.2992,
      "velocity": 97,
      "chip": "ym2612"
    },
    {
      "channel": 3,
      "note": 68,
      "start": 43.4176,
      "duration": 0.0985,
      "velocity": 109,
      "chip": "ym2612"
    },
    {
      "channel": 4,
      "note": 95,
      "start": 43.4207,
      "duration": 0.199,
      "velocity": 122,
      "chip": "ym2612"
    },
    {
      "channel": 5,
      "note": 96,
      "start": 43.484,
      "duration": 1.1992,
      "velocity": 106,
      "chip": "ym2612"
    },
    {
      "channel": 3,
      "note": 68,
      "start": 43.5165,
      "duration": 0.0998,
      "velocity": 109,
      "chip": "ym2612"
    },
    {
      "channel": 3,
      "note": 56,
      "start": 43.6169,
      "duration": 0.199,
      "velocity": 109,
      "chip": "ym2612"
    },
    {
      "channel": 4,
      "note": 49,
      "start": 43.6202,
      "duration": 0.1989,
      "velocity": 111,
      "chip": "ym2612"
    },
    {
      "channel": 1,
      "note": 80,
      "start": 43.7158,
      "duration": 0.0996,
      "velocity": 97,
      "chip": "ym2612"
    },
    {
      "channel": 2,
      "note": 75,
      "start": 43.7165,
      "duration": 0.0993,
      "velocity": 97,
      "chip": "ym2612"
    },
    {
      "channel": 3,
      "note": 68,
      "start": 43.8166,
      "duration": 0.0989,
      "velocity": 109,
      "chip": "ym2612"
    },
    {
      "channel": 4,
      "note": 95,
      "start": 43.8197,
      "duration": 0.2006,
      "velocity": 122,
      "chip": "ym2612"
    },
    {
      "channel": 3,
      "note": 68,
      "start": 43.916,
      "duration": 0.101,
      "velocity": 109,
      "chip": "ym2612"
    },
    {
      "channel": 1,
      "note": 80,
      "start": 44.016,
      "duration": 0.2994,
      "velocity": 97,
      "chip": "ym2612"
    },
    {
      "channel": 2,
      "note": 75,
      "start": 44.0168,
      "duration": 0.2992,
      "velocity": 97,
      "chip": "ym2612"
    },
    {
      "channel": 3,
      "note": 56,
      "start": 44.0176,
      "duration": 0.1986,
      "velocity": 109,
      "chip": "ym2612"
    },
    {
      "channel": 4,
      "note": 49,
      "start": 44.0208,
      "duration": 0.3964,
      "velocity": 122,
      "chip": "ym2612"
    },
    {
      "channel": 3,
      "note": 68,
      "start": 44.2168,
      "duration": 0.0998,
      "velocity": 109,
      "chip": "ym2612"
    },
    {
      "channel": 1,
      "note": 80,
      "start": 44.3158,
      "duration": 0.0999,
      "velocity": 97,
      "chip": "ym2612"
    },
    {
      "channel": 2,
      "note": 75,
      "start": 44.3165,
      "duration": 0.0996,
      "velocity": 97,
      "chip": "ym2612"
    },
    {
      "channel": 3,
      "note": 68,
      "start": 44.3171,
      "duration": 0.0994,
      "velocity": 109,
      "chip": "ym2612"
    },
    {
      "channel": 0,
      "note": 94,
      "start": 44.4156,
      "duration": 0.1994,
      "velocity": 112,
      "chip": "ym2612"
    },
    {
      "channel": 3,
      "note": 56,
      "start": 44.4171,
      "duration": 0.2002,
      "velocity": 109,
      "chip": "ym2612"
    },
    {
      "channel": 4,
      "note": 49,
      "start": 44.4176,
      "duration": 0.0985,
      "velocity": 122,
      "chip": "ym2612"
    },
    {
      "channel": 4,
      "note": 49,
      "start": 44.5165,
      "duration": 0.1015,
      "velocity": 122,
      "chip": "ym2612"
    },
    {
      "channel": 0,
      "note": 96,
      "start": 44.6156,
      "duration": 0.1994,
      "velocity": 112,
      "chip": "ym2612"
    },
    {
      "channel": 1,
      "note": 80,
      "start": 44.6164,
      "duration": 0.1996,
      "velocity": 97,
      "chip": "ym2612"
    },
    {
      "channel": 2,
      "note": 75,
      "start": 44.6172,
      "duration": 0.1993,
      "velocity": 97,
      "chip": "ym2612"
    },
    {
      "channel": 3,
      "note": 68,
      "start": 44.6179,
      "duration": 0.098,
      "velocity": 109,
      "chip": "ym2612"
    },
    {
      "channel": 4,
      "note": 49,
      "start": 44.6184,
      "duration": 0.0981,
      "velocity": 122,
      "chip": "ym2612"
    },
    {
      "channel": 5,
      "note": 94,
      "start": 44.6838,
      "duration": 0.199,
      "velocity": 106,
      "chip": "ym2612"
    },
    {
      "channel": 3,
      "note": 68,
      "start": 44.7164,
      "duration": 0.1005,
      "velocity": 109,
      "chip": "ym2612"
    },
    {
      "channel": 4,
      "note": 49,
      "start": 44.7169,
      "duration": 0.1038,
      "velocity": 127,
      "chip": "ym2612"
    },
    {
      "channel": 0,
      "note": 97,
      "start": 44.8156,
      "duration": 0.2994,
      "velocity": 112,
      "chip": "ym2612"
    },
    {
      "channel": 3,
      "note": 54,
      "start": 44.8175,
      "duration": 0.1994,
      "velocity": 109,
      "chip": "ym2612"
    },
    {
      "channel": 4,
      "note": 53,
      "start": 44.8214,
      "duration": 0.1987,
      "velocity": 111,
      "chip": "ym2612"
    },
    {
      "channel": 5,
      "note": 96,
      "start": 44.8834,
      "duration": 0.1998,
      "velocity": 106,
      "chip": "ym2612"
    },
    {
      "channel": 1,
      "note": 82,
      "start": 45.016,
      "duration": 0.2994,
      "velocity": 97,
      "chip": "ym2612"
    },
    {
      "channel": 2,
      "note": 78,
      "start": 45.0168,
      "duration": 0.2992,
      "velocity": 97,
      "chip": "ym2612"
    },
    {
      "channel": 3,
      "note": 66,
      "start": 45.0176,
      "duration": 0.0988,
      "velocity": 109,
      "chip": "ym2612"
    },
    {
      "channel": 4,
      "note": 95,
      "start": 45.0207,
      "duration": 0.1989,
      "velocity": 122,
      "chip": "ym2612"
    },
    {
      "channel": 5,
      "note": 97,
      "start": 45.084,
      "duration": 0.2993,
      "velocity": 106,
      "chip": "ym2612"
    },
    {
      "channel": 0,
      "note": 96,
      "start": 45.1156,
      "duration": 0.2994,
      "velocity": 112,
      "chip": "ym2612"
    },
    {
      "channel": 3,
      "note": 66,
      "start": 45.1168,
      "duration": 0.0993,
      "velocity": 109,
      "chip": "ym2612"
    },
    {
      "channel": 3,
      "note": 54,
      "start": 45.2168,
      "duration": 0.1996,
      "velocity": 109,
      "chip": "ym2612"
    },
    {
      "channel": 4,
      "note": 49,
      "start": 45.2201,
      "duration": 0.1995,
      "velocity": 111,
      "chip": "ym2612"
    },
    {
      "channel": 1,
      "note": 82,
      "start": 45.3158,
      "duration": 0.0999,
      "velocity": 97,
      "chip": "ym2612"
    },
    {
      "channel": 2,
      "note": 78,
      "start": 45.3165,
      "duration": 0.0996,
      "velocity": 97,
      "chip": "ym2612"
    },
    {
      "channel": 5,
      "note": 96,
      "start": 45.384,
      "duration": 0.2994,
      "velocity": 106,
      "chip": "ym2612"
    },
    {
      "channel": 0,
      "note": 94,
      "start": 45.4156,
      "duration": 0.1994,
      "velocity": 112,
      "chip": "ym2612"
    },
    {
      "channel": 3,
      "note": 66,
      "start": 45.4171,
      "duration": 0.0984,
      "velocity": 109,
      "chip": "ym2612"
    },
    {
      "channel": 4,
      "note": 95,
      "start": 45.4202,
      "duration": 0.2005,
      "velocity": 127,
      "chip": "ym2612"
    },
    {
      "channel": 3,
      "note": 66,
      "start": 45.5159,
      "duration": 0.1013,
      "velocity": 109,
      "chip": "ym2612"
    },
    {
      "channel": 0,
      "note": 94,
      "start": 45.6154,
      "duration": 0.2996,
      "velocity": 112,
      "chip": "ym2612"
    },
    {
      "channel": 1,
      "note": 82,
      "start": 45.6162,
      "duration": 0.2995,
      "velocity": 97,
      "chip": "ym2612"
    },
    {
      "channel": 2,
      "note": 78,
      "start": 45.617,
      "duration": 0.2994,
      "velocity": 97,
      "chip": "ym2612"
    },
    {
      "channel": 3,
      "note": 54,
      "start": 45.6179,
      "duration": 0.1983,
      "velocity": 109,
      "chip": "ym2612"
    },
    {
      "channel": 4,
      "note": 53,
      "start": 45.6214,
      "duration": 0.198,
      "velocity": 111,
      "chip": "ym2612"
    },
    {
      "channel": 5,
      "note": 94,
      "start": 45.684,
      "duration": 0.1995,
      "velocity": 106,
      "chip": "ym2612"
    },
    {
      "channel": 3,
      "note": 66,
      "start": 45.8168,
      "duration": 0.1001,
      "velocity": 109,
      "chip": "ym2612"
    },
    {
      "channel": 4,
      "note": 95,
      "start": 45.82,
      "duration": 0.1994,
      "velocity": 122,
      "chip": "ym2612"
    },
    {
      "channel": 5,
      "note": 94,
      "start": 45.884,
      "duration": 0.2988,
      "velocity": 106,
      "chip": "ym2612"
    },
    {
      "channel": 0,
      "note": 96,
      "start": 45.9156,
      "duration": 0.2994,
      "velocity": 112,
      "chip": "ym2612"
    },
    {
      "channel": 1,
      "note": 82,
      "start": 45.9162,
      "duration": 0.0991,
      "velocity": 97,
      "chip": "ym2612"
    },
    {
      "channel": 2,
      "note": 78,
      "start": 45.9168,
      "duration": 0.0987,
      "velocity": 97,
      "chip": "ym2612"
    },
    {
      "channel": 3,
      "note": 66,
      "start": 45.9175,
      "duration": 0.0985,
      "velocity": 109,
      "chip": "ym2612"
    },
    {
      "channel": 3,
      "note": 54,
      "start": 46.0166,
      "duration": 0.2008,
      "velocity": 109,
      "chip": "ym2612"
    },
    {
      "channel": 4,
      "note": 49,
      "start": 46.0199,
      "duration": 0.2006,
      "velocity": 111,
      "chip": "ym2612"
    },
    {
      "channel": 5,
      "note": 96,
      "start": 46.1834,
      "duration": 0.2994,
      "velocity": 106,
      "chip": "ym2612"
    },
    {
      "channel": 0,
      "note": 97,
      "start": 46.2156,
      "duration": 0.1994,
      "velocity": 112,
      "chip": "ym2612"
    },
    {
      "channel": 1,
      "note": 82,
      "start": 46.2164,
      "duration": 0.1996,
      "velocity": 97,
      "chip": "ym2612"
    },
    {
      "channel": 2,
      "note": 78,
      "start": 46.2172,
      "duration": 0.1993,
      "velocity": 97,
      "chip": "ym2612"
    },
    {
      "channel": 3,
      "note": 66,
      "start": 46.218,
      "duration": 0.0979,
      "velocity": 109,
      "chip": "ym2612"
    },
    {
      "channel": 4,
      "note": 95,
      "start": 46.2211,
      "duration": 0.1992,
      "velocity": 127,
      "chip": "ym2612"
    },
    {
      "channel": 3,
      "note": 66,
      "start": 46.3164,
      "duration": 0.1005,
      "velocity": 109,
      "chip": "ym2612"
    },
    {
      "channel": 0,
      "note": 99,
      "start": 46.4156,
      "duration": 0.2994,
      "velocity": 112,
      "chip": "ym2612"
    },
    {
      "channel": 3,
      "note": 51,
      "start": 46.4175,
      "duration": 0.1994,
      "velocity": 109,
      "chip": "ym2612"
    },
    {
      "channel": 4,
      "note": 53,
      "start": 46.421,
      "duration": 0.199,
      "velocity": 111,
      "chip": "ym2612"
    },
    {
      "channel": 5,
      "note": 97,
      "start": 46.4834,
      "duration": 0.1998,
      "velocity": 106,
      "chip": "ym2612"
    },
    {
      "channel": 1,
      "note": 82,
      "start": 46.616,
      "duration": 0.2994,
      "velocity": 97,
      "chip": "ym2612"
    },
    {
      "channel": 2,
      "note": 78,
      "start": 46.6168,
      "duration": 0.2992,
      "velocity": 97,
      "chip": "ym2612"
    },
    {
      "channel": 3,
      "note": 63,
      "start": 46.6176,
      "duration": 0.0988,
      "velocity": 109,
      "chip": "ym2612"
    },
    {
      "channel": 4,
      "note": 95,
      "start": 46.6207,
      "duration": 0.1989,
      "velocity": 122,
      "chip": "ym2612"
    },
    {
      "channel": 5,
      "note": 99,
      "start": 46.684,
      "duration": 0.2993,
      "velocity": 106,
      "chip": "ym2612"
    },
    {
      "channel": 0,
      "note": 97,
      "start": 46.7156,
      "duration": 0.2994,
      "velocity": 112,
      "chip": "ym2612"
    },
    {
      "channel": 3,
      "note": 63,
      "start": 46.7168,
      "duration": 0.0993,
      "velocity": 109,
      "chip": "ym2612"
    },
    {
      "channel": 3,
      "note": 51,
      "start": 46.8168,
      "duration": 0.1996,
      "velocity": 109,
      "chip": "ym2612"
    },
    {
      "channel": 4,
      "note": 49,
      "start": 46.8201,
      "duration": 0.1995,
      "velocity": 111,
      "chip": "ym2612"
    },
    {
      "channel": 1,
      "note": 82,
      "start": 46.9158,
      "duration": 0.0999,
      "velocity": 97,
      "chip": "ym2612"
    },
    {
      "channel": 2,
      "note": 78,
      "start": 46.9165,
      "duration": 0.0996,
      "velocity": 97,
      "chip": "ym2612"
    },
    {
      "channel": 5,
      "note": 97,
      "start": 46.984,
      "duration": 0.2994,
      "velocity": 106,
      "chip": "ym2612"
    },
    {
      "channel": 0,
      "note": 96,
      "start": 47.0156,
      "duration": 0.1994,
      "velocity": 112,
      "chip": "ym2612"
    },
    {
      "channel": 3,
      "note": 63,
      "start": 47.0171,
      "duration": 0.0984,
      "velocity": 109,
      "chip": "ym2612"
    },
    {
      "channel": 4,
      "note": 95,
      "start": 47.0202,
      "duration": 0.2005,
      "velocity": 127,
      "chip": "ym2612"
    },
    {
      "channel": 3,
      "note": 63,
      "start": 47.1159,
      "duration": 0.1013,
      "velocity": 109,
      "chip": "ym2612"
    },
    {
      "channel": 0,
      "note": 96,
      "start": 47.2154,
      "duration": 0.2996,
      "velocity": 112,
      "chip": "ym2612"
    },
    {
      "channel": 1,
      "note": 82,
      "start": 47.2162,
      "duration": 0.2995,
      "velocity": 97,
      "chip": "ym2612"
    },
    {
      "channel": 2,
      "note": 78,
      "start": 47.217,
      "duration": 0.2994,
      "velocity": 97,
      "chip": "ym2612"
    },
    {
      "channel": 3,
      "note": 51,
      "start": 47.2179,
      "duration": 0.1983,
      "velocity": 109,
      "chip": "ym2612"
    },
    {
      "channel": 4,
      "note": 53,
      "start": 47.2214,
      "duration": 0.198,
      "velocity": 111,
      "chip": "ym2612"
    },
    {
      "channel": 5,
      "note": 96,
      "start": 47.284,
      "duration": 0.1995,
      "velocity": 106,
      "chip": "ym2612"
    },
    {
      "channel": 3,
      "note": 63,
      "start": 47.4168,
      "duration": 0.1001,
      "velocity": 109,
      "chip": "ym2612"
    },
    {
      "channel": 4,
      "note": 95,
      "start": 47.42,
      "duration": 0.1994,
      "velocity": 122,
      "chip": "ym2612"
    },
    {
      "channel": 5,
      "note": 96,
      "start": 47.484,
      "duration": 0.2988,
      "velocity": 106,
      "chip": "ym2612"
    },
    {
      "channel": 0,
      "note": 97,
      "start": 47.5156,
      "duration": 0.2994,
      "velocity": 112,
      "chip": "ym2612"
    },
    {
      "channel": 1,
      "note": 82,
      "start": 47.5162,
      "duration": 0.0991,
      "velocity": 97,
      "chip": "ym2612"
    },
    {
      "channel": 2,
      "note": 78,
      "start": 47.5168,
      "duration": 0.0987,
      "velocity": 97,
      "chip": "ym2612"
    },
    {
      "channel": 3,
      "note": 63,
      "start": 47.5175,
      "duration": 0.0985,
      "velocity": 109,
      "chip": "ym2612"
    },
    {
      "channel": 3,
      "note": 51,
      "start": 47.6166,
      "duration": 0.2008,
      "velocity": 109,
      "chip": "ym2612"
    },
    {
      "channel": 4,
      "note": 49,
      "start": 47.6199,
      "duration": 0.2006,
      "velocity": 111,
      "chip": "ym2612"
    },
    {
      "channel": 5,
      "note": 97,
      "start": 47.7834,
      "duration": 0.2994,
      "velocity": 106,
      "chip": "ym2612"
    },
    {
      "channel": 0,
      "note": 99,
      "start": 47.8156,
      "duration": 0.1994,
      "velocity": 112,
      "chip": "ym2612"
    },
    {
      "channel": 1,
      "note": 82,
      "start": 47.8164,
      "duration": 0.1994,
      "velocity": 97,
      "chip": "ym2612"
    },
    {
      "channel": 2,
      "note": 78,
      "start": 47.8172,
      "duration": 0.1992,
      "velocity": 97,
      "chip": "ym2612"
    },
    {
      "channel": 3,
      "note": 63,
      "start": 47.818,
      "duration": 0.0979,
      "velocity": 109,
      "chip": "ym2612"
    },
    {
      "channel": 4,
      "note": 95,
      "start": 47.8211,
      "duration": 0.1993,
      "velocity": 127,
      "chip": "ym2612"
    },
    {
      "channel": 3,
      "note": 63,
      "start": 47.9164,
      "duration": 0.1005,
      "velocity": 109,
      "chip": "ym2612"
    },
    {
      "channel": 0,
      "note": 100,
      "start": 48.0156,
      "duration": 0.7994,
      "velocity": 112,
      "chip": "ym2612"
    },
    {
      "channel": 3,
      "note": 52,
      "start": 48.0176,
      "duration": 0.1994,
      "velocity": 109,
      "chip": "ym2612"
    },
    {
      "channel": 4,
      "note": 53,
      "start": 48.0211,
      "duration": 0.199,
      "velocity": 111,
      "chip": "ym2612"
    },
    {
      "channel": 5,
      "note": 99,
      "start": 48.0834,
      "duration": 0.1998,
      "velocity": 106,
      "chip": "ym2612"
    },
    {
      "channel": 1,
      "note": 83,
      "start": 48.216,
      "duration": 0.2994,
      "velocity": 97,
      "chip": "ym2612"
    },
    {
      "channel": 2,
      "note": 80,
      "start": 48.2168,
      "duration": 0.2992,
      "velocity": 97,
      "chip": "ym2612"
    },
    {
      "channel": 3,
      "note": 64,
      "start": 48.2176,
      "duration": 0.0985,
      "velocity": 109,
      "chip": "ym2612"
    },
    {
      "channel": 4,
      "note": 95,
      "start": 48.2207,
      "duration": 0.199,
      "velocity": 122,
      "chip": "ym2612"
    },
    {
      "channel": 5,
      "note": 100,
      "start": 48.284,
      "duration": 0.7995,
      "velocity": 106,
      "chip": "ym2612"
    },
    {
      "channel": 3,
      "note": 64,
      "start": 48.3165,
      "duration": 0.0998,
      "velocity": 109,
      "chip": "ym2612"
    },
    {
      "channel": 3,
      "note": 52,
      "start": 48.4169,
      "duration": 0.199,
      "velocity": 109,
      "chip": "ym2612"
    },
    {
      "channel": 4,
      "note": 49,
      "start": 48.4202,
      "duration": 0.1989,
      "velocity": 111,
      "chip": "ym2612"
    },
    {
      "channel": 1,
      "note": 83,
      "start": 48.5158,
      "duration": 0.0996,
      "velocity": 97,
      "chip": "ym2612"
    },
    {
      "channel": 2,
      "note": 80,
      "start": 48.5165,
      "duration": 0.0993,
      "velocity": 97,
      "chip": "ym2612"
    },
    {
      "channel": 3,
      "note": 64,
      "start": 48.6166,
      "duration": 0.0989,
      "velocity": 109,
      "chip": "ym2612"
    },
    {
      "channel": 4,
      "note": 95,
      "start": 48.6197,
      "duration": 0.201,
      "velocity": 127,
      "chip": "ym2612"
    },
    {
      "channel": 3,
      "note": 64,
      "start": 48.716,
      "duration": 0.1012,
      "velocity": 109,
      "chip": "ym2612"
    },
    {
      "channel": 0,
      "note": 100,
      "start": 48.8154,
      "duration": 0.2996,
      "velocity": 112,
      "chip": "ym2612"
    },
    {
      "channel": 1,
      "note": 83,
      "start": 48.8162,
      "duration": 0.2995,
      "velocity": 97,
      "chip": "ym2612"
    },
    {
      "channel": 2,
      "note": 80,
      "start": 48.817,
      "duration": 0.2994,
      "velocity": 97,
      "chip": "ym2612"
    },
    {
      "channel": 3,
      "note": 52,
      "start": 48.8179,
      "duration": 0.1983,
      "velocity": 109,
      "chip": "ym2612"
    },
    {
      "channel": 4,
      "note": 53,
      "start": 48.8214,
      "duration": 0.198,
      "velocity": 111,
      "chip": "ym2612"
    },
    {
      "channel": 3,
      "note": 64,
      "start": 49.0168,
      "duration": 0.1001,
      "velocity": 109,
      "chip": "ym2612"
    },
    {
      "channel": 4,
      "note": 95,
      "start": 49.02,
      "duration": 0.1994,
      "velocity": 122,
      "chip": "ym2612"
    },
    {
      "channel": 5,
      "note": 100,
      "start": 49.084,
      "duration": 0.2988,
      "velocity": 106,
      "chip": "ym2612"
    },
    {
      "channel": 0,
      "note": 107,
      "start": 49.1156,
      "duration": 0.2994,
      "velocity": 112,
      "chip": "ym2612"
    },
    {
      "channel": 1,
      "note": 83,
      "start": 49.1162,
      "duration": 0.0991,
      "velocity": 97,
      "chip": "ym2612"
    },
    {
      "channel": 2,
      "note": 80,
      "start": 49.1168,
      "duration": 0.0987,
      "velocity": 97,
      "chip": "ym2612"
    },
    {
      "channel": 3,
      "note": 64,
      "start": 49.1175,
      "duration": 0.0985,
      "velocity": 109,
      "chip": "ym2612"
    },
    {
      "channel": 3,
      "note": 52,
      "start": 49.2166,
      "duration": 0.2008,
      "velocity": 109,
      "chip": "ym2612"
    },
    {
      "channel": 4,
      "note": 49,
      "start": 49.2199,
      "duration": 0.2006,
      "velocity": 111,
      "chip": "ym2612"
    },
    {
      "channel": 5,
      "note": 107,
      "start": 49.3834,
      "duration": 0.2993,
      "velocity": 106,
      "chip": "ym2612"
    },
    {
      "channel": 0,
      "note": 105,
      "start": 49.4156,
      "duration": 0.1994,
      "velocity": 112,
      "chip": "ym2612"
    },
    {
      "channel": 1,
      "note": 83,
      "start": 49.4164,
      "duration": 0.1995,
      "velocity": 97,
      "chip": "ym2612"
    },
    {
      "channel": 2,
      "note": 80,
      "start": 49.4172,
      "duration": 0.1992,
      "velocity": 97,
      "chip": "ym2612"
    },
    {
      "channel": 3,
      "note": 64,
      "start": 49.418,
      "duration": 0.0979,
      "velocity": 109,
      "chip": "ym2612"
    },
    {
      "channel": 4,
      "note": 95,
      "start": 49.4211,
      "duration": 0.1994,
      "velocity": 122,
      "chip": "ym2612"
    },
    {
      "channel": 3,
      "note": 64,
      "start": 49.5164,
      "duration": 0.1005,
      "velocity": 109,
      "chip": "ym2612"
    },
    {
      "channel": 0,
      "note": 104,
      "start": 49.6156,
      "duration": 1.5995,
      "velocity": 112,
      "chip": "ym2612"
    },
    {
      "channel": 3,
      "note": 53,
      "start": 49.6176,
      "duration": 0.1994,
      "velocity": 109,
      "chip": "ym2612"
    },
    {
      "channel": 4,
      "note": 49,
      "start": 49.621,
      "duration": 0.0951,
      "velocity": 122,
      "chip": "ym2612"
    },
    {
      "channel": 5,
      "note": 105,
      "start": 49.6834,
      "duration": 0.1999,
      "velocity": 106,
      "chip": "ym2612"
    },
    {
      "channel": 4,
      "note": 49,
      "start": 49.7165,
      "duration": 0.1012,
      "velocity": 122,
      "chip": "ym2612"
    },
    {
      "channel": 1,
      "note": 84,
      "start": 49.816,
      "duration": 0.2994,
      "velocity": 97,
      "chip": "ym2612"
    },
    {
      "channel": 2,
      "note": 80,
      "start": 49.8168,
      "duration": 0.2992,
      "velocity": 97,
      "chip": "ym2612"
    },
    {
      "channel": 3,
      "note": 65,
      "start": 49.8176,
      "duration": 0.0985,
      "velocity": 109,
      "chip": "ym2612"
    },
    {
      "channel": 4,
      "note": 49,
      "start": 49.818,
      "duration": 0.0985,
      "velocity": 122,
      "chip": "ym2612"
    },
    {
      "channel": 5,
      "note": 104,
      "start": 49.884,
      "duration": 1.5995,
      "velocity": 106,
      "chip": "ym2612"
    },
    {
      "channel": 3,
      "note": 65,
      "start": 49.9165,
      "duration": 0.0998,
      "velocity": 109,
      "chip": "ym2612"
    },
    {
      "channel": 4,
      "note": 49,
      "start": 49.917,
      "duration": 0.103,
      "velocity": 122,
      "chip": "ym2612"
    },
    {
      "channel": 3,
      "note": 53,
      "start": 50.0169,
      "duration": 0.199,
      "velocity": 109,
      "chip": "ym2612"
    },
    {
      "channel": 4,
      "note": 49,
      "start": 50.0205,
      "duration": 0.0968,
      "velocity": 122,
      "chip": "ym2612"
    },
    {
      "channel": 1,
      "note": 84,
      "start": 50.1158,
      "duration": 0.0996,
      "velocity": 97,
      "chip": "ym2612"
    },
    {
      "channel": 2,
      "note": 80,
      "start": 50.1165,
      "duration": 0.0993,
      "velocity": 97,
      "chip": "ym2612"
    },
    {
      "channel": 4,
      "note": 49,
      "start": 50.1177,
      "duration": 0.099,
      "velocity": 122,
      "chip": "ym2612"
    },
    {
      "channel": 3,
      "note": 65,
      "start": 50.2166,
      "duration": 0.0989,
      "velocity": 109,
      "chip": "ym2612"
    },
    {
      "channel": 4,
      "note": 49,
      "start": 50.2171,
      "duration": 0.099,
      "velocity": 122,
      "chip": "ym2612"
    },
    {
      "channel": 3,
      "note": 65,
      "start": 50.316,
      "duration": 0.101,
      "velocity": 109,
      "chip": "ym2612"
    },
    {
      "channel": 4,
      "note": 49,
      "start": 50.3165,
      "duration": 0.1041,
      "velocity": 122,
      "chip": "ym2612"
    },
    {
      "channel": 1,
      "note": 84,
      "start": 50.416,
      "duration": 0.2994,
      "velocity": 97,
      "chip": "ym2612"
    },
    {
      "channel": 2,
      "note": 80,
      "start": 50.4168,
      "duration": 0.2992,
      "velocity": 97,
      "chip": "ym2612"
    },
    {
      "channel": 3,
      "note": 53,
      "start": 50.4176,
      "duration": 0.1986,
      "velocity": 109,
      "chip": "ym2612"
    },
    {
      "channel": 4,
      "note": 49,
      "start": 50.4212,
      "duration": 0.0955,
      "velocity": 122,
      "chip": "ym2612"
    },
    {
      "channel": 4,
      "note": 49,
      "start": 50.5171,
      "duration": 0.0999,
      "velocity": 122,
      "chip": "ym2612"
    },
    {
      "channel": 3,
      "note": 65,
      "start": 50.6168,
      "duration": 0.0998,
      "velocity": 109,
      "chip": "ym2612"
    },
    {
      "channel": 4,
      "note": 49,
      "start": 50.6174,
      "duration": 0.0999,
      "velocity": 122,
      "chip": "ym2612"
    },
    {
      "channel": 1,
      "note": 84,
      "start": 50.7158,
      "duration": 0.0996,
      "velocity": 97,
      "chip": "ym2612"
    },
    {
      "channel": 2,
      "note": 80,
      "start": 50.7165,
      "duration": 0.0993,
      "velocity": 97,
      "chip": "ym2612"
    },
    {
      "channel": 3,
      "note": 65,
      "start": 50.7171,
      "duration": 0.099,
      "velocity": 109,
      "chip": "ym2612"
    },
    {
      "channel": 4,
      "note": 49,
      "start": 50.7176,
      "duration": 0.1021,
      "velocity": 122,
      "chip": "ym2612"
    },
    {
      "channel": 3,
      "note": 53,
      "start": 50.8167,
      "duration": 0.2002,
      "velocity": 109,
      "chip": "ym2612"
    },
    {
      "channel": 4,
      "note": 49,
      "start": 50.8203,
      "duration": 0.0959,
      "velocity": 122,
      "chip": "ym2612"
    },
    {
      "channel": 4,
      "note": 49,
      "start": 50.9166,
      "duration": 0.1011,
      "velocity": 122,
      "chip": "ym2612"
    },
    {
      "channel": 1,
      "note": 84,
      "start": 51.016,
      "duration": 0.2002,
      "velocity": 97,
      "chip": "ym2612"
    },
    {
      "channel": 2,
      "note": 80,
      "start": 51.0168,
      "duration": 0.2001,
      "velocity": 97,
      "chip": "ym2612"
    },
    {
      "channel": 3,
      "note": 65,
      "start": 51.0176,
      "duration": 0.0985,
      "velocity": 109,
      "chip": "ym2612"
    },
    {
      "channel": 4,
      "note": 49,
      "start": 51.018,
      "duration": 0.0985,
      "velocity": 122,
      "chip": "ym2612"
    },
    {
      "channel": 3,
      "note": 65,
      "start": 51.1165,
      "duration": 0.1036,
      "velocity": 109,
      "chip": "ym2612"
    },
    {
      "channel": 4,
      "note": 49,
      "start": 51.117,
      "duration": 0.1071,
      "velocity": 127,
      "chip": "ym2612"
    },
    {
      "channel": 0,
      "note": 77,
      "start": 51.2158,
      "duration": 0.3772,
      "velocity": 112,
      "chip": "ym2612"
    },
    {
      "channel": 3,
      "note": 49,
      "start": 51.2207,
      "duration": 0.1963,
      "velocity": 109,
      "chip": "ym2612"
    },
    {
      "channel": 4,
      "note": 53,
      "start": 51.2247,
      "duration": 0.1954,
      "velocity": 111,
      "chip": "ym2612"
    },
    {
      "channel": 1,
      "note": 80,
      "start": 51.416,
      "duration": 0.1769,
      "velocity": 97,
      "chip": "ym2612"
    },
    {
      "channel": 2,
      "note": 77,
      "start": 51.4168,
      "duration": 0.1762,
      "velocity": 97,
      "chip": "ym2612"
    },
    {
      "channel": 3,
      "note": 61,
      "start": 51.4176,
      "duration": 0.0985,
      "velocity": 109,
      "chip": "ym2612"
    },
    {
      "channel": 4,
      "note": 95,
      "start": 51.4207,
      "duration": 0.1723,
      "velocity": 111,
      "chip": "ym2612"
    },
    {
      "channel": 5,
      "note": 77,
      "start": 51.4841,
      "duration": 0.1089,
      "velocity": 106,
      "chip": "ym2612"
    },
    {
      "channel": 3,
      "note": 61,
      "start": 51.5165,
      "duration": 0.0765,
      "velocity": 109,
      "chip": "ym2612"
    }
  ]
}